%TF.GenerationSoftware,KiCad,Pcbnew,8.0.1*%
%TF.CreationDate,2024-07-07T22:58:04+02:00*%
%TF.ProjectId,kicad8_atmega328_relay_module,6b696361-6438-45f6-9174-6d6567613332,rev?*%
%TF.SameCoordinates,Original*%
%TF.FileFunction,Soldermask,Top*%
%TF.FilePolarity,Negative*%
%FSLAX46Y46*%
G04 Gerber Fmt 4.6, Leading zero omitted, Abs format (unit mm)*
G04 Created by KiCad (PCBNEW 8.0.1) date 2024-07-07 22:58:04*
%MOMM*%
%LPD*%
G01*
G04 APERTURE LIST*
G04 Aperture macros list*
%AMRoundRect*
0 Rectangle with rounded corners*
0 $1 Rounding radius*
0 $2 $3 $4 $5 $6 $7 $8 $9 X,Y pos of 4 corners*
0 Add a 4 corners polygon primitive as box body*
4,1,4,$2,$3,$4,$5,$6,$7,$8,$9,$2,$3,0*
0 Add four circle primitives for the rounded corners*
1,1,$1+$1,$2,$3*
1,1,$1+$1,$4,$5*
1,1,$1+$1,$6,$7*
1,1,$1+$1,$8,$9*
0 Add four rect primitives between the rounded corners*
20,1,$1+$1,$2,$3,$4,$5,0*
20,1,$1+$1,$4,$5,$6,$7,0*
20,1,$1+$1,$6,$7,$8,$9,0*
20,1,$1+$1,$8,$9,$2,$3,0*%
G04 Aperture macros list end*
%ADD10RoundRect,0.250000X0.412500X0.650000X-0.412500X0.650000X-0.412500X-0.650000X0.412500X-0.650000X0*%
%ADD11C,1.500000*%
%ADD12R,1.600000X1.400000*%
%ADD13RoundRect,0.250000X-0.400000X-0.625000X0.400000X-0.625000X0.400000X0.625000X-0.400000X0.625000X0*%
%ADD14C,3.000000*%
%ADD15C,2.500000*%
%ADD16RoundRect,0.250000X0.400000X0.625000X-0.400000X0.625000X-0.400000X-0.625000X0.400000X-0.625000X0*%
%ADD17RoundRect,0.250000X1.250000X0.550000X-1.250000X0.550000X-1.250000X-0.550000X1.250000X-0.550000X0*%
%ADD18RoundRect,0.150000X-0.825000X-0.150000X0.825000X-0.150000X0.825000X0.150000X-0.825000X0.150000X0*%
%ADD19RoundRect,0.250001X0.624999X-0.462499X0.624999X0.462499X-0.624999X0.462499X-0.624999X-0.462499X0*%
%ADD20RoundRect,0.250000X0.650000X-0.412500X0.650000X0.412500X-0.650000X0.412500X-0.650000X-0.412500X0*%
%ADD21RoundRect,0.250000X0.600000X0.600000X-0.600000X0.600000X-0.600000X-0.600000X0.600000X-0.600000X0*%
%ADD22C,1.700000*%
%ADD23R,1.600000X0.550000*%
%ADD24R,0.550000X1.600000*%
%ADD25R,2.200000X2.200000*%
%ADD26O,2.200000X2.200000*%
%ADD27R,1.500000X1.050000*%
%ADD28O,1.500000X1.050000*%
%ADD29C,0.650000*%
%ADD30RoundRect,0.150000X-0.425000X0.150000X-0.425000X-0.150000X0.425000X-0.150000X0.425000X0.150000X0*%
%ADD31RoundRect,0.075000X-0.500000X0.075000X-0.500000X-0.075000X0.500000X-0.075000X0.500000X0.075000X0*%
%ADD32RoundRect,0.250000X-0.750000X0.840000X-0.750000X-0.840000X0.750000X-0.840000X0.750000X0.840000X0*%
%ADD33RoundRect,0.375000X0.625000X0.375000X-0.625000X0.375000X-0.625000X-0.375000X0.625000X-0.375000X0*%
%ADD34RoundRect,0.500000X0.500000X1.400000X-0.500000X1.400000X-0.500000X-1.400000X0.500000X-1.400000X0*%
%ADD35RoundRect,0.250000X-0.650000X0.412500X-0.650000X-0.412500X0.650000X-0.412500X0.650000X0.412500X0*%
%ADD36RoundRect,0.250001X0.462499X0.624999X-0.462499X0.624999X-0.462499X-0.624999X0.462499X-0.624999X0*%
%ADD37RoundRect,0.250001X-0.462499X-0.624999X0.462499X-0.624999X0.462499X0.624999X-0.462499X0.624999X0*%
%ADD38O,1.700000X1.700000*%
%ADD39R,3.000000X2.000000*%
%ADD40O,3.000000X2.000000*%
%ADD41RoundRect,0.250001X-0.624999X0.462499X-0.624999X-0.462499X0.624999X-0.462499X0.624999X0.462499X0*%
%ADD42R,1.750000X0.450000*%
%ADD43RoundRect,0.250000X0.625000X-0.400000X0.625000X0.400000X-0.625000X0.400000X-0.625000X-0.400000X0*%
G04 APERTURE END LIST*
D10*
%TO.C,C5*%
X106962500Y-54500000D03*
X103837500Y-54500000D03*
%TD*%
D11*
%TO.C,Y1*%
X104500000Y-71050000D03*
X104500000Y-75930000D03*
%TD*%
D12*
%TO.C,SW1*%
X97000000Y-100100000D03*
X89000000Y-100100000D03*
X97000000Y-95600000D03*
X89000000Y-95600000D03*
%TD*%
D13*
%TO.C,R4*%
X88150000Y-82200000D03*
X91250000Y-82200000D03*
%TD*%
D14*
%TO.C,K1*%
X78750000Y-38050000D03*
D15*
X80700000Y-44100000D03*
D14*
X92900000Y-44100000D03*
X92950000Y-32050000D03*
D15*
X80700000Y-32100000D03*
%TD*%
D16*
%TO.C,R13*%
X91250000Y-79750000D03*
X88150000Y-79750000D03*
%TD*%
D13*
%TO.C,R10*%
X103650000Y-46250000D03*
X106750000Y-46250000D03*
%TD*%
D17*
%TO.C,C2*%
X73350000Y-93650000D03*
X68950000Y-93650000D03*
%TD*%
D18*
%TO.C,U5*%
X92125000Y-73395000D03*
X92125000Y-74665000D03*
X92125000Y-75935000D03*
X92125000Y-77205000D03*
X97075000Y-77205000D03*
X97075000Y-75935000D03*
X97075000Y-74665000D03*
X97075000Y-73395000D03*
%TD*%
D13*
%TO.C,R1*%
X94250000Y-87150000D03*
X97350000Y-87150000D03*
%TD*%
D19*
%TO.C,D5*%
X108900000Y-41437500D03*
X108900000Y-38462500D03*
%TD*%
D20*
%TO.C,C8*%
X109000000Y-77690000D03*
X109000000Y-74565000D03*
%TD*%
D21*
%TO.C,J1*%
X106750000Y-90640000D03*
D22*
X104210000Y-90640000D03*
X106750000Y-88100000D03*
X104210000Y-88100000D03*
X106750000Y-85560000D03*
X104210000Y-85560000D03*
%TD*%
D23*
%TO.C,U1*%
X100550000Y-59010000D03*
X100550000Y-59810000D03*
X100550000Y-60610000D03*
X100550000Y-61410000D03*
X100550000Y-62210000D03*
X100550000Y-63010000D03*
X100550000Y-63810000D03*
X100550000Y-64610000D03*
D24*
X102000000Y-66060000D03*
X102800000Y-66060000D03*
X103600000Y-66060000D03*
X104400000Y-66060000D03*
X105200000Y-66060000D03*
X106000000Y-66060000D03*
X106800000Y-66060000D03*
X107600000Y-66060000D03*
D23*
X109050000Y-64610000D03*
X109050000Y-63810000D03*
X109050000Y-63010000D03*
X109050000Y-62210000D03*
X109050000Y-61410000D03*
X109050000Y-60610000D03*
X109050000Y-59810000D03*
X109050000Y-59010000D03*
D24*
X107600000Y-57560000D03*
X106800000Y-57560000D03*
X106000000Y-57560000D03*
X105200000Y-57560000D03*
X104400000Y-57560000D03*
X103600000Y-57560000D03*
X102800000Y-57560000D03*
X102000000Y-57560000D03*
%TD*%
D16*
%TO.C,R9*%
X72700000Y-100550000D03*
X69600000Y-100550000D03*
%TD*%
D13*
%TO.C,R5*%
X94300000Y-82200000D03*
X97400000Y-82200000D03*
%TD*%
D25*
%TO.C,D3*%
X100750000Y-35750000D03*
D26*
X100750000Y-43370000D03*
%TD*%
D27*
%TO.C,Q2*%
X105650000Y-51830000D03*
D28*
X105650000Y-50560000D03*
X105650000Y-49290000D03*
%TD*%
D10*
%TO.C,C1*%
X91212500Y-84750000D03*
X88087500Y-84750000D03*
%TD*%
D29*
%TO.C,J3*%
X63165000Y-93110000D03*
X63165000Y-98890000D03*
D30*
X64240000Y-92800000D03*
X64240000Y-93600000D03*
D31*
X64240000Y-94750000D03*
X64240000Y-95750000D03*
X64240000Y-96250000D03*
X64240000Y-97250000D03*
D30*
X64240000Y-98400000D03*
X64240000Y-99200000D03*
X64240000Y-99200000D03*
X64240000Y-98400000D03*
D31*
X64240000Y-97750000D03*
X64240000Y-96750000D03*
X64240000Y-95250000D03*
X64240000Y-94250000D03*
D30*
X64240000Y-93600000D03*
X64240000Y-92800000D03*
D32*
X63665000Y-90890000D03*
X59735000Y-90890000D03*
X63665000Y-101110000D03*
X59735000Y-101110000D03*
%TD*%
D10*
%TO.C,C4*%
X97362500Y-84750000D03*
X94237500Y-84750000D03*
%TD*%
D16*
%TO.C,R2*%
X97350000Y-89550000D03*
X94250000Y-89550000D03*
%TD*%
D10*
%TO.C,C6*%
X91212500Y-87200000D03*
X88087500Y-87200000D03*
%TD*%
D33*
%TO.C,U3*%
X93850000Y-70700000D03*
X93850000Y-68400000D03*
D34*
X87550000Y-68400000D03*
D33*
X93850000Y-66100000D03*
%TD*%
D35*
%TO.C,C7*%
X109000000Y-69565000D03*
X109000000Y-72690000D03*
%TD*%
D16*
%TO.C,R8*%
X72700000Y-97950000D03*
X69600000Y-97950000D03*
%TD*%
D36*
%TO.C,D1*%
X97287500Y-91950000D03*
X94312500Y-91950000D03*
%TD*%
D13*
%TO.C,R7*%
X103650000Y-43950000D03*
X106750000Y-43950000D03*
%TD*%
%TO.C,R12*%
X94300000Y-79750000D03*
X97400000Y-79750000D03*
%TD*%
D25*
%TO.C,D4*%
X100750000Y-46690000D03*
D26*
X100750000Y-54310000D03*
%TD*%
D37*
%TO.C,D2*%
X88162500Y-91950000D03*
X91137500Y-91950000D03*
%TD*%
D14*
%TO.C,K2*%
X78750000Y-54450000D03*
D15*
X80700000Y-60500000D03*
D14*
X92900000Y-60500000D03*
X92950000Y-48450000D03*
D15*
X80700000Y-48500000D03*
%TD*%
D38*
%TO.C,U4*%
X65100000Y-87400000D03*
X67640000Y-87400000D03*
X70180000Y-87400000D03*
X72720000Y-87400000D03*
X75260000Y-87400000D03*
X77800000Y-87400000D03*
X65100000Y-67080000D03*
X67640000Y-67080000D03*
X70180000Y-67080000D03*
X72720000Y-67080000D03*
X75260000Y-67080000D03*
X77800000Y-67080000D03*
%TD*%
D27*
%TO.C,Q1*%
X105650000Y-41250000D03*
D28*
X105650000Y-39980000D03*
X105650000Y-38710000D03*
%TD*%
D35*
%TO.C,C3*%
X97500000Y-67187500D03*
X97500000Y-70312500D03*
%TD*%
D39*
%TO.C,J4*%
X65400000Y-33400000D03*
X70400000Y-35900000D03*
D40*
X65400000Y-38400000D03*
X70400000Y-40900000D03*
X65400000Y-43400000D03*
X70400000Y-45900000D03*
X65400000Y-48400000D03*
X70400000Y-50900000D03*
X65400000Y-53400000D03*
X70400000Y-55900000D03*
X65400000Y-58400000D03*
X70400000Y-60900000D03*
%TD*%
D41*
%TO.C,D6*%
X108900000Y-49312500D03*
X108900000Y-52287500D03*
%TD*%
D13*
%TO.C,R6*%
X99200000Y-32500000D03*
X102300000Y-32500000D03*
%TD*%
D16*
%TO.C,R3*%
X91150000Y-89600000D03*
X88050000Y-89600000D03*
%TD*%
D42*
%TO.C,U2*%
X77250000Y-92075000D03*
X77250000Y-92725000D03*
X77250000Y-93375000D03*
X77250000Y-94025000D03*
X77250000Y-94675000D03*
X77250000Y-95325000D03*
X77250000Y-95975000D03*
X77250000Y-96625000D03*
X77250000Y-97275000D03*
X77250000Y-97925000D03*
X77250000Y-98575000D03*
X77250000Y-99225000D03*
X77250000Y-99875000D03*
X77250000Y-100525000D03*
X84450000Y-100525000D03*
X84450000Y-99875000D03*
X84450000Y-99225000D03*
X84450000Y-98575000D03*
X84450000Y-97925000D03*
X84450000Y-97275000D03*
X84450000Y-96625000D03*
X84450000Y-95975000D03*
X84450000Y-95325000D03*
X84450000Y-94675000D03*
X84450000Y-94025000D03*
X84450000Y-93375000D03*
X84450000Y-92725000D03*
X84450000Y-92075000D03*
%TD*%
D43*
%TO.C,R11*%
X108950000Y-46950000D03*
X108950000Y-43850000D03*
%TD*%
M02*
