%TF.GenerationSoftware,KiCad,Pcbnew,8.0.1*%
%TF.CreationDate,2024-07-07T22:58:04+02:00*%
%TF.ProjectId,kicad8_atmega328_relay_module,6b696361-6438-45f6-9174-6d6567613332,rev?*%
%TF.SameCoordinates,Original*%
%TF.FileFunction,Legend,Top*%
%TF.FilePolarity,Positive*%
%FSLAX46Y46*%
G04 Gerber Fmt 4.6, Leading zero omitted, Abs format (unit mm)*
G04 Created by KiCad (PCBNEW 8.0.1) date 2024-07-07 22:58:04*
%MOMM*%
%LPD*%
G01*
G04 APERTURE LIST*
G04 Aperture macros list*
%AMRoundRect*
0 Rectangle with rounded corners*
0 $1 Rounding radius*
0 $2 $3 $4 $5 $6 $7 $8 $9 X,Y pos of 4 corners*
0 Add a 4 corners polygon primitive as box body*
4,1,4,$2,$3,$4,$5,$6,$7,$8,$9,$2,$3,0*
0 Add four circle primitives for the rounded corners*
1,1,$1+$1,$2,$3*
1,1,$1+$1,$4,$5*
1,1,$1+$1,$6,$7*
1,1,$1+$1,$8,$9*
0 Add four rect primitives between the rounded corners*
20,1,$1+$1,$2,$3,$4,$5,0*
20,1,$1+$1,$4,$5,$6,$7,0*
20,1,$1+$1,$6,$7,$8,$9,0*
20,1,$1+$1,$8,$9,$2,$3,0*%
G04 Aperture macros list end*
%ADD10C,0.150000*%
%ADD11C,0.300000*%
%ADD12C,0.100000*%
%ADD13C,0.120000*%
%ADD14RoundRect,0.250000X0.412500X0.650000X-0.412500X0.650000X-0.412500X-0.650000X0.412500X-0.650000X0*%
%ADD15C,1.500000*%
%ADD16R,1.600000X1.400000*%
%ADD17RoundRect,0.250000X-0.400000X-0.625000X0.400000X-0.625000X0.400000X0.625000X-0.400000X0.625000X0*%
%ADD18C,3.000000*%
%ADD19C,2.500000*%
%ADD20RoundRect,0.250000X0.400000X0.625000X-0.400000X0.625000X-0.400000X-0.625000X0.400000X-0.625000X0*%
%ADD21RoundRect,0.250000X1.250000X0.550000X-1.250000X0.550000X-1.250000X-0.550000X1.250000X-0.550000X0*%
%ADD22RoundRect,0.150000X-0.825000X-0.150000X0.825000X-0.150000X0.825000X0.150000X-0.825000X0.150000X0*%
%ADD23RoundRect,0.250001X0.624999X-0.462499X0.624999X0.462499X-0.624999X0.462499X-0.624999X-0.462499X0*%
%ADD24RoundRect,0.250000X0.650000X-0.412500X0.650000X0.412500X-0.650000X0.412500X-0.650000X-0.412500X0*%
%ADD25RoundRect,0.250000X0.600000X0.600000X-0.600000X0.600000X-0.600000X-0.600000X0.600000X-0.600000X0*%
%ADD26C,1.700000*%
%ADD27R,1.600000X0.550000*%
%ADD28R,0.550000X1.600000*%
%ADD29R,2.200000X2.200000*%
%ADD30O,2.200000X2.200000*%
%ADD31R,1.500000X1.050000*%
%ADD32O,1.500000X1.050000*%
%ADD33C,0.650000*%
%ADD34RoundRect,0.150000X-0.425000X0.150000X-0.425000X-0.150000X0.425000X-0.150000X0.425000X0.150000X0*%
%ADD35RoundRect,0.075000X-0.500000X0.075000X-0.500000X-0.075000X0.500000X-0.075000X0.500000X0.075000X0*%
%ADD36RoundRect,0.250000X-0.750000X0.840000X-0.750000X-0.840000X0.750000X-0.840000X0.750000X0.840000X0*%
%ADD37RoundRect,0.375000X0.625000X0.375000X-0.625000X0.375000X-0.625000X-0.375000X0.625000X-0.375000X0*%
%ADD38RoundRect,0.500000X0.500000X1.400000X-0.500000X1.400000X-0.500000X-1.400000X0.500000X-1.400000X0*%
%ADD39RoundRect,0.250000X-0.650000X0.412500X-0.650000X-0.412500X0.650000X-0.412500X0.650000X0.412500X0*%
%ADD40RoundRect,0.250001X0.462499X0.624999X-0.462499X0.624999X-0.462499X-0.624999X0.462499X-0.624999X0*%
%ADD41RoundRect,0.250001X-0.462499X-0.624999X0.462499X-0.624999X0.462499X0.624999X-0.462499X0.624999X0*%
%ADD42O,1.700000X1.700000*%
%ADD43R,3.000000X2.000000*%
%ADD44O,3.000000X2.000000*%
%ADD45RoundRect,0.250001X-0.624999X0.462499X-0.624999X-0.462499X0.624999X-0.462499X0.624999X0.462499X0*%
%ADD46R,1.750000X0.450000*%
%ADD47RoundRect,0.250000X0.625000X-0.400000X0.625000X0.400000X-0.625000X0.400000X-0.625000X-0.400000X0*%
G04 APERTURE END LIST*
D10*
X102586779Y-97419819D02*
X102586779Y-96419819D01*
X103015350Y-97372200D02*
X103158207Y-97419819D01*
X103158207Y-97419819D02*
X103396302Y-97419819D01*
X103396302Y-97419819D02*
X103491540Y-97372200D01*
X103491540Y-97372200D02*
X103539159Y-97324580D01*
X103539159Y-97324580D02*
X103586778Y-97229342D01*
X103586778Y-97229342D02*
X103586778Y-97134104D01*
X103586778Y-97134104D02*
X103539159Y-97038866D01*
X103539159Y-97038866D02*
X103491540Y-96991247D01*
X103491540Y-96991247D02*
X103396302Y-96943628D01*
X103396302Y-96943628D02*
X103205826Y-96896009D01*
X103205826Y-96896009D02*
X103110588Y-96848390D01*
X103110588Y-96848390D02*
X103062969Y-96800771D01*
X103062969Y-96800771D02*
X103015350Y-96705533D01*
X103015350Y-96705533D02*
X103015350Y-96610295D01*
X103015350Y-96610295D02*
X103062969Y-96515057D01*
X103062969Y-96515057D02*
X103110588Y-96467438D01*
X103110588Y-96467438D02*
X103205826Y-96419819D01*
X103205826Y-96419819D02*
X103443921Y-96419819D01*
X103443921Y-96419819D02*
X103586778Y-96467438D01*
X104015350Y-97419819D02*
X104015350Y-96419819D01*
X104015350Y-96419819D02*
X104396302Y-96419819D01*
X104396302Y-96419819D02*
X104491540Y-96467438D01*
X104491540Y-96467438D02*
X104539159Y-96515057D01*
X104539159Y-96515057D02*
X104586778Y-96610295D01*
X104586778Y-96610295D02*
X104586778Y-96753152D01*
X104586778Y-96753152D02*
X104539159Y-96848390D01*
X104539159Y-96848390D02*
X104491540Y-96896009D01*
X104491540Y-96896009D02*
X104396302Y-96943628D01*
X104396302Y-96943628D02*
X104015350Y-96943628D01*
X100998390Y-73720363D02*
X100950771Y-73815601D01*
X100950771Y-73815601D02*
X100903152Y-73863220D01*
X100903152Y-73863220D02*
X100807914Y-73910839D01*
X100807914Y-73910839D02*
X100760295Y-73910839D01*
X100760295Y-73910839D02*
X100665057Y-73863220D01*
X100665057Y-73863220D02*
X100617438Y-73815601D01*
X100617438Y-73815601D02*
X100569819Y-73720363D01*
X100569819Y-73720363D02*
X100569819Y-73529887D01*
X100569819Y-73529887D02*
X100617438Y-73434649D01*
X100617438Y-73434649D02*
X100665057Y-73387030D01*
X100665057Y-73387030D02*
X100760295Y-73339411D01*
X100760295Y-73339411D02*
X100807914Y-73339411D01*
X100807914Y-73339411D02*
X100903152Y-73387030D01*
X100903152Y-73387030D02*
X100950771Y-73434649D01*
X100950771Y-73434649D02*
X100998390Y-73529887D01*
X100998390Y-73529887D02*
X100998390Y-73720363D01*
X100998390Y-73720363D02*
X101046009Y-73815601D01*
X101046009Y-73815601D02*
X101093628Y-73863220D01*
X101093628Y-73863220D02*
X101188866Y-73910839D01*
X101188866Y-73910839D02*
X101379342Y-73910839D01*
X101379342Y-73910839D02*
X101474580Y-73863220D01*
X101474580Y-73863220D02*
X101522200Y-73815601D01*
X101522200Y-73815601D02*
X101569819Y-73720363D01*
X101569819Y-73720363D02*
X101569819Y-73529887D01*
X101569819Y-73529887D02*
X101522200Y-73434649D01*
X101522200Y-73434649D02*
X101474580Y-73387030D01*
X101474580Y-73387030D02*
X101379342Y-73339411D01*
X101379342Y-73339411D02*
X101188866Y-73339411D01*
X101188866Y-73339411D02*
X101093628Y-73387030D01*
X101093628Y-73387030D02*
X101046009Y-73434649D01*
X101046009Y-73434649D02*
X100998390Y-73529887D01*
X101569819Y-72910839D02*
X100569819Y-72910839D01*
X100569819Y-72910839D02*
X101284104Y-72577506D01*
X101284104Y-72577506D02*
X100569819Y-72244173D01*
X100569819Y-72244173D02*
X101569819Y-72244173D01*
X101569819Y-71767982D02*
X100569819Y-71767982D01*
X101569819Y-71339411D02*
X101046009Y-71339411D01*
X101046009Y-71339411D02*
X100950771Y-71387030D01*
X100950771Y-71387030D02*
X100903152Y-71482268D01*
X100903152Y-71482268D02*
X100903152Y-71625125D01*
X100903152Y-71625125D02*
X100950771Y-71720363D01*
X100950771Y-71720363D02*
X100998390Y-71767982D01*
X100903152Y-70958458D02*
X100903152Y-70434649D01*
X100903152Y-70434649D02*
X101569819Y-70958458D01*
X101569819Y-70958458D02*
X101569819Y-70434649D01*
X111219819Y-41491792D02*
X110743628Y-41825125D01*
X111219819Y-42063220D02*
X110219819Y-42063220D01*
X110219819Y-42063220D02*
X110219819Y-41682268D01*
X110219819Y-41682268D02*
X110267438Y-41587030D01*
X110267438Y-41587030D02*
X110315057Y-41539411D01*
X110315057Y-41539411D02*
X110410295Y-41491792D01*
X110410295Y-41491792D02*
X110553152Y-41491792D01*
X110553152Y-41491792D02*
X110648390Y-41539411D01*
X110648390Y-41539411D02*
X110696009Y-41587030D01*
X110696009Y-41587030D02*
X110743628Y-41682268D01*
X110743628Y-41682268D02*
X110743628Y-42063220D01*
X111172200Y-40682268D02*
X111219819Y-40777506D01*
X111219819Y-40777506D02*
X111219819Y-40967982D01*
X111219819Y-40967982D02*
X111172200Y-41063220D01*
X111172200Y-41063220D02*
X111076961Y-41110839D01*
X111076961Y-41110839D02*
X110696009Y-41110839D01*
X110696009Y-41110839D02*
X110600771Y-41063220D01*
X110600771Y-41063220D02*
X110553152Y-40967982D01*
X110553152Y-40967982D02*
X110553152Y-40777506D01*
X110553152Y-40777506D02*
X110600771Y-40682268D01*
X110600771Y-40682268D02*
X110696009Y-40634649D01*
X110696009Y-40634649D02*
X110791247Y-40634649D01*
X110791247Y-40634649D02*
X110886485Y-41110839D01*
X111219819Y-40063220D02*
X111172200Y-40158458D01*
X111172200Y-40158458D02*
X111076961Y-40206077D01*
X111076961Y-40206077D02*
X110219819Y-40206077D01*
X111219819Y-39253696D02*
X110696009Y-39253696D01*
X110696009Y-39253696D02*
X110600771Y-39301315D01*
X110600771Y-39301315D02*
X110553152Y-39396553D01*
X110553152Y-39396553D02*
X110553152Y-39587029D01*
X110553152Y-39587029D02*
X110600771Y-39682267D01*
X111172200Y-39253696D02*
X111219819Y-39348934D01*
X111219819Y-39348934D02*
X111219819Y-39587029D01*
X111219819Y-39587029D02*
X111172200Y-39682267D01*
X111172200Y-39682267D02*
X111076961Y-39729886D01*
X111076961Y-39729886D02*
X110981723Y-39729886D01*
X110981723Y-39729886D02*
X110886485Y-39682267D01*
X110886485Y-39682267D02*
X110838866Y-39587029D01*
X110838866Y-39587029D02*
X110838866Y-39348934D01*
X110838866Y-39348934D02*
X110791247Y-39253696D01*
X110553152Y-38872743D02*
X111219819Y-38634648D01*
X110553152Y-38396553D02*
X111219819Y-38634648D01*
X111219819Y-38634648D02*
X111457914Y-38729886D01*
X111457914Y-38729886D02*
X111505533Y-38777505D01*
X111505533Y-38777505D02*
X111553152Y-38872743D01*
X111219819Y-37491791D02*
X111219819Y-38063219D01*
X111219819Y-37777505D02*
X110219819Y-37777505D01*
X110219819Y-37777505D02*
X110362676Y-37872743D01*
X110362676Y-37872743D02*
X110457914Y-37967981D01*
X110457914Y-37967981D02*
X110505533Y-38063219D01*
D11*
X76800828Y-84116917D02*
X77872257Y-84116917D01*
X77872257Y-84116917D02*
X78086542Y-84188346D01*
X78086542Y-84188346D02*
X78229400Y-84331203D01*
X78229400Y-84331203D02*
X78300828Y-84545489D01*
X78300828Y-84545489D02*
X78300828Y-84688346D01*
X78300828Y-82688346D02*
X78300828Y-83402632D01*
X78300828Y-83402632D02*
X76800828Y-83402632D01*
X78157971Y-81331203D02*
X78229400Y-81402631D01*
X78229400Y-81402631D02*
X78300828Y-81616917D01*
X78300828Y-81616917D02*
X78300828Y-81759774D01*
X78300828Y-81759774D02*
X78229400Y-81974060D01*
X78229400Y-81974060D02*
X78086542Y-82116917D01*
X78086542Y-82116917D02*
X77943685Y-82188346D01*
X77943685Y-82188346D02*
X77657971Y-82259774D01*
X77657971Y-82259774D02*
X77443685Y-82259774D01*
X77443685Y-82259774D02*
X77157971Y-82188346D01*
X77157971Y-82188346D02*
X77015114Y-82116917D01*
X77015114Y-82116917D02*
X76872257Y-81974060D01*
X76872257Y-81974060D02*
X76800828Y-81759774D01*
X76800828Y-81759774D02*
X76800828Y-81616917D01*
X76800828Y-81616917D02*
X76872257Y-81402631D01*
X76872257Y-81402631D02*
X76943685Y-81331203D01*
X76800828Y-80259774D02*
X77872257Y-80259774D01*
X77872257Y-80259774D02*
X78086542Y-80331203D01*
X78086542Y-80331203D02*
X78229400Y-80474060D01*
X78229400Y-80474060D02*
X78300828Y-80688346D01*
X78300828Y-80688346D02*
X78300828Y-80831203D01*
X78300828Y-78831203D02*
X78300828Y-79545489D01*
X78300828Y-79545489D02*
X76800828Y-79545489D01*
X78157971Y-77474060D02*
X78229400Y-77545488D01*
X78229400Y-77545488D02*
X78300828Y-77759774D01*
X78300828Y-77759774D02*
X78300828Y-77902631D01*
X78300828Y-77902631D02*
X78229400Y-78116917D01*
X78229400Y-78116917D02*
X78086542Y-78259774D01*
X78086542Y-78259774D02*
X77943685Y-78331203D01*
X77943685Y-78331203D02*
X77657971Y-78402631D01*
X77657971Y-78402631D02*
X77443685Y-78402631D01*
X77443685Y-78402631D02*
X77157971Y-78331203D01*
X77157971Y-78331203D02*
X77015114Y-78259774D01*
X77015114Y-78259774D02*
X76872257Y-78116917D01*
X76872257Y-78116917D02*
X76800828Y-77902631D01*
X76800828Y-77902631D02*
X76800828Y-77759774D01*
X76800828Y-77759774D02*
X76872257Y-77545488D01*
X76872257Y-77545488D02*
X76943685Y-77474060D01*
X76800828Y-76402631D02*
X77872257Y-76402631D01*
X77872257Y-76402631D02*
X78086542Y-76474060D01*
X78086542Y-76474060D02*
X78229400Y-76616917D01*
X78229400Y-76616917D02*
X78300828Y-76831203D01*
X78300828Y-76831203D02*
X78300828Y-76974060D01*
X78300828Y-74974060D02*
X78300828Y-75688346D01*
X78300828Y-75688346D02*
X76800828Y-75688346D01*
X78157971Y-73616917D02*
X78229400Y-73688345D01*
X78229400Y-73688345D02*
X78300828Y-73902631D01*
X78300828Y-73902631D02*
X78300828Y-74045488D01*
X78300828Y-74045488D02*
X78229400Y-74259774D01*
X78229400Y-74259774D02*
X78086542Y-74402631D01*
X78086542Y-74402631D02*
X77943685Y-74474060D01*
X77943685Y-74474060D02*
X77657971Y-74545488D01*
X77657971Y-74545488D02*
X77443685Y-74545488D01*
X77443685Y-74545488D02*
X77157971Y-74474060D01*
X77157971Y-74474060D02*
X77015114Y-74402631D01*
X77015114Y-74402631D02*
X76872257Y-74259774D01*
X76872257Y-74259774D02*
X76800828Y-74045488D01*
X76800828Y-74045488D02*
X76800828Y-73902631D01*
X76800828Y-73902631D02*
X76872257Y-73688345D01*
X76872257Y-73688345D02*
X76943685Y-73616917D01*
X76800828Y-72545488D02*
X77872257Y-72545488D01*
X77872257Y-72545488D02*
X78086542Y-72616917D01*
X78086542Y-72616917D02*
X78229400Y-72759774D01*
X78229400Y-72759774D02*
X78300828Y-72974060D01*
X78300828Y-72974060D02*
X78300828Y-73116917D01*
X78300828Y-71116917D02*
X78300828Y-71831203D01*
X78300828Y-71831203D02*
X76800828Y-71831203D01*
X78157971Y-69759774D02*
X78229400Y-69831202D01*
X78229400Y-69831202D02*
X78300828Y-70045488D01*
X78300828Y-70045488D02*
X78300828Y-70188345D01*
X78300828Y-70188345D02*
X78229400Y-70402631D01*
X78229400Y-70402631D02*
X78086542Y-70545488D01*
X78086542Y-70545488D02*
X77943685Y-70616917D01*
X77943685Y-70616917D02*
X77657971Y-70688345D01*
X77657971Y-70688345D02*
X77443685Y-70688345D01*
X77443685Y-70688345D02*
X77157971Y-70616917D01*
X77157971Y-70616917D02*
X77015114Y-70545488D01*
X77015114Y-70545488D02*
X76872257Y-70402631D01*
X76872257Y-70402631D02*
X76800828Y-70188345D01*
X76800828Y-70188345D02*
X76800828Y-70045488D01*
X76800828Y-70045488D02*
X76872257Y-69831202D01*
X76872257Y-69831202D02*
X76943685Y-69759774D01*
D10*
X95658207Y-94319819D02*
X95324874Y-93843628D01*
X95086779Y-94319819D02*
X95086779Y-93319819D01*
X95086779Y-93319819D02*
X95467731Y-93319819D01*
X95467731Y-93319819D02*
X95562969Y-93367438D01*
X95562969Y-93367438D02*
X95610588Y-93415057D01*
X95610588Y-93415057D02*
X95658207Y-93510295D01*
X95658207Y-93510295D02*
X95658207Y-93653152D01*
X95658207Y-93653152D02*
X95610588Y-93748390D01*
X95610588Y-93748390D02*
X95562969Y-93796009D01*
X95562969Y-93796009D02*
X95467731Y-93843628D01*
X95467731Y-93843628D02*
X95086779Y-93843628D01*
X95991541Y-93319819D02*
X96658207Y-94319819D01*
X96658207Y-93319819D02*
X95991541Y-94319819D01*
X88993922Y-93319819D02*
X89565350Y-93319819D01*
X89279636Y-94319819D02*
X89279636Y-93319819D01*
X89803446Y-93319819D02*
X90470112Y-94319819D01*
X90470112Y-93319819D02*
X89803446Y-94319819D01*
X111219819Y-52441792D02*
X110743628Y-52775125D01*
X111219819Y-53013220D02*
X110219819Y-53013220D01*
X110219819Y-53013220D02*
X110219819Y-52632268D01*
X110219819Y-52632268D02*
X110267438Y-52537030D01*
X110267438Y-52537030D02*
X110315057Y-52489411D01*
X110315057Y-52489411D02*
X110410295Y-52441792D01*
X110410295Y-52441792D02*
X110553152Y-52441792D01*
X110553152Y-52441792D02*
X110648390Y-52489411D01*
X110648390Y-52489411D02*
X110696009Y-52537030D01*
X110696009Y-52537030D02*
X110743628Y-52632268D01*
X110743628Y-52632268D02*
X110743628Y-53013220D01*
X111172200Y-51632268D02*
X111219819Y-51727506D01*
X111219819Y-51727506D02*
X111219819Y-51917982D01*
X111219819Y-51917982D02*
X111172200Y-52013220D01*
X111172200Y-52013220D02*
X111076961Y-52060839D01*
X111076961Y-52060839D02*
X110696009Y-52060839D01*
X110696009Y-52060839D02*
X110600771Y-52013220D01*
X110600771Y-52013220D02*
X110553152Y-51917982D01*
X110553152Y-51917982D02*
X110553152Y-51727506D01*
X110553152Y-51727506D02*
X110600771Y-51632268D01*
X110600771Y-51632268D02*
X110696009Y-51584649D01*
X110696009Y-51584649D02*
X110791247Y-51584649D01*
X110791247Y-51584649D02*
X110886485Y-52060839D01*
X111219819Y-51013220D02*
X111172200Y-51108458D01*
X111172200Y-51108458D02*
X111076961Y-51156077D01*
X111076961Y-51156077D02*
X110219819Y-51156077D01*
X111219819Y-50203696D02*
X110696009Y-50203696D01*
X110696009Y-50203696D02*
X110600771Y-50251315D01*
X110600771Y-50251315D02*
X110553152Y-50346553D01*
X110553152Y-50346553D02*
X110553152Y-50537029D01*
X110553152Y-50537029D02*
X110600771Y-50632267D01*
X111172200Y-50203696D02*
X111219819Y-50298934D01*
X111219819Y-50298934D02*
X111219819Y-50537029D01*
X111219819Y-50537029D02*
X111172200Y-50632267D01*
X111172200Y-50632267D02*
X111076961Y-50679886D01*
X111076961Y-50679886D02*
X110981723Y-50679886D01*
X110981723Y-50679886D02*
X110886485Y-50632267D01*
X110886485Y-50632267D02*
X110838866Y-50537029D01*
X110838866Y-50537029D02*
X110838866Y-50298934D01*
X110838866Y-50298934D02*
X110791247Y-50203696D01*
X110553152Y-49822743D02*
X111219819Y-49584648D01*
X110553152Y-49346553D02*
X111219819Y-49584648D01*
X111219819Y-49584648D02*
X111457914Y-49679886D01*
X111457914Y-49679886D02*
X111505533Y-49727505D01*
X111505533Y-49727505D02*
X111553152Y-49822743D01*
X110315057Y-49013219D02*
X110267438Y-48965600D01*
X110267438Y-48965600D02*
X110219819Y-48870362D01*
X110219819Y-48870362D02*
X110219819Y-48632267D01*
X110219819Y-48632267D02*
X110267438Y-48537029D01*
X110267438Y-48537029D02*
X110315057Y-48489410D01*
X110315057Y-48489410D02*
X110410295Y-48441791D01*
X110410295Y-48441791D02*
X110505533Y-48441791D01*
X110505533Y-48441791D02*
X110648390Y-48489410D01*
X110648390Y-48489410D02*
X111219819Y-49060838D01*
X111219819Y-49060838D02*
X111219819Y-48441791D01*
X66680180Y-95586779D02*
X65870657Y-95586779D01*
X65870657Y-95586779D02*
X65775419Y-95634398D01*
X65775419Y-95634398D02*
X65727800Y-95682017D01*
X65727800Y-95682017D02*
X65680180Y-95777255D01*
X65680180Y-95777255D02*
X65680180Y-95967731D01*
X65680180Y-95967731D02*
X65727800Y-96062969D01*
X65727800Y-96062969D02*
X65775419Y-96110588D01*
X65775419Y-96110588D02*
X65870657Y-96158207D01*
X65870657Y-96158207D02*
X66680180Y-96158207D01*
X65727800Y-96586779D02*
X65680180Y-96729636D01*
X65680180Y-96729636D02*
X65680180Y-96967731D01*
X65680180Y-96967731D02*
X65727800Y-97062969D01*
X65727800Y-97062969D02*
X65775419Y-97110588D01*
X65775419Y-97110588D02*
X65870657Y-97158207D01*
X65870657Y-97158207D02*
X65965895Y-97158207D01*
X65965895Y-97158207D02*
X66061133Y-97110588D01*
X66061133Y-97110588D02*
X66108752Y-97062969D01*
X66108752Y-97062969D02*
X66156371Y-96967731D01*
X66156371Y-96967731D02*
X66203990Y-96777255D01*
X66203990Y-96777255D02*
X66251609Y-96682017D01*
X66251609Y-96682017D02*
X66299228Y-96634398D01*
X66299228Y-96634398D02*
X66394466Y-96586779D01*
X66394466Y-96586779D02*
X66489704Y-96586779D01*
X66489704Y-96586779D02*
X66584942Y-96634398D01*
X66584942Y-96634398D02*
X66632561Y-96682017D01*
X66632561Y-96682017D02*
X66680180Y-96777255D01*
X66680180Y-96777255D02*
X66680180Y-97015350D01*
X66680180Y-97015350D02*
X66632561Y-97158207D01*
X66203990Y-97920112D02*
X66156371Y-98062969D01*
X66156371Y-98062969D02*
X66108752Y-98110588D01*
X66108752Y-98110588D02*
X66013514Y-98158207D01*
X66013514Y-98158207D02*
X65870657Y-98158207D01*
X65870657Y-98158207D02*
X65775419Y-98110588D01*
X65775419Y-98110588D02*
X65727800Y-98062969D01*
X65727800Y-98062969D02*
X65680180Y-97967731D01*
X65680180Y-97967731D02*
X65680180Y-97586779D01*
X65680180Y-97586779D02*
X66680180Y-97586779D01*
X66680180Y-97586779D02*
X66680180Y-97920112D01*
X66680180Y-97920112D02*
X66632561Y-98015350D01*
X66632561Y-98015350D02*
X66584942Y-98062969D01*
X66584942Y-98062969D02*
X66489704Y-98110588D01*
X66489704Y-98110588D02*
X66394466Y-98110588D01*
X66394466Y-98110588D02*
X66299228Y-98062969D01*
X66299228Y-98062969D02*
X66251609Y-98015350D01*
X66251609Y-98015350D02*
X66203990Y-97920112D01*
X66203990Y-97920112D02*
X66203990Y-97586779D01*
X94008207Y-102619819D02*
X93674874Y-102143628D01*
X93436779Y-102619819D02*
X93436779Y-101619819D01*
X93436779Y-101619819D02*
X93817731Y-101619819D01*
X93817731Y-101619819D02*
X93912969Y-101667438D01*
X93912969Y-101667438D02*
X93960588Y-101715057D01*
X93960588Y-101715057D02*
X94008207Y-101810295D01*
X94008207Y-101810295D02*
X94008207Y-101953152D01*
X94008207Y-101953152D02*
X93960588Y-102048390D01*
X93960588Y-102048390D02*
X93912969Y-102096009D01*
X93912969Y-102096009D02*
X93817731Y-102143628D01*
X93817731Y-102143628D02*
X93436779Y-102143628D01*
X94436779Y-102096009D02*
X94770112Y-102096009D01*
X94912969Y-102619819D02*
X94436779Y-102619819D01*
X94436779Y-102619819D02*
X94436779Y-101619819D01*
X94436779Y-101619819D02*
X94912969Y-101619819D01*
X95293922Y-102572200D02*
X95436779Y-102619819D01*
X95436779Y-102619819D02*
X95674874Y-102619819D01*
X95674874Y-102619819D02*
X95770112Y-102572200D01*
X95770112Y-102572200D02*
X95817731Y-102524580D01*
X95817731Y-102524580D02*
X95865350Y-102429342D01*
X95865350Y-102429342D02*
X95865350Y-102334104D01*
X95865350Y-102334104D02*
X95817731Y-102238866D01*
X95817731Y-102238866D02*
X95770112Y-102191247D01*
X95770112Y-102191247D02*
X95674874Y-102143628D01*
X95674874Y-102143628D02*
X95484398Y-102096009D01*
X95484398Y-102096009D02*
X95389160Y-102048390D01*
X95389160Y-102048390D02*
X95341541Y-102000771D01*
X95341541Y-102000771D02*
X95293922Y-101905533D01*
X95293922Y-101905533D02*
X95293922Y-101810295D01*
X95293922Y-101810295D02*
X95341541Y-101715057D01*
X95341541Y-101715057D02*
X95389160Y-101667438D01*
X95389160Y-101667438D02*
X95484398Y-101619819D01*
X95484398Y-101619819D02*
X95722493Y-101619819D01*
X95722493Y-101619819D02*
X95865350Y-101667438D01*
X96293922Y-102096009D02*
X96627255Y-102096009D01*
X96770112Y-102619819D02*
X96293922Y-102619819D01*
X96293922Y-102619819D02*
X96293922Y-101619819D01*
X96293922Y-101619819D02*
X96770112Y-101619819D01*
X97055827Y-101619819D02*
X97627255Y-101619819D01*
X97341541Y-102619819D02*
X97341541Y-101619819D01*
X108633333Y-54859580D02*
X108585714Y-54907200D01*
X108585714Y-54907200D02*
X108442857Y-54954819D01*
X108442857Y-54954819D02*
X108347619Y-54954819D01*
X108347619Y-54954819D02*
X108204762Y-54907200D01*
X108204762Y-54907200D02*
X108109524Y-54811961D01*
X108109524Y-54811961D02*
X108061905Y-54716723D01*
X108061905Y-54716723D02*
X108014286Y-54526247D01*
X108014286Y-54526247D02*
X108014286Y-54383390D01*
X108014286Y-54383390D02*
X108061905Y-54192914D01*
X108061905Y-54192914D02*
X108109524Y-54097676D01*
X108109524Y-54097676D02*
X108204762Y-54002438D01*
X108204762Y-54002438D02*
X108347619Y-53954819D01*
X108347619Y-53954819D02*
X108442857Y-53954819D01*
X108442857Y-53954819D02*
X108585714Y-54002438D01*
X108585714Y-54002438D02*
X108633333Y-54050057D01*
X109538095Y-53954819D02*
X109061905Y-53954819D01*
X109061905Y-53954819D02*
X109014286Y-54431009D01*
X109014286Y-54431009D02*
X109061905Y-54383390D01*
X109061905Y-54383390D02*
X109157143Y-54335771D01*
X109157143Y-54335771D02*
X109395238Y-54335771D01*
X109395238Y-54335771D02*
X109490476Y-54383390D01*
X109490476Y-54383390D02*
X109538095Y-54431009D01*
X109538095Y-54431009D02*
X109585714Y-54526247D01*
X109585714Y-54526247D02*
X109585714Y-54764342D01*
X109585714Y-54764342D02*
X109538095Y-54859580D01*
X109538095Y-54859580D02*
X109490476Y-54907200D01*
X109490476Y-54907200D02*
X109395238Y-54954819D01*
X109395238Y-54954819D02*
X109157143Y-54954819D01*
X109157143Y-54954819D02*
X109061905Y-54907200D01*
X109061905Y-54907200D02*
X109014286Y-54859580D01*
X101078628Y-76026190D02*
X101554819Y-76026190D01*
X100554819Y-76359523D02*
X101078628Y-76026190D01*
X101078628Y-76026190D02*
X100554819Y-75692857D01*
X101554819Y-74835714D02*
X101554819Y-75407142D01*
X101554819Y-75121428D02*
X100554819Y-75121428D01*
X100554819Y-75121428D02*
X100697676Y-75216666D01*
X100697676Y-75216666D02*
X100792914Y-75311904D01*
X100792914Y-75311904D02*
X100840533Y-75407142D01*
X88466667Y-102557200D02*
X88609524Y-102604819D01*
X88609524Y-102604819D02*
X88847619Y-102604819D01*
X88847619Y-102604819D02*
X88942857Y-102557200D01*
X88942857Y-102557200D02*
X88990476Y-102509580D01*
X88990476Y-102509580D02*
X89038095Y-102414342D01*
X89038095Y-102414342D02*
X89038095Y-102319104D01*
X89038095Y-102319104D02*
X88990476Y-102223866D01*
X88990476Y-102223866D02*
X88942857Y-102176247D01*
X88942857Y-102176247D02*
X88847619Y-102128628D01*
X88847619Y-102128628D02*
X88657143Y-102081009D01*
X88657143Y-102081009D02*
X88561905Y-102033390D01*
X88561905Y-102033390D02*
X88514286Y-101985771D01*
X88514286Y-101985771D02*
X88466667Y-101890533D01*
X88466667Y-101890533D02*
X88466667Y-101795295D01*
X88466667Y-101795295D02*
X88514286Y-101700057D01*
X88514286Y-101700057D02*
X88561905Y-101652438D01*
X88561905Y-101652438D02*
X88657143Y-101604819D01*
X88657143Y-101604819D02*
X88895238Y-101604819D01*
X88895238Y-101604819D02*
X89038095Y-101652438D01*
X89371429Y-101604819D02*
X89609524Y-102604819D01*
X89609524Y-102604819D02*
X89800000Y-101890533D01*
X89800000Y-101890533D02*
X89990476Y-102604819D01*
X89990476Y-102604819D02*
X90228572Y-101604819D01*
X91133333Y-102604819D02*
X90561905Y-102604819D01*
X90847619Y-102604819D02*
X90847619Y-101604819D01*
X90847619Y-101604819D02*
X90752381Y-101747676D01*
X90752381Y-101747676D02*
X90657143Y-101842914D01*
X90657143Y-101842914D02*
X90561905Y-101890533D01*
X86133333Y-82654819D02*
X85800000Y-82178628D01*
X85561905Y-82654819D02*
X85561905Y-81654819D01*
X85561905Y-81654819D02*
X85942857Y-81654819D01*
X85942857Y-81654819D02*
X86038095Y-81702438D01*
X86038095Y-81702438D02*
X86085714Y-81750057D01*
X86085714Y-81750057D02*
X86133333Y-81845295D01*
X86133333Y-81845295D02*
X86133333Y-81988152D01*
X86133333Y-81988152D02*
X86085714Y-82083390D01*
X86085714Y-82083390D02*
X86038095Y-82131009D01*
X86038095Y-82131009D02*
X85942857Y-82178628D01*
X85942857Y-82178628D02*
X85561905Y-82178628D01*
X86990476Y-81988152D02*
X86990476Y-82654819D01*
X86752381Y-81607200D02*
X86514286Y-82321485D01*
X86514286Y-82321485D02*
X87133333Y-82321485D01*
X98404819Y-45488094D02*
X97404819Y-45488094D01*
X98404819Y-44916666D02*
X97833390Y-45345237D01*
X97404819Y-44916666D02*
X97976247Y-45488094D01*
X98404819Y-43964285D02*
X98404819Y-44535713D01*
X98404819Y-44249999D02*
X97404819Y-44249999D01*
X97404819Y-44249999D02*
X97547676Y-44345237D01*
X97547676Y-44345237D02*
X97642914Y-44440475D01*
X97642914Y-44440475D02*
X97690533Y-44535713D01*
X85207142Y-80204819D02*
X84873809Y-79728628D01*
X84635714Y-80204819D02*
X84635714Y-79204819D01*
X84635714Y-79204819D02*
X85016666Y-79204819D01*
X85016666Y-79204819D02*
X85111904Y-79252438D01*
X85111904Y-79252438D02*
X85159523Y-79300057D01*
X85159523Y-79300057D02*
X85207142Y-79395295D01*
X85207142Y-79395295D02*
X85207142Y-79538152D01*
X85207142Y-79538152D02*
X85159523Y-79633390D01*
X85159523Y-79633390D02*
X85111904Y-79681009D01*
X85111904Y-79681009D02*
X85016666Y-79728628D01*
X85016666Y-79728628D02*
X84635714Y-79728628D01*
X86159523Y-80204819D02*
X85588095Y-80204819D01*
X85873809Y-80204819D02*
X85873809Y-79204819D01*
X85873809Y-79204819D02*
X85778571Y-79347676D01*
X85778571Y-79347676D02*
X85683333Y-79442914D01*
X85683333Y-79442914D02*
X85588095Y-79490533D01*
X86492857Y-79204819D02*
X87111904Y-79204819D01*
X87111904Y-79204819D02*
X86778571Y-79585771D01*
X86778571Y-79585771D02*
X86921428Y-79585771D01*
X86921428Y-79585771D02*
X87016666Y-79633390D01*
X87016666Y-79633390D02*
X87064285Y-79681009D01*
X87064285Y-79681009D02*
X87111904Y-79776247D01*
X87111904Y-79776247D02*
X87111904Y-80014342D01*
X87111904Y-80014342D02*
X87064285Y-80109580D01*
X87064285Y-80109580D02*
X87016666Y-80157200D01*
X87016666Y-80157200D02*
X86921428Y-80204819D01*
X86921428Y-80204819D02*
X86635714Y-80204819D01*
X86635714Y-80204819D02*
X86540476Y-80157200D01*
X86540476Y-80157200D02*
X86492857Y-80109580D01*
X74283333Y-91509580D02*
X74235714Y-91557200D01*
X74235714Y-91557200D02*
X74092857Y-91604819D01*
X74092857Y-91604819D02*
X73997619Y-91604819D01*
X73997619Y-91604819D02*
X73854762Y-91557200D01*
X73854762Y-91557200D02*
X73759524Y-91461961D01*
X73759524Y-91461961D02*
X73711905Y-91366723D01*
X73711905Y-91366723D02*
X73664286Y-91176247D01*
X73664286Y-91176247D02*
X73664286Y-91033390D01*
X73664286Y-91033390D02*
X73711905Y-90842914D01*
X73711905Y-90842914D02*
X73759524Y-90747676D01*
X73759524Y-90747676D02*
X73854762Y-90652438D01*
X73854762Y-90652438D02*
X73997619Y-90604819D01*
X73997619Y-90604819D02*
X74092857Y-90604819D01*
X74092857Y-90604819D02*
X74235714Y-90652438D01*
X74235714Y-90652438D02*
X74283333Y-90700057D01*
X74664286Y-90700057D02*
X74711905Y-90652438D01*
X74711905Y-90652438D02*
X74807143Y-90604819D01*
X74807143Y-90604819D02*
X75045238Y-90604819D01*
X75045238Y-90604819D02*
X75140476Y-90652438D01*
X75140476Y-90652438D02*
X75188095Y-90700057D01*
X75188095Y-90700057D02*
X75235714Y-90795295D01*
X75235714Y-90795295D02*
X75235714Y-90890533D01*
X75235714Y-90890533D02*
X75188095Y-91033390D01*
X75188095Y-91033390D02*
X74616667Y-91604819D01*
X74616667Y-91604819D02*
X75235714Y-91604819D01*
X89138095Y-74754819D02*
X89138095Y-75564342D01*
X89138095Y-75564342D02*
X89185714Y-75659580D01*
X89185714Y-75659580D02*
X89233333Y-75707200D01*
X89233333Y-75707200D02*
X89328571Y-75754819D01*
X89328571Y-75754819D02*
X89519047Y-75754819D01*
X89519047Y-75754819D02*
X89614285Y-75707200D01*
X89614285Y-75707200D02*
X89661904Y-75659580D01*
X89661904Y-75659580D02*
X89709523Y-75564342D01*
X89709523Y-75564342D02*
X89709523Y-74754819D01*
X90661904Y-74754819D02*
X90185714Y-74754819D01*
X90185714Y-74754819D02*
X90138095Y-75231009D01*
X90138095Y-75231009D02*
X90185714Y-75183390D01*
X90185714Y-75183390D02*
X90280952Y-75135771D01*
X90280952Y-75135771D02*
X90519047Y-75135771D01*
X90519047Y-75135771D02*
X90614285Y-75183390D01*
X90614285Y-75183390D02*
X90661904Y-75231009D01*
X90661904Y-75231009D02*
X90709523Y-75326247D01*
X90709523Y-75326247D02*
X90709523Y-75564342D01*
X90709523Y-75564342D02*
X90661904Y-75659580D01*
X90661904Y-75659580D02*
X90614285Y-75707200D01*
X90614285Y-75707200D02*
X90519047Y-75754819D01*
X90519047Y-75754819D02*
X90280952Y-75754819D01*
X90280952Y-75754819D02*
X90185714Y-75707200D01*
X90185714Y-75707200D02*
X90138095Y-75659580D01*
X98933333Y-87629819D02*
X98600000Y-87153628D01*
X98361905Y-87629819D02*
X98361905Y-86629819D01*
X98361905Y-86629819D02*
X98742857Y-86629819D01*
X98742857Y-86629819D02*
X98838095Y-86677438D01*
X98838095Y-86677438D02*
X98885714Y-86725057D01*
X98885714Y-86725057D02*
X98933333Y-86820295D01*
X98933333Y-86820295D02*
X98933333Y-86963152D01*
X98933333Y-86963152D02*
X98885714Y-87058390D01*
X98885714Y-87058390D02*
X98838095Y-87106009D01*
X98838095Y-87106009D02*
X98742857Y-87153628D01*
X98742857Y-87153628D02*
X98361905Y-87153628D01*
X99885714Y-87629819D02*
X99314286Y-87629819D01*
X99600000Y-87629819D02*
X99600000Y-86629819D01*
X99600000Y-86629819D02*
X99504762Y-86772676D01*
X99504762Y-86772676D02*
X99409524Y-86867914D01*
X99409524Y-86867914D02*
X99314286Y-86915533D01*
X111359580Y-76294166D02*
X111407200Y-76341785D01*
X111407200Y-76341785D02*
X111454819Y-76484642D01*
X111454819Y-76484642D02*
X111454819Y-76579880D01*
X111454819Y-76579880D02*
X111407200Y-76722737D01*
X111407200Y-76722737D02*
X111311961Y-76817975D01*
X111311961Y-76817975D02*
X111216723Y-76865594D01*
X111216723Y-76865594D02*
X111026247Y-76913213D01*
X111026247Y-76913213D02*
X110883390Y-76913213D01*
X110883390Y-76913213D02*
X110692914Y-76865594D01*
X110692914Y-76865594D02*
X110597676Y-76817975D01*
X110597676Y-76817975D02*
X110502438Y-76722737D01*
X110502438Y-76722737D02*
X110454819Y-76579880D01*
X110454819Y-76579880D02*
X110454819Y-76484642D01*
X110454819Y-76484642D02*
X110502438Y-76341785D01*
X110502438Y-76341785D02*
X110550057Y-76294166D01*
X110883390Y-75722737D02*
X110835771Y-75817975D01*
X110835771Y-75817975D02*
X110788152Y-75865594D01*
X110788152Y-75865594D02*
X110692914Y-75913213D01*
X110692914Y-75913213D02*
X110645295Y-75913213D01*
X110645295Y-75913213D02*
X110550057Y-75865594D01*
X110550057Y-75865594D02*
X110502438Y-75817975D01*
X110502438Y-75817975D02*
X110454819Y-75722737D01*
X110454819Y-75722737D02*
X110454819Y-75532261D01*
X110454819Y-75532261D02*
X110502438Y-75437023D01*
X110502438Y-75437023D02*
X110550057Y-75389404D01*
X110550057Y-75389404D02*
X110645295Y-75341785D01*
X110645295Y-75341785D02*
X110692914Y-75341785D01*
X110692914Y-75341785D02*
X110788152Y-75389404D01*
X110788152Y-75389404D02*
X110835771Y-75437023D01*
X110835771Y-75437023D02*
X110883390Y-75532261D01*
X110883390Y-75532261D02*
X110883390Y-75722737D01*
X110883390Y-75722737D02*
X110931009Y-75817975D01*
X110931009Y-75817975D02*
X110978628Y-75865594D01*
X110978628Y-75865594D02*
X111073866Y-75913213D01*
X111073866Y-75913213D02*
X111264342Y-75913213D01*
X111264342Y-75913213D02*
X111359580Y-75865594D01*
X111359580Y-75865594D02*
X111407200Y-75817975D01*
X111407200Y-75817975D02*
X111454819Y-75722737D01*
X111454819Y-75722737D02*
X111454819Y-75532261D01*
X111454819Y-75532261D02*
X111407200Y-75437023D01*
X111407200Y-75437023D02*
X111359580Y-75389404D01*
X111359580Y-75389404D02*
X111264342Y-75341785D01*
X111264342Y-75341785D02*
X111073866Y-75341785D01*
X111073866Y-75341785D02*
X110978628Y-75389404D01*
X110978628Y-75389404D02*
X110931009Y-75437023D01*
X110931009Y-75437023D02*
X110883390Y-75532261D01*
X100866666Y-96404819D02*
X100866666Y-97119104D01*
X100866666Y-97119104D02*
X100819047Y-97261961D01*
X100819047Y-97261961D02*
X100723809Y-97357200D01*
X100723809Y-97357200D02*
X100580952Y-97404819D01*
X100580952Y-97404819D02*
X100485714Y-97404819D01*
X101866666Y-97404819D02*
X101295238Y-97404819D01*
X101580952Y-97404819D02*
X101580952Y-96404819D01*
X101580952Y-96404819D02*
X101485714Y-96547676D01*
X101485714Y-96547676D02*
X101390476Y-96642914D01*
X101390476Y-96642914D02*
X101295238Y-96690533D01*
X99238095Y-56514819D02*
X99238095Y-57324342D01*
X99238095Y-57324342D02*
X99285714Y-57419580D01*
X99285714Y-57419580D02*
X99333333Y-57467200D01*
X99333333Y-57467200D02*
X99428571Y-57514819D01*
X99428571Y-57514819D02*
X99619047Y-57514819D01*
X99619047Y-57514819D02*
X99714285Y-57467200D01*
X99714285Y-57467200D02*
X99761904Y-57419580D01*
X99761904Y-57419580D02*
X99809523Y-57324342D01*
X99809523Y-57324342D02*
X99809523Y-56514819D01*
X100809523Y-57514819D02*
X100238095Y-57514819D01*
X100523809Y-57514819D02*
X100523809Y-56514819D01*
X100523809Y-56514819D02*
X100428571Y-56657676D01*
X100428571Y-56657676D02*
X100333333Y-56752914D01*
X100333333Y-56752914D02*
X100238095Y-56800533D01*
X74283333Y-101039819D02*
X73950000Y-100563628D01*
X73711905Y-101039819D02*
X73711905Y-100039819D01*
X73711905Y-100039819D02*
X74092857Y-100039819D01*
X74092857Y-100039819D02*
X74188095Y-100087438D01*
X74188095Y-100087438D02*
X74235714Y-100135057D01*
X74235714Y-100135057D02*
X74283333Y-100230295D01*
X74283333Y-100230295D02*
X74283333Y-100373152D01*
X74283333Y-100373152D02*
X74235714Y-100468390D01*
X74235714Y-100468390D02*
X74188095Y-100516009D01*
X74188095Y-100516009D02*
X74092857Y-100563628D01*
X74092857Y-100563628D02*
X73711905Y-100563628D01*
X74759524Y-101039819D02*
X74950000Y-101039819D01*
X74950000Y-101039819D02*
X75045238Y-100992200D01*
X75045238Y-100992200D02*
X75092857Y-100944580D01*
X75092857Y-100944580D02*
X75188095Y-100801723D01*
X75188095Y-100801723D02*
X75235714Y-100611247D01*
X75235714Y-100611247D02*
X75235714Y-100230295D01*
X75235714Y-100230295D02*
X75188095Y-100135057D01*
X75188095Y-100135057D02*
X75140476Y-100087438D01*
X75140476Y-100087438D02*
X75045238Y-100039819D01*
X75045238Y-100039819D02*
X74854762Y-100039819D01*
X74854762Y-100039819D02*
X74759524Y-100087438D01*
X74759524Y-100087438D02*
X74711905Y-100135057D01*
X74711905Y-100135057D02*
X74664286Y-100230295D01*
X74664286Y-100230295D02*
X74664286Y-100468390D01*
X74664286Y-100468390D02*
X74711905Y-100563628D01*
X74711905Y-100563628D02*
X74759524Y-100611247D01*
X74759524Y-100611247D02*
X74854762Y-100658866D01*
X74854762Y-100658866D02*
X75045238Y-100658866D01*
X75045238Y-100658866D02*
X75140476Y-100611247D01*
X75140476Y-100611247D02*
X75188095Y-100563628D01*
X75188095Y-100563628D02*
X75235714Y-100468390D01*
X98983333Y-82654819D02*
X98650000Y-82178628D01*
X98411905Y-82654819D02*
X98411905Y-81654819D01*
X98411905Y-81654819D02*
X98792857Y-81654819D01*
X98792857Y-81654819D02*
X98888095Y-81702438D01*
X98888095Y-81702438D02*
X98935714Y-81750057D01*
X98935714Y-81750057D02*
X98983333Y-81845295D01*
X98983333Y-81845295D02*
X98983333Y-81988152D01*
X98983333Y-81988152D02*
X98935714Y-82083390D01*
X98935714Y-82083390D02*
X98888095Y-82131009D01*
X98888095Y-82131009D02*
X98792857Y-82178628D01*
X98792857Y-82178628D02*
X98411905Y-82178628D01*
X99888095Y-81654819D02*
X99411905Y-81654819D01*
X99411905Y-81654819D02*
X99364286Y-82131009D01*
X99364286Y-82131009D02*
X99411905Y-82083390D01*
X99411905Y-82083390D02*
X99507143Y-82035771D01*
X99507143Y-82035771D02*
X99745238Y-82035771D01*
X99745238Y-82035771D02*
X99840476Y-82083390D01*
X99840476Y-82083390D02*
X99888095Y-82131009D01*
X99888095Y-82131009D02*
X99935714Y-82226247D01*
X99935714Y-82226247D02*
X99935714Y-82464342D01*
X99935714Y-82464342D02*
X99888095Y-82559580D01*
X99888095Y-82559580D02*
X99840476Y-82607200D01*
X99840476Y-82607200D02*
X99745238Y-82654819D01*
X99745238Y-82654819D02*
X99507143Y-82654819D01*
X99507143Y-82654819D02*
X99411905Y-82607200D01*
X99411905Y-82607200D02*
X99364286Y-82559580D01*
X99004819Y-40298094D02*
X98004819Y-40298094D01*
X98004819Y-40298094D02*
X98004819Y-40059999D01*
X98004819Y-40059999D02*
X98052438Y-39917142D01*
X98052438Y-39917142D02*
X98147676Y-39821904D01*
X98147676Y-39821904D02*
X98242914Y-39774285D01*
X98242914Y-39774285D02*
X98433390Y-39726666D01*
X98433390Y-39726666D02*
X98576247Y-39726666D01*
X98576247Y-39726666D02*
X98766723Y-39774285D01*
X98766723Y-39774285D02*
X98861961Y-39821904D01*
X98861961Y-39821904D02*
X98957200Y-39917142D01*
X98957200Y-39917142D02*
X99004819Y-40059999D01*
X99004819Y-40059999D02*
X99004819Y-40298094D01*
X98004819Y-39393332D02*
X98004819Y-38774285D01*
X98004819Y-38774285D02*
X98385771Y-39107618D01*
X98385771Y-39107618D02*
X98385771Y-38964761D01*
X98385771Y-38964761D02*
X98433390Y-38869523D01*
X98433390Y-38869523D02*
X98481009Y-38821904D01*
X98481009Y-38821904D02*
X98576247Y-38774285D01*
X98576247Y-38774285D02*
X98814342Y-38774285D01*
X98814342Y-38774285D02*
X98909580Y-38821904D01*
X98909580Y-38821904D02*
X98957200Y-38869523D01*
X98957200Y-38869523D02*
X99004819Y-38964761D01*
X99004819Y-38964761D02*
X99004819Y-39250475D01*
X99004819Y-39250475D02*
X98957200Y-39345713D01*
X98957200Y-39345713D02*
X98909580Y-39393332D01*
X99204819Y-36011904D02*
X98204819Y-36011904D01*
X99204819Y-35440476D02*
X98633390Y-35869047D01*
X98204819Y-35440476D02*
X98776247Y-36011904D01*
X104500057Y-50695238D02*
X104452438Y-50790476D01*
X104452438Y-50790476D02*
X104357200Y-50885714D01*
X104357200Y-50885714D02*
X104214342Y-51028571D01*
X104214342Y-51028571D02*
X104166723Y-51123809D01*
X104166723Y-51123809D02*
X104166723Y-51219047D01*
X104404819Y-51171428D02*
X104357200Y-51266666D01*
X104357200Y-51266666D02*
X104261961Y-51361904D01*
X104261961Y-51361904D02*
X104071485Y-51409523D01*
X104071485Y-51409523D02*
X103738152Y-51409523D01*
X103738152Y-51409523D02*
X103547676Y-51361904D01*
X103547676Y-51361904D02*
X103452438Y-51266666D01*
X103452438Y-51266666D02*
X103404819Y-51171428D01*
X103404819Y-51171428D02*
X103404819Y-50980952D01*
X103404819Y-50980952D02*
X103452438Y-50885714D01*
X103452438Y-50885714D02*
X103547676Y-50790476D01*
X103547676Y-50790476D02*
X103738152Y-50742857D01*
X103738152Y-50742857D02*
X104071485Y-50742857D01*
X104071485Y-50742857D02*
X104261961Y-50790476D01*
X104261961Y-50790476D02*
X104357200Y-50885714D01*
X104357200Y-50885714D02*
X104404819Y-50980952D01*
X104404819Y-50980952D02*
X104404819Y-51171428D01*
X103500057Y-50361904D02*
X103452438Y-50314285D01*
X103452438Y-50314285D02*
X103404819Y-50219047D01*
X103404819Y-50219047D02*
X103404819Y-49980952D01*
X103404819Y-49980952D02*
X103452438Y-49885714D01*
X103452438Y-49885714D02*
X103500057Y-49838095D01*
X103500057Y-49838095D02*
X103595295Y-49790476D01*
X103595295Y-49790476D02*
X103690533Y-49790476D01*
X103690533Y-49790476D02*
X103833390Y-49838095D01*
X103833390Y-49838095D02*
X104404819Y-50409523D01*
X104404819Y-50409523D02*
X104404819Y-49790476D01*
X86083333Y-85109580D02*
X86035714Y-85157200D01*
X86035714Y-85157200D02*
X85892857Y-85204819D01*
X85892857Y-85204819D02*
X85797619Y-85204819D01*
X85797619Y-85204819D02*
X85654762Y-85157200D01*
X85654762Y-85157200D02*
X85559524Y-85061961D01*
X85559524Y-85061961D02*
X85511905Y-84966723D01*
X85511905Y-84966723D02*
X85464286Y-84776247D01*
X85464286Y-84776247D02*
X85464286Y-84633390D01*
X85464286Y-84633390D02*
X85511905Y-84442914D01*
X85511905Y-84442914D02*
X85559524Y-84347676D01*
X85559524Y-84347676D02*
X85654762Y-84252438D01*
X85654762Y-84252438D02*
X85797619Y-84204819D01*
X85797619Y-84204819D02*
X85892857Y-84204819D01*
X85892857Y-84204819D02*
X86035714Y-84252438D01*
X86035714Y-84252438D02*
X86083333Y-84300057D01*
X87035714Y-85204819D02*
X86464286Y-85204819D01*
X86750000Y-85204819D02*
X86750000Y-84204819D01*
X86750000Y-84204819D02*
X86654762Y-84347676D01*
X86654762Y-84347676D02*
X86559524Y-84442914D01*
X86559524Y-84442914D02*
X86464286Y-84490533D01*
X66710180Y-93166666D02*
X65995895Y-93166666D01*
X65995895Y-93166666D02*
X65853038Y-93119047D01*
X65853038Y-93119047D02*
X65757800Y-93023809D01*
X65757800Y-93023809D02*
X65710180Y-92880952D01*
X65710180Y-92880952D02*
X65710180Y-92785714D01*
X66710180Y-93547619D02*
X66710180Y-94166666D01*
X66710180Y-94166666D02*
X66329228Y-93833333D01*
X66329228Y-93833333D02*
X66329228Y-93976190D01*
X66329228Y-93976190D02*
X66281609Y-94071428D01*
X66281609Y-94071428D02*
X66233990Y-94119047D01*
X66233990Y-94119047D02*
X66138752Y-94166666D01*
X66138752Y-94166666D02*
X65900657Y-94166666D01*
X65900657Y-94166666D02*
X65805419Y-94119047D01*
X65805419Y-94119047D02*
X65757800Y-94071428D01*
X65757800Y-94071428D02*
X65710180Y-93976190D01*
X65710180Y-93976190D02*
X65710180Y-93690476D01*
X65710180Y-93690476D02*
X65757800Y-93595238D01*
X65757800Y-93595238D02*
X65805419Y-93547619D01*
X99033333Y-85109580D02*
X98985714Y-85157200D01*
X98985714Y-85157200D02*
X98842857Y-85204819D01*
X98842857Y-85204819D02*
X98747619Y-85204819D01*
X98747619Y-85204819D02*
X98604762Y-85157200D01*
X98604762Y-85157200D02*
X98509524Y-85061961D01*
X98509524Y-85061961D02*
X98461905Y-84966723D01*
X98461905Y-84966723D02*
X98414286Y-84776247D01*
X98414286Y-84776247D02*
X98414286Y-84633390D01*
X98414286Y-84633390D02*
X98461905Y-84442914D01*
X98461905Y-84442914D02*
X98509524Y-84347676D01*
X98509524Y-84347676D02*
X98604762Y-84252438D01*
X98604762Y-84252438D02*
X98747619Y-84204819D01*
X98747619Y-84204819D02*
X98842857Y-84204819D01*
X98842857Y-84204819D02*
X98985714Y-84252438D01*
X98985714Y-84252438D02*
X99033333Y-84300057D01*
X99890476Y-84538152D02*
X99890476Y-85204819D01*
X99652381Y-84157200D02*
X99414286Y-84871485D01*
X99414286Y-84871485D02*
X100033333Y-84871485D01*
X98983333Y-90004819D02*
X98650000Y-89528628D01*
X98411905Y-90004819D02*
X98411905Y-89004819D01*
X98411905Y-89004819D02*
X98792857Y-89004819D01*
X98792857Y-89004819D02*
X98888095Y-89052438D01*
X98888095Y-89052438D02*
X98935714Y-89100057D01*
X98935714Y-89100057D02*
X98983333Y-89195295D01*
X98983333Y-89195295D02*
X98983333Y-89338152D01*
X98983333Y-89338152D02*
X98935714Y-89433390D01*
X98935714Y-89433390D02*
X98888095Y-89481009D01*
X98888095Y-89481009D02*
X98792857Y-89528628D01*
X98792857Y-89528628D02*
X98411905Y-89528628D01*
X99364286Y-89100057D02*
X99411905Y-89052438D01*
X99411905Y-89052438D02*
X99507143Y-89004819D01*
X99507143Y-89004819D02*
X99745238Y-89004819D01*
X99745238Y-89004819D02*
X99840476Y-89052438D01*
X99840476Y-89052438D02*
X99888095Y-89100057D01*
X99888095Y-89100057D02*
X99935714Y-89195295D01*
X99935714Y-89195295D02*
X99935714Y-89290533D01*
X99935714Y-89290533D02*
X99888095Y-89433390D01*
X99888095Y-89433390D02*
X99316667Y-90004819D01*
X99316667Y-90004819D02*
X99935714Y-90004819D01*
X86083333Y-87584580D02*
X86035714Y-87632200D01*
X86035714Y-87632200D02*
X85892857Y-87679819D01*
X85892857Y-87679819D02*
X85797619Y-87679819D01*
X85797619Y-87679819D02*
X85654762Y-87632200D01*
X85654762Y-87632200D02*
X85559524Y-87536961D01*
X85559524Y-87536961D02*
X85511905Y-87441723D01*
X85511905Y-87441723D02*
X85464286Y-87251247D01*
X85464286Y-87251247D02*
X85464286Y-87108390D01*
X85464286Y-87108390D02*
X85511905Y-86917914D01*
X85511905Y-86917914D02*
X85559524Y-86822676D01*
X85559524Y-86822676D02*
X85654762Y-86727438D01*
X85654762Y-86727438D02*
X85797619Y-86679819D01*
X85797619Y-86679819D02*
X85892857Y-86679819D01*
X85892857Y-86679819D02*
X86035714Y-86727438D01*
X86035714Y-86727438D02*
X86083333Y-86775057D01*
X86940476Y-86679819D02*
X86750000Y-86679819D01*
X86750000Y-86679819D02*
X86654762Y-86727438D01*
X86654762Y-86727438D02*
X86607143Y-86775057D01*
X86607143Y-86775057D02*
X86511905Y-86917914D01*
X86511905Y-86917914D02*
X86464286Y-87108390D01*
X86464286Y-87108390D02*
X86464286Y-87489342D01*
X86464286Y-87489342D02*
X86511905Y-87584580D01*
X86511905Y-87584580D02*
X86559524Y-87632200D01*
X86559524Y-87632200D02*
X86654762Y-87679819D01*
X86654762Y-87679819D02*
X86845238Y-87679819D01*
X86845238Y-87679819D02*
X86940476Y-87632200D01*
X86940476Y-87632200D02*
X86988095Y-87584580D01*
X86988095Y-87584580D02*
X87035714Y-87489342D01*
X87035714Y-87489342D02*
X87035714Y-87251247D01*
X87035714Y-87251247D02*
X86988095Y-87156009D01*
X86988095Y-87156009D02*
X86940476Y-87108390D01*
X86940476Y-87108390D02*
X86845238Y-87060771D01*
X86845238Y-87060771D02*
X86654762Y-87060771D01*
X86654762Y-87060771D02*
X86559524Y-87108390D01*
X86559524Y-87108390D02*
X86511905Y-87156009D01*
X86511905Y-87156009D02*
X86464286Y-87251247D01*
X86438095Y-70854819D02*
X86438095Y-71664342D01*
X86438095Y-71664342D02*
X86485714Y-71759580D01*
X86485714Y-71759580D02*
X86533333Y-71807200D01*
X86533333Y-71807200D02*
X86628571Y-71854819D01*
X86628571Y-71854819D02*
X86819047Y-71854819D01*
X86819047Y-71854819D02*
X86914285Y-71807200D01*
X86914285Y-71807200D02*
X86961904Y-71759580D01*
X86961904Y-71759580D02*
X87009523Y-71664342D01*
X87009523Y-71664342D02*
X87009523Y-70854819D01*
X87390476Y-70854819D02*
X88009523Y-70854819D01*
X88009523Y-70854819D02*
X87676190Y-71235771D01*
X87676190Y-71235771D02*
X87819047Y-71235771D01*
X87819047Y-71235771D02*
X87914285Y-71283390D01*
X87914285Y-71283390D02*
X87961904Y-71331009D01*
X87961904Y-71331009D02*
X88009523Y-71426247D01*
X88009523Y-71426247D02*
X88009523Y-71664342D01*
X88009523Y-71664342D02*
X87961904Y-71759580D01*
X87961904Y-71759580D02*
X87914285Y-71807200D01*
X87914285Y-71807200D02*
X87819047Y-71854819D01*
X87819047Y-71854819D02*
X87533333Y-71854819D01*
X87533333Y-71854819D02*
X87438095Y-71807200D01*
X87438095Y-71807200D02*
X87390476Y-71759580D01*
X111359580Y-71294166D02*
X111407200Y-71341785D01*
X111407200Y-71341785D02*
X111454819Y-71484642D01*
X111454819Y-71484642D02*
X111454819Y-71579880D01*
X111454819Y-71579880D02*
X111407200Y-71722737D01*
X111407200Y-71722737D02*
X111311961Y-71817975D01*
X111311961Y-71817975D02*
X111216723Y-71865594D01*
X111216723Y-71865594D02*
X111026247Y-71913213D01*
X111026247Y-71913213D02*
X110883390Y-71913213D01*
X110883390Y-71913213D02*
X110692914Y-71865594D01*
X110692914Y-71865594D02*
X110597676Y-71817975D01*
X110597676Y-71817975D02*
X110502438Y-71722737D01*
X110502438Y-71722737D02*
X110454819Y-71579880D01*
X110454819Y-71579880D02*
X110454819Y-71484642D01*
X110454819Y-71484642D02*
X110502438Y-71341785D01*
X110502438Y-71341785D02*
X110550057Y-71294166D01*
X110454819Y-70960832D02*
X110454819Y-70294166D01*
X110454819Y-70294166D02*
X111454819Y-70722737D01*
X74283333Y-98404819D02*
X73950000Y-97928628D01*
X73711905Y-98404819D02*
X73711905Y-97404819D01*
X73711905Y-97404819D02*
X74092857Y-97404819D01*
X74092857Y-97404819D02*
X74188095Y-97452438D01*
X74188095Y-97452438D02*
X74235714Y-97500057D01*
X74235714Y-97500057D02*
X74283333Y-97595295D01*
X74283333Y-97595295D02*
X74283333Y-97738152D01*
X74283333Y-97738152D02*
X74235714Y-97833390D01*
X74235714Y-97833390D02*
X74188095Y-97881009D01*
X74188095Y-97881009D02*
X74092857Y-97928628D01*
X74092857Y-97928628D02*
X73711905Y-97928628D01*
X74854762Y-97833390D02*
X74759524Y-97785771D01*
X74759524Y-97785771D02*
X74711905Y-97738152D01*
X74711905Y-97738152D02*
X74664286Y-97642914D01*
X74664286Y-97642914D02*
X74664286Y-97595295D01*
X74664286Y-97595295D02*
X74711905Y-97500057D01*
X74711905Y-97500057D02*
X74759524Y-97452438D01*
X74759524Y-97452438D02*
X74854762Y-97404819D01*
X74854762Y-97404819D02*
X75045238Y-97404819D01*
X75045238Y-97404819D02*
X75140476Y-97452438D01*
X75140476Y-97452438D02*
X75188095Y-97500057D01*
X75188095Y-97500057D02*
X75235714Y-97595295D01*
X75235714Y-97595295D02*
X75235714Y-97642914D01*
X75235714Y-97642914D02*
X75188095Y-97738152D01*
X75188095Y-97738152D02*
X75140476Y-97785771D01*
X75140476Y-97785771D02*
X75045238Y-97833390D01*
X75045238Y-97833390D02*
X74854762Y-97833390D01*
X74854762Y-97833390D02*
X74759524Y-97881009D01*
X74759524Y-97881009D02*
X74711905Y-97928628D01*
X74711905Y-97928628D02*
X74664286Y-98023866D01*
X74664286Y-98023866D02*
X74664286Y-98214342D01*
X74664286Y-98214342D02*
X74711905Y-98309580D01*
X74711905Y-98309580D02*
X74759524Y-98357200D01*
X74759524Y-98357200D02*
X74854762Y-98404819D01*
X74854762Y-98404819D02*
X75045238Y-98404819D01*
X75045238Y-98404819D02*
X75140476Y-98357200D01*
X75140476Y-98357200D02*
X75188095Y-98309580D01*
X75188095Y-98309580D02*
X75235714Y-98214342D01*
X75235714Y-98214342D02*
X75235714Y-98023866D01*
X75235714Y-98023866D02*
X75188095Y-97928628D01*
X75188095Y-97928628D02*
X75140476Y-97881009D01*
X75140476Y-97881009D02*
X75045238Y-97833390D01*
X98411905Y-92404819D02*
X98411905Y-91404819D01*
X98411905Y-91404819D02*
X98650000Y-91404819D01*
X98650000Y-91404819D02*
X98792857Y-91452438D01*
X98792857Y-91452438D02*
X98888095Y-91547676D01*
X98888095Y-91547676D02*
X98935714Y-91642914D01*
X98935714Y-91642914D02*
X98983333Y-91833390D01*
X98983333Y-91833390D02*
X98983333Y-91976247D01*
X98983333Y-91976247D02*
X98935714Y-92166723D01*
X98935714Y-92166723D02*
X98888095Y-92261961D01*
X98888095Y-92261961D02*
X98792857Y-92357200D01*
X98792857Y-92357200D02*
X98650000Y-92404819D01*
X98650000Y-92404819D02*
X98411905Y-92404819D01*
X99935714Y-92404819D02*
X99364286Y-92404819D01*
X99650000Y-92404819D02*
X99650000Y-91404819D01*
X99650000Y-91404819D02*
X99554762Y-91547676D01*
X99554762Y-91547676D02*
X99459524Y-91642914D01*
X99459524Y-91642914D02*
X99364286Y-91690533D01*
X99007142Y-80194819D02*
X98673809Y-79718628D01*
X98435714Y-80194819D02*
X98435714Y-79194819D01*
X98435714Y-79194819D02*
X98816666Y-79194819D01*
X98816666Y-79194819D02*
X98911904Y-79242438D01*
X98911904Y-79242438D02*
X98959523Y-79290057D01*
X98959523Y-79290057D02*
X99007142Y-79385295D01*
X99007142Y-79385295D02*
X99007142Y-79528152D01*
X99007142Y-79528152D02*
X98959523Y-79623390D01*
X98959523Y-79623390D02*
X98911904Y-79671009D01*
X98911904Y-79671009D02*
X98816666Y-79718628D01*
X98816666Y-79718628D02*
X98435714Y-79718628D01*
X99959523Y-80194819D02*
X99388095Y-80194819D01*
X99673809Y-80194819D02*
X99673809Y-79194819D01*
X99673809Y-79194819D02*
X99578571Y-79337676D01*
X99578571Y-79337676D02*
X99483333Y-79432914D01*
X99483333Y-79432914D02*
X99388095Y-79480533D01*
X100340476Y-79290057D02*
X100388095Y-79242438D01*
X100388095Y-79242438D02*
X100483333Y-79194819D01*
X100483333Y-79194819D02*
X100721428Y-79194819D01*
X100721428Y-79194819D02*
X100816666Y-79242438D01*
X100816666Y-79242438D02*
X100864285Y-79290057D01*
X100864285Y-79290057D02*
X100911904Y-79385295D01*
X100911904Y-79385295D02*
X100911904Y-79480533D01*
X100911904Y-79480533D02*
X100864285Y-79623390D01*
X100864285Y-79623390D02*
X100292857Y-80194819D01*
X100292857Y-80194819D02*
X100911904Y-80194819D01*
X99004819Y-51238094D02*
X98004819Y-51238094D01*
X98004819Y-51238094D02*
X98004819Y-50999999D01*
X98004819Y-50999999D02*
X98052438Y-50857142D01*
X98052438Y-50857142D02*
X98147676Y-50761904D01*
X98147676Y-50761904D02*
X98242914Y-50714285D01*
X98242914Y-50714285D02*
X98433390Y-50666666D01*
X98433390Y-50666666D02*
X98576247Y-50666666D01*
X98576247Y-50666666D02*
X98766723Y-50714285D01*
X98766723Y-50714285D02*
X98861961Y-50761904D01*
X98861961Y-50761904D02*
X98957200Y-50857142D01*
X98957200Y-50857142D02*
X99004819Y-50999999D01*
X99004819Y-50999999D02*
X99004819Y-51238094D01*
X98338152Y-49809523D02*
X99004819Y-49809523D01*
X97957200Y-50047618D02*
X98671485Y-50285713D01*
X98671485Y-50285713D02*
X98671485Y-49666666D01*
X99204819Y-46941904D02*
X98204819Y-46941904D01*
X99204819Y-46370476D02*
X98633390Y-46799047D01*
X98204819Y-46370476D02*
X98776247Y-46941904D01*
X98404819Y-61938094D02*
X97404819Y-61938094D01*
X98404819Y-61366666D02*
X97833390Y-61795237D01*
X97404819Y-61366666D02*
X97976247Y-61938094D01*
X97500057Y-60985713D02*
X97452438Y-60938094D01*
X97452438Y-60938094D02*
X97404819Y-60842856D01*
X97404819Y-60842856D02*
X97404819Y-60604761D01*
X97404819Y-60604761D02*
X97452438Y-60509523D01*
X97452438Y-60509523D02*
X97500057Y-60461904D01*
X97500057Y-60461904D02*
X97595295Y-60414285D01*
X97595295Y-60414285D02*
X97690533Y-60414285D01*
X97690533Y-60414285D02*
X97833390Y-60461904D01*
X97833390Y-60461904D02*
X98404819Y-61033332D01*
X98404819Y-61033332D02*
X98404819Y-60414285D01*
D12*
X58857419Y-88511904D02*
X59666942Y-88511904D01*
X59666942Y-88511904D02*
X59762180Y-88464285D01*
X59762180Y-88464285D02*
X59809800Y-88416666D01*
X59809800Y-88416666D02*
X59857419Y-88321428D01*
X59857419Y-88321428D02*
X59857419Y-88130952D01*
X59857419Y-88130952D02*
X59809800Y-88035714D01*
X59809800Y-88035714D02*
X59762180Y-87988095D01*
X59762180Y-87988095D02*
X59666942Y-87940476D01*
X59666942Y-87940476D02*
X58857419Y-87940476D01*
X59190752Y-87035714D02*
X59857419Y-87035714D01*
X58809800Y-87273809D02*
X59524085Y-87511904D01*
X59524085Y-87511904D02*
X59524085Y-86892857D01*
D10*
X104550057Y-39995238D02*
X104502438Y-40090476D01*
X104502438Y-40090476D02*
X104407200Y-40185714D01*
X104407200Y-40185714D02*
X104264342Y-40328571D01*
X104264342Y-40328571D02*
X104216723Y-40423809D01*
X104216723Y-40423809D02*
X104216723Y-40519047D01*
X104454819Y-40471428D02*
X104407200Y-40566666D01*
X104407200Y-40566666D02*
X104311961Y-40661904D01*
X104311961Y-40661904D02*
X104121485Y-40709523D01*
X104121485Y-40709523D02*
X103788152Y-40709523D01*
X103788152Y-40709523D02*
X103597676Y-40661904D01*
X103597676Y-40661904D02*
X103502438Y-40566666D01*
X103502438Y-40566666D02*
X103454819Y-40471428D01*
X103454819Y-40471428D02*
X103454819Y-40280952D01*
X103454819Y-40280952D02*
X103502438Y-40185714D01*
X103502438Y-40185714D02*
X103597676Y-40090476D01*
X103597676Y-40090476D02*
X103788152Y-40042857D01*
X103788152Y-40042857D02*
X104121485Y-40042857D01*
X104121485Y-40042857D02*
X104311961Y-40090476D01*
X104311961Y-40090476D02*
X104407200Y-40185714D01*
X104407200Y-40185714D02*
X104454819Y-40280952D01*
X104454819Y-40280952D02*
X104454819Y-40471428D01*
X104454819Y-39090476D02*
X104454819Y-39661904D01*
X104454819Y-39376190D02*
X103454819Y-39376190D01*
X103454819Y-39376190D02*
X103597676Y-39471428D01*
X103597676Y-39471428D02*
X103692914Y-39566666D01*
X103692914Y-39566666D02*
X103740533Y-39661904D01*
X99659580Y-68879166D02*
X99707200Y-68926785D01*
X99707200Y-68926785D02*
X99754819Y-69069642D01*
X99754819Y-69069642D02*
X99754819Y-69164880D01*
X99754819Y-69164880D02*
X99707200Y-69307737D01*
X99707200Y-69307737D02*
X99611961Y-69402975D01*
X99611961Y-69402975D02*
X99516723Y-69450594D01*
X99516723Y-69450594D02*
X99326247Y-69498213D01*
X99326247Y-69498213D02*
X99183390Y-69498213D01*
X99183390Y-69498213D02*
X98992914Y-69450594D01*
X98992914Y-69450594D02*
X98897676Y-69402975D01*
X98897676Y-69402975D02*
X98802438Y-69307737D01*
X98802438Y-69307737D02*
X98754819Y-69164880D01*
X98754819Y-69164880D02*
X98754819Y-69069642D01*
X98754819Y-69069642D02*
X98802438Y-68926785D01*
X98802438Y-68926785D02*
X98850057Y-68879166D01*
X98754819Y-68545832D02*
X98754819Y-67926785D01*
X98754819Y-67926785D02*
X99135771Y-68260118D01*
X99135771Y-68260118D02*
X99135771Y-68117261D01*
X99135771Y-68117261D02*
X99183390Y-68022023D01*
X99183390Y-68022023D02*
X99231009Y-67974404D01*
X99231009Y-67974404D02*
X99326247Y-67926785D01*
X99326247Y-67926785D02*
X99564342Y-67926785D01*
X99564342Y-67926785D02*
X99659580Y-67974404D01*
X99659580Y-67974404D02*
X99707200Y-68022023D01*
X99707200Y-68022023D02*
X99754819Y-68117261D01*
X99754819Y-68117261D02*
X99754819Y-68402975D01*
X99754819Y-68402975D02*
X99707200Y-68498213D01*
X99707200Y-68498213D02*
X99659580Y-68545832D01*
X74274819Y-46733333D02*
X74989104Y-46733333D01*
X74989104Y-46733333D02*
X75131961Y-46780952D01*
X75131961Y-46780952D02*
X75227200Y-46876190D01*
X75227200Y-46876190D02*
X75274819Y-47019047D01*
X75274819Y-47019047D02*
X75274819Y-47114285D01*
X74608152Y-45828571D02*
X75274819Y-45828571D01*
X74227200Y-46066666D02*
X74941485Y-46304761D01*
X74941485Y-46304761D02*
X74941485Y-45685714D01*
X100583333Y-31334819D02*
X100250000Y-30858628D01*
X100011905Y-31334819D02*
X100011905Y-30334819D01*
X100011905Y-30334819D02*
X100392857Y-30334819D01*
X100392857Y-30334819D02*
X100488095Y-30382438D01*
X100488095Y-30382438D02*
X100535714Y-30430057D01*
X100535714Y-30430057D02*
X100583333Y-30525295D01*
X100583333Y-30525295D02*
X100583333Y-30668152D01*
X100583333Y-30668152D02*
X100535714Y-30763390D01*
X100535714Y-30763390D02*
X100488095Y-30811009D01*
X100488095Y-30811009D02*
X100392857Y-30858628D01*
X100392857Y-30858628D02*
X100011905Y-30858628D01*
X101440476Y-30334819D02*
X101250000Y-30334819D01*
X101250000Y-30334819D02*
X101154762Y-30382438D01*
X101154762Y-30382438D02*
X101107143Y-30430057D01*
X101107143Y-30430057D02*
X101011905Y-30572914D01*
X101011905Y-30572914D02*
X100964286Y-30763390D01*
X100964286Y-30763390D02*
X100964286Y-31144342D01*
X100964286Y-31144342D02*
X101011905Y-31239580D01*
X101011905Y-31239580D02*
X101059524Y-31287200D01*
X101059524Y-31287200D02*
X101154762Y-31334819D01*
X101154762Y-31334819D02*
X101345238Y-31334819D01*
X101345238Y-31334819D02*
X101440476Y-31287200D01*
X101440476Y-31287200D02*
X101488095Y-31239580D01*
X101488095Y-31239580D02*
X101535714Y-31144342D01*
X101535714Y-31144342D02*
X101535714Y-30906247D01*
X101535714Y-30906247D02*
X101488095Y-30811009D01*
X101488095Y-30811009D02*
X101440476Y-30763390D01*
X101440476Y-30763390D02*
X101345238Y-30715771D01*
X101345238Y-30715771D02*
X101154762Y-30715771D01*
X101154762Y-30715771D02*
X101059524Y-30763390D01*
X101059524Y-30763390D02*
X101011905Y-30811009D01*
X101011905Y-30811009D02*
X100964286Y-30906247D01*
X86133333Y-90054819D02*
X85800000Y-89578628D01*
X85561905Y-90054819D02*
X85561905Y-89054819D01*
X85561905Y-89054819D02*
X85942857Y-89054819D01*
X85942857Y-89054819D02*
X86038095Y-89102438D01*
X86038095Y-89102438D02*
X86085714Y-89150057D01*
X86085714Y-89150057D02*
X86133333Y-89245295D01*
X86133333Y-89245295D02*
X86133333Y-89388152D01*
X86133333Y-89388152D02*
X86085714Y-89483390D01*
X86085714Y-89483390D02*
X86038095Y-89531009D01*
X86038095Y-89531009D02*
X85942857Y-89578628D01*
X85942857Y-89578628D02*
X85561905Y-89578628D01*
X86466667Y-89054819D02*
X87085714Y-89054819D01*
X87085714Y-89054819D02*
X86752381Y-89435771D01*
X86752381Y-89435771D02*
X86895238Y-89435771D01*
X86895238Y-89435771D02*
X86990476Y-89483390D01*
X86990476Y-89483390D02*
X87038095Y-89531009D01*
X87038095Y-89531009D02*
X87085714Y-89626247D01*
X87085714Y-89626247D02*
X87085714Y-89864342D01*
X87085714Y-89864342D02*
X87038095Y-89959580D01*
X87038095Y-89959580D02*
X86990476Y-90007200D01*
X86990476Y-90007200D02*
X86895238Y-90054819D01*
X86895238Y-90054819D02*
X86609524Y-90054819D01*
X86609524Y-90054819D02*
X86514286Y-90007200D01*
X86514286Y-90007200D02*
X86466667Y-89959580D01*
X80088095Y-89504819D02*
X80088095Y-90314342D01*
X80088095Y-90314342D02*
X80135714Y-90409580D01*
X80135714Y-90409580D02*
X80183333Y-90457200D01*
X80183333Y-90457200D02*
X80278571Y-90504819D01*
X80278571Y-90504819D02*
X80469047Y-90504819D01*
X80469047Y-90504819D02*
X80564285Y-90457200D01*
X80564285Y-90457200D02*
X80611904Y-90409580D01*
X80611904Y-90409580D02*
X80659523Y-90314342D01*
X80659523Y-90314342D02*
X80659523Y-89504819D01*
X81088095Y-89600057D02*
X81135714Y-89552438D01*
X81135714Y-89552438D02*
X81230952Y-89504819D01*
X81230952Y-89504819D02*
X81469047Y-89504819D01*
X81469047Y-89504819D02*
X81564285Y-89552438D01*
X81564285Y-89552438D02*
X81611904Y-89600057D01*
X81611904Y-89600057D02*
X81659523Y-89695295D01*
X81659523Y-89695295D02*
X81659523Y-89790533D01*
X81659523Y-89790533D02*
X81611904Y-89933390D01*
X81611904Y-89933390D02*
X81040476Y-90504819D01*
X81040476Y-90504819D02*
X81659523Y-90504819D01*
X111204819Y-46042857D02*
X110728628Y-46376190D01*
X111204819Y-46614285D02*
X110204819Y-46614285D01*
X110204819Y-46614285D02*
X110204819Y-46233333D01*
X110204819Y-46233333D02*
X110252438Y-46138095D01*
X110252438Y-46138095D02*
X110300057Y-46090476D01*
X110300057Y-46090476D02*
X110395295Y-46042857D01*
X110395295Y-46042857D02*
X110538152Y-46042857D01*
X110538152Y-46042857D02*
X110633390Y-46090476D01*
X110633390Y-46090476D02*
X110681009Y-46138095D01*
X110681009Y-46138095D02*
X110728628Y-46233333D01*
X110728628Y-46233333D02*
X110728628Y-46614285D01*
X111204819Y-45090476D02*
X111204819Y-45661904D01*
X111204819Y-45376190D02*
X110204819Y-45376190D01*
X110204819Y-45376190D02*
X110347676Y-45471428D01*
X110347676Y-45471428D02*
X110442914Y-45566666D01*
X110442914Y-45566666D02*
X110490533Y-45661904D01*
X111204819Y-44138095D02*
X111204819Y-44709523D01*
X111204819Y-44423809D02*
X110204819Y-44423809D01*
X110204819Y-44423809D02*
X110347676Y-44519047D01*
X110347676Y-44519047D02*
X110442914Y-44614285D01*
X110442914Y-44614285D02*
X110490533Y-44709523D01*
D13*
%TO.C,C5*%
X106111252Y-53590000D02*
X104688748Y-53590000D01*
X106111252Y-55410000D02*
X104688748Y-55410000D01*
%TO.C,Y1*%
X101975000Y-70290000D02*
X101975000Y-76690000D01*
X107025000Y-70290000D02*
X107025000Y-76690000D01*
X101975000Y-70290000D02*
G75*
G02*
X107025000Y-70290000I2525000J0D01*
G01*
X107025000Y-76690000D02*
G75*
G02*
X101975000Y-76690000I-2525000J0D01*
G01*
%TO.C,SW1*%
X89900000Y-99150000D02*
X89900000Y-96550000D01*
X90000000Y-94600000D02*
X96000000Y-94600000D01*
X90100000Y-101100000D02*
X95900000Y-101100000D01*
X96100000Y-99150000D02*
X96100000Y-96550000D01*
X98100000Y-100150000D02*
X98100000Y-101150000D01*
X98100000Y-101150000D02*
X97100000Y-101150000D01*
%TO.C,R4*%
X88972936Y-81290000D02*
X90427064Y-81290000D01*
X88972936Y-83110000D02*
X90427064Y-83110000D01*
%TO.C,K1*%
X77350000Y-30250000D02*
X77350000Y-36850000D01*
X77350000Y-30250000D02*
X97150000Y-30250000D01*
X77350000Y-39250000D02*
X77350000Y-45850000D01*
X81400000Y-38100000D02*
X80600000Y-38100000D01*
X81400000Y-38100000D02*
X81400000Y-41700000D01*
X82300000Y-44100000D02*
X84800000Y-44100000D01*
X82800000Y-36300000D02*
X86800000Y-36300000D01*
X82800000Y-39900000D02*
X82800000Y-36300000D01*
X84800000Y-32100000D02*
X82300000Y-32100000D01*
X84800000Y-32100000D02*
X84800000Y-36300000D01*
X84800000Y-39900000D02*
X84800000Y-44100000D01*
X86800000Y-36300000D02*
X86800000Y-39900000D01*
X86800000Y-39900000D02*
X82800000Y-36300000D01*
X86800000Y-39900000D02*
X82800000Y-39900000D01*
X88200000Y-38100000D02*
X88200000Y-41700000D01*
X88200000Y-38100000D02*
X89700000Y-38100000D01*
X88200000Y-41700000D02*
X81400000Y-41700000D01*
X89700000Y-38100000D02*
X94300000Y-35600000D01*
X92900000Y-33850000D02*
X92900000Y-36350000D01*
X92900000Y-42250000D02*
X92900000Y-39800000D01*
X97150000Y-30250000D02*
X97150000Y-45850000D01*
X97150000Y-45850000D02*
X77350000Y-45850000D01*
%TO.C,R13*%
X90427064Y-78840000D02*
X88972936Y-78840000D01*
X90427064Y-80660000D02*
X88972936Y-80660000D01*
%TO.C,R10*%
X104472936Y-45340000D02*
X105927064Y-45340000D01*
X104472936Y-47160000D02*
X105927064Y-47160000D01*
%TO.C,C2*%
X68390000Y-90890000D02*
X68390000Y-92590000D01*
X68390000Y-96410000D02*
X68390000Y-94710000D01*
X72845563Y-90890000D02*
X68390000Y-90890000D01*
X72845563Y-96410000D02*
X68390000Y-96410000D01*
X73910000Y-91954437D02*
X72845563Y-90890000D01*
X73910000Y-91954437D02*
X73910000Y-92590000D01*
X73910000Y-95345563D02*
X72845563Y-96410000D01*
X73910000Y-95345563D02*
X73910000Y-94710000D01*
X74462500Y-95647500D02*
X74462500Y-95022500D01*
X74775000Y-95335000D02*
X74150000Y-95335000D01*
%TO.C,U5*%
X94600000Y-72740000D02*
X92650000Y-72740000D01*
X94600000Y-72740000D02*
X96550000Y-72740000D01*
X94600000Y-77860000D02*
X92650000Y-77860000D01*
X94600000Y-77860000D02*
X96550000Y-77860000D01*
X91900000Y-72835000D02*
X91660000Y-72505000D01*
X92140000Y-72505000D01*
X91900000Y-72835000D01*
G36*
X91900000Y-72835000D02*
G01*
X91660000Y-72505000D01*
X92140000Y-72505000D01*
X91900000Y-72835000D01*
G37*
%TO.C,R1*%
X95072936Y-86240000D02*
X96527064Y-86240000D01*
X95072936Y-88060000D02*
X96527064Y-88060000D01*
%TO.C,D5*%
X107765000Y-38350000D02*
X107765000Y-42410000D01*
X107765000Y-42410000D02*
X110035000Y-42410000D01*
X110035000Y-42410000D02*
X110035000Y-38350000D01*
%TO.C,C8*%
X108090000Y-76838752D02*
X108090000Y-75416248D01*
X109910000Y-76838752D02*
X109910000Y-75416248D01*
%TO.C,J1*%
X100920000Y-80350000D02*
X110040000Y-80350000D01*
X100920000Y-95850000D02*
X100920000Y-80350000D01*
X102230000Y-81650000D02*
X108730000Y-81650000D01*
X102230000Y-94550000D02*
X102230000Y-81650000D01*
X108730000Y-81650000D02*
X108730000Y-86050000D01*
X108730000Y-86050000D02*
X108730000Y-86050000D01*
X108730000Y-86050000D02*
X110040000Y-86050000D01*
X108730000Y-90150000D02*
X108730000Y-94550000D01*
X108730000Y-94550000D02*
X102230000Y-94550000D01*
X110040000Y-80350000D02*
X110040000Y-95850000D01*
X110040000Y-90150000D02*
X108730000Y-90150000D01*
X110040000Y-95850000D02*
X100920000Y-95850000D01*
X110430000Y-90640000D02*
X111430000Y-91140000D01*
X111430000Y-90140000D02*
X110430000Y-90640000D01*
X111430000Y-91140000D02*
X111430000Y-90140000D01*
D10*
%TO.C,U1*%
X101175000Y-58185000D02*
X101175000Y-58410000D01*
X101175000Y-58185000D02*
X101500000Y-58185000D01*
X101175000Y-65435000D02*
X101175000Y-65110000D01*
X101175000Y-65435000D02*
X101500000Y-65435000D01*
X108425000Y-58185000D02*
X108100000Y-58185000D01*
X108425000Y-58185000D02*
X108425000Y-58510000D01*
X108425000Y-65435000D02*
X108100000Y-65435000D01*
X108425000Y-65435000D02*
X108425000Y-65110000D01*
D13*
X100410000Y-58470000D02*
X100070000Y-58000000D01*
X100750000Y-58000000D01*
X100410000Y-58470000D01*
G36*
X100410000Y-58470000D02*
G01*
X100070000Y-58000000D01*
X100750000Y-58000000D01*
X100410000Y-58470000D01*
G37*
%TO.C,R9*%
X71877064Y-99640000D02*
X70422936Y-99640000D01*
X71877064Y-101460000D02*
X70422936Y-101460000D01*
%TO.C,R5*%
X95122936Y-81290000D02*
X96577064Y-81290000D01*
X95122936Y-83110000D02*
X96577064Y-83110000D01*
%TO.C,D3*%
X99280000Y-36840000D02*
X99280000Y-42280000D01*
X99280000Y-42280000D02*
X99410000Y-42280000D01*
X99410000Y-36840000D02*
X99280000Y-36840000D01*
X102090000Y-36840000D02*
X102220000Y-36840000D01*
X102220000Y-36840000D02*
X102220000Y-42280000D01*
X102220000Y-37620000D02*
X99280000Y-37620000D01*
X102220000Y-37740000D02*
X99280000Y-37740000D01*
X102220000Y-37860000D02*
X99280000Y-37860000D01*
X102220000Y-42280000D02*
X102090000Y-42280000D01*
%TO.C,Q2*%
X107500000Y-52360000D02*
X107500000Y-48760000D01*
X103050000Y-50560000D02*
G75*
G02*
X107488478Y-48721522I2600000J0D01*
G01*
X107488478Y-52398478D02*
G75*
G02*
X103050000Y-50560000I-1838478J1838478D01*
G01*
%TO.C,C1*%
X90361252Y-83840000D02*
X88938748Y-83840000D01*
X90361252Y-85660000D02*
X88938748Y-85660000D01*
%TO.C,J3*%
X60995000Y-91420000D02*
X62405000Y-91420000D01*
X60995000Y-100580000D02*
X62405000Y-100580000D01*
X65075000Y-92240000D02*
X64925000Y-92240000D01*
X65075000Y-93040000D02*
X65075000Y-92240000D01*
%TO.C,C4*%
X96511252Y-83840000D02*
X95088748Y-83840000D01*
X96511252Y-85660000D02*
X95088748Y-85660000D01*
%TO.C,R2*%
X96527064Y-88640000D02*
X95072936Y-88640000D01*
X96527064Y-90460000D02*
X95072936Y-90460000D01*
%TO.C,C6*%
X90361252Y-86290000D02*
X88938748Y-86290000D01*
X90361252Y-88110000D02*
X88938748Y-88110000D01*
%TO.C,U3*%
X88790000Y-64990000D02*
X88790000Y-66250000D01*
X88790000Y-71810000D02*
X88790000Y-70550000D01*
X92550000Y-64990000D02*
X88790000Y-64990000D01*
X92550000Y-71810000D02*
X88790000Y-71810000D01*
X94070000Y-72040000D02*
X93590000Y-72040000D01*
X93830000Y-71710000D01*
X94070000Y-72040000D01*
G36*
X94070000Y-72040000D02*
G01*
X93590000Y-72040000D01*
X93830000Y-71710000D01*
X94070000Y-72040000D01*
G37*
%TO.C,C7*%
X108090000Y-70416248D02*
X108090000Y-71838752D01*
X109910000Y-70416248D02*
X109910000Y-71838752D01*
%TO.C,R8*%
X71877064Y-97040000D02*
X70422936Y-97040000D01*
X71877064Y-98860000D02*
X70422936Y-98860000D01*
%TO.C,D1*%
X94200000Y-93085000D02*
X98260000Y-93085000D01*
X98260000Y-90815000D02*
X94200000Y-90815000D01*
X98260000Y-93085000D02*
X98260000Y-90815000D01*
%TO.C,R7*%
X104472936Y-43040000D02*
X105927064Y-43040000D01*
X104472936Y-44860000D02*
X105927064Y-44860000D01*
%TO.C,R12*%
X95122936Y-78840000D02*
X96577064Y-78840000D01*
X95122936Y-80660000D02*
X96577064Y-80660000D01*
%TO.C,D4*%
X99280000Y-47780000D02*
X99280000Y-53220000D01*
X99280000Y-53220000D02*
X99410000Y-53220000D01*
X99410000Y-47780000D02*
X99280000Y-47780000D01*
X102090000Y-47780000D02*
X102220000Y-47780000D01*
X102220000Y-47780000D02*
X102220000Y-53220000D01*
X102220000Y-48560000D02*
X99280000Y-48560000D01*
X102220000Y-48680000D02*
X99280000Y-48680000D01*
X102220000Y-48800000D02*
X99280000Y-48800000D01*
X102220000Y-53220000D02*
X102090000Y-53220000D01*
%TO.C,D2*%
X87190000Y-90815000D02*
X87190000Y-93085000D01*
X87190000Y-93085000D02*
X91250000Y-93085000D01*
X91250000Y-90815000D02*
X87190000Y-90815000D01*
%TO.C,K2*%
X77350000Y-46650000D02*
X77350000Y-53250000D01*
X77350000Y-46650000D02*
X97150000Y-46650000D01*
X77350000Y-55650000D02*
X77350000Y-62250000D01*
X81400000Y-54500000D02*
X80600000Y-54500000D01*
X81400000Y-54500000D02*
X81400000Y-58100000D01*
X82300000Y-60500000D02*
X84800000Y-60500000D01*
X82800000Y-52700000D02*
X86800000Y-52700000D01*
X82800000Y-56300000D02*
X82800000Y-52700000D01*
X84800000Y-48500000D02*
X82300000Y-48500000D01*
X84800000Y-48500000D02*
X84800000Y-52700000D01*
X84800000Y-56300000D02*
X84800000Y-60500000D01*
X86800000Y-52700000D02*
X86800000Y-56300000D01*
X86800000Y-56300000D02*
X82800000Y-52700000D01*
X86800000Y-56300000D02*
X82800000Y-56300000D01*
X88200000Y-54500000D02*
X88200000Y-58100000D01*
X88200000Y-54500000D02*
X89700000Y-54500000D01*
X88200000Y-58100000D02*
X81400000Y-58100000D01*
X89700000Y-54500000D02*
X94300000Y-52000000D01*
X92900000Y-50250000D02*
X92900000Y-52750000D01*
X92900000Y-58650000D02*
X92900000Y-56200000D01*
X97150000Y-46650000D02*
X97150000Y-62250000D01*
X97150000Y-62250000D02*
X77350000Y-62250000D01*
D12*
%TO.C,U4*%
X58600000Y-65740000D02*
X83600000Y-65740000D01*
X58600000Y-88740000D02*
X58600000Y-65740000D01*
X58600000Y-88740000D02*
X83600000Y-88740000D01*
X83600000Y-88740000D02*
X83600000Y-65740000D01*
D13*
%TO.C,Q1*%
X107500000Y-41780000D02*
X107500000Y-38180000D01*
X103050000Y-39980000D02*
G75*
G02*
X107488478Y-38141522I2600000J0D01*
G01*
X107488478Y-41818478D02*
G75*
G02*
X103050000Y-39980000I-1838478J1838478D01*
G01*
%TO.C,C3*%
X96590000Y-68038748D02*
X96590000Y-69461252D01*
X98410000Y-68038748D02*
X98410000Y-69461252D01*
%TO.C,J4*%
X58340000Y-30290000D02*
X58340000Y-32290000D01*
X58580000Y-30530000D02*
X58580000Y-62270000D01*
X60580000Y-30290000D02*
X58340000Y-30290000D01*
X61600000Y-30530000D02*
X61600000Y-62270000D01*
X63200000Y-32650000D02*
X63200000Y-36650000D01*
X63200000Y-37650000D02*
X63200000Y-41650000D01*
X63200000Y-42650000D02*
X63200000Y-46650000D01*
X63200000Y-47650000D02*
X63200000Y-51650000D01*
X63200000Y-52650000D02*
X63200000Y-56650000D01*
X63200000Y-57650000D02*
X63200000Y-61650000D01*
X63420000Y-32150000D02*
X58580000Y-32150000D01*
X63420000Y-32650000D02*
X63200000Y-32650000D01*
X63420000Y-37150000D02*
X58580000Y-37150000D01*
X63420000Y-37650000D02*
X63200000Y-37650000D01*
X63420000Y-42150000D02*
X58580000Y-42150000D01*
X63420000Y-42650000D02*
X63200000Y-42650000D01*
X63420000Y-47150000D02*
X58580000Y-47150000D01*
X63420000Y-47650000D02*
X63200000Y-47650000D01*
X63420000Y-52150000D02*
X58580000Y-52150000D01*
X63420000Y-52650000D02*
X63200000Y-52650000D01*
X63420000Y-57150000D02*
X58580000Y-57150000D01*
X63420000Y-57650000D02*
X63200000Y-57650000D01*
X64900000Y-34880000D02*
X64900000Y-36650000D01*
X64900000Y-39880000D02*
X64900000Y-41650000D01*
X64900000Y-44880000D02*
X64900000Y-46650000D01*
X64900000Y-49880000D02*
X64900000Y-51650000D01*
X64900000Y-54880000D02*
X64900000Y-56650000D01*
X64900000Y-59880000D02*
X64900000Y-61650000D01*
X65900000Y-34880000D02*
X65900000Y-36650000D01*
X65900000Y-36650000D02*
X64900000Y-36650000D01*
X65900000Y-39880000D02*
X65900000Y-41650000D01*
X65900000Y-41650000D02*
X64900000Y-41650000D01*
X65900000Y-44880000D02*
X65900000Y-46650000D01*
X65900000Y-46650000D02*
X64900000Y-46650000D01*
X65900000Y-49880000D02*
X65900000Y-51650000D01*
X65900000Y-51650000D02*
X64900000Y-51650000D01*
X65900000Y-54880000D02*
X65900000Y-56650000D01*
X65900000Y-56650000D02*
X64900000Y-56650000D01*
X65900000Y-59880000D02*
X65900000Y-61650000D01*
X65900000Y-61650000D02*
X64900000Y-61650000D01*
X67600000Y-32650000D02*
X67380000Y-32650000D01*
X67600000Y-32650000D02*
X67600000Y-36650000D01*
X67600000Y-36650000D02*
X63200000Y-36650000D01*
X67600000Y-37650000D02*
X67380000Y-37650000D01*
X67600000Y-37650000D02*
X67600000Y-41650000D01*
X67600000Y-41650000D02*
X63200000Y-41650000D01*
X67600000Y-42650000D02*
X67380000Y-42650000D01*
X67600000Y-42650000D02*
X67600000Y-46650000D01*
X67600000Y-46650000D02*
X63200000Y-46650000D01*
X67600000Y-47650000D02*
X67380000Y-47650000D01*
X67600000Y-47650000D02*
X67600000Y-51650000D01*
X67600000Y-51650000D02*
X63200000Y-51650000D01*
X67600000Y-52650000D02*
X67380000Y-52650000D01*
X67600000Y-52650000D02*
X67600000Y-56650000D01*
X67600000Y-56650000D02*
X63200000Y-56650000D01*
X67600000Y-57650000D02*
X67380000Y-57650000D01*
X67600000Y-57650000D02*
X67600000Y-61650000D01*
X67600000Y-61650000D02*
X63200000Y-61650000D01*
X68420000Y-37150000D02*
X67380000Y-37150000D01*
X68420000Y-42150000D02*
X67380000Y-42150000D01*
X68420000Y-47150000D02*
X67380000Y-47150000D01*
X68420000Y-52150000D02*
X67380000Y-52150000D01*
X68420000Y-57150000D02*
X67380000Y-57150000D01*
X68420000Y-62270000D02*
X58580000Y-62270000D01*
X73820000Y-30530000D02*
X58580000Y-30530000D01*
X73820000Y-30530000D02*
X73820000Y-62270000D01*
X73820000Y-32150000D02*
X67380000Y-32150000D01*
X73820000Y-37150000D02*
X72380000Y-37150000D01*
X73820000Y-42150000D02*
X72380000Y-42150000D01*
X73820000Y-47150000D02*
X72380000Y-47150000D01*
X73820000Y-52150000D02*
X72380000Y-52150000D01*
X73820000Y-57150000D02*
X72380000Y-57150000D01*
X73820000Y-62270000D02*
X72380000Y-62270000D01*
X60149576Y-33199135D02*
G75*
G02*
X60149000Y-36101000I-339576J-1450865D01*
G01*
X60149576Y-38199135D02*
G75*
G02*
X60149000Y-41101000I-339576J-1450865D01*
G01*
X60149576Y-43199135D02*
G75*
G02*
X60149000Y-46101000I-339576J-1450865D01*
G01*
X60149576Y-48199135D02*
G75*
G02*
X60149000Y-51101000I-339576J-1450865D01*
G01*
X60149576Y-53199135D02*
G75*
G02*
X60149000Y-56101000I-339576J-1450865D01*
G01*
X60149576Y-58199135D02*
G75*
G02*
X60149000Y-61101000I-339576J-1450865D01*
G01*
X60150000Y-36099999D02*
G75*
G02*
X60149867Y-33200032I339000J1449999D01*
G01*
X60150000Y-41099999D02*
G75*
G02*
X60149867Y-38200032I339000J1449999D01*
G01*
X60150000Y-46099999D02*
G75*
G02*
X60149867Y-43200032I339000J1449999D01*
G01*
X60150000Y-51099999D02*
G75*
G02*
X60149867Y-48200032I339000J1449999D01*
G01*
X60150000Y-56099999D02*
G75*
G02*
X60149867Y-53200032I339000J1449999D01*
G01*
X60150000Y-61099999D02*
G75*
G02*
X60149867Y-58200032I339000J1449999D01*
G01*
X69664067Y-34440798D02*
G75*
G02*
X72379000Y-35511000I1485933J-209202D01*
G01*
X69664067Y-39440798D02*
G75*
G02*
X72379000Y-40511000I1485933J-209202D01*
G01*
X69664067Y-44440798D02*
G75*
G02*
X72379000Y-45511000I1485933J-209202D01*
G01*
X69664067Y-49440798D02*
G75*
G02*
X72379000Y-50511000I1485933J-209202D01*
G01*
X69664067Y-54440798D02*
G75*
G02*
X72379000Y-55511000I1485933J-209202D01*
G01*
X69664067Y-59440798D02*
G75*
G02*
X72379000Y-60511000I1485933J-209202D01*
G01*
%TO.C,D6*%
X107765000Y-48340000D02*
X107765000Y-52400000D01*
X110035000Y-48340000D02*
X107765000Y-48340000D01*
X110035000Y-52400000D02*
X110035000Y-48340000D01*
%TO.C,R6*%
X100022936Y-31590000D02*
X101477064Y-31590000D01*
X100022936Y-33410000D02*
X101477064Y-33410000D01*
%TO.C,R3*%
X90327064Y-88690000D02*
X88872936Y-88690000D01*
X90327064Y-90510000D02*
X88872936Y-90510000D01*
D10*
%TO.C,U2*%
X77975000Y-90975000D02*
X77975000Y-91550000D01*
X77975000Y-90975000D02*
X83725000Y-90975000D01*
X77975000Y-101050000D02*
X77975000Y-101625000D01*
X77975000Y-101625000D02*
X83725000Y-101625000D01*
X83725000Y-90975000D02*
X83725000Y-91550000D01*
X83725000Y-101050000D02*
X83725000Y-101625000D01*
D13*
X77475000Y-91550000D02*
X77235000Y-91220000D01*
X77715000Y-91220000D01*
X77475000Y-91550000D01*
G36*
X77475000Y-91550000D02*
G01*
X77235000Y-91220000D01*
X77715000Y-91220000D01*
X77475000Y-91550000D01*
G37*
%TO.C,R11*%
X108040000Y-46127064D02*
X108040000Y-44672936D01*
X109860000Y-46127064D02*
X109860000Y-44672936D01*
%TD*%
%LPC*%
D14*
%TO.C,C5*%
X106962500Y-54500000D03*
X103837500Y-54500000D03*
%TD*%
D15*
%TO.C,Y1*%
X104500000Y-71050000D03*
X104500000Y-75930000D03*
%TD*%
D16*
%TO.C,SW1*%
X97000000Y-100100000D03*
X89000000Y-100100000D03*
X97000000Y-95600000D03*
X89000000Y-95600000D03*
%TD*%
D17*
%TO.C,R4*%
X88150000Y-82200000D03*
X91250000Y-82200000D03*
%TD*%
D18*
%TO.C,K1*%
X78750000Y-38050000D03*
D19*
X80700000Y-44100000D03*
D18*
X92900000Y-44100000D03*
X92950000Y-32050000D03*
D19*
X80700000Y-32100000D03*
%TD*%
D20*
%TO.C,R13*%
X91250000Y-79750000D03*
X88150000Y-79750000D03*
%TD*%
D17*
%TO.C,R10*%
X103650000Y-46250000D03*
X106750000Y-46250000D03*
%TD*%
D21*
%TO.C,C2*%
X73350000Y-93650000D03*
X68950000Y-93650000D03*
%TD*%
D22*
%TO.C,U5*%
X92125000Y-73395000D03*
X92125000Y-74665000D03*
X92125000Y-75935000D03*
X92125000Y-77205000D03*
X97075000Y-77205000D03*
X97075000Y-75935000D03*
X97075000Y-74665000D03*
X97075000Y-73395000D03*
%TD*%
D17*
%TO.C,R1*%
X94250000Y-87150000D03*
X97350000Y-87150000D03*
%TD*%
D23*
%TO.C,D5*%
X108900000Y-41437500D03*
X108900000Y-38462500D03*
%TD*%
D24*
%TO.C,C8*%
X109000000Y-77690000D03*
X109000000Y-74565000D03*
%TD*%
D25*
%TO.C,J1*%
X106750000Y-90640000D03*
D26*
X104210000Y-90640000D03*
X106750000Y-88100000D03*
X104210000Y-88100000D03*
X106750000Y-85560000D03*
X104210000Y-85560000D03*
%TD*%
D27*
%TO.C,U1*%
X100550000Y-59010000D03*
X100550000Y-59810000D03*
X100550000Y-60610000D03*
X100550000Y-61410000D03*
X100550000Y-62210000D03*
X100550000Y-63010000D03*
X100550000Y-63810000D03*
X100550000Y-64610000D03*
D28*
X102000000Y-66060000D03*
X102800000Y-66060000D03*
X103600000Y-66060000D03*
X104400000Y-66060000D03*
X105200000Y-66060000D03*
X106000000Y-66060000D03*
X106800000Y-66060000D03*
X107600000Y-66060000D03*
D27*
X109050000Y-64610000D03*
X109050000Y-63810000D03*
X109050000Y-63010000D03*
X109050000Y-62210000D03*
X109050000Y-61410000D03*
X109050000Y-60610000D03*
X109050000Y-59810000D03*
X109050000Y-59010000D03*
D28*
X107600000Y-57560000D03*
X106800000Y-57560000D03*
X106000000Y-57560000D03*
X105200000Y-57560000D03*
X104400000Y-57560000D03*
X103600000Y-57560000D03*
X102800000Y-57560000D03*
X102000000Y-57560000D03*
%TD*%
D20*
%TO.C,R9*%
X72700000Y-100550000D03*
X69600000Y-100550000D03*
%TD*%
D17*
%TO.C,R5*%
X94300000Y-82200000D03*
X97400000Y-82200000D03*
%TD*%
D29*
%TO.C,D3*%
X100750000Y-35750000D03*
D30*
X100750000Y-43370000D03*
%TD*%
D31*
%TO.C,Q2*%
X105650000Y-51830000D03*
D32*
X105650000Y-50560000D03*
X105650000Y-49290000D03*
%TD*%
D14*
%TO.C,C1*%
X91212500Y-84750000D03*
X88087500Y-84750000D03*
%TD*%
D33*
%TO.C,J3*%
X63165000Y-93110000D03*
X63165000Y-98890000D03*
D34*
X64240000Y-92800000D03*
X64240000Y-93600000D03*
D35*
X64240000Y-94750000D03*
X64240000Y-95750000D03*
X64240000Y-96250000D03*
X64240000Y-97250000D03*
D34*
X64240000Y-98400000D03*
X64240000Y-99200000D03*
X64240000Y-99200000D03*
X64240000Y-98400000D03*
D35*
X64240000Y-97750000D03*
X64240000Y-96750000D03*
X64240000Y-95250000D03*
X64240000Y-94250000D03*
D34*
X64240000Y-93600000D03*
X64240000Y-92800000D03*
D36*
X63665000Y-90890000D03*
X59735000Y-90890000D03*
X63665000Y-101110000D03*
X59735000Y-101110000D03*
%TD*%
D14*
%TO.C,C4*%
X97362500Y-84750000D03*
X94237500Y-84750000D03*
%TD*%
D20*
%TO.C,R2*%
X97350000Y-89550000D03*
X94250000Y-89550000D03*
%TD*%
D14*
%TO.C,C6*%
X91212500Y-87200000D03*
X88087500Y-87200000D03*
%TD*%
D37*
%TO.C,U3*%
X93850000Y-70700000D03*
X93850000Y-68400000D03*
D38*
X87550000Y-68400000D03*
D37*
X93850000Y-66100000D03*
%TD*%
D39*
%TO.C,C7*%
X109000000Y-69565000D03*
X109000000Y-72690000D03*
%TD*%
D20*
%TO.C,R8*%
X72700000Y-97950000D03*
X69600000Y-97950000D03*
%TD*%
D40*
%TO.C,D1*%
X97287500Y-91950000D03*
X94312500Y-91950000D03*
%TD*%
D17*
%TO.C,R7*%
X103650000Y-43950000D03*
X106750000Y-43950000D03*
%TD*%
%TO.C,R12*%
X94300000Y-79750000D03*
X97400000Y-79750000D03*
%TD*%
D29*
%TO.C,D4*%
X100750000Y-46690000D03*
D30*
X100750000Y-54310000D03*
%TD*%
D41*
%TO.C,D2*%
X88162500Y-91950000D03*
X91137500Y-91950000D03*
%TD*%
D18*
%TO.C,K2*%
X78750000Y-54450000D03*
D19*
X80700000Y-60500000D03*
D18*
X92900000Y-60500000D03*
X92950000Y-48450000D03*
D19*
X80700000Y-48500000D03*
%TD*%
D42*
%TO.C,U4*%
X65100000Y-87400000D03*
X67640000Y-87400000D03*
X70180000Y-87400000D03*
X72720000Y-87400000D03*
X75260000Y-87400000D03*
X77800000Y-87400000D03*
X65100000Y-67080000D03*
X67640000Y-67080000D03*
X70180000Y-67080000D03*
X72720000Y-67080000D03*
X75260000Y-67080000D03*
X77800000Y-67080000D03*
%TD*%
D31*
%TO.C,Q1*%
X105650000Y-41250000D03*
D32*
X105650000Y-39980000D03*
X105650000Y-38710000D03*
%TD*%
D39*
%TO.C,C3*%
X97500000Y-67187500D03*
X97500000Y-70312500D03*
%TD*%
D43*
%TO.C,J4*%
X65400000Y-33400000D03*
X70400000Y-35900000D03*
D44*
X65400000Y-38400000D03*
X70400000Y-40900000D03*
X65400000Y-43400000D03*
X70400000Y-45900000D03*
X65400000Y-48400000D03*
X70400000Y-50900000D03*
X65400000Y-53400000D03*
X70400000Y-55900000D03*
X65400000Y-58400000D03*
X70400000Y-60900000D03*
%TD*%
D45*
%TO.C,D6*%
X108900000Y-49312500D03*
X108900000Y-52287500D03*
%TD*%
D17*
%TO.C,R6*%
X99200000Y-32500000D03*
X102300000Y-32500000D03*
%TD*%
D20*
%TO.C,R3*%
X91150000Y-89600000D03*
X88050000Y-89600000D03*
%TD*%
D46*
%TO.C,U2*%
X77250000Y-92075000D03*
X77250000Y-92725000D03*
X77250000Y-93375000D03*
X77250000Y-94025000D03*
X77250000Y-94675000D03*
X77250000Y-95325000D03*
X77250000Y-95975000D03*
X77250000Y-96625000D03*
X77250000Y-97275000D03*
X77250000Y-97925000D03*
X77250000Y-98575000D03*
X77250000Y-99225000D03*
X77250000Y-99875000D03*
X77250000Y-100525000D03*
X84450000Y-100525000D03*
X84450000Y-99875000D03*
X84450000Y-99225000D03*
X84450000Y-98575000D03*
X84450000Y-97925000D03*
X84450000Y-97275000D03*
X84450000Y-96625000D03*
X84450000Y-95975000D03*
X84450000Y-95325000D03*
X84450000Y-94675000D03*
X84450000Y-94025000D03*
X84450000Y-93375000D03*
X84450000Y-92725000D03*
X84450000Y-92075000D03*
%TD*%
D47*
%TO.C,R11*%
X108950000Y-46950000D03*
X108950000Y-43850000D03*
%TD*%
%LPD*%
M02*
