%TF.GenerationSoftware,KiCad,Pcbnew,8.0.1*%
%TF.CreationDate,2024-07-07T22:58:04+02:00*%
%TF.ProjectId,kicad8_atmega328_relay_module,6b696361-6438-45f6-9174-6d6567613332,rev?*%
%TF.SameCoordinates,Original*%
%TF.FileFunction,Copper,L1,Top*%
%TF.FilePolarity,Positive*%
%FSLAX46Y46*%
G04 Gerber Fmt 4.6, Leading zero omitted, Abs format (unit mm)*
G04 Created by KiCad (PCBNEW 8.0.1) date 2024-07-07 22:58:04*
%MOMM*%
%LPD*%
G01*
G04 APERTURE LIST*
G04 Aperture macros list*
%AMRoundRect*
0 Rectangle with rounded corners*
0 $1 Rounding radius*
0 $2 $3 $4 $5 $6 $7 $8 $9 X,Y pos of 4 corners*
0 Add a 4 corners polygon primitive as box body*
4,1,4,$2,$3,$4,$5,$6,$7,$8,$9,$2,$3,0*
0 Add four circle primitives for the rounded corners*
1,1,$1+$1,$2,$3*
1,1,$1+$1,$4,$5*
1,1,$1+$1,$6,$7*
1,1,$1+$1,$8,$9*
0 Add four rect primitives between the rounded corners*
20,1,$1+$1,$2,$3,$4,$5,0*
20,1,$1+$1,$4,$5,$6,$7,0*
20,1,$1+$1,$6,$7,$8,$9,0*
20,1,$1+$1,$8,$9,$2,$3,0*%
G04 Aperture macros list end*
%TA.AperFunction,Conductor*%
%ADD10C,0.200000*%
%TD*%
%TA.AperFunction,SMDPad,CuDef*%
%ADD11RoundRect,0.250000X0.412500X0.650000X-0.412500X0.650000X-0.412500X-0.650000X0.412500X-0.650000X0*%
%TD*%
%TA.AperFunction,ComponentPad*%
%ADD12C,1.500000*%
%TD*%
%TA.AperFunction,SMDPad,CuDef*%
%ADD13R,1.600000X1.400000*%
%TD*%
%TA.AperFunction,SMDPad,CuDef*%
%ADD14RoundRect,0.250000X-0.400000X-0.625000X0.400000X-0.625000X0.400000X0.625000X-0.400000X0.625000X0*%
%TD*%
%TA.AperFunction,ComponentPad*%
%ADD15C,3.000000*%
%TD*%
%TA.AperFunction,ComponentPad*%
%ADD16C,2.500000*%
%TD*%
%TA.AperFunction,SMDPad,CuDef*%
%ADD17RoundRect,0.250000X0.400000X0.625000X-0.400000X0.625000X-0.400000X-0.625000X0.400000X-0.625000X0*%
%TD*%
%TA.AperFunction,SMDPad,CuDef*%
%ADD18RoundRect,0.250000X1.250000X0.550000X-1.250000X0.550000X-1.250000X-0.550000X1.250000X-0.550000X0*%
%TD*%
%TA.AperFunction,SMDPad,CuDef*%
%ADD19RoundRect,0.150000X-0.825000X-0.150000X0.825000X-0.150000X0.825000X0.150000X-0.825000X0.150000X0*%
%TD*%
%TA.AperFunction,SMDPad,CuDef*%
%ADD20RoundRect,0.250001X0.624999X-0.462499X0.624999X0.462499X-0.624999X0.462499X-0.624999X-0.462499X0*%
%TD*%
%TA.AperFunction,SMDPad,CuDef*%
%ADD21RoundRect,0.250000X0.650000X-0.412500X0.650000X0.412500X-0.650000X0.412500X-0.650000X-0.412500X0*%
%TD*%
%TA.AperFunction,ComponentPad*%
%ADD22RoundRect,0.250000X0.600000X0.600000X-0.600000X0.600000X-0.600000X-0.600000X0.600000X-0.600000X0*%
%TD*%
%TA.AperFunction,ComponentPad*%
%ADD23C,1.700000*%
%TD*%
%TA.AperFunction,SMDPad,CuDef*%
%ADD24R,1.600000X0.550000*%
%TD*%
%TA.AperFunction,SMDPad,CuDef*%
%ADD25R,0.550000X1.600000*%
%TD*%
%TA.AperFunction,ComponentPad*%
%ADD26R,2.200000X2.200000*%
%TD*%
%TA.AperFunction,ComponentPad*%
%ADD27O,2.200000X2.200000*%
%TD*%
%TA.AperFunction,ComponentPad*%
%ADD28R,1.500000X1.050000*%
%TD*%
%TA.AperFunction,ComponentPad*%
%ADD29O,1.500000X1.050000*%
%TD*%
%TA.AperFunction,SMDPad,CuDef*%
%ADD30RoundRect,0.150000X-0.425000X0.150000X-0.425000X-0.150000X0.425000X-0.150000X0.425000X0.150000X0*%
%TD*%
%TA.AperFunction,SMDPad,CuDef*%
%ADD31RoundRect,0.075000X-0.500000X0.075000X-0.500000X-0.075000X0.500000X-0.075000X0.500000X0.075000X0*%
%TD*%
%TA.AperFunction,SMDPad,CuDef*%
%ADD32RoundRect,0.250000X-0.750000X0.840000X-0.750000X-0.840000X0.750000X-0.840000X0.750000X0.840000X0*%
%TD*%
%TA.AperFunction,SMDPad,CuDef*%
%ADD33RoundRect,0.375000X0.625000X0.375000X-0.625000X0.375000X-0.625000X-0.375000X0.625000X-0.375000X0*%
%TD*%
%TA.AperFunction,SMDPad,CuDef*%
%ADD34RoundRect,0.500000X0.500000X1.400000X-0.500000X1.400000X-0.500000X-1.400000X0.500000X-1.400000X0*%
%TD*%
%TA.AperFunction,SMDPad,CuDef*%
%ADD35RoundRect,0.250000X-0.650000X0.412500X-0.650000X-0.412500X0.650000X-0.412500X0.650000X0.412500X0*%
%TD*%
%TA.AperFunction,SMDPad,CuDef*%
%ADD36RoundRect,0.250001X0.462499X0.624999X-0.462499X0.624999X-0.462499X-0.624999X0.462499X-0.624999X0*%
%TD*%
%TA.AperFunction,SMDPad,CuDef*%
%ADD37RoundRect,0.250001X-0.462499X-0.624999X0.462499X-0.624999X0.462499X0.624999X-0.462499X0.624999X0*%
%TD*%
%TA.AperFunction,ComponentPad*%
%ADD38O,1.700000X1.700000*%
%TD*%
%TA.AperFunction,ComponentPad*%
%ADD39R,3.000000X2.000000*%
%TD*%
%TA.AperFunction,ComponentPad*%
%ADD40O,3.000000X2.000000*%
%TD*%
%TA.AperFunction,SMDPad,CuDef*%
%ADD41RoundRect,0.250001X-0.624999X0.462499X-0.624999X-0.462499X0.624999X-0.462499X0.624999X0.462499X0*%
%TD*%
%TA.AperFunction,SMDPad,CuDef*%
%ADD42R,1.750000X0.450000*%
%TD*%
%TA.AperFunction,SMDPad,CuDef*%
%ADD43RoundRect,0.250000X0.625000X-0.400000X0.625000X0.400000X-0.625000X0.400000X-0.625000X-0.400000X0*%
%TD*%
%TA.AperFunction,ViaPad*%
%ADD44C,0.600000*%
%TD*%
%TA.AperFunction,Conductor*%
%ADD45C,0.400000*%
%TD*%
%TA.AperFunction,Conductor*%
%ADD46C,0.600000*%
%TD*%
G04 APERTURE END LIST*
D10*
%TO.N,VCC*%
X81100000Y-69400000D02*
X81100000Y-68500000D01*
X84000000Y-71900000D02*
X83600000Y-72300000D01*
X81200000Y-69500000D02*
X81200000Y-68400000D01*
X80100000Y-69500000D02*
X81200000Y-69500000D01*
X83600000Y-71800000D02*
X84200000Y-71800000D01*
X81300000Y-69600000D02*
X81300000Y-68200000D01*
X80500000Y-69200000D02*
X80900000Y-69200000D01*
X61750000Y-69700000D02*
X83500000Y-69700000D01*
X83500000Y-84800000D01*
X61750000Y-84800000D01*
X61750000Y-69700000D01*
%TA.AperFunction,Conductor*%
G36*
X61750000Y-69700000D02*
G01*
X83500000Y-69700000D01*
X83500000Y-84800000D01*
X61750000Y-84800000D01*
X61750000Y-69700000D01*
G37*
%TD.AperFunction*%
X80600000Y-69100000D02*
X80800000Y-69100000D01*
X81000000Y-69300000D02*
X81000000Y-68700000D01*
X81396545Y-69724487D02*
X78696581Y-69724487D01*
X81398466Y-67126410D02*
X81396545Y-69724487D01*
X80800000Y-69100000D02*
X80800000Y-69000000D01*
X80400000Y-69300000D02*
X81000000Y-69300000D01*
X79800000Y-69600000D02*
X81300000Y-69600000D01*
X83500000Y-73100000D02*
G75*
G02*
X84900000Y-71700000I1400000J0D01*
G01*
X80900000Y-69200000D02*
X80900000Y-68800000D01*
X83600000Y-71900000D02*
X84000000Y-71900000D01*
X83600000Y-72300000D02*
X83700000Y-71900000D01*
X81398464Y-67126410D02*
G75*
G02*
X78696577Y-69724546I-2601964J1910D01*
G01*
X81400000Y-64900000D02*
X89300000Y-64900000D01*
X89300000Y-71700000D01*
X81400000Y-71700000D01*
X81400000Y-64900000D01*
%TA.AperFunction,Conductor*%
G36*
X81400000Y-64900000D02*
G01*
X89300000Y-64900000D01*
X89300000Y-71700000D01*
X81400000Y-71700000D01*
X81400000Y-64900000D01*
G37*
%TD.AperFunction*%
X80200000Y-69400000D02*
X81100000Y-69400000D01*
%TD*%
D11*
%TO.P,C5,1*%
%TO.N,VCC*%
X106962500Y-54500000D03*
%TO.P,C5,2*%
%TO.N,GND*%
X103837500Y-54500000D03*
%TD*%
D12*
%TO.P,Y1,1,1*%
%TO.N,Net-(U1-XTAL2{slash}PB7)*%
X104500000Y-71050000D03*
%TO.P,Y1,2,2*%
%TO.N,Net-(U1-XTAL1{slash}PB6)*%
X104500000Y-75930000D03*
%TD*%
D13*
%TO.P,SW1,1,1*%
%TO.N,MCU_RESET*%
X97000000Y-100100000D03*
X89000000Y-100100000D03*
%TO.P,SW1,2,2*%
%TO.N,GND*%
X97000000Y-95600000D03*
X89000000Y-95600000D03*
%TD*%
D14*
%TO.P,R4,1*%
%TO.N,Net-(U2-RXD)*%
X88150000Y-82200000D03*
%TO.P,R4,2*%
%TO.N,MCU_TX*%
X91250000Y-82200000D03*
%TD*%
D15*
%TO.P,K1,1*%
%TO.N,RELAY_1_COM*%
X78750000Y-38050000D03*
D16*
%TO.P,K1,2*%
%TO.N,Net-(D3-A)*%
X80700000Y-44100000D03*
D15*
%TO.P,K1,3*%
%TO.N,RELAY_1_NO*%
X92900000Y-44100000D03*
%TO.P,K1,4*%
%TO.N,RELAY_1_NC*%
X92950000Y-32050000D03*
D16*
%TO.P,K1,5*%
%TO.N,VBUS*%
X80700000Y-32100000D03*
%TD*%
D17*
%TO.P,R13,1*%
%TO.N,VCC*%
X91250000Y-79750000D03*
%TO.P,R13,2*%
%TO.N,I2C_SDA*%
X88150000Y-79750000D03*
%TD*%
D14*
%TO.P,R10,1*%
%TO.N,Net-(D5-K)*%
X103650000Y-46250000D03*
%TO.P,R10,2*%
%TO.N,GND*%
X106750000Y-46250000D03*
%TD*%
D18*
%TO.P,C2,1*%
%TO.N,VCC*%
X73350000Y-93650000D03*
%TO.P,C2,2*%
%TO.N,GND*%
X68950000Y-93650000D03*
%TD*%
D19*
%TO.P,U5,1,A0*%
%TO.N,GND*%
X92125000Y-73395000D03*
%TO.P,U5,2,A1*%
X92125000Y-74665000D03*
%TO.P,U5,3,A2*%
X92125000Y-75935000D03*
%TO.P,U5,4,GND*%
X92125000Y-77205000D03*
%TO.P,U5,5,SDA*%
%TO.N,I2C_SDA*%
X97075000Y-77205000D03*
%TO.P,U5,6,SCL*%
%TO.N,I2C_SCL*%
X97075000Y-75935000D03*
%TO.P,U5,7,WP*%
%TO.N,EEPROM_WP*%
X97075000Y-74665000D03*
%TO.P,U5,8,VCC*%
%TO.N,VCC*%
X97075000Y-73395000D03*
%TD*%
D14*
%TO.P,R1,1*%
%TO.N,VCC*%
X94250000Y-87150000D03*
%TO.P,R1,2*%
%TO.N,MCU_RESET*%
X97350000Y-87150000D03*
%TD*%
D20*
%TO.P,D5,1,K*%
%TO.N,Net-(D5-K)*%
X108900000Y-41437500D03*
%TO.P,D5,2,A*%
%TO.N,RELAY_1*%
X108900000Y-38462500D03*
%TD*%
D21*
%TO.P,C8,1*%
%TO.N,Net-(U1-XTAL1{slash}PB6)*%
X109000000Y-77690000D03*
%TO.P,C8,2*%
%TO.N,GND*%
X109000000Y-74565000D03*
%TD*%
D22*
%TO.P,J1,1,MISO*%
%TO.N,MCU_MISO*%
X106750000Y-90640000D03*
D23*
%TO.P,J1,2,VCC*%
%TO.N,VCC*%
X104210000Y-90640000D03*
%TO.P,J1,3,SCK*%
%TO.N,MCU_SCK*%
X106750000Y-88100000D03*
%TO.P,J1,4,MOSI*%
%TO.N,MCU_MOSI*%
X104210000Y-88100000D03*
%TO.P,J1,5,~{RST}*%
%TO.N,MCU_RESET*%
X106750000Y-85560000D03*
%TO.P,J1,6,GND*%
%TO.N,GND*%
X104210000Y-85560000D03*
%TD*%
D24*
%TO.P,U1,1,PD3*%
%TO.N,RELAY_2*%
X100550000Y-59010000D03*
%TO.P,U1,2,PD4*%
%TO.N,W5500_CS*%
X100550000Y-59810000D03*
%TO.P,U1,3,GND*%
%TO.N,GND*%
X100550000Y-60610000D03*
%TO.P,U1,4,VCC*%
%TO.N,VCC*%
X100550000Y-61410000D03*
%TO.P,U1,5,GND*%
%TO.N,GND*%
X100550000Y-62210000D03*
%TO.P,U1,6,VCC*%
%TO.N,VCC*%
X100550000Y-63010000D03*
%TO.P,U1,7,XTAL1/PB6*%
%TO.N,Net-(U1-XTAL1{slash}PB6)*%
X100550000Y-63810000D03*
%TO.P,U1,8,XTAL2/PB7*%
%TO.N,Net-(U1-XTAL2{slash}PB7)*%
X100550000Y-64610000D03*
D25*
%TO.P,U1,9,PD5*%
%TO.N,W5500_INT*%
X102000000Y-66060000D03*
%TO.P,U1,10,PD6*%
%TO.N,W5500_RST*%
X102800000Y-66060000D03*
%TO.P,U1,11,PD7*%
%TO.N,EEPROM_WP*%
X103600000Y-66060000D03*
%TO.P,U1,12,PB0*%
%TO.N,unconnected-(U1-PB0-Pad12)*%
X104400000Y-66060000D03*
%TO.P,U1,13,PB1*%
%TO.N,unconnected-(U1-PB1-Pad13)*%
X105200000Y-66060000D03*
%TO.P,U1,14,PB2*%
%TO.N,unconnected-(U1-PB2-Pad14)*%
X106000000Y-66060000D03*
%TO.P,U1,15,PB3*%
%TO.N,MCU_MOSI*%
X106800000Y-66060000D03*
%TO.P,U1,16,PB4*%
%TO.N,MCU_MISO*%
X107600000Y-66060000D03*
D24*
%TO.P,U1,17,PB5*%
%TO.N,MCU_SCK*%
X109050000Y-64610000D03*
%TO.P,U1,18,AVCC*%
%TO.N,VCC*%
X109050000Y-63810000D03*
%TO.P,U1,19,ADC6*%
%TO.N,unconnected-(U1-ADC6-Pad19)*%
X109050000Y-63010000D03*
%TO.P,U1,20,AREF*%
%TO.N,unconnected-(U1-AREF-Pad20)*%
X109050000Y-62210000D03*
%TO.P,U1,21,GND*%
%TO.N,GND*%
X109050000Y-61410000D03*
%TO.P,U1,22,ADC7*%
%TO.N,unconnected-(U1-ADC7-Pad22)*%
X109050000Y-60610000D03*
%TO.P,U1,23,PC0*%
%TO.N,unconnected-(U1-PC0-Pad23)*%
X109050000Y-59810000D03*
%TO.P,U1,24,PC1*%
%TO.N,unconnected-(U1-PC1-Pad24)*%
X109050000Y-59010000D03*
D25*
%TO.P,U1,25,PC2*%
%TO.N,unconnected-(U1-PC2-Pad25)*%
X107600000Y-57560000D03*
%TO.P,U1,26,PC3*%
%TO.N,unconnected-(U1-PC3-Pad26)*%
X106800000Y-57560000D03*
%TO.P,U1,27,PC4*%
%TO.N,I2C_SDA*%
X106000000Y-57560000D03*
%TO.P,U1,28,PC5*%
%TO.N,I2C_SCL*%
X105200000Y-57560000D03*
%TO.P,U1,29,~{RESET}/PC6*%
%TO.N,MCU_RESET*%
X104400000Y-57560000D03*
%TO.P,U1,30,PD0*%
%TO.N,MCU_RX*%
X103600000Y-57560000D03*
%TO.P,U1,31,PD1*%
%TO.N,MCU_TX*%
X102800000Y-57560000D03*
%TO.P,U1,32,PD2*%
%TO.N,RELAY_1*%
X102000000Y-57560000D03*
%TD*%
D17*
%TO.P,R9,1*%
%TO.N,GND*%
X72700000Y-100550000D03*
%TO.P,R9,2*%
%TO.N,Net-(J3-CC2)*%
X69600000Y-100550000D03*
%TD*%
D14*
%TO.P,R5,1*%
%TO.N,Net-(U2-TXD)*%
X94300000Y-82200000D03*
%TO.P,R5,2*%
%TO.N,MCU_RX*%
X97400000Y-82200000D03*
%TD*%
D26*
%TO.P,D3,1,K*%
%TO.N,VBUS*%
X100750000Y-35750000D03*
D27*
%TO.P,D3,2,A*%
%TO.N,Net-(D3-A)*%
X100750000Y-43370000D03*
%TD*%
D28*
%TO.P,Q2,1,C*%
%TO.N,Net-(D4-A)*%
X105650000Y-51830000D03*
D29*
%TO.P,Q2,2,B*%
%TO.N,Net-(Q2-B)*%
X105650000Y-50560000D03*
%TO.P,Q2,3,E*%
%TO.N,GND*%
X105650000Y-49290000D03*
%TD*%
D11*
%TO.P,C1,1*%
%TO.N,VCC*%
X91212500Y-84750000D03*
%TO.P,C1,2*%
%TO.N,GND*%
X88087500Y-84750000D03*
%TD*%
D30*
%TO.P,J3,A1,GND*%
%TO.N,GND*%
X64240000Y-92800000D03*
%TO.P,J3,A4,VBUS*%
%TO.N,VBUS*%
X64240000Y-93600000D03*
D31*
%TO.P,J3,A5,CC1*%
%TO.N,Net-(J3-CC1)*%
X64240000Y-94750000D03*
%TO.P,J3,A6,D+*%
%TO.N,USB_D+*%
X64240000Y-95750000D03*
%TO.P,J3,A7,D-*%
%TO.N,USB_D-*%
X64240000Y-96250000D03*
%TO.P,J3,A8,SBU1*%
%TO.N,unconnected-(J3-SBU1-PadA8)*%
X64240000Y-97250000D03*
D30*
%TO.P,J3,A9,VBUS*%
%TO.N,VBUS*%
X64240000Y-98400000D03*
%TO.P,J3,A12,GND*%
%TO.N,GND*%
X64240000Y-99200000D03*
%TO.P,J3,B1,GND*%
X64240000Y-99200000D03*
%TO.P,J3,B4,VBUS*%
%TO.N,VBUS*%
X64240000Y-98400000D03*
D31*
%TO.P,J3,B5,CC2*%
%TO.N,Net-(J3-CC2)*%
X64240000Y-97750000D03*
%TO.P,J3,B6,D+*%
%TO.N,USB_D+*%
X64240000Y-96750000D03*
%TO.P,J3,B7,D-*%
%TO.N,USB_D-*%
X64240000Y-95250000D03*
%TO.P,J3,B8,SBU2*%
%TO.N,unconnected-(J3-SBU2-PadB8)*%
X64240000Y-94250000D03*
D30*
%TO.P,J3,B9,VBUS*%
%TO.N,VBUS*%
X64240000Y-93600000D03*
%TO.P,J3,B12,GND*%
%TO.N,GND*%
X64240000Y-92800000D03*
D32*
%TO.P,J3,S1,SHIELD*%
X63665000Y-90890000D03*
X59735000Y-90890000D03*
X63665000Y-101110000D03*
X59735000Y-101110000D03*
%TD*%
D11*
%TO.P,C4,1*%
%TO.N,MCU_RESET*%
X97362500Y-84750000D03*
%TO.P,C4,2*%
%TO.N,Net-(U2-DTR)*%
X94237500Y-84750000D03*
%TD*%
D17*
%TO.P,R2,1*%
%TO.N,Net-(D1-K)*%
X97350000Y-89550000D03*
%TO.P,R2,2*%
%TO.N,Net-(U2-CBUS0)*%
X94250000Y-89550000D03*
%TD*%
D11*
%TO.P,C6,1*%
%TO.N,VCC*%
X91212500Y-87200000D03*
%TO.P,C6,2*%
%TO.N,GND*%
X88087500Y-87200000D03*
%TD*%
D33*
%TO.P,U3,1,GND*%
%TO.N,GND*%
X93850000Y-70700000D03*
%TO.P,U3,2,VO*%
%TO.N,VCC*%
X93850000Y-68400000D03*
D34*
X87550000Y-68400000D03*
D33*
%TO.P,U3,3,VI*%
%TO.N,VBUS*%
X93850000Y-66100000D03*
%TD*%
D35*
%TO.P,C7,1*%
%TO.N,Net-(U1-XTAL2{slash}PB7)*%
X109000000Y-69565000D03*
%TO.P,C7,2*%
%TO.N,GND*%
X109000000Y-72690000D03*
%TD*%
D17*
%TO.P,R8,1*%
%TO.N,GND*%
X72700000Y-97950000D03*
%TO.P,R8,2*%
%TO.N,Net-(J3-CC1)*%
X69600000Y-97950000D03*
%TD*%
D36*
%TO.P,D1,1,K*%
%TO.N,Net-(D1-K)*%
X97287500Y-91950000D03*
%TO.P,D1,2,A*%
%TO.N,VCC*%
X94312500Y-91950000D03*
%TD*%
D14*
%TO.P,R7,1*%
%TO.N,RELAY_2*%
X103650000Y-43950000D03*
%TO.P,R7,2*%
%TO.N,Net-(Q2-B)*%
X106750000Y-43950000D03*
%TD*%
%TO.P,R12,1*%
%TO.N,VCC*%
X94300000Y-79750000D03*
%TO.P,R12,2*%
%TO.N,I2C_SCL*%
X97400000Y-79750000D03*
%TD*%
D26*
%TO.P,D4,1,K*%
%TO.N,VBUS*%
X100750000Y-46690000D03*
D27*
%TO.P,D4,2,A*%
%TO.N,Net-(D4-A)*%
X100750000Y-54310000D03*
%TD*%
D37*
%TO.P,D2,1,K*%
%TO.N,Net-(D2-K)*%
X88162500Y-91950000D03*
%TO.P,D2,2,A*%
%TO.N,VCC*%
X91137500Y-91950000D03*
%TD*%
D15*
%TO.P,K2,1*%
%TO.N,RELAY_2_COM*%
X78750000Y-54450000D03*
D16*
%TO.P,K2,2*%
%TO.N,Net-(D4-A)*%
X80700000Y-60500000D03*
D15*
%TO.P,K2,3*%
%TO.N,RELAY_2_NO*%
X92900000Y-60500000D03*
%TO.P,K2,4*%
%TO.N,RELAY_2_NC*%
X92950000Y-48450000D03*
D16*
%TO.P,K2,5*%
%TO.N,VBUS*%
X80700000Y-48500000D03*
%TD*%
D38*
%TO.P,U4,1,GND*%
%TO.N,GND*%
X65100000Y-87400000D03*
%TO.P,U4,2,GND*%
X67640000Y-87400000D03*
%TO.P,U4,3,MOSI*%
%TO.N,MCU_MOSI*%
X70180000Y-87400000D03*
%TO.P,U4,4,SCLK*%
%TO.N,MCU_SCK*%
X72720000Y-87400000D03*
%TO.P,U4,5,~{CS}*%
%TO.N,W5500_CS*%
X75260000Y-87400000D03*
%TO.P,U4,6,~{INT}*%
%TO.N,W5500_INT*%
X77800000Y-87400000D03*
%TO.P,U4,7,GND*%
%TO.N,GND*%
X65100000Y-67080000D03*
%TO.P,U4,8,VDD*%
%TO.N,VCC*%
X67640000Y-67080000D03*
%TO.P,U4,9,VDD*%
X70180000Y-67080000D03*
%TO.P,U4,10,NC*%
%TO.N,unconnected-(U4-NC-Pad10)*%
X72720000Y-67080000D03*
%TO.P,U4,11,~{RST}*%
%TO.N,W5500_RST*%
X75260000Y-67080000D03*
%TO.P,U4,12,MISO*%
%TO.N,MCU_MISO*%
X77800000Y-67080000D03*
%TD*%
D28*
%TO.P,Q1,1,C*%
%TO.N,Net-(D3-A)*%
X105650000Y-41250000D03*
D29*
%TO.P,Q1,2,B*%
%TO.N,Net-(Q1-B)*%
X105650000Y-39980000D03*
%TO.P,Q1,3,E*%
%TO.N,GND*%
X105650000Y-38710000D03*
%TD*%
D35*
%TO.P,C3,1*%
%TO.N,VCC*%
X97500000Y-67187500D03*
%TO.P,C3,2*%
%TO.N,GND*%
X97500000Y-70312500D03*
%TD*%
D39*
%TO.P,J4,1,Pin_1*%
%TO.N,RELAY_1_NO*%
X65400000Y-33400000D03*
X70400000Y-35900000D03*
D40*
%TO.P,J4,2,Pin_2*%
%TO.N,RELAY_1_COM*%
X65400000Y-38400000D03*
X70400000Y-40900000D03*
%TO.P,J4,3,Pin_3*%
%TO.N,RELAY_1_NC*%
X65400000Y-43400000D03*
X70400000Y-45900000D03*
%TO.P,J4,4,Pin_4*%
%TO.N,RELAY_2_NO*%
X65400000Y-48400000D03*
X70400000Y-50900000D03*
%TO.P,J4,5,Pin_5*%
%TO.N,RELAY_2_COM*%
X65400000Y-53400000D03*
X70400000Y-55900000D03*
%TO.P,J4,6,Pin_6*%
%TO.N,RELAY_2_NC*%
X65400000Y-58400000D03*
X70400000Y-60900000D03*
%TD*%
D41*
%TO.P,D6,1,K*%
%TO.N,Net-(D6-K)*%
X108900000Y-49312500D03*
%TO.P,D6,2,A*%
%TO.N,RELAY_2*%
X108900000Y-52287500D03*
%TD*%
D14*
%TO.P,R6,1*%
%TO.N,RELAY_1*%
X99200000Y-32500000D03*
%TO.P,R6,2*%
%TO.N,Net-(Q1-B)*%
X102300000Y-32500000D03*
%TD*%
D17*
%TO.P,R3,1*%
%TO.N,Net-(D2-K)*%
X91150000Y-89600000D03*
%TO.P,R3,2*%
%TO.N,Net-(U2-CBUS1)*%
X88050000Y-89600000D03*
%TD*%
D42*
%TO.P,U2,1,TXD*%
%TO.N,Net-(U2-TXD)*%
X77250000Y-92075000D03*
%TO.P,U2,2,DTR*%
%TO.N,Net-(U2-DTR)*%
X77250000Y-92725000D03*
%TO.P,U2,3,RTS*%
%TO.N,unconnected-(U2-RTS-Pad3)*%
X77250000Y-93375000D03*
%TO.P,U2,4,VCCIO*%
%TO.N,VCC*%
X77250000Y-94025000D03*
%TO.P,U2,5,RXD*%
%TO.N,Net-(U2-RXD)*%
X77250000Y-94675000D03*
%TO.P,U2,6,RI*%
%TO.N,unconnected-(U2-RI-Pad6)*%
X77250000Y-95325000D03*
%TO.P,U2,7,GND*%
%TO.N,GND*%
X77250000Y-95975000D03*
%TO.P,U2,8*%
%TO.N,N/C*%
X77250000Y-96625000D03*
%TO.P,U2,9,DCR*%
%TO.N,unconnected-(U2-DCR-Pad9)*%
X77250000Y-97275000D03*
%TO.P,U2,10,DCD*%
%TO.N,unconnected-(U2-DCD-Pad10)*%
X77250000Y-97925000D03*
%TO.P,U2,11,CTS*%
%TO.N,unconnected-(U2-CTS-Pad11)*%
X77250000Y-98575000D03*
%TO.P,U2,12,CBUS4*%
%TO.N,unconnected-(U2-CBUS4-Pad12)*%
X77250000Y-99225000D03*
%TO.P,U2,13,CBUS2*%
%TO.N,unconnected-(U2-CBUS2-Pad13)*%
X77250000Y-99875000D03*
%TO.P,U2,14,CBUS3*%
%TO.N,unconnected-(U2-CBUS3-Pad14)*%
X77250000Y-100525000D03*
%TO.P,U2,15,USBD+*%
%TO.N,USB_D+*%
X84450000Y-100525000D03*
%TO.P,U2,16,USBD-*%
%TO.N,USB_D-*%
X84450000Y-99875000D03*
%TO.P,U2,17,3V3OUT*%
%TO.N,unconnected-(U2-3V3OUT-Pad17)*%
X84450000Y-99225000D03*
%TO.P,U2,18,GND*%
%TO.N,GND*%
X84450000Y-98575000D03*
%TO.P,U2,19,~{RESET}*%
%TO.N,VCC*%
X84450000Y-97925000D03*
%TO.P,U2,20,VCC*%
X84450000Y-97275000D03*
%TO.P,U2,21,GND*%
%TO.N,GND*%
X84450000Y-96625000D03*
%TO.P,U2,22,CBUS1*%
%TO.N,Net-(U2-CBUS1)*%
X84450000Y-95975000D03*
%TO.P,U2,23,CBUS0*%
%TO.N,Net-(U2-CBUS0)*%
X84450000Y-95325000D03*
%TO.P,U2,24*%
%TO.N,N/C*%
X84450000Y-94675000D03*
%TO.P,U2,25,AGND*%
%TO.N,GND*%
X84450000Y-94025000D03*
%TO.P,U2,26,TEST*%
X84450000Y-93375000D03*
%TO.P,U2,27,OSCI*%
%TO.N,unconnected-(U2-OSCI-Pad27)*%
X84450000Y-92725000D03*
%TO.P,U2,28,OSCO*%
%TO.N,unconnected-(U2-OSCO-Pad28)*%
X84450000Y-92075000D03*
%TD*%
D43*
%TO.P,R11,1*%
%TO.N,Net-(D6-K)*%
X108950000Y-46950000D03*
%TO.P,R11,2*%
%TO.N,GND*%
X108950000Y-43850000D03*
%TD*%
D44*
%TO.N,GND*%
X86450000Y-93350000D03*
X105100000Y-35800000D03*
X86500000Y-95400000D03*
X98700000Y-61550000D03*
X80650000Y-98100000D03*
X87450000Y-97800000D03*
X96600000Y-57350000D03*
X107200000Y-47750000D03*
X97100000Y-44350000D03*
X107250000Y-81400000D03*
X86250000Y-90350000D03*
X97000000Y-71600000D03*
X104250000Y-37350000D03*
X95500000Y-38100000D03*
X104150000Y-49300000D03*
X89950000Y-52150000D03*
X89900000Y-66900000D03*
X102650000Y-55850000D03*
X65500000Y-91400000D03*
X86250000Y-88500000D03*
X100200000Y-88300000D03*
X97650000Y-51800000D03*
X87950000Y-74950000D03*
X88150000Y-43950000D03*
X96250000Y-64450000D03*
X91050000Y-64900000D03*
X109000000Y-81400000D03*
X88750000Y-58800000D03*
X62300000Y-86050000D03*
X94850000Y-73500000D03*
X105850000Y-83900000D03*
X91550000Y-70712500D03*
X107150000Y-61400000D03*
%TO.N,VCC*%
X89939400Y-82037600D03*
X84400000Y-81700000D03*
X92821200Y-89393400D03*
%TO.N,Net-(U2-DTR)*%
X80202200Y-91589000D03*
X95865700Y-91589000D03*
%TO.N,MCU_RESET*%
X104384000Y-62027200D03*
%TO.N,Net-(U1-XTAL1{slash}PB6)*%
X106944000Y-74273900D03*
%TO.N,Net-(U1-XTAL2{slash}PB7)*%
X106794000Y-70175200D03*
%TO.N,MCU_MISO*%
X107246000Y-69158500D03*
%TO.N,RELAY_1_NO*%
X76442600Y-46004000D03*
%TO.N,MCU_TX*%
X98785300Y-64510700D03*
X102447000Y-60195000D03*
%TO.N,MCU_RX*%
X103027000Y-62838300D03*
X99621700Y-72536000D03*
%TO.N,VBUS*%
X70652400Y-68866800D03*
X65636900Y-93148500D03*
X65636700Y-97517700D03*
%TO.N,W5500_RST*%
X102925000Y-67412000D03*
%TO.N,W5500_INT*%
X90891700Y-67941700D03*
X85200000Y-83350000D03*
X101769000Y-67372000D03*
%TO.N,I2C_SDA*%
X105428000Y-63255200D03*
X97293400Y-78189800D03*
X90505100Y-77974600D03*
%TO.N,EEPROM_WP*%
X102873000Y-68277600D03*
X95583000Y-75426300D03*
%TO.N,I2C_SCL*%
X98200000Y-72250000D03*
X104161000Y-63059000D03*
%TD*%
D45*
%TO.N,GND*%
X63665000Y-92225000D02*
X64240000Y-92800000D01*
X94745000Y-73395000D02*
X94850000Y-73500000D01*
X68950000Y-93650000D02*
X71300000Y-96000000D01*
X93850000Y-72500000D02*
X93850000Y-70700000D01*
X72700000Y-97950000D02*
X72700000Y-100550000D01*
X109000000Y-74565000D02*
X109515000Y-74565000D01*
X88250000Y-97800000D02*
X89000000Y-97050000D01*
X100550000Y-60610000D02*
X99590000Y-60610000D01*
X104200000Y-38700000D02*
X104200000Y-37400000D01*
X63665000Y-90890000D02*
X63665000Y-92225000D01*
X61550000Y-87400000D02*
X60250000Y-86100000D01*
X84450000Y-93375000D02*
X84450000Y-94025000D01*
X60250000Y-68550000D02*
X61700000Y-67100000D01*
X61550000Y-88350000D02*
X61550000Y-87400000D01*
X110450000Y-79950000D02*
X109000000Y-81400000D01*
X63665000Y-90890000D02*
X64990000Y-90890000D01*
X86250000Y-88500000D02*
X86250000Y-87750000D01*
X107160000Y-61410000D02*
X107150000Y-61400000D01*
X60250000Y-86100000D02*
X60250000Y-68550000D01*
X71300000Y-96000000D02*
X73200000Y-96000000D01*
X84450000Y-98575000D02*
X86675000Y-98575000D01*
X64240000Y-92800000D02*
X64500000Y-92800000D01*
X104200000Y-37400000D02*
X104250000Y-37350000D01*
X67605000Y-87365000D02*
X67605000Y-85800000D01*
X81125000Y-98575000D02*
X84450000Y-98575000D01*
X98700000Y-61500000D02*
X98700000Y-61550000D01*
X108950000Y-44050000D02*
X108950000Y-43850000D01*
X103837500Y-54500000D02*
X102650000Y-55850000D01*
X65100000Y-87400000D02*
X67640000Y-87400000D01*
X86425000Y-93375000D02*
X86450000Y-93350000D01*
X105850000Y-83900000D02*
X104210000Y-85540000D01*
X89000000Y-97050000D02*
X89000000Y-95600000D01*
X59735000Y-101110000D02*
X59735000Y-90890000D01*
X64990000Y-90890000D02*
X65500000Y-91400000D01*
X80650000Y-98100000D02*
X80650000Y-97500000D01*
X104210000Y-85540000D02*
X104210000Y-85560000D01*
X86450000Y-90550000D02*
X86250000Y-90350000D01*
X68950000Y-91600000D02*
X68950000Y-93650000D01*
X89000000Y-95600000D02*
X97000000Y-95600000D01*
X105650000Y-38710000D02*
X105640000Y-38700000D01*
X67605000Y-85800000D02*
X65100000Y-85800000D01*
X86250000Y-87750000D02*
X86800000Y-87200000D01*
X62550000Y-85800000D02*
X62300000Y-86050000D01*
X73200000Y-96000000D02*
X77225000Y-96000000D01*
X99590000Y-60610000D02*
X98700000Y-61500000D01*
X63665000Y-101110000D02*
X59735000Y-101110000D01*
X86800000Y-87200000D02*
X88087500Y-87200000D01*
X65500000Y-91800000D02*
X65500000Y-91400000D01*
X110450000Y-75500000D02*
X110450000Y-79950000D01*
X61700000Y-67100000D02*
X65080000Y-67100000D01*
X86500000Y-95400000D02*
X86500000Y-95650000D01*
X105650000Y-49290000D02*
X104160000Y-49290000D01*
X105640000Y-38700000D02*
X104200000Y-38700000D01*
X67640000Y-87400000D02*
X67650000Y-87410000D01*
X79125000Y-95975000D02*
X77250000Y-95975000D01*
X109515000Y-74565000D02*
X110450000Y-75500000D01*
X65100000Y-87400000D02*
X65100000Y-85800000D01*
X97500000Y-71100000D02*
X97500000Y-70312500D01*
X80650000Y-97500000D02*
X79125000Y-95975000D01*
X109000000Y-74565000D02*
X109000000Y-72690000D01*
X84450000Y-96625000D02*
X85300000Y-96650000D01*
X97000000Y-71600000D02*
X97500000Y-71100000D01*
X77225000Y-96000000D02*
X77250000Y-95975000D01*
X72700000Y-97950000D02*
X72700000Y-96000000D01*
X94850000Y-73500000D02*
X93850000Y-72500000D01*
X86675000Y-98575000D02*
X87450000Y-97800000D01*
X96600000Y-64100000D02*
X96250000Y-64450000D01*
X87450000Y-97800000D02*
X88250000Y-97800000D01*
X59735000Y-90890000D02*
X59735000Y-90165000D01*
X84450000Y-93375000D02*
X86425000Y-93375000D01*
X92125000Y-75935000D02*
X92125000Y-74665000D01*
X86450000Y-93350000D02*
X86450000Y-90550000D01*
X92125000Y-77205000D02*
X92125000Y-75935000D01*
X59735000Y-90165000D02*
X61550000Y-88350000D01*
X99360000Y-62210000D02*
X98700000Y-61550000D01*
X91550000Y-70712500D02*
X91562500Y-70700000D01*
X106750000Y-46250000D02*
X106750000Y-47300000D01*
X109000000Y-81400000D02*
X107250000Y-81400000D01*
X91562500Y-70700000D02*
X93850000Y-70700000D01*
X89900000Y-66050000D02*
X89900000Y-66900000D01*
X85525000Y-96625000D02*
X84450000Y-96625000D01*
X92125000Y-74665000D02*
X92125000Y-73395000D01*
X88087500Y-87200000D02*
X88087500Y-84750000D01*
X106750000Y-46250000D02*
X108950000Y-44050000D01*
X109050000Y-61410000D02*
X107160000Y-61410000D01*
X80650000Y-98100000D02*
X81125000Y-98575000D01*
X106750000Y-47300000D02*
X107200000Y-47750000D01*
X65100000Y-85800000D02*
X62550000Y-85800000D01*
X104160000Y-49290000D02*
X104150000Y-49300000D01*
X92125000Y-73395000D02*
X94745000Y-73395000D01*
X91050000Y-64900000D02*
X89900000Y-66050000D01*
X65080000Y-67100000D02*
X65100000Y-67080000D01*
X86500000Y-95650000D02*
X85525000Y-96625000D01*
X100550000Y-62210000D02*
X99360000Y-62210000D01*
X64500000Y-92800000D02*
X65500000Y-91800000D01*
X63665000Y-99775000D02*
X64240000Y-99200000D01*
X67650000Y-90300000D02*
X68950000Y-91600000D01*
X67640000Y-87400000D02*
X67605000Y-87365000D01*
X65100000Y-87400000D02*
X61550000Y-87400000D01*
X63665000Y-101110000D02*
X63665000Y-99775000D01*
X96600000Y-57350000D02*
X96600000Y-64100000D01*
X67650000Y-87410000D02*
X67650000Y-90300000D01*
%TO.N,VCC*%
X93146400Y-88253600D02*
X94250000Y-87150000D01*
X92266100Y-90821400D02*
X92266100Y-89393400D01*
X96172600Y-68400000D02*
X93850000Y-68400000D01*
X67640000Y-72265000D02*
X67640000Y-67080000D01*
X110252000Y-57789200D02*
X107949000Y-55486900D01*
X89939400Y-81060600D02*
X91250000Y-79750000D01*
X78700000Y-77250000D02*
X72625000Y-77250000D01*
X95320900Y-90941600D02*
X94312500Y-91950000D01*
X97805600Y-66881900D02*
X97500000Y-67187500D01*
X107949000Y-55486900D02*
X106962500Y-54500400D01*
X91838600Y-94423900D02*
X94312500Y-91950000D01*
X85725200Y-97275000D02*
X85726700Y-97275000D01*
X87350000Y-96300000D02*
X87350000Y-95141300D01*
X96172600Y-68400000D02*
X96172600Y-72492600D01*
X84400000Y-81700000D02*
X77075000Y-81700000D01*
X92266100Y-89393400D02*
X92266100Y-88253600D01*
X89939400Y-82037600D02*
X89939400Y-81060600D01*
X72625000Y-77250000D02*
X77075000Y-81700000D01*
X99293800Y-63010000D02*
X97805600Y-64498200D01*
X106962500Y-54500400D02*
X106962500Y-54500000D01*
X96172600Y-72492600D02*
X96793000Y-73113000D01*
X87550000Y-68400000D02*
X78700000Y-77250000D01*
X85726700Y-97275000D02*
X85726700Y-97925000D01*
X96287500Y-68400000D02*
X97500000Y-67187500D01*
X96793000Y-73113000D02*
X94300000Y-75606000D01*
X91137500Y-91950000D02*
X92266100Y-90821400D01*
X86375000Y-97275000D02*
X87350000Y-96300000D01*
X77075000Y-81700000D02*
X72625000Y-77250000D01*
X94300000Y-79750000D02*
X91250000Y-79750000D01*
X81776700Y-97275000D02*
X84450000Y-97275000D01*
X100550000Y-63010000D02*
X99293800Y-63010000D01*
X77250000Y-94025000D02*
X78526700Y-94025000D01*
X84450000Y-97275000D02*
X85725200Y-97275000D01*
X96172600Y-68400000D02*
X96287500Y-68400000D01*
X110252000Y-63810000D02*
X110252000Y-57789200D01*
X101752000Y-61410000D02*
X101752000Y-63010000D01*
X105719000Y-63956900D02*
X105866000Y-63810000D01*
X100550000Y-63010000D02*
X101752000Y-63010000D01*
X88067400Y-94423900D02*
X91838600Y-94423900D01*
X100550000Y-61410000D02*
X101752000Y-61410000D01*
X109050000Y-63810000D02*
X110252000Y-63810000D01*
X97805600Y-64498200D02*
X97805600Y-66881900D01*
X73350000Y-93650000D02*
X73725000Y-94025000D01*
X91212500Y-84750000D02*
X91212500Y-87200000D01*
X101752000Y-63010000D02*
X102699000Y-63956900D01*
X94250000Y-87150000D02*
X95320900Y-88220900D01*
X105866000Y-63810000D02*
X109050000Y-63810000D01*
X78526700Y-94025000D02*
X81776700Y-97275000D01*
X96793000Y-73113000D02*
X97075000Y-73395000D01*
X87350000Y-95141300D02*
X88067400Y-94423900D01*
X95320900Y-88220900D02*
X95320900Y-90941600D01*
X92266100Y-88253600D02*
X93146400Y-88253600D01*
X85726700Y-97925000D02*
X84450000Y-97925000D01*
X73725000Y-94025000D02*
X77250000Y-94025000D01*
X107949000Y-55486900D02*
X106962000Y-54500200D01*
X92821200Y-89393400D02*
X92266100Y-89393400D01*
X72625000Y-77250000D02*
X67640000Y-72265000D01*
X102699000Y-63956900D02*
X105719000Y-63956900D01*
X94300000Y-75606000D02*
X94300000Y-79750000D01*
X92266100Y-88253600D02*
X91212500Y-87200000D01*
X85725200Y-97275000D02*
X86375000Y-97275000D01*
D10*
%TO.N,Net-(U2-DTR)*%
X77250000Y-92725000D02*
X79066200Y-92725000D01*
X95865700Y-91589000D02*
X95865700Y-86378200D01*
X79066200Y-92725000D02*
X80202200Y-91589000D01*
X95865700Y-86378200D02*
X94237500Y-84750000D01*
%TO.N,MCU_RESET*%
X97350000Y-84762500D02*
X97362500Y-84750000D01*
X106750000Y-85560000D02*
X105480000Y-86830000D01*
X104400000Y-62011000D02*
X104400000Y-57560000D01*
X98348400Y-87150000D02*
X97350000Y-87150000D01*
X98668400Y-86830000D02*
X98348400Y-87150000D01*
X97000000Y-99098300D02*
X98348400Y-97749900D01*
X105480000Y-86830000D02*
X98668400Y-86830000D01*
X98348400Y-97749900D02*
X98348400Y-87150000D01*
X104384000Y-62027200D02*
X104400000Y-62011000D01*
X97000000Y-100100000D02*
X97000000Y-99098300D01*
X89000000Y-100100000D02*
X97000000Y-100100000D01*
X97350000Y-87150000D02*
X97350000Y-84762500D01*
%TO.N,Net-(U1-XTAL1{slash}PB6)*%
X100550000Y-63810000D02*
X99448300Y-63810000D01*
X106944000Y-75634300D02*
X109000000Y-77690000D01*
X99448300Y-63810000D02*
X99448300Y-70878300D01*
X99448300Y-70878300D02*
X104500000Y-75930000D01*
X106944000Y-74273900D02*
X106944000Y-75634300D01*
%TO.N,Net-(U1-XTAL2{slash}PB7)*%
X100550000Y-67100000D02*
X104500000Y-71050000D01*
X108390000Y-70175200D02*
X106794000Y-70175200D01*
X100550000Y-64610000D02*
X100550000Y-67100000D01*
X109000000Y-69565000D02*
X108390000Y-70175200D01*
%TO.N,Net-(D1-K)*%
X97350000Y-91887500D02*
X97350000Y-89550000D01*
X97287500Y-91950000D02*
X97350000Y-91887500D01*
%TO.N,Net-(D2-K)*%
X90512500Y-89600000D02*
X91150000Y-89600000D01*
X88162500Y-91950000D02*
X90512500Y-89600000D01*
%TO.N,MCU_MISO*%
X107600000Y-68804400D02*
X107246000Y-69158500D01*
X107600000Y-66060000D02*
X107600000Y-68804400D01*
%TO.N,MCU_SCK*%
X111200000Y-83650000D02*
X111200000Y-65658000D01*
X106750000Y-88100000D02*
X111200000Y-83650000D01*
X110152000Y-64610000D02*
X109050000Y-64610000D01*
X111200000Y-65658000D02*
X110152000Y-64610000D01*
%TO.N,MCU_MOSI*%
X106192000Y-67769900D02*
X106192000Y-82229100D01*
X106192000Y-82229100D02*
X107914000Y-83951600D01*
X107075000Y-86948300D02*
X105990000Y-86948300D01*
X105990000Y-86948300D02*
X104838000Y-88100000D01*
X107914000Y-83951600D02*
X107914000Y-86109200D01*
X106800000Y-67161700D02*
X106192000Y-67769900D01*
X107914000Y-86109200D02*
X107075000Y-86948300D01*
X106800000Y-66060000D02*
X106800000Y-67161700D01*
X104838000Y-88100000D02*
X104210000Y-88100000D01*
D46*
%TO.N,RELAY_1_NO*%
X72501700Y-42063100D02*
X76442600Y-46004000D01*
X72501700Y-35900000D02*
X72501700Y-42063100D01*
X70400000Y-35900000D02*
X72501700Y-35900000D01*
D10*
%TO.N,Net-(D5-K)*%
X108900000Y-41437500D02*
X107393000Y-41437500D01*
X104774000Y-44056500D02*
X104774000Y-45126200D01*
X107393000Y-41437500D02*
X104774000Y-44056500D01*
X104774000Y-45126200D02*
X103650000Y-46250000D01*
%TO.N,Net-(U2-CBUS0)*%
X91260900Y-93710000D02*
X87270150Y-93710000D01*
X93284000Y-90516000D02*
X93284000Y-91686900D01*
X93284000Y-91686900D02*
X91260900Y-93710000D01*
X85655150Y-95325000D02*
X84450000Y-95325000D01*
X94250000Y-89550000D02*
X93284000Y-90516000D01*
X87270150Y-93710000D02*
X85655150Y-95325000D01*
%TO.N,Net-(U2-CBUS1)*%
X83273300Y-91675600D02*
X85348900Y-89600000D01*
X84450000Y-95975000D02*
X83273300Y-95975000D01*
X85348900Y-89600000D02*
X88050000Y-89600000D01*
X83273300Y-95975000D02*
X83273300Y-91675600D01*
%TO.N,MCU_TX*%
X98863300Y-64588700D02*
X98785300Y-64510700D01*
X102800000Y-57560000D02*
X102800000Y-59841600D01*
X91250000Y-82200000D02*
X92475000Y-80975000D01*
X102800000Y-59841600D02*
X102447000Y-60195000D01*
X98010000Y-80975000D02*
X98863300Y-80121700D01*
X92475000Y-80975000D02*
X98010000Y-80975000D01*
X98863300Y-80121700D02*
X98863300Y-64588700D01*
%TO.N,Net-(U2-RXD)*%
X75958200Y-94790100D02*
X71852100Y-94790100D01*
X73135900Y-91266700D02*
X79083300Y-91266700D01*
X76073300Y-94675000D02*
X75958200Y-94790100D01*
X79083300Y-91266700D02*
X88150000Y-82200000D01*
X71852100Y-94790100D02*
X71501000Y-94439000D01*
X71501000Y-92901600D02*
X73135900Y-91266700D01*
X71501000Y-94439000D02*
X71501000Y-92901600D01*
X77250000Y-94675000D02*
X76073300Y-94675000D01*
%TO.N,Net-(U2-TXD)*%
X87445700Y-83483600D02*
X93016400Y-83483600D01*
X77250000Y-92075000D02*
X78854300Y-92075000D01*
X78854300Y-92075000D02*
X87445700Y-83483600D01*
X93016400Y-83483600D02*
X94300000Y-82200000D01*
%TO.N,MCU_RX*%
X103600000Y-57560000D02*
X103600000Y-62265100D01*
X99621700Y-79978300D02*
X99621700Y-72536000D01*
X103600000Y-62265100D02*
X103027000Y-62838300D01*
X97400000Y-82200000D02*
X99621700Y-79978300D01*
%TO.N,RELAY_1*%
X103850000Y-35700000D02*
X105150000Y-37000000D01*
X106265000Y-53297300D02*
X107624000Y-53297300D01*
X99200000Y-32500000D02*
X99200000Y-32250000D01*
X103776000Y-56458300D02*
X105400000Y-54834300D01*
X102000000Y-57560000D02*
X102000000Y-56458300D01*
X105150000Y-37000000D02*
X108900000Y-37000000D01*
X103850000Y-31650000D02*
X103850000Y-35700000D01*
X105400000Y-54162500D02*
X106265000Y-53297300D01*
X100450000Y-31000000D02*
X103200000Y-31000000D01*
X103200000Y-31000000D02*
X103850000Y-31650000D01*
X108900000Y-37000000D02*
X108900000Y-38462500D01*
X102000000Y-56458300D02*
X103776000Y-56458300D01*
X110129000Y-53004600D02*
X110129000Y-39691600D01*
X107722000Y-53395200D02*
X109738000Y-53395200D01*
X110129000Y-39691600D02*
X108900000Y-38462500D01*
X99200000Y-32250000D02*
X100450000Y-31000000D01*
X109738000Y-53395200D02*
X110129000Y-53004600D01*
X105400000Y-54834300D02*
X105400000Y-54162500D01*
X107624000Y-53297300D02*
X107722000Y-53395200D01*
%TO.N,RELAY_2*%
X108900000Y-52287500D02*
X108424000Y-52764000D01*
X100550000Y-56608300D02*
X100550000Y-59010000D01*
X102679000Y-44921300D02*
X103650000Y-43950000D01*
X103670000Y-52764000D02*
X102679000Y-51772400D01*
X102699000Y-53735500D02*
X102699000Y-54459500D01*
X102679000Y-51772400D02*
X102679000Y-44921300D01*
X103670000Y-52764000D02*
X102699000Y-53735500D01*
X102699000Y-54459500D02*
X100550000Y-56608300D01*
X108424000Y-52764000D02*
X103670000Y-52764000D01*
%TO.N,Net-(D6-K)*%
X108950000Y-46950000D02*
X108950000Y-49262500D01*
X108950000Y-49262500D02*
X108900000Y-49312500D01*
D45*
%TO.N,VBUS*%
X94500000Y-63900000D02*
X94500000Y-65450000D01*
X71450000Y-63900000D02*
X94500000Y-63900000D01*
X95400000Y-51339100D02*
X95400000Y-63000000D01*
X65636700Y-97517700D02*
X65636700Y-97863300D01*
X95400000Y-63000000D02*
X94500000Y-63900000D01*
X102500000Y-38735400D02*
X100750000Y-36985400D01*
X102500000Y-44050000D02*
X102500000Y-38735400D01*
X71450000Y-68069200D02*
X71450000Y-63900000D01*
D10*
X100750000Y-45989100D02*
X100750000Y-45800000D01*
D45*
X64240000Y-93600000D02*
X65185400Y-93600000D01*
X72900000Y-56300000D02*
X80700000Y-48500000D01*
X65636700Y-97863300D02*
X65100000Y-98400000D01*
X65100000Y-98400000D02*
X64240000Y-98400000D01*
X71450000Y-63900000D02*
X72900000Y-62450000D01*
X83150000Y-46050000D02*
X83150000Y-34550000D01*
X100750000Y-45800000D02*
X102500000Y-44050000D01*
D10*
X100750000Y-46690000D02*
X100750000Y-45989100D01*
D45*
X100750000Y-45989100D02*
X95400000Y-51339100D01*
X65185400Y-93600000D02*
X65636900Y-93148500D01*
X83150000Y-34550000D02*
X80700000Y-32100000D01*
X72900000Y-62450000D02*
X72900000Y-56300000D01*
X100750000Y-36985400D02*
X100750000Y-35750000D01*
D10*
X94500000Y-65450000D02*
X93850000Y-66100000D01*
D45*
X80700000Y-48500000D02*
X83150000Y-46050000D01*
X70652400Y-68866800D02*
X71450000Y-68069200D01*
D10*
%TO.N,W5500_RST*%
X102800000Y-67287000D02*
X102800000Y-66060000D01*
X102925000Y-67412000D02*
X102800000Y-67287000D01*
%TO.N,W5500_INT*%
X89000000Y-72500000D02*
X89750000Y-71900000D01*
X102000000Y-66060000D02*
X102000000Y-67161700D01*
X86150000Y-72500000D02*
X89000000Y-72500000D01*
X90858300Y-67941700D02*
X90891700Y-67941700D01*
X85200000Y-73450000D02*
X86150000Y-72500000D01*
X85200000Y-83350000D02*
X85200000Y-73450000D01*
X101980000Y-67161700D02*
X101769000Y-67372000D01*
X102000000Y-67161700D02*
X101980000Y-67161700D01*
X89750000Y-71900000D02*
X89750000Y-69050000D01*
X89750000Y-69050000D02*
X90858300Y-67941700D01*
%TO.N,Net-(J3-CC1)*%
X66400000Y-94750000D02*
X69600000Y-97950000D01*
X64240000Y-94750000D02*
X66400000Y-94750000D01*
%TO.N,W5500_CS*%
X75260000Y-87400000D02*
X76411700Y-87400000D01*
X90240700Y-72228800D02*
X90240700Y-69987400D01*
X76411700Y-87400000D02*
X76411700Y-87687900D01*
X81038200Y-88561800D02*
X85900000Y-83700000D01*
X86450000Y-73150000D02*
X89319500Y-73150000D01*
X94682400Y-67250000D02*
X97303900Y-64628500D01*
X77285600Y-88561800D02*
X81038200Y-88561800D01*
X92978100Y-67250000D02*
X94682400Y-67250000D01*
X97303900Y-64628500D02*
X97303900Y-61954400D01*
X97303900Y-61954400D02*
X99448300Y-59810000D01*
X99448300Y-59810000D02*
X100550000Y-59810000D01*
X76411700Y-87687900D02*
X77285600Y-88561800D01*
X85900000Y-83700000D02*
X85900000Y-73700000D01*
X90240700Y-69987400D02*
X92978100Y-67250000D01*
X85900000Y-73700000D02*
X86450000Y-73150000D01*
X89319500Y-73150000D02*
X90240700Y-72228800D01*
%TO.N,Net-(J3-CC2)*%
X62642300Y-89458700D02*
X62254600Y-89846400D01*
X70574700Y-99575300D02*
X70574700Y-97033100D01*
X62254600Y-89846400D02*
X62254600Y-96418400D01*
X66941500Y-94231100D02*
X66941500Y-91725000D01*
X63586200Y-97750000D02*
X64240000Y-97750000D01*
X69600000Y-100550000D02*
X70574700Y-99575300D01*
X62254600Y-96418400D02*
X63586200Y-97750000D01*
X70574700Y-97033100D02*
X70313900Y-96772300D01*
X66941500Y-91725000D02*
X64675200Y-89458700D01*
X69482700Y-96772300D02*
X66941500Y-94231100D01*
X64675200Y-89458700D02*
X62642300Y-89458700D01*
X70313900Y-96772300D02*
X69482700Y-96772300D01*
%TO.N,I2C_SDA*%
X97293400Y-78189800D02*
X97075000Y-77971400D01*
X97075000Y-77971400D02*
X97075000Y-77205000D01*
X106000000Y-57560000D02*
X106000000Y-62683700D01*
X89925400Y-77974600D02*
X88150000Y-79750000D01*
X90505100Y-77974600D02*
X89925400Y-77974600D01*
X106000000Y-62683700D02*
X105428000Y-63255200D01*
%TO.N,EEPROM_WP*%
X95583000Y-75426300D02*
X96344300Y-74665000D01*
X96344300Y-74665000D02*
X97075000Y-74665000D01*
X102946000Y-68277600D02*
X102873000Y-68277600D01*
X103600000Y-66060000D02*
X103600000Y-67624000D01*
X103600000Y-67624000D02*
X102946000Y-68277600D01*
%TO.N,I2C_SCL*%
X104161000Y-63059000D02*
X104203000Y-63059000D01*
X97075000Y-75935000D02*
X98358000Y-75935000D01*
X98358000Y-72408000D02*
X98358000Y-75935000D01*
X104203000Y-63059000D02*
X105200000Y-62061900D01*
X105200000Y-62061900D02*
X105200000Y-57560000D01*
X98358000Y-75935000D02*
X98358000Y-78792000D01*
X98200000Y-72250000D02*
X98358000Y-72408000D01*
X98358000Y-78792000D02*
X97400000Y-79750000D01*
%TO.N,Net-(Q1-B)*%
X103000000Y-37850000D02*
X103300000Y-38150000D01*
X103000000Y-34450000D02*
X103000000Y-37850000D01*
X102300000Y-32500000D02*
X102300000Y-33750000D01*
X103300000Y-38150000D02*
X103300000Y-39200000D01*
X104080000Y-39980000D02*
X105650000Y-39980000D01*
X103300000Y-39200000D02*
X104080000Y-39980000D01*
X102300000Y-33750000D02*
X103000000Y-34450000D01*
%TO.N,Net-(Q2-B)*%
X105500000Y-45200000D02*
X106750000Y-43950000D01*
X106702000Y-50560000D02*
X107100000Y-50162000D01*
X105500000Y-47300000D02*
X105500000Y-45200000D01*
X107100000Y-48900000D02*
X105500000Y-47300000D01*
X107100000Y-50162000D02*
X107100000Y-48900000D01*
X105650000Y-50560000D02*
X106702000Y-50560000D01*
%TO.N,USB_D+*%
X63578800Y-95750000D02*
X64240000Y-95750000D01*
X84450000Y-100525000D02*
X83137500Y-100525000D01*
X64240000Y-95750000D02*
X64268800Y-95750000D01*
X63278800Y-96050000D02*
X63578800Y-95750000D01*
X80943200Y-102375000D02*
X68506800Y-102375000D01*
X68506800Y-102375000D02*
X66875000Y-100743000D01*
X65102500Y-96750000D02*
X64240000Y-96750000D01*
X66306800Y-96725000D02*
X65127500Y-96725000D01*
X65127500Y-96725000D02*
X65102500Y-96750000D01*
X63278800Y-96450000D02*
X63278800Y-96050000D01*
X63578800Y-96750000D02*
X63278800Y-96450000D01*
X64240000Y-96750000D02*
X63578800Y-96750000D01*
X83137500Y-100525000D02*
X83037500Y-100425000D01*
X66875000Y-97293200D02*
X66306800Y-96725000D01*
X82893200Y-100425000D02*
X80943200Y-102375000D01*
X66875000Y-100743000D02*
X66875000Y-97293200D01*
X83037500Y-100425000D02*
X82893200Y-100425000D01*
%TO.N,USB_D-*%
X66493200Y-96275000D02*
X65650000Y-96275000D01*
X84450000Y-99875000D02*
X83137500Y-99875000D01*
X64240000Y-95250000D02*
X65228800Y-95250000D01*
X65228800Y-95250000D02*
X65650000Y-95671200D01*
X65102500Y-96250000D02*
X64240000Y-96250000D01*
X83137500Y-99875000D02*
X83037500Y-99975000D01*
X83037500Y-99975000D02*
X82706800Y-99975000D01*
X67325000Y-100557000D02*
X67325000Y-97106800D01*
X82706800Y-99975000D02*
X80756800Y-101925000D01*
X68693200Y-101925000D02*
X67325000Y-100557000D01*
X65650000Y-95671200D02*
X65650000Y-96275000D01*
X80756800Y-101925000D02*
X68693200Y-101925000D01*
X65650000Y-96275000D02*
X65127500Y-96275000D01*
X67325000Y-97106800D02*
X66493200Y-96275000D01*
X65127500Y-96275000D02*
X65102500Y-96250000D01*
%TD*%
%TA.AperFunction,Conductor*%
%TO.N,GND*%
G36*
X79603608Y-30520185D02*
G01*
X79649363Y-30572989D01*
X79659307Y-30642147D01*
X79630282Y-30705703D01*
X79609081Y-30724584D01*
X79609151Y-30724672D01*
X79607545Y-30725952D01*
X79606422Y-30726953D01*
X79605522Y-30727566D01*
X79413198Y-30906014D01*
X79249614Y-31111143D01*
X79118432Y-31338356D01*
X79022582Y-31582578D01*
X79022576Y-31582597D01*
X78964197Y-31838374D01*
X78964196Y-31838379D01*
X78944592Y-32099995D01*
X78944592Y-32100004D01*
X78964196Y-32361620D01*
X78964197Y-32361625D01*
X79022576Y-32617402D01*
X79022578Y-32617411D01*
X79022580Y-32617416D01*
X79118432Y-32861643D01*
X79249614Y-33088857D01*
X79381736Y-33254533D01*
X79413198Y-33293985D01*
X79594753Y-33462441D01*
X79605521Y-33472433D01*
X79822296Y-33620228D01*
X79822301Y-33620230D01*
X79822302Y-33620231D01*
X79822303Y-33620232D01*
X79947843Y-33680688D01*
X80058673Y-33734061D01*
X80058674Y-33734061D01*
X80058677Y-33734063D01*
X80309385Y-33811396D01*
X80568818Y-33850500D01*
X80831182Y-33850500D01*
X81090615Y-33811396D01*
X81271517Y-33755594D01*
X81341380Y-33754645D01*
X81395748Y-33786405D01*
X82413181Y-34803838D01*
X82446666Y-34865161D01*
X82449500Y-34891519D01*
X82449500Y-43166449D01*
X82429815Y-43233488D01*
X82377011Y-43279243D01*
X82307853Y-43289187D01*
X82244297Y-43260162D01*
X82218113Y-43228449D01*
X82182317Y-43166449D01*
X82150386Y-43111143D01*
X81986805Y-42906019D01*
X81986804Y-42906018D01*
X81986801Y-42906014D01*
X81794479Y-42727567D01*
X81762971Y-42706085D01*
X81577704Y-42579772D01*
X81577700Y-42579770D01*
X81577697Y-42579768D01*
X81577696Y-42579767D01*
X81341325Y-42465938D01*
X81341327Y-42465938D01*
X81090623Y-42388606D01*
X81090619Y-42388605D01*
X81090615Y-42388604D01*
X80958258Y-42368654D01*
X80831187Y-42349500D01*
X80831182Y-42349500D01*
X80568818Y-42349500D01*
X80568812Y-42349500D01*
X80407247Y-42373853D01*
X80309385Y-42388604D01*
X80309382Y-42388605D01*
X80309376Y-42388606D01*
X80058673Y-42465938D01*
X79822303Y-42579767D01*
X79822302Y-42579768D01*
X79822296Y-42579771D01*
X79822296Y-42579772D01*
X79814371Y-42585175D01*
X79605520Y-42727567D01*
X79413198Y-42906014D01*
X79249614Y-43111143D01*
X79118432Y-43338356D01*
X79022582Y-43582578D01*
X79022576Y-43582597D01*
X78964197Y-43838374D01*
X78964196Y-43838379D01*
X78944592Y-44099995D01*
X78944592Y-44100004D01*
X78964196Y-44361620D01*
X78964197Y-44361625D01*
X79022576Y-44617402D01*
X79022578Y-44617411D01*
X79022580Y-44617416D01*
X79118432Y-44861643D01*
X79249614Y-45088857D01*
X79325741Y-45184317D01*
X79413198Y-45293985D01*
X79594753Y-45462441D01*
X79605521Y-45472433D01*
X79822296Y-45620228D01*
X79822301Y-45620230D01*
X79822302Y-45620231D01*
X79822303Y-45620232D01*
X79947843Y-45680688D01*
X80058673Y-45734061D01*
X80058674Y-45734061D01*
X80058677Y-45734063D01*
X80309385Y-45811396D01*
X80568818Y-45850500D01*
X80831182Y-45850500D01*
X81090615Y-45811396D01*
X81341323Y-45734063D01*
X81528111Y-45644110D01*
X81577696Y-45620232D01*
X81577696Y-45620231D01*
X81577704Y-45620228D01*
X81794479Y-45472433D01*
X81986805Y-45293981D01*
X82150386Y-45088857D01*
X82218113Y-44971549D01*
X82268680Y-44923334D01*
X82337287Y-44910111D01*
X82402152Y-44936079D01*
X82442680Y-44992994D01*
X82449500Y-45033550D01*
X82449500Y-45708480D01*
X82429815Y-45775519D01*
X82413181Y-45796161D01*
X81395747Y-46813594D01*
X81334424Y-46847079D01*
X81271517Y-46844404D01*
X81090627Y-46788607D01*
X81090620Y-46788605D01*
X81090615Y-46788604D01*
X80965823Y-46769794D01*
X80831187Y-46749500D01*
X80831182Y-46749500D01*
X80568818Y-46749500D01*
X80568812Y-46749500D01*
X80408039Y-46773734D01*
X80309385Y-46788604D01*
X80309382Y-46788605D01*
X80309376Y-46788606D01*
X80058673Y-46865938D01*
X79822303Y-46979767D01*
X79822302Y-46979768D01*
X79605520Y-47127567D01*
X79413198Y-47306014D01*
X79249614Y-47511143D01*
X79118432Y-47738356D01*
X79022582Y-47982578D01*
X79022576Y-47982597D01*
X78964197Y-48238374D01*
X78964196Y-48238379D01*
X78944592Y-48499995D01*
X78944592Y-48500004D01*
X78964196Y-48761620D01*
X78964197Y-48761625D01*
X79022579Y-49017414D01*
X79040649Y-49063458D01*
X79046816Y-49133055D01*
X79014378Y-49194938D01*
X79012901Y-49196440D01*
X72576266Y-55633076D01*
X72514943Y-55666561D01*
X72445251Y-55661577D01*
X72389318Y-55619705D01*
X72366112Y-55564791D01*
X72363553Y-55548632D01*
X72335661Y-55462791D01*
X72322722Y-55422968D01*
X72290568Y-55324008D01*
X72290566Y-55324005D01*
X72290566Y-55324003D01*
X72183342Y-55113566D01*
X72129064Y-55038859D01*
X72044517Y-54922490D01*
X71877510Y-54755483D01*
X71686433Y-54616657D01*
X71658678Y-54602515D01*
X71475996Y-54509433D01*
X71251368Y-54436446D01*
X71018097Y-54399500D01*
X71018092Y-54399500D01*
X69781908Y-54399500D01*
X69781903Y-54399500D01*
X69548631Y-54436446D01*
X69324003Y-54509433D01*
X69113566Y-54616657D01*
X69036373Y-54672742D01*
X68922490Y-54755483D01*
X68922488Y-54755485D01*
X68922487Y-54755485D01*
X68755485Y-54922487D01*
X68755485Y-54922488D01*
X68755483Y-54922490D01*
X68742747Y-54940020D01*
X68616657Y-55113566D01*
X68509433Y-55324003D01*
X68436446Y-55548631D01*
X68399500Y-55781902D01*
X68399500Y-56018097D01*
X68436446Y-56251368D01*
X68509433Y-56475996D01*
X68600500Y-56654723D01*
X68616657Y-56686433D01*
X68755483Y-56877510D01*
X68922490Y-57044517D01*
X69113567Y-57183343D01*
X69212991Y-57234002D01*
X69324003Y-57290566D01*
X69324005Y-57290566D01*
X69324008Y-57290568D01*
X69444412Y-57329689D01*
X69548631Y-57363553D01*
X69781903Y-57400500D01*
X69781908Y-57400500D01*
X71018097Y-57400500D01*
X71251368Y-57363553D01*
X71475992Y-57290568D01*
X71686433Y-57183343D01*
X71877510Y-57044517D01*
X71987819Y-56934208D01*
X72049142Y-56900723D01*
X72118834Y-56905707D01*
X72174767Y-56947579D01*
X72199184Y-57013043D01*
X72199500Y-57021889D01*
X72199500Y-59778111D01*
X72179815Y-59845150D01*
X72127011Y-59890905D01*
X72057853Y-59900849D01*
X71994297Y-59871824D01*
X71987819Y-59865792D01*
X71877512Y-59755485D01*
X71877510Y-59755483D01*
X71686433Y-59616657D01*
X71585412Y-59565184D01*
X71475996Y-59509433D01*
X71251368Y-59436446D01*
X71018097Y-59399500D01*
X71018092Y-59399500D01*
X69781908Y-59399500D01*
X69781903Y-59399500D01*
X69548631Y-59436446D01*
X69324003Y-59509433D01*
X69113566Y-59616657D01*
X69021783Y-59683342D01*
X68922490Y-59755483D01*
X68922488Y-59755485D01*
X68922487Y-59755485D01*
X68755485Y-59922487D01*
X68755485Y-59922488D01*
X68755483Y-59922490D01*
X68711822Y-59982584D01*
X68616657Y-60113566D01*
X68509433Y-60324003D01*
X68436446Y-60548631D01*
X68399500Y-60781902D01*
X68399500Y-61018097D01*
X68436446Y-61251368D01*
X68509433Y-61475996D01*
X68599205Y-61652182D01*
X68616657Y-61686433D01*
X68755483Y-61877510D01*
X68922490Y-62044517D01*
X69113567Y-62183343D01*
X69169533Y-62211859D01*
X69324003Y-62290566D01*
X69324005Y-62290566D01*
X69324008Y-62290568D01*
X69382275Y-62309500D01*
X69548631Y-62363553D01*
X69781903Y-62400500D01*
X69781908Y-62400500D01*
X71018097Y-62400500D01*
X71251368Y-62363553D01*
X71334871Y-62336421D01*
X71475992Y-62290568D01*
X71686433Y-62183343D01*
X71877510Y-62044517D01*
X71987819Y-61934208D01*
X72049142Y-61900723D01*
X72118834Y-61905707D01*
X72174767Y-61947579D01*
X72199184Y-62013043D01*
X72199500Y-62021889D01*
X72199500Y-62108480D01*
X72179815Y-62175519D01*
X72163181Y-62196161D01*
X70905888Y-63453453D01*
X70905887Y-63453454D01*
X70829222Y-63568192D01*
X70776421Y-63695667D01*
X70776418Y-63695679D01*
X70752749Y-63814672D01*
X70752749Y-63814676D01*
X70749500Y-63831007D01*
X70749500Y-65672855D01*
X70729815Y-65739894D01*
X70677011Y-65785649D01*
X70607853Y-65795593D01*
X70593408Y-65792630D01*
X70415416Y-65744939D01*
X70415412Y-65744938D01*
X70415408Y-65744937D01*
X70415406Y-65744936D01*
X70415403Y-65744936D01*
X70180001Y-65724341D01*
X70179999Y-65724341D01*
X69944596Y-65744936D01*
X69944586Y-65744938D01*
X69716344Y-65806094D01*
X69716335Y-65806098D01*
X69502171Y-65905964D01*
X69502169Y-65905965D01*
X69308597Y-66041505D01*
X69141505Y-66208597D01*
X69011575Y-66394158D01*
X68956998Y-66437783D01*
X68887500Y-66444977D01*
X68825145Y-66413454D01*
X68808425Y-66394158D01*
X68678494Y-66208597D01*
X68511402Y-66041506D01*
X68511395Y-66041501D01*
X68317834Y-65905967D01*
X68317830Y-65905965D01*
X68209498Y-65855449D01*
X68103663Y-65806097D01*
X68103659Y-65806096D01*
X68103655Y-65806094D01*
X67875413Y-65744938D01*
X67875403Y-65744936D01*
X67640001Y-65724341D01*
X67639999Y-65724341D01*
X67404596Y-65744936D01*
X67404586Y-65744938D01*
X67176344Y-65806094D01*
X67176335Y-65806098D01*
X66962171Y-65905964D01*
X66962169Y-65905965D01*
X66768597Y-66041505D01*
X66601508Y-66208594D01*
X66471269Y-66394595D01*
X66416692Y-66438219D01*
X66347193Y-66445412D01*
X66284839Y-66413890D01*
X66268119Y-66394594D01*
X66138113Y-66208926D01*
X66138108Y-66208920D01*
X65971082Y-66041894D01*
X65777578Y-65906399D01*
X65563492Y-65806570D01*
X65563486Y-65806567D01*
X65350000Y-65749364D01*
X65350000Y-66646988D01*
X65292993Y-66614075D01*
X65165826Y-66580000D01*
X65034174Y-66580000D01*
X64907007Y-66614075D01*
X64850000Y-66646988D01*
X64850000Y-65749364D01*
X64849999Y-65749364D01*
X64636513Y-65806567D01*
X64636507Y-65806570D01*
X64422422Y-65906399D01*
X64422420Y-65906400D01*
X64228926Y-66041886D01*
X64228920Y-66041891D01*
X64061891Y-66208920D01*
X64061886Y-66208926D01*
X63926400Y-66402420D01*
X63926399Y-66402422D01*
X63826570Y-66616507D01*
X63826567Y-66616513D01*
X63769364Y-66829999D01*
X63769364Y-66830000D01*
X64666988Y-66830000D01*
X64634075Y-66887007D01*
X64600000Y-67014174D01*
X64600000Y-67145826D01*
X64634075Y-67272993D01*
X64666988Y-67330000D01*
X63769364Y-67330000D01*
X63826567Y-67543486D01*
X63826570Y-67543492D01*
X63926399Y-67757578D01*
X64061894Y-67951082D01*
X64228917Y-68118105D01*
X64422421Y-68253600D01*
X64636507Y-68353429D01*
X64636516Y-68353433D01*
X64850000Y-68410634D01*
X64850000Y-67513012D01*
X64907007Y-67545925D01*
X65034174Y-67580000D01*
X65165826Y-67580000D01*
X65292993Y-67545925D01*
X65350000Y-67513012D01*
X65350000Y-68410633D01*
X65563483Y-68353433D01*
X65563492Y-68353429D01*
X65777578Y-68253600D01*
X65971082Y-68118105D01*
X66138105Y-67951082D01*
X66268119Y-67765405D01*
X66322696Y-67721781D01*
X66392195Y-67714588D01*
X66454549Y-67746110D01*
X66471269Y-67765405D01*
X66601505Y-67951401D01*
X66601506Y-67951402D01*
X66768597Y-68118494D01*
X66886623Y-68201136D01*
X66930248Y-68255713D01*
X66939500Y-68302711D01*
X66939500Y-68975500D01*
X66919815Y-69042539D01*
X66867011Y-69088294D01*
X66815500Y-69099500D01*
X61670943Y-69099500D01*
X61518216Y-69140423D01*
X61518209Y-69140426D01*
X61381290Y-69219475D01*
X61381282Y-69219481D01*
X61269481Y-69331282D01*
X61269475Y-69331290D01*
X61190426Y-69468209D01*
X61190423Y-69468216D01*
X61149500Y-69620943D01*
X61149500Y-84879057D01*
X61190409Y-85031729D01*
X61190423Y-85031783D01*
X61190426Y-85031790D01*
X61269475Y-85168709D01*
X61269479Y-85168714D01*
X61269480Y-85168716D01*
X61381284Y-85280520D01*
X61381286Y-85280521D01*
X61381290Y-85280524D01*
X61457779Y-85324684D01*
X61518216Y-85359577D01*
X61670943Y-85400500D01*
X61829057Y-85400500D01*
X83050903Y-85400500D01*
X83117942Y-85420185D01*
X83163697Y-85472989D01*
X83173641Y-85542147D01*
X83144616Y-85605703D01*
X83138584Y-85612181D01*
X80825784Y-87924981D01*
X80764461Y-87958466D01*
X80738103Y-87961300D01*
X79209341Y-87961300D01*
X79142302Y-87941615D01*
X79096547Y-87888811D01*
X79086603Y-87819653D01*
X79089566Y-87805207D01*
X79090935Y-87800099D01*
X79135063Y-87635408D01*
X79155659Y-87400000D01*
X79135063Y-87164592D01*
X79073903Y-86936337D01*
X78974035Y-86722171D01*
X78968731Y-86714595D01*
X78838494Y-86528597D01*
X78671402Y-86361506D01*
X78671395Y-86361501D01*
X78477834Y-86225967D01*
X78477830Y-86225965D01*
X78415562Y-86196929D01*
X78263663Y-86126097D01*
X78263659Y-86126096D01*
X78263655Y-86126094D01*
X78035413Y-86064938D01*
X78035403Y-86064936D01*
X77800001Y-86044341D01*
X77799999Y-86044341D01*
X77564596Y-86064936D01*
X77564586Y-86064938D01*
X77336344Y-86126094D01*
X77336335Y-86126098D01*
X77122171Y-86225964D01*
X77122169Y-86225965D01*
X76928597Y-86361505D01*
X76761508Y-86528594D01*
X76631574Y-86714160D01*
X76576997Y-86757784D01*
X76507498Y-86764977D01*
X76445144Y-86733455D01*
X76428429Y-86714164D01*
X76298495Y-86528599D01*
X76298493Y-86528596D01*
X76131402Y-86361506D01*
X76131395Y-86361501D01*
X75937834Y-86225967D01*
X75937830Y-86225965D01*
X75875562Y-86196929D01*
X75723663Y-86126097D01*
X75723659Y-86126096D01*
X75723655Y-86126094D01*
X75495413Y-86064938D01*
X75495403Y-86064936D01*
X75260001Y-86044341D01*
X75259999Y-86044341D01*
X75024596Y-86064936D01*
X75024586Y-86064938D01*
X74796344Y-86126094D01*
X74796335Y-86126098D01*
X74582171Y-86225964D01*
X74582169Y-86225965D01*
X74388597Y-86361505D01*
X74221505Y-86528597D01*
X74091575Y-86714158D01*
X74036998Y-86757783D01*
X73967500Y-86764977D01*
X73905145Y-86733454D01*
X73888425Y-86714158D01*
X73758494Y-86528597D01*
X73591402Y-86361506D01*
X73591395Y-86361501D01*
X73397834Y-86225967D01*
X73397830Y-86225965D01*
X73335562Y-86196929D01*
X73183663Y-86126097D01*
X73183659Y-86126096D01*
X73183655Y-86126094D01*
X72955413Y-86064938D01*
X72955403Y-86064936D01*
X72720001Y-86044341D01*
X72719999Y-86044341D01*
X72484596Y-86064936D01*
X72484586Y-86064938D01*
X72256344Y-86126094D01*
X72256335Y-86126098D01*
X72042171Y-86225964D01*
X72042169Y-86225965D01*
X71848597Y-86361505D01*
X71681505Y-86528597D01*
X71551575Y-86714158D01*
X71496998Y-86757783D01*
X71427500Y-86764977D01*
X71365145Y-86733454D01*
X71348425Y-86714158D01*
X71218494Y-86528597D01*
X71051402Y-86361506D01*
X71051395Y-86361501D01*
X70857834Y-86225967D01*
X70857830Y-86225965D01*
X70795562Y-86196929D01*
X70643663Y-86126097D01*
X70643659Y-86126096D01*
X70643655Y-86126094D01*
X70415413Y-86064938D01*
X70415403Y-86064936D01*
X70180001Y-86044341D01*
X70179999Y-86044341D01*
X69944596Y-86064936D01*
X69944586Y-86064938D01*
X69716344Y-86126094D01*
X69716335Y-86126098D01*
X69502171Y-86225964D01*
X69502169Y-86225965D01*
X69308597Y-86361505D01*
X69141508Y-86528594D01*
X69011269Y-86714595D01*
X68956692Y-86758219D01*
X68887193Y-86765412D01*
X68824839Y-86733890D01*
X68808119Y-86714594D01*
X68678113Y-86528926D01*
X68678108Y-86528920D01*
X68511082Y-86361894D01*
X68317578Y-86226399D01*
X68103492Y-86126570D01*
X68103486Y-86126567D01*
X67890000Y-86069364D01*
X67890000Y-86966988D01*
X67832993Y-86934075D01*
X67705826Y-86900000D01*
X67574174Y-86900000D01*
X67447007Y-86934075D01*
X67390000Y-86966988D01*
X67390000Y-86069364D01*
X67389999Y-86069364D01*
X67176513Y-86126567D01*
X67176507Y-86126570D01*
X66962422Y-86226399D01*
X66962420Y-86226400D01*
X66768926Y-86361886D01*
X66768920Y-86361891D01*
X66601891Y-86528920D01*
X66601890Y-86528922D01*
X66471575Y-86715031D01*
X66416998Y-86758655D01*
X66347499Y-86765848D01*
X66285145Y-86734326D01*
X66268425Y-86715031D01*
X66138109Y-86528922D01*
X66138108Y-86528920D01*
X65971082Y-86361894D01*
X65777578Y-86226399D01*
X65563492Y-86126570D01*
X65563486Y-86126567D01*
X65350000Y-86069364D01*
X65350000Y-86966988D01*
X65292993Y-86934075D01*
X65165826Y-86900000D01*
X65034174Y-86900000D01*
X64907007Y-86934075D01*
X64850000Y-86966988D01*
X64850000Y-86069364D01*
X64849999Y-86069364D01*
X64636513Y-86126567D01*
X64636507Y-86126570D01*
X64422422Y-86226399D01*
X64422420Y-86226400D01*
X64228926Y-86361886D01*
X64228920Y-86361891D01*
X64061891Y-86528920D01*
X64061886Y-86528926D01*
X63926400Y-86722420D01*
X63926399Y-86722422D01*
X63826570Y-86936507D01*
X63826567Y-86936513D01*
X63769364Y-87149999D01*
X63769364Y-87150000D01*
X64666988Y-87150000D01*
X64634075Y-87207007D01*
X64600000Y-87334174D01*
X64600000Y-87465826D01*
X64634075Y-87592993D01*
X64666988Y-87650000D01*
X63769364Y-87650000D01*
X63826567Y-87863486D01*
X63826570Y-87863492D01*
X63926399Y-88077578D01*
X64061894Y-88271082D01*
X64228917Y-88438105D01*
X64422421Y-88573600D01*
X64525825Y-88621818D01*
X64578264Y-88667990D01*
X64597416Y-88735184D01*
X64577200Y-88802065D01*
X64524035Y-88847400D01*
X64473420Y-88858200D01*
X62728970Y-88858200D01*
X62728954Y-88858199D01*
X62721358Y-88858199D01*
X62563243Y-88858199D01*
X62486879Y-88878661D01*
X62410514Y-88899123D01*
X62410509Y-88899126D01*
X62273590Y-88978175D01*
X62273582Y-88978181D01*
X61878817Y-89372946D01*
X61878814Y-89372948D01*
X61878815Y-89372949D01*
X61774077Y-89477687D01*
X61749106Y-89520941D01*
X61749105Y-89520943D01*
X61720007Y-89571342D01*
X61702592Y-89601506D01*
X61695023Y-89614615D01*
X61654099Y-89767343D01*
X61654099Y-89767345D01*
X61654099Y-89935446D01*
X61654100Y-89935459D01*
X61654100Y-96331730D01*
X61654099Y-96331748D01*
X61654099Y-96497454D01*
X61654098Y-96497454D01*
X61654099Y-96497457D01*
X61695023Y-96650185D01*
X61719427Y-96692454D01*
X61774077Y-96787112D01*
X61774081Y-96787117D01*
X61892949Y-96905985D01*
X61892955Y-96905990D01*
X63104746Y-98117782D01*
X63138231Y-98179105D01*
X63133247Y-98248797D01*
X63091375Y-98304730D01*
X63049159Y-98325237D01*
X62942865Y-98353719D01*
X62942863Y-98353719D01*
X62942863Y-98353720D01*
X62811635Y-98429485D01*
X62811632Y-98429487D01*
X62704487Y-98536632D01*
X62704485Y-98536635D01*
X62628719Y-98667863D01*
X62612181Y-98729587D01*
X62589500Y-98814234D01*
X62589500Y-98965766D01*
X62608708Y-99037451D01*
X62628719Y-99112136D01*
X62665042Y-99175048D01*
X62704485Y-99243365D01*
X62704487Y-99243367D01*
X62792387Y-99331267D01*
X62825872Y-99392590D01*
X62820888Y-99462282D01*
X62779016Y-99518215D01*
X62743711Y-99536654D01*
X62595873Y-99585644D01*
X62532986Y-99624432D01*
X62532986Y-99624433D01*
X63930872Y-101022319D01*
X63964357Y-101083642D01*
X63959373Y-101153334D01*
X63930872Y-101197681D01*
X63752681Y-101375871D01*
X63691358Y-101409356D01*
X63621666Y-101404372D01*
X63577319Y-101375871D01*
X62211149Y-100009701D01*
X62211148Y-100009701D01*
X62175494Y-100117300D01*
X62165000Y-100220013D01*
X62165000Y-101999971D01*
X62165001Y-101999987D01*
X62175494Y-102102697D01*
X62230641Y-102269119D01*
X62230646Y-102269130D01*
X62256104Y-102310403D01*
X62274545Y-102377795D01*
X62253623Y-102444459D01*
X62199981Y-102489229D01*
X62150566Y-102499500D01*
X61249434Y-102499500D01*
X61182395Y-102479815D01*
X61136640Y-102427011D01*
X61126696Y-102357853D01*
X61143896Y-102310403D01*
X61169353Y-102269130D01*
X61169358Y-102269119D01*
X61224505Y-102102697D01*
X61224506Y-102102690D01*
X61234999Y-101999986D01*
X61234999Y-100220028D01*
X61234998Y-100220012D01*
X61224505Y-100117302D01*
X61188850Y-100009702D01*
X61188849Y-100009701D01*
X59822680Y-101375871D01*
X59761357Y-101409356D01*
X59691665Y-101404372D01*
X59647318Y-101375871D01*
X59469127Y-101197680D01*
X59435642Y-101136357D01*
X59440626Y-101066665D01*
X59469127Y-101022318D01*
X60867012Y-99624433D01*
X60867012Y-99624432D01*
X60804128Y-99585645D01*
X60804119Y-99585641D01*
X60637697Y-99530494D01*
X60637690Y-99530493D01*
X60534980Y-99520000D01*
X58935028Y-99520000D01*
X58935012Y-99520001D01*
X58832302Y-99530494D01*
X58663504Y-99586429D01*
X58593676Y-99588831D01*
X58533634Y-99553099D01*
X58502441Y-99490579D01*
X58500500Y-99468723D01*
X58500500Y-92531276D01*
X58520185Y-92464237D01*
X58572989Y-92418482D01*
X58642147Y-92408538D01*
X58663504Y-92413570D01*
X58832302Y-92469505D01*
X58832309Y-92469506D01*
X58935019Y-92479999D01*
X60534971Y-92479999D01*
X60534987Y-92479998D01*
X60637697Y-92469505D01*
X60804119Y-92414358D01*
X60804126Y-92414355D01*
X60867012Y-92375565D01*
X60867012Y-92375564D01*
X59469128Y-90977680D01*
X59435643Y-90916357D01*
X59437528Y-90890000D01*
X60088553Y-90890000D01*
X61188849Y-91990296D01*
X61188850Y-91990296D01*
X61224505Y-91882697D01*
X61224506Y-91882690D01*
X61234999Y-91779986D01*
X61234999Y-90000028D01*
X61234998Y-90000012D01*
X61224505Y-89897302D01*
X61188850Y-89789702D01*
X61188849Y-89789701D01*
X60088553Y-90889999D01*
X60088553Y-90890000D01*
X59437528Y-90890000D01*
X59440627Y-90846665D01*
X59469128Y-90802318D01*
X59735000Y-90536447D01*
X60867012Y-89404433D01*
X60867012Y-89404432D01*
X60804128Y-89365645D01*
X60804119Y-89365641D01*
X60637697Y-89310494D01*
X60637690Y-89310493D01*
X60534980Y-89300000D01*
X58935028Y-89300000D01*
X58935012Y-89300001D01*
X58832302Y-89310494D01*
X58663504Y-89366429D01*
X58593676Y-89368831D01*
X58533634Y-89333099D01*
X58502441Y-89270579D01*
X58500500Y-89248723D01*
X58500500Y-58518097D01*
X63399500Y-58518097D01*
X63436446Y-58751368D01*
X63509433Y-58975996D01*
X63586663Y-59127567D01*
X63616657Y-59186433D01*
X63755483Y-59377510D01*
X63922490Y-59544517D01*
X64113567Y-59683343D01*
X64212991Y-59734002D01*
X64324003Y-59790566D01*
X64324005Y-59790566D01*
X64324008Y-59790568D01*
X64444412Y-59829689D01*
X64548631Y-59863553D01*
X64781903Y-59900500D01*
X64781908Y-59900500D01*
X66018097Y-59900500D01*
X66251368Y-59863553D01*
X66308006Y-59845150D01*
X66475992Y-59790568D01*
X66686433Y-59683343D01*
X66877510Y-59544517D01*
X67044517Y-59377510D01*
X67183343Y-59186433D01*
X67290568Y-58975992D01*
X67363553Y-58751368D01*
X67363849Y-58749500D01*
X67400500Y-58518097D01*
X67400500Y-58281902D01*
X67363553Y-58048631D01*
X67290566Y-57824003D01*
X67234002Y-57712991D01*
X67183343Y-57613567D01*
X67044517Y-57422490D01*
X66877510Y-57255483D01*
X66686433Y-57116657D01*
X66672112Y-57109360D01*
X66475996Y-57009433D01*
X66251368Y-56936446D01*
X66018097Y-56899500D01*
X66018092Y-56899500D01*
X64781908Y-56899500D01*
X64781903Y-56899500D01*
X64548631Y-56936446D01*
X64324003Y-57009433D01*
X64113566Y-57116657D01*
X64021783Y-57183342D01*
X63922490Y-57255483D01*
X63922488Y-57255485D01*
X63922487Y-57255485D01*
X63755485Y-57422487D01*
X63755485Y-57422488D01*
X63755483Y-57422490D01*
X63695862Y-57504550D01*
X63616657Y-57613566D01*
X63509433Y-57824003D01*
X63436446Y-58048631D01*
X63399500Y-58281902D01*
X63399500Y-58518097D01*
X58500500Y-58518097D01*
X58500500Y-53518097D01*
X63399500Y-53518097D01*
X63436446Y-53751368D01*
X63509433Y-53975996D01*
X63564216Y-54083512D01*
X63616657Y-54186433D01*
X63755483Y-54377510D01*
X63922490Y-54544517D01*
X64113567Y-54683343D01*
X64212991Y-54734002D01*
X64324003Y-54790566D01*
X64324005Y-54790566D01*
X64324008Y-54790568D01*
X64439876Y-54828216D01*
X64548631Y-54863553D01*
X64781903Y-54900500D01*
X64781908Y-54900500D01*
X66018097Y-54900500D01*
X66251368Y-54863553D01*
X66475992Y-54790568D01*
X66686433Y-54683343D01*
X66877510Y-54544517D01*
X67044517Y-54377510D01*
X67183343Y-54186433D01*
X67290568Y-53975992D01*
X67363553Y-53751368D01*
X67366370Y-53733583D01*
X67400500Y-53518097D01*
X67400500Y-53281902D01*
X67363553Y-53048631D01*
X67323659Y-52925850D01*
X67290568Y-52824008D01*
X67290566Y-52824005D01*
X67290566Y-52824003D01*
X67215318Y-52676321D01*
X67183343Y-52613567D01*
X67044517Y-52422490D01*
X66877510Y-52255483D01*
X66686433Y-52116657D01*
X66636100Y-52091011D01*
X66475996Y-52009433D01*
X66251368Y-51936446D01*
X66018097Y-51899500D01*
X66018092Y-51899500D01*
X64781908Y-51899500D01*
X64781903Y-51899500D01*
X64548631Y-51936446D01*
X64324003Y-52009433D01*
X64113566Y-52116657D01*
X64049093Y-52163500D01*
X63922490Y-52255483D01*
X63922488Y-52255485D01*
X63922487Y-52255485D01*
X63755485Y-52422487D01*
X63755485Y-52422488D01*
X63755483Y-52422490D01*
X63743506Y-52438975D01*
X63616657Y-52613566D01*
X63509433Y-52824003D01*
X63436446Y-53048631D01*
X63399500Y-53281902D01*
X63399500Y-53518097D01*
X58500500Y-53518097D01*
X58500500Y-51018097D01*
X68399500Y-51018097D01*
X68436446Y-51251368D01*
X68509433Y-51475996D01*
X68569018Y-51592937D01*
X68616657Y-51686433D01*
X68755483Y-51877510D01*
X68922490Y-52044517D01*
X69113567Y-52183343D01*
X69212991Y-52234002D01*
X69324003Y-52290566D01*
X69324005Y-52290566D01*
X69324008Y-52290568D01*
X69444412Y-52329689D01*
X69548631Y-52363553D01*
X69781903Y-52400500D01*
X69781908Y-52400500D01*
X71018097Y-52400500D01*
X71251368Y-52363553D01*
X71475992Y-52290568D01*
X71686433Y-52183343D01*
X71877510Y-52044517D01*
X72044517Y-51877510D01*
X72183343Y-51686433D01*
X72290568Y-51475992D01*
X72363553Y-51251368D01*
X72378464Y-51157223D01*
X72400500Y-51018097D01*
X72400500Y-50781902D01*
X72363553Y-50548631D01*
X72306931Y-50374369D01*
X72290568Y-50324008D01*
X72290566Y-50324005D01*
X72290566Y-50324003D01*
X72195399Y-50137229D01*
X72183343Y-50113567D01*
X72044517Y-49922490D01*
X71877510Y-49755483D01*
X71686433Y-49616657D01*
X71632120Y-49588983D01*
X71475996Y-49509433D01*
X71251368Y-49436446D01*
X71018097Y-49399500D01*
X71018092Y-49399500D01*
X69781908Y-49399500D01*
X69781903Y-49399500D01*
X69548631Y-49436446D01*
X69324003Y-49509433D01*
X69113566Y-49616657D01*
X69021783Y-49683342D01*
X68922490Y-49755483D01*
X68922488Y-49755485D01*
X68922487Y-49755485D01*
X68755485Y-49922487D01*
X68755485Y-49922488D01*
X68755483Y-49922490D01*
X68706640Y-49989716D01*
X68616657Y-50113566D01*
X68509433Y-50324003D01*
X68436446Y-50548631D01*
X68399500Y-50781902D01*
X68399500Y-51018097D01*
X58500500Y-51018097D01*
X58500500Y-48518097D01*
X63399500Y-48518097D01*
X63436446Y-48751368D01*
X63509433Y-48975996D01*
X63592505Y-49139032D01*
X63616657Y-49186433D01*
X63755483Y-49377510D01*
X63922490Y-49544517D01*
X64113567Y-49683343D01*
X64212991Y-49734002D01*
X64324003Y-49790566D01*
X64324005Y-49790566D01*
X64324008Y-49790568D01*
X64444412Y-49829689D01*
X64548631Y-49863553D01*
X64781903Y-49900500D01*
X64781908Y-49900500D01*
X66018097Y-49900500D01*
X66251368Y-49863553D01*
X66275663Y-49855659D01*
X66475992Y-49790568D01*
X66686433Y-49683343D01*
X66877510Y-49544517D01*
X67044517Y-49377510D01*
X67183343Y-49186433D01*
X67290568Y-48975992D01*
X67363553Y-48751368D01*
X67366078Y-48735428D01*
X67400500Y-48518097D01*
X67400500Y-48281902D01*
X67363553Y-48048631D01*
X67310373Y-47884962D01*
X67290568Y-47824008D01*
X67290566Y-47824005D01*
X67290566Y-47824003D01*
X67218446Y-47682460D01*
X67183343Y-47613567D01*
X67044517Y-47422490D01*
X66877510Y-47255483D01*
X66686433Y-47116657D01*
X66475996Y-47009433D01*
X66251368Y-46936446D01*
X66018097Y-46899500D01*
X66018092Y-46899500D01*
X64781908Y-46899500D01*
X64781903Y-46899500D01*
X64548631Y-46936446D01*
X64324003Y-47009433D01*
X64113566Y-47116657D01*
X64086101Y-47136612D01*
X63922490Y-47255483D01*
X63922488Y-47255485D01*
X63922487Y-47255485D01*
X63755485Y-47422487D01*
X63755485Y-47422488D01*
X63755483Y-47422490D01*
X63722629Y-47467710D01*
X63616657Y-47613566D01*
X63509433Y-47824003D01*
X63436446Y-48048631D01*
X63399500Y-48281902D01*
X63399500Y-48518097D01*
X58500500Y-48518097D01*
X58500500Y-46018097D01*
X68399500Y-46018097D01*
X68436446Y-46251368D01*
X68509433Y-46475996D01*
X68610785Y-46674909D01*
X68616657Y-46686433D01*
X68755483Y-46877510D01*
X68922490Y-47044517D01*
X69113567Y-47183343D01*
X69187361Y-47220943D01*
X69324003Y-47290566D01*
X69324005Y-47290566D01*
X69324008Y-47290568D01*
X69437494Y-47327442D01*
X69548631Y-47363553D01*
X69781903Y-47400500D01*
X69781908Y-47400500D01*
X71018097Y-47400500D01*
X71251368Y-47363553D01*
X71312604Y-47343656D01*
X71475992Y-47290568D01*
X71686433Y-47183343D01*
X71877510Y-47044517D01*
X72044517Y-46877510D01*
X72183343Y-46686433D01*
X72290568Y-46475992D01*
X72363553Y-46251368D01*
X72374341Y-46183255D01*
X72400500Y-46018097D01*
X72400500Y-45781902D01*
X72363553Y-45548631D01*
X72306871Y-45374184D01*
X72290568Y-45324008D01*
X72290566Y-45324005D01*
X72290566Y-45324003D01*
X72183342Y-45113566D01*
X72172164Y-45098181D01*
X72044517Y-44922490D01*
X71877510Y-44755483D01*
X71686433Y-44616657D01*
X71475996Y-44509433D01*
X71251368Y-44436446D01*
X71018097Y-44399500D01*
X71018092Y-44399500D01*
X69781908Y-44399500D01*
X69781903Y-44399500D01*
X69548631Y-44436446D01*
X69324003Y-44509433D01*
X69113566Y-44616657D01*
X69046965Y-44665046D01*
X68922490Y-44755483D01*
X68922488Y-44755485D01*
X68922487Y-44755485D01*
X68755485Y-44922487D01*
X68755485Y-44922488D01*
X68755483Y-44922490D01*
X68745610Y-44936079D01*
X68616657Y-45113566D01*
X68509433Y-45324003D01*
X68436446Y-45548631D01*
X68399500Y-45781902D01*
X68399500Y-46018097D01*
X58500500Y-46018097D01*
X58500500Y-43518097D01*
X63399500Y-43518097D01*
X63436446Y-43751368D01*
X63509433Y-43975996D01*
X63572619Y-44100004D01*
X63616657Y-44186433D01*
X63755483Y-44377510D01*
X63922490Y-44544517D01*
X64113567Y-44683343D01*
X64200813Y-44727797D01*
X64324003Y-44790566D01*
X64324005Y-44790566D01*
X64324008Y-44790568D01*
X64444412Y-44829689D01*
X64548631Y-44863553D01*
X64781903Y-44900500D01*
X64781908Y-44900500D01*
X66018097Y-44900500D01*
X66251368Y-44863553D01*
X66257246Y-44861643D01*
X66475992Y-44790568D01*
X66686433Y-44683343D01*
X66877510Y-44544517D01*
X67044517Y-44377510D01*
X67183343Y-44186433D01*
X67290568Y-43975992D01*
X67363553Y-43751368D01*
X67376046Y-43672489D01*
X67400500Y-43518097D01*
X67400500Y-43281902D01*
X67363553Y-43048631D01*
X67304735Y-42867610D01*
X67290568Y-42824008D01*
X67290566Y-42824005D01*
X67290566Y-42824003D01*
X67202161Y-42650500D01*
X67183343Y-42613567D01*
X67044517Y-42422490D01*
X66877510Y-42255483D01*
X66686433Y-42116657D01*
X66642732Y-42094390D01*
X66475996Y-42009433D01*
X66251368Y-41936446D01*
X66018097Y-41899500D01*
X66018092Y-41899500D01*
X64781908Y-41899500D01*
X64781903Y-41899500D01*
X64548631Y-41936446D01*
X64324003Y-42009433D01*
X64113566Y-42116657D01*
X64021783Y-42183342D01*
X63922490Y-42255483D01*
X63922488Y-42255485D01*
X63922487Y-42255485D01*
X63755485Y-42422487D01*
X63755485Y-42422488D01*
X63755483Y-42422490D01*
X63708483Y-42487180D01*
X63616657Y-42613566D01*
X63509433Y-42824003D01*
X63436446Y-43048631D01*
X63399500Y-43281902D01*
X63399500Y-43518097D01*
X58500500Y-43518097D01*
X58500500Y-41018097D01*
X68399500Y-41018097D01*
X68436446Y-41251368D01*
X68509433Y-41475996D01*
X68613461Y-41680160D01*
X68616657Y-41686433D01*
X68755483Y-41877510D01*
X68922490Y-42044517D01*
X69113567Y-42183343D01*
X69188358Y-42221451D01*
X69324003Y-42290566D01*
X69324005Y-42290566D01*
X69324008Y-42290568D01*
X69377215Y-42307856D01*
X69548631Y-42363553D01*
X69781903Y-42400500D01*
X69781908Y-42400500D01*
X71018097Y-42400500D01*
X71251368Y-42363553D01*
X71475992Y-42290568D01*
X71565770Y-42244823D01*
X71634438Y-42231927D01*
X71699179Y-42258203D01*
X71736626Y-42307856D01*
X71792302Y-42442272D01*
X71792309Y-42442285D01*
X71879910Y-42573388D01*
X71879913Y-42573392D01*
X75812784Y-46506262D01*
X75940338Y-46633816D01*
X76005737Y-46674909D01*
X76008646Y-46676794D01*
X76063421Y-46713393D01*
X76064211Y-46713720D01*
X76082732Y-46723288D01*
X76093078Y-46729789D01*
X76153760Y-46751022D01*
X76160227Y-46753492D01*
X76209094Y-46773734D01*
X76209098Y-46773735D01*
X76209103Y-46773737D01*
X76222739Y-46776449D01*
X76239498Y-46781023D01*
X76263345Y-46789368D01*
X76314313Y-46795110D01*
X76324591Y-46796709D01*
X76351739Y-46802109D01*
X76363756Y-46804500D01*
X76363757Y-46804500D01*
X76390685Y-46804500D01*
X76404569Y-46805280D01*
X76442598Y-46809565D01*
X76442600Y-46809565D01*
X76442602Y-46809565D01*
X76480631Y-46805280D01*
X76494515Y-46804500D01*
X76521441Y-46804500D01*
X76521442Y-46804500D01*
X76560617Y-46796707D01*
X76570883Y-46795110D01*
X76621855Y-46789368D01*
X76645707Y-46781020D01*
X76662452Y-46776450D01*
X76676097Y-46773737D01*
X76724982Y-46753487D01*
X76731452Y-46751017D01*
X76792122Y-46729789D01*
X76802460Y-46723292D01*
X76820989Y-46713719D01*
X76821779Y-46713393D01*
X76876576Y-46676778D01*
X76879454Y-46674914D01*
X76879462Y-46674909D01*
X76944862Y-46633816D01*
X77072416Y-46506262D01*
X77113521Y-46440842D01*
X77115378Y-46437976D01*
X77151993Y-46383179D01*
X77152319Y-46382389D01*
X77161893Y-46363859D01*
X77168389Y-46353522D01*
X77189617Y-46292852D01*
X77192093Y-46286368D01*
X77212337Y-46237497D01*
X77215050Y-46223852D01*
X77219620Y-46207107D01*
X77227968Y-46183255D01*
X77233710Y-46132283D01*
X77235307Y-46122017D01*
X77243100Y-46082842D01*
X77243100Y-46055914D01*
X77243880Y-46042029D01*
X77248165Y-46004001D01*
X77248165Y-46003998D01*
X77243880Y-45965969D01*
X77243100Y-45952085D01*
X77243100Y-45925156D01*
X77235311Y-45886002D01*
X77233710Y-45875713D01*
X77227968Y-45824745D01*
X77219623Y-45800898D01*
X77215049Y-45784139D01*
X77212337Y-45770503D01*
X77212335Y-45770498D01*
X77212334Y-45770494D01*
X77192092Y-45721627D01*
X77189622Y-45715160D01*
X77168389Y-45654478D01*
X77161888Y-45644132D01*
X77152320Y-45625611D01*
X77151993Y-45624821D01*
X77115394Y-45570046D01*
X77113509Y-45567137D01*
X77072416Y-45501738D01*
X73338519Y-41767841D01*
X73305034Y-41706518D01*
X73302200Y-41680160D01*
X73302200Y-38050001D01*
X76744390Y-38050001D01*
X76764804Y-38335433D01*
X76825628Y-38615037D01*
X76825630Y-38615043D01*
X76825631Y-38615046D01*
X76925633Y-38883161D01*
X76925635Y-38883166D01*
X77062770Y-39134309D01*
X77062775Y-39134317D01*
X77234254Y-39363387D01*
X77234270Y-39363405D01*
X77436594Y-39565729D01*
X77436612Y-39565745D01*
X77665682Y-39737224D01*
X77665690Y-39737229D01*
X77916833Y-39874364D01*
X77916832Y-39874364D01*
X77916836Y-39874365D01*
X77916839Y-39874367D01*
X78184954Y-39974369D01*
X78184960Y-39974370D01*
X78184962Y-39974371D01*
X78464566Y-40035195D01*
X78464568Y-40035195D01*
X78464572Y-40035196D01*
X78718220Y-40053337D01*
X78749999Y-40055610D01*
X78750000Y-40055610D01*
X78750001Y-40055610D01*
X78778595Y-40053564D01*
X79035428Y-40035196D01*
X79235469Y-39991680D01*
X79315037Y-39974371D01*
X79315037Y-39974370D01*
X79315046Y-39974369D01*
X79583161Y-39874367D01*
X79834315Y-39737226D01*
X80063395Y-39565739D01*
X80265739Y-39363395D01*
X80437226Y-39134315D01*
X80574367Y-38883161D01*
X80674369Y-38615046D01*
X80735196Y-38335428D01*
X80755610Y-38050000D01*
X80735196Y-37764572D01*
X80716943Y-37680666D01*
X80674371Y-37484962D01*
X80674370Y-37484960D01*
X80674369Y-37484954D01*
X80574367Y-37216839D01*
X80533682Y-37142331D01*
X80437229Y-36965690D01*
X80437224Y-36965682D01*
X80265745Y-36736612D01*
X80265729Y-36736594D01*
X80063405Y-36534270D01*
X80063387Y-36534254D01*
X79834317Y-36362775D01*
X79834309Y-36362770D01*
X79583166Y-36225635D01*
X79583167Y-36225635D01*
X79475915Y-36185632D01*
X79315046Y-36125631D01*
X79315043Y-36125630D01*
X79315037Y-36125628D01*
X79035433Y-36064804D01*
X78750001Y-36044390D01*
X78749999Y-36044390D01*
X78464566Y-36064804D01*
X78184962Y-36125628D01*
X77916833Y-36225635D01*
X77665690Y-36362770D01*
X77665682Y-36362775D01*
X77436612Y-36534254D01*
X77436594Y-36534270D01*
X77234270Y-36736594D01*
X77234254Y-36736612D01*
X77062775Y-36965682D01*
X77062770Y-36965690D01*
X76925635Y-37216833D01*
X76825628Y-37484962D01*
X76764804Y-37764566D01*
X76744390Y-38049998D01*
X76744390Y-38050001D01*
X73302200Y-38050001D01*
X73302200Y-35821155D01*
X73302199Y-35821153D01*
X73271438Y-35666510D01*
X73271437Y-35666503D01*
X73271435Y-35666498D01*
X73211097Y-35520827D01*
X73211090Y-35520814D01*
X73123489Y-35389711D01*
X73123486Y-35389707D01*
X73011992Y-35278213D01*
X73011988Y-35278210D01*
X72880885Y-35190609D01*
X72880872Y-35190602D01*
X72735201Y-35130264D01*
X72735189Y-35130261D01*
X72580545Y-35099500D01*
X72580542Y-35099500D01*
X72524499Y-35099500D01*
X72457460Y-35079815D01*
X72411705Y-35027011D01*
X72400499Y-34975500D01*
X72400499Y-34852129D01*
X72400498Y-34852123D01*
X72400497Y-34852116D01*
X72394091Y-34792517D01*
X72343796Y-34657669D01*
X72343795Y-34657668D01*
X72343793Y-34657664D01*
X72257547Y-34542455D01*
X72257544Y-34542452D01*
X72142335Y-34456206D01*
X72142328Y-34456202D01*
X72007482Y-34405908D01*
X72007483Y-34405908D01*
X71947883Y-34399501D01*
X71947881Y-34399500D01*
X71947873Y-34399500D01*
X71947864Y-34399500D01*
X68852129Y-34399500D01*
X68852123Y-34399501D01*
X68792516Y-34405908D01*
X68657671Y-34456202D01*
X68657664Y-34456206D01*
X68542455Y-34542452D01*
X68542452Y-34542455D01*
X68456206Y-34657664D01*
X68456202Y-34657671D01*
X68405908Y-34792517D01*
X68399501Y-34852116D01*
X68399501Y-34852123D01*
X68399500Y-34852135D01*
X68399500Y-36947870D01*
X68399501Y-36947876D01*
X68405908Y-37007483D01*
X68456202Y-37142328D01*
X68456206Y-37142335D01*
X68542452Y-37257544D01*
X68542455Y-37257547D01*
X68657664Y-37343793D01*
X68657671Y-37343797D01*
X68792517Y-37394091D01*
X68792516Y-37394091D01*
X68799444Y-37394835D01*
X68852127Y-37400500D01*
X71577200Y-37400499D01*
X71644239Y-37420184D01*
X71689994Y-37472987D01*
X71701200Y-37524499D01*
X71701200Y-39421831D01*
X71681515Y-39488870D01*
X71628711Y-39534625D01*
X71559553Y-39544569D01*
X71520905Y-39532316D01*
X71475996Y-39509434D01*
X71475995Y-39509433D01*
X71475992Y-39509432D01*
X71383477Y-39479372D01*
X71251368Y-39436446D01*
X71018097Y-39399500D01*
X71018092Y-39399500D01*
X69781908Y-39399500D01*
X69781903Y-39399500D01*
X69548631Y-39436446D01*
X69324003Y-39509433D01*
X69113566Y-39616657D01*
X69025172Y-39680880D01*
X68922490Y-39755483D01*
X68922488Y-39755485D01*
X68922487Y-39755485D01*
X68755485Y-39922487D01*
X68755485Y-39922488D01*
X68755483Y-39922490D01*
X68724360Y-39965327D01*
X68616657Y-40113566D01*
X68509433Y-40324003D01*
X68436446Y-40548631D01*
X68399500Y-40781902D01*
X68399500Y-41018097D01*
X58500500Y-41018097D01*
X58500500Y-38518097D01*
X63399500Y-38518097D01*
X63436446Y-38751368D01*
X63509433Y-38975996D01*
X63615133Y-39183442D01*
X63616657Y-39186433D01*
X63755483Y-39377510D01*
X63922490Y-39544517D01*
X64113567Y-39683343D01*
X64212991Y-39734002D01*
X64324003Y-39790566D01*
X64324005Y-39790566D01*
X64324008Y-39790568D01*
X64444412Y-39829689D01*
X64548631Y-39863553D01*
X64781903Y-39900500D01*
X64781908Y-39900500D01*
X66018097Y-39900500D01*
X66251368Y-39863553D01*
X66475992Y-39790568D01*
X66686433Y-39683343D01*
X66877510Y-39544517D01*
X67044517Y-39377510D01*
X67183343Y-39186433D01*
X67290568Y-38975992D01*
X67363553Y-38751368D01*
X67400500Y-38518097D01*
X67400500Y-38281902D01*
X67363553Y-38048631D01*
X67319753Y-37913829D01*
X67290568Y-37824008D01*
X67290566Y-37824005D01*
X67290566Y-37824003D01*
X67229760Y-37704665D01*
X67183343Y-37613567D01*
X67044517Y-37422490D01*
X66877510Y-37255483D01*
X66686433Y-37116657D01*
X66475996Y-37009433D01*
X66251368Y-36936446D01*
X66018097Y-36899500D01*
X66018092Y-36899500D01*
X64781908Y-36899500D01*
X64781903Y-36899500D01*
X64548631Y-36936446D01*
X64324003Y-37009433D01*
X64113566Y-37116657D01*
X64004550Y-37195862D01*
X63922490Y-37255483D01*
X63922488Y-37255485D01*
X63922487Y-37255485D01*
X63755485Y-37422487D01*
X63755485Y-37422488D01*
X63755483Y-37422490D01*
X63748616Y-37431942D01*
X63616657Y-37613566D01*
X63509433Y-37824003D01*
X63436446Y-38048631D01*
X63399500Y-38281902D01*
X63399500Y-38518097D01*
X58500500Y-38518097D01*
X58500500Y-34447870D01*
X63399500Y-34447870D01*
X63399501Y-34447876D01*
X63405908Y-34507483D01*
X63456202Y-34642328D01*
X63456206Y-34642335D01*
X63542452Y-34757544D01*
X63542455Y-34757547D01*
X63657664Y-34843793D01*
X63657671Y-34843797D01*
X63792517Y-34894091D01*
X63792516Y-34894091D01*
X63799444Y-34894835D01*
X63852127Y-34900500D01*
X66947872Y-34900499D01*
X67007483Y-34894091D01*
X67142331Y-34843796D01*
X67257546Y-34757546D01*
X67343796Y-34642331D01*
X67394091Y-34507483D01*
X67400500Y-34447873D01*
X67400499Y-32352128D01*
X67394091Y-32292517D01*
X67354588Y-32186605D01*
X67343797Y-32157671D01*
X67343793Y-32157664D01*
X67257547Y-32042455D01*
X67257544Y-32042452D01*
X67142335Y-31956206D01*
X67142328Y-31956202D01*
X67007482Y-31905908D01*
X67007483Y-31905908D01*
X66947883Y-31899501D01*
X66947881Y-31899500D01*
X66947873Y-31899500D01*
X66947864Y-31899500D01*
X63852129Y-31899500D01*
X63852123Y-31899501D01*
X63792516Y-31905908D01*
X63657671Y-31956202D01*
X63657664Y-31956206D01*
X63542455Y-32042452D01*
X63542452Y-32042455D01*
X63456206Y-32157664D01*
X63456202Y-32157671D01*
X63405908Y-32292517D01*
X63399501Y-32352116D01*
X63399501Y-32352123D01*
X63399500Y-32352135D01*
X63399500Y-34447870D01*
X58500500Y-34447870D01*
X58500500Y-30624500D01*
X58520185Y-30557461D01*
X58572989Y-30511706D01*
X58624500Y-30500500D01*
X79536569Y-30500500D01*
X79603608Y-30520185D01*
G37*
%TD.AperFunction*%
%TA.AperFunction,Conductor*%
G36*
X111418834Y-84382914D02*
G01*
X111474767Y-84424786D01*
X111499184Y-84490250D01*
X111499500Y-84499096D01*
X111499500Y-102375500D01*
X111479815Y-102442539D01*
X111427011Y-102488294D01*
X111375500Y-102499500D01*
X81967297Y-102499500D01*
X81900258Y-102479815D01*
X81854503Y-102427011D01*
X81844559Y-102357853D01*
X81873584Y-102294297D01*
X81879616Y-102287819D01*
X83005615Y-101161819D01*
X83066938Y-101128334D01*
X83093296Y-101125500D01*
X83200165Y-101125500D01*
X83267204Y-101145185D01*
X83274476Y-101150233D01*
X83284242Y-101157544D01*
X83310065Y-101176875D01*
X83332668Y-101193795D01*
X83332671Y-101193797D01*
X83467517Y-101244091D01*
X83467516Y-101244091D01*
X83474444Y-101244835D01*
X83527127Y-101250500D01*
X85372872Y-101250499D01*
X85432483Y-101244091D01*
X85567331Y-101193796D01*
X85682546Y-101107546D01*
X85768796Y-100992331D01*
X85819091Y-100857483D01*
X85825500Y-100797873D01*
X85825499Y-100252128D01*
X85825499Y-100252127D01*
X85825498Y-100252111D01*
X85821320Y-100213253D01*
X85821320Y-100186745D01*
X85825500Y-100147873D01*
X85825499Y-99602128D01*
X85825499Y-99602127D01*
X85825498Y-99602111D01*
X85821320Y-99563253D01*
X85821320Y-99536745D01*
X85825500Y-99497873D01*
X85825499Y-98952128D01*
X85821067Y-98910898D01*
X85821068Y-98884393D01*
X85824999Y-98847833D01*
X85825000Y-98847819D01*
X85825000Y-98721434D01*
X85844685Y-98654395D01*
X85897489Y-98608640D01*
X85924814Y-98599816D01*
X85931023Y-98598581D01*
X85931023Y-98598580D01*
X85931028Y-98598580D01*
X86058511Y-98545775D01*
X86173242Y-98469114D01*
X86270814Y-98371542D01*
X86347475Y-98256811D01*
X86350795Y-98248797D01*
X86400278Y-98129332D01*
X86400280Y-98129328D01*
X86414174Y-98059476D01*
X86446558Y-97997567D01*
X86507274Y-97962993D01*
X86511539Y-97962064D01*
X86579328Y-97948580D01*
X86643069Y-97922177D01*
X86706807Y-97895777D01*
X86706808Y-97895776D01*
X86706811Y-97895775D01*
X86821543Y-97819114D01*
X87857421Y-96783235D01*
X87918742Y-96749752D01*
X87988433Y-96754736D01*
X87988434Y-96754737D01*
X88092616Y-96793595D01*
X88092627Y-96793598D01*
X88152155Y-96799999D01*
X88152172Y-96800000D01*
X88750000Y-96800000D01*
X88750000Y-95850000D01*
X89250000Y-95850000D01*
X89250000Y-96800000D01*
X89847828Y-96800000D01*
X89847844Y-96799999D01*
X89907372Y-96793598D01*
X89907379Y-96793596D01*
X90042086Y-96743354D01*
X90042093Y-96743350D01*
X90157187Y-96657190D01*
X90157190Y-96657187D01*
X90243350Y-96542093D01*
X90243354Y-96542086D01*
X90293596Y-96407379D01*
X90293598Y-96407372D01*
X90299999Y-96347844D01*
X90300000Y-96347827D01*
X90300000Y-95850000D01*
X95700000Y-95850000D01*
X95700000Y-96347844D01*
X95706401Y-96407372D01*
X95706403Y-96407379D01*
X95756645Y-96542086D01*
X95756649Y-96542093D01*
X95842809Y-96657187D01*
X95842812Y-96657190D01*
X95957906Y-96743350D01*
X95957913Y-96743354D01*
X96092620Y-96793596D01*
X96092627Y-96793598D01*
X96152155Y-96799999D01*
X96152172Y-96800000D01*
X96750000Y-96800000D01*
X96750000Y-95850000D01*
X95700000Y-95850000D01*
X90300000Y-95850000D01*
X89250000Y-95850000D01*
X88750000Y-95850000D01*
X88750000Y-95474000D01*
X88769685Y-95406961D01*
X88822489Y-95361206D01*
X88874000Y-95350000D01*
X90300000Y-95350000D01*
X95700000Y-95350000D01*
X96750000Y-95350000D01*
X96750000Y-94400000D01*
X96152155Y-94400000D01*
X96092627Y-94406401D01*
X96092620Y-94406403D01*
X95957913Y-94456645D01*
X95957906Y-94456649D01*
X95842812Y-94542809D01*
X95842809Y-94542812D01*
X95756649Y-94657906D01*
X95756645Y-94657913D01*
X95706403Y-94792620D01*
X95706401Y-94792627D01*
X95700000Y-94852155D01*
X95700000Y-95350000D01*
X90300000Y-95350000D01*
X90300000Y-95248400D01*
X90319685Y-95181361D01*
X90372489Y-95135606D01*
X90424000Y-95124400D01*
X91907596Y-95124400D01*
X91998640Y-95106289D01*
X92042928Y-95097480D01*
X92106669Y-95071077D01*
X92170407Y-95044677D01*
X92170408Y-95044676D01*
X92170411Y-95044675D01*
X92285143Y-94968014D01*
X93891338Y-93361819D01*
X93952661Y-93328334D01*
X93979019Y-93325500D01*
X94825003Y-93325500D01*
X94825008Y-93325500D01*
X94927797Y-93314999D01*
X95094334Y-93259814D01*
X95243655Y-93167711D01*
X95367711Y-93043655D01*
X95459814Y-92894334D01*
X95514999Y-92727797D01*
X95525500Y-92625008D01*
X95525500Y-92492812D01*
X95545185Y-92425773D01*
X95597989Y-92380018D01*
X95667147Y-92370074D01*
X95679595Y-92373116D01*
X95679663Y-92372820D01*
X95686448Y-92374369D01*
X95865696Y-92394565D01*
X95865700Y-92394565D01*
X95865703Y-92394565D01*
X95936616Y-92386575D01*
X96005438Y-92398629D01*
X96056818Y-92445978D01*
X96074500Y-92509795D01*
X96074500Y-92625015D01*
X96085000Y-92727795D01*
X96085001Y-92727796D01*
X96140186Y-92894335D01*
X96140187Y-92894337D01*
X96232286Y-93043651D01*
X96232289Y-93043655D01*
X96356344Y-93167710D01*
X96356348Y-93167713D01*
X96505662Y-93259812D01*
X96505664Y-93259813D01*
X96505666Y-93259814D01*
X96672203Y-93314999D01*
X96774992Y-93325500D01*
X97623900Y-93325500D01*
X97690939Y-93345185D01*
X97736694Y-93397989D01*
X97747900Y-93449500D01*
X97747900Y-94276000D01*
X97728215Y-94343039D01*
X97675411Y-94388794D01*
X97623900Y-94400000D01*
X97250000Y-94400000D01*
X97250000Y-96800000D01*
X97623900Y-96800000D01*
X97690939Y-96819685D01*
X97736694Y-96872489D01*
X97747900Y-96924000D01*
X97747900Y-97449802D01*
X97728215Y-97516841D01*
X97711581Y-97537483D01*
X96519481Y-98729582D01*
X96519477Y-98729587D01*
X96470608Y-98814233D01*
X96470607Y-98814236D01*
X96457173Y-98837503D01*
X96406604Y-98885717D01*
X96349788Y-98899500D01*
X96152130Y-98899500D01*
X96152123Y-98899501D01*
X96092516Y-98905908D01*
X95957671Y-98956202D01*
X95957664Y-98956206D01*
X95842455Y-99042452D01*
X95842452Y-99042455D01*
X95756206Y-99157664D01*
X95756202Y-99157671D01*
X95705908Y-99292517D01*
X95701633Y-99332288D01*
X95699501Y-99352123D01*
X95699500Y-99352135D01*
X95699500Y-99375500D01*
X95679815Y-99442539D01*
X95627011Y-99488294D01*
X95575500Y-99499500D01*
X90424499Y-99499500D01*
X90357460Y-99479815D01*
X90311705Y-99427011D01*
X90300499Y-99375500D01*
X90300499Y-99352129D01*
X90300498Y-99352123D01*
X90300497Y-99352116D01*
X90294091Y-99292517D01*
X90292347Y-99287842D01*
X90243797Y-99157671D01*
X90243793Y-99157664D01*
X90157547Y-99042455D01*
X90157544Y-99042452D01*
X90042335Y-98956206D01*
X90042328Y-98956202D01*
X89907482Y-98905908D01*
X89907483Y-98905908D01*
X89847883Y-98899501D01*
X89847881Y-98899500D01*
X89847873Y-98899500D01*
X89847864Y-98899500D01*
X88152129Y-98899500D01*
X88152123Y-98899501D01*
X88092516Y-98905908D01*
X87957671Y-98956202D01*
X87957664Y-98956206D01*
X87842455Y-99042452D01*
X87842452Y-99042455D01*
X87756206Y-99157664D01*
X87756202Y-99157671D01*
X87705908Y-99292517D01*
X87701633Y-99332288D01*
X87699501Y-99352123D01*
X87699500Y-99352135D01*
X87699500Y-100847870D01*
X87699501Y-100847876D01*
X87705908Y-100907483D01*
X87756202Y-101042328D01*
X87756206Y-101042335D01*
X87842452Y-101157544D01*
X87842455Y-101157547D01*
X87957664Y-101243793D01*
X87957671Y-101243797D01*
X88092517Y-101294091D01*
X88092516Y-101294091D01*
X88099444Y-101294835D01*
X88152127Y-101300500D01*
X89847872Y-101300499D01*
X89907483Y-101294091D01*
X90042331Y-101243796D01*
X90157546Y-101157546D01*
X90243796Y-101042331D01*
X90294091Y-100907483D01*
X90300500Y-100847873D01*
X90300500Y-100824500D01*
X90320185Y-100757461D01*
X90372989Y-100711706D01*
X90424500Y-100700500D01*
X95575501Y-100700500D01*
X95642540Y-100720185D01*
X95688295Y-100772989D01*
X95699501Y-100824500D01*
X95699501Y-100847876D01*
X95705908Y-100907483D01*
X95756202Y-101042328D01*
X95756206Y-101042335D01*
X95842452Y-101157544D01*
X95842455Y-101157547D01*
X95957664Y-101243793D01*
X95957671Y-101243797D01*
X96092517Y-101294091D01*
X96092516Y-101294091D01*
X96099444Y-101294835D01*
X96152127Y-101300500D01*
X97847872Y-101300499D01*
X97907483Y-101294091D01*
X98042331Y-101243796D01*
X98157546Y-101157546D01*
X98243796Y-101042331D01*
X98294091Y-100907483D01*
X98300500Y-100847873D01*
X98300499Y-99500001D01*
X106494390Y-99500001D01*
X106514804Y-99785433D01*
X106575628Y-100065037D01*
X106575630Y-100065043D01*
X106575631Y-100065046D01*
X106666338Y-100308239D01*
X106675635Y-100333166D01*
X106812770Y-100584309D01*
X106812775Y-100584317D01*
X106984254Y-100813387D01*
X106984270Y-100813405D01*
X107186594Y-101015729D01*
X107186612Y-101015745D01*
X107415682Y-101187224D01*
X107415690Y-101187229D01*
X107666833Y-101324364D01*
X107666832Y-101324364D01*
X107666836Y-101324365D01*
X107666839Y-101324367D01*
X107934954Y-101424369D01*
X107934960Y-101424370D01*
X107934962Y-101424371D01*
X108214566Y-101485195D01*
X108214568Y-101485195D01*
X108214572Y-101485196D01*
X108468220Y-101503337D01*
X108499999Y-101505610D01*
X108500000Y-101505610D01*
X108500001Y-101505610D01*
X108528595Y-101503564D01*
X108785428Y-101485196D01*
X109065046Y-101424369D01*
X109333161Y-101324367D01*
X109584315Y-101187226D01*
X109813395Y-101015739D01*
X110015739Y-100813395D01*
X110187226Y-100584315D01*
X110324367Y-100333161D01*
X110424369Y-100065046D01*
X110476697Y-99824497D01*
X110485195Y-99785433D01*
X110485195Y-99785432D01*
X110485196Y-99785428D01*
X110505610Y-99500000D01*
X110485196Y-99214572D01*
X110478229Y-99182547D01*
X110424371Y-98934962D01*
X110424370Y-98934960D01*
X110424369Y-98934954D01*
X110324367Y-98666839D01*
X110301531Y-98625019D01*
X110187229Y-98415690D01*
X110187224Y-98415682D01*
X110015745Y-98186612D01*
X110015729Y-98186594D01*
X109813405Y-97984270D01*
X109813387Y-97984254D01*
X109584317Y-97812775D01*
X109584309Y-97812770D01*
X109333166Y-97675635D01*
X109333167Y-97675635D01*
X109163670Y-97612416D01*
X109065046Y-97575631D01*
X109065043Y-97575630D01*
X109065037Y-97575628D01*
X108785433Y-97514804D01*
X108500001Y-97494390D01*
X108499999Y-97494390D01*
X108214566Y-97514804D01*
X107934962Y-97575628D01*
X107666833Y-97675635D01*
X107415690Y-97812770D01*
X107415682Y-97812775D01*
X107186612Y-97984254D01*
X107186594Y-97984270D01*
X106984270Y-98186594D01*
X106984254Y-98186612D01*
X106812775Y-98415682D01*
X106812770Y-98415690D01*
X106675635Y-98666833D01*
X106575628Y-98934962D01*
X106514804Y-99214566D01*
X106494390Y-99499998D01*
X106494390Y-99500001D01*
X98300499Y-99500001D01*
X98300499Y-99352128D01*
X98294091Y-99292517D01*
X98292347Y-99287842D01*
X98243797Y-99157671D01*
X98243793Y-99157664D01*
X98157547Y-99042455D01*
X98157546Y-99042454D01*
X98150863Y-99037451D01*
X98127722Y-99020127D01*
X98085851Y-98964196D01*
X98080867Y-98894504D01*
X98114348Y-98833185D01*
X98828920Y-98118616D01*
X98907977Y-97981684D01*
X98948901Y-97828957D01*
X98948901Y-97670842D01*
X98948901Y-97663247D01*
X98948900Y-97663229D01*
X98948900Y-87554500D01*
X98968585Y-87487461D01*
X99021389Y-87441706D01*
X99072900Y-87430500D01*
X102837440Y-87430500D01*
X102904479Y-87450185D01*
X102950234Y-87502989D01*
X102960178Y-87572147D01*
X102949823Y-87606900D01*
X102936528Y-87635413D01*
X102936096Y-87636340D01*
X102936094Y-87636344D01*
X102874938Y-87864586D01*
X102874936Y-87864596D01*
X102854341Y-88099999D01*
X102854341Y-88100000D01*
X102874936Y-88335403D01*
X102874938Y-88335413D01*
X102936094Y-88563655D01*
X102936096Y-88563659D01*
X102936097Y-88563663D01*
X103030703Y-88766546D01*
X103035965Y-88777830D01*
X103035967Y-88777834D01*
X103113179Y-88888103D01*
X103171501Y-88971396D01*
X103171506Y-88971402D01*
X103338597Y-89138493D01*
X103338603Y-89138498D01*
X103524158Y-89268425D01*
X103567783Y-89323002D01*
X103574977Y-89392500D01*
X103543454Y-89454855D01*
X103524158Y-89471575D01*
X103338597Y-89601505D01*
X103171505Y-89768597D01*
X103035965Y-89962169D01*
X103035964Y-89962171D01*
X102936098Y-90176335D01*
X102936094Y-90176344D01*
X102874938Y-90404586D01*
X102874936Y-90404596D01*
X102854341Y-90639999D01*
X102854341Y-90640000D01*
X102874936Y-90875403D01*
X102874938Y-90875413D01*
X102936094Y-91103655D01*
X102936096Y-91103659D01*
X102936097Y-91103663D01*
X102999429Y-91239478D01*
X103035965Y-91317830D01*
X103035967Y-91317834D01*
X103124179Y-91443813D01*
X103171505Y-91511401D01*
X103338599Y-91678495D01*
X103381675Y-91708657D01*
X103532165Y-91814032D01*
X103532167Y-91814033D01*
X103532170Y-91814035D01*
X103746337Y-91913903D01*
X103974592Y-91975063D01*
X104151034Y-91990500D01*
X104209999Y-91995659D01*
X104210000Y-91995659D01*
X104210001Y-91995659D01*
X104268966Y-91990500D01*
X104445408Y-91975063D01*
X104673663Y-91913903D01*
X104887830Y-91814035D01*
X105081401Y-91678495D01*
X105248495Y-91511401D01*
X105248504Y-91511388D01*
X105249636Y-91510040D01*
X105250293Y-91509602D01*
X105252323Y-91507573D01*
X105252730Y-91507980D01*
X105307805Y-91471334D01*
X105377666Y-91470220D01*
X105437038Y-91507053D01*
X105462337Y-91550735D01*
X105465185Y-91559331D01*
X105465187Y-91559336D01*
X105488138Y-91596545D01*
X105557288Y-91708656D01*
X105681344Y-91832712D01*
X105830666Y-91924814D01*
X105997203Y-91979999D01*
X106099991Y-91990500D01*
X107400008Y-91990499D01*
X107502797Y-91979999D01*
X107669334Y-91924814D01*
X107818656Y-91832712D01*
X107942712Y-91708656D01*
X108034814Y-91559334D01*
X108089999Y-91392797D01*
X108100500Y-91290009D01*
X108100499Y-89989992D01*
X108089999Y-89887203D01*
X108034814Y-89720666D01*
X107942712Y-89571344D01*
X107818656Y-89447288D01*
X107698128Y-89372946D01*
X107669336Y-89355187D01*
X107669331Y-89355185D01*
X107669215Y-89355146D01*
X107660733Y-89352336D01*
X107603290Y-89312564D01*
X107576467Y-89248048D01*
X107588782Y-89179272D01*
X107617767Y-89142517D01*
X107617573Y-89142323D01*
X107619219Y-89140676D01*
X107620040Y-89139636D01*
X107621388Y-89138504D01*
X107621401Y-89138495D01*
X107788495Y-88971401D01*
X107924035Y-88777830D01*
X108023903Y-88563663D01*
X108085063Y-88335408D01*
X108105659Y-88100000D01*
X108085063Y-87864592D01*
X108050671Y-87736239D01*
X108052334Y-87666393D01*
X108082763Y-87616470D01*
X111287821Y-84411413D01*
X111349142Y-84377930D01*
X111418834Y-84382914D01*
G37*
%TD.AperFunction*%
%TA.AperFunction,Conductor*%
G36*
X67890000Y-88730633D02*
G01*
X68103483Y-88673433D01*
X68103492Y-88673429D01*
X68317578Y-88573600D01*
X68511082Y-88438105D01*
X68678105Y-88271082D01*
X68808119Y-88085405D01*
X68862696Y-88041781D01*
X68932195Y-88034588D01*
X68994549Y-88066110D01*
X69011269Y-88085405D01*
X69141505Y-88271401D01*
X69308599Y-88438495D01*
X69331347Y-88454423D01*
X69502165Y-88574032D01*
X69502167Y-88574033D01*
X69502170Y-88574035D01*
X69716337Y-88673903D01*
X69944592Y-88735063D01*
X70132918Y-88751539D01*
X70179999Y-88755659D01*
X70180000Y-88755659D01*
X70180001Y-88755659D01*
X70219234Y-88752226D01*
X70415408Y-88735063D01*
X70643663Y-88673903D01*
X70857830Y-88574035D01*
X71051401Y-88438495D01*
X71218495Y-88271401D01*
X71348425Y-88085842D01*
X71403002Y-88042217D01*
X71472500Y-88035023D01*
X71534855Y-88066546D01*
X71551575Y-88085842D01*
X71681281Y-88271082D01*
X71681505Y-88271401D01*
X71848599Y-88438495D01*
X71871347Y-88454423D01*
X72042165Y-88574032D01*
X72042167Y-88574033D01*
X72042170Y-88574035D01*
X72256337Y-88673903D01*
X72484592Y-88735063D01*
X72672918Y-88751539D01*
X72719999Y-88755659D01*
X72720000Y-88755659D01*
X72720001Y-88755659D01*
X72759234Y-88752226D01*
X72955408Y-88735063D01*
X73183663Y-88673903D01*
X73397830Y-88574035D01*
X73591401Y-88438495D01*
X73758495Y-88271401D01*
X73888425Y-88085842D01*
X73943002Y-88042217D01*
X74012500Y-88035023D01*
X74074855Y-88066546D01*
X74091575Y-88085842D01*
X74221281Y-88271082D01*
X74221505Y-88271401D01*
X74388599Y-88438495D01*
X74411347Y-88454423D01*
X74582165Y-88574032D01*
X74582167Y-88574033D01*
X74582170Y-88574035D01*
X74796337Y-88673903D01*
X75024592Y-88735063D01*
X75212918Y-88751539D01*
X75259999Y-88755659D01*
X75260000Y-88755659D01*
X75260001Y-88755659D01*
X75299234Y-88752226D01*
X75495408Y-88735063D01*
X75723663Y-88673903D01*
X75937830Y-88574035D01*
X76131401Y-88438495D01*
X76134546Y-88435349D01*
X76195863Y-88401863D01*
X76265555Y-88406842D01*
X76309911Y-88435346D01*
X76800739Y-88926174D01*
X76800749Y-88926185D01*
X76805079Y-88930515D01*
X76805080Y-88930516D01*
X76916884Y-89042320D01*
X76916886Y-89042321D01*
X76963929Y-89069481D01*
X76963928Y-89069481D01*
X76963931Y-89069482D01*
X77053809Y-89121374D01*
X77053810Y-89121374D01*
X77053815Y-89121377D01*
X77206542Y-89162300D01*
X77206543Y-89162300D01*
X80039103Y-89162300D01*
X80106142Y-89181985D01*
X80151897Y-89234789D01*
X80161841Y-89303947D01*
X80132816Y-89367503D01*
X80126784Y-89373981D01*
X78870884Y-90629881D01*
X78809561Y-90663366D01*
X78783203Y-90666200D01*
X73222570Y-90666200D01*
X73222554Y-90666199D01*
X73214958Y-90666199D01*
X73056843Y-90666199D01*
X72980479Y-90686661D01*
X72904114Y-90707123D01*
X72904109Y-90707126D01*
X72767190Y-90786175D01*
X72767182Y-90786181D01*
X71020481Y-92532882D01*
X71020477Y-92532887D01*
X70981613Y-92600203D01*
X70931046Y-92648419D01*
X70862439Y-92661642D01*
X70797574Y-92635674D01*
X70786545Y-92625884D01*
X70668345Y-92507684D01*
X70519124Y-92415643D01*
X70519119Y-92415641D01*
X70352697Y-92360494D01*
X70352690Y-92360493D01*
X70249986Y-92350000D01*
X69200000Y-92350000D01*
X69200000Y-94949999D01*
X70249972Y-94949999D01*
X70249986Y-94949998D01*
X70352697Y-94939505D01*
X70519119Y-94884358D01*
X70519124Y-94884356D01*
X70668342Y-94792317D01*
X70771683Y-94688976D01*
X70833006Y-94655491D01*
X70902698Y-94660475D01*
X70958632Y-94702346D01*
X70966752Y-94714657D01*
X71020477Y-94807712D01*
X71020481Y-94807717D01*
X71139349Y-94926585D01*
X71139355Y-94926590D01*
X71367239Y-95154474D01*
X71367249Y-95154485D01*
X71371579Y-95158815D01*
X71371580Y-95158816D01*
X71483384Y-95270620D01*
X71483386Y-95270621D01*
X71483390Y-95270624D01*
X71593072Y-95333948D01*
X71620316Y-95349677D01*
X71712957Y-95374500D01*
X71773042Y-95390600D01*
X71773043Y-95390600D01*
X75750501Y-95390600D01*
X75817540Y-95410285D01*
X75863295Y-95463089D01*
X75874501Y-95514600D01*
X75874501Y-95597880D01*
X75878931Y-95639093D01*
X75878931Y-95665596D01*
X75875000Y-95702165D01*
X75875000Y-95750000D01*
X75890611Y-95765611D01*
X75904484Y-95769685D01*
X75936711Y-95799689D01*
X76012320Y-95900689D01*
X76036738Y-95966153D01*
X76021887Y-96034426D01*
X76012320Y-96049311D01*
X75936711Y-96150311D01*
X75888892Y-96186107D01*
X75875000Y-96200000D01*
X75875000Y-96247832D01*
X75878931Y-96284399D01*
X75878931Y-96310905D01*
X75874500Y-96352122D01*
X75874500Y-96897869D01*
X75874501Y-96897878D01*
X75878679Y-96936745D01*
X75878679Y-96963250D01*
X75874500Y-97002122D01*
X75874500Y-97547869D01*
X75874501Y-97547878D01*
X75878679Y-97586745D01*
X75878679Y-97613250D01*
X75874500Y-97652122D01*
X75874500Y-98197869D01*
X75874501Y-98197878D01*
X75878679Y-98236745D01*
X75878679Y-98263250D01*
X75874500Y-98302122D01*
X75874500Y-98847869D01*
X75874501Y-98847878D01*
X75878679Y-98886745D01*
X75878679Y-98913250D01*
X75874500Y-98952122D01*
X75874500Y-99497869D01*
X75874501Y-99497878D01*
X75878679Y-99536745D01*
X75878679Y-99563250D01*
X75874500Y-99602122D01*
X75874500Y-100147869D01*
X75874501Y-100147878D01*
X75878679Y-100186745D01*
X75878679Y-100213250D01*
X75874500Y-100252122D01*
X75874500Y-100797870D01*
X75874501Y-100797876D01*
X75880908Y-100857483D01*
X75931202Y-100992328D01*
X75931206Y-100992335D01*
X76017452Y-101107544D01*
X76022727Y-101112819D01*
X76056212Y-101174142D01*
X76051228Y-101243834D01*
X76009356Y-101299767D01*
X75943892Y-101324184D01*
X75935046Y-101324500D01*
X73974000Y-101324500D01*
X73906961Y-101304815D01*
X73861206Y-101252011D01*
X73850000Y-101200500D01*
X73850000Y-100800000D01*
X71550001Y-100800000D01*
X71550001Y-101200500D01*
X71530316Y-101267539D01*
X71477512Y-101313294D01*
X71426001Y-101324500D01*
X70874500Y-101324500D01*
X70807461Y-101304815D01*
X70761706Y-101252011D01*
X70750500Y-101200500D01*
X70750499Y-100300096D01*
X70750527Y-100300000D01*
X71550000Y-100300000D01*
X72450000Y-100300000D01*
X72450000Y-98200000D01*
X72950000Y-98200000D01*
X72950000Y-100300000D01*
X73849999Y-100300000D01*
X73849999Y-99875028D01*
X73849998Y-99875013D01*
X73839505Y-99772302D01*
X73784358Y-99605880D01*
X73784356Y-99605875D01*
X73692315Y-99456654D01*
X73573342Y-99337681D01*
X73539857Y-99276358D01*
X73544841Y-99206666D01*
X73573342Y-99162319D01*
X73692315Y-99043345D01*
X73784356Y-98894124D01*
X73784358Y-98894119D01*
X73839505Y-98727697D01*
X73839506Y-98727690D01*
X73849999Y-98624986D01*
X73850000Y-98624973D01*
X73850000Y-98200000D01*
X72950000Y-98200000D01*
X72450000Y-98200000D01*
X71550001Y-98200000D01*
X71550001Y-98624986D01*
X71560494Y-98727697D01*
X71615641Y-98894119D01*
X71615643Y-98894124D01*
X71707684Y-99043345D01*
X71826658Y-99162319D01*
X71860143Y-99223642D01*
X71855159Y-99293334D01*
X71826658Y-99337681D01*
X71707684Y-99456654D01*
X71615643Y-99605875D01*
X71615641Y-99605880D01*
X71560494Y-99772302D01*
X71560493Y-99772309D01*
X71550000Y-99875013D01*
X71550000Y-100300000D01*
X70750527Y-100300000D01*
X70770183Y-100233057D01*
X70786813Y-100212420D01*
X70933206Y-100066028D01*
X70933211Y-100066024D01*
X70943414Y-100055820D01*
X70943416Y-100055820D01*
X71055220Y-99944016D01*
X71124223Y-99824499D01*
X71134277Y-99807085D01*
X71175201Y-99654357D01*
X71175201Y-99496243D01*
X71175201Y-99488648D01*
X71175200Y-99488630D01*
X71175200Y-97700000D01*
X71550000Y-97700000D01*
X72450000Y-97700000D01*
X72450000Y-96575000D01*
X72950000Y-96575000D01*
X72950000Y-97700000D01*
X73849999Y-97700000D01*
X73849999Y-97275028D01*
X73849998Y-97275013D01*
X73839505Y-97172302D01*
X73784358Y-97005880D01*
X73784356Y-97005875D01*
X73692315Y-96856654D01*
X73568345Y-96732684D01*
X73419124Y-96640643D01*
X73419119Y-96640641D01*
X73252697Y-96585494D01*
X73252690Y-96585493D01*
X73149986Y-96575000D01*
X72950000Y-96575000D01*
X72450000Y-96575000D01*
X72250029Y-96575000D01*
X72250012Y-96575001D01*
X72147302Y-96585494D01*
X71980880Y-96640641D01*
X71980875Y-96640643D01*
X71831654Y-96732684D01*
X71707684Y-96856654D01*
X71615643Y-97005875D01*
X71615641Y-97005880D01*
X71560494Y-97172302D01*
X71560493Y-97172309D01*
X71550000Y-97275013D01*
X71550000Y-97700000D01*
X71175200Y-97700000D01*
X71175200Y-97122159D01*
X71175201Y-97122146D01*
X71175201Y-96954045D01*
X71175201Y-96954043D01*
X71134277Y-96801315D01*
X71102654Y-96746543D01*
X71055220Y-96664384D01*
X70943416Y-96552580D01*
X70943415Y-96552579D01*
X70939085Y-96548249D01*
X70939074Y-96548239D01*
X70801490Y-96410655D01*
X70801488Y-96410652D01*
X70682617Y-96291781D01*
X70682616Y-96291780D01*
X70595804Y-96241660D01*
X70595804Y-96241659D01*
X70595800Y-96241658D01*
X70545685Y-96212723D01*
X70392957Y-96171799D01*
X70234843Y-96171799D01*
X70227247Y-96171799D01*
X70227231Y-96171800D01*
X69782798Y-96171800D01*
X69715759Y-96152115D01*
X69695117Y-96135481D01*
X68692498Y-95132862D01*
X68659013Y-95071539D01*
X68663997Y-95001847D01*
X68692499Y-94957499D01*
X68700000Y-94949998D01*
X68700000Y-92350000D01*
X67666000Y-92350000D01*
X67598961Y-92330315D01*
X67553206Y-92277511D01*
X67542000Y-92226000D01*
X67542000Y-91645942D01*
X67540974Y-91642111D01*
X67539592Y-91636953D01*
X67501077Y-91493215D01*
X67452885Y-91409745D01*
X67450839Y-91406202D01*
X67422021Y-91356286D01*
X67422020Y-91356284D01*
X67310216Y-91244480D01*
X67310215Y-91244479D01*
X67305885Y-91240149D01*
X67305874Y-91240139D01*
X65162790Y-89097055D01*
X65162788Y-89097052D01*
X65043917Y-88978181D01*
X65043912Y-88978177D01*
X64945568Y-88921399D01*
X64909881Y-88900795D01*
X64861667Y-88850228D01*
X64850404Y-88791785D01*
X64850000Y-88791785D01*
X64850000Y-88789689D01*
X64848445Y-88781621D01*
X64850000Y-88777736D01*
X64850000Y-87833012D01*
X64907007Y-87865925D01*
X65034174Y-87900000D01*
X65165826Y-87900000D01*
X65292993Y-87865925D01*
X65350000Y-87833012D01*
X65350000Y-88730633D01*
X65563483Y-88673433D01*
X65563492Y-88673429D01*
X65777578Y-88573600D01*
X65971082Y-88438105D01*
X66138105Y-88271082D01*
X66268425Y-88084968D01*
X66323002Y-88041344D01*
X66392501Y-88034151D01*
X66454855Y-88065673D01*
X66471575Y-88084968D01*
X66601894Y-88271082D01*
X66768917Y-88438105D01*
X66962421Y-88573600D01*
X67176507Y-88673429D01*
X67176516Y-88673433D01*
X67390000Y-88730634D01*
X67390000Y-87833012D01*
X67447007Y-87865925D01*
X67574174Y-87900000D01*
X67705826Y-87900000D01*
X67832993Y-87865925D01*
X67890000Y-87833012D01*
X67890000Y-88730633D01*
G37*
%TD.AperFunction*%
%TA.AperFunction,Conductor*%
G36*
X78830701Y-95320105D02*
G01*
X78837180Y-95326137D01*
X81330153Y-97819111D01*
X81330154Y-97819112D01*
X81444892Y-97895777D01*
X81572367Y-97948578D01*
X81572372Y-97948580D01*
X81572376Y-97948580D01*
X81572377Y-97948581D01*
X81707703Y-97975500D01*
X81707706Y-97975500D01*
X81707707Y-97975500D01*
X82950501Y-97975500D01*
X83017540Y-97995185D01*
X83063295Y-98047989D01*
X83074501Y-98099500D01*
X83074501Y-98197880D01*
X83078931Y-98239093D01*
X83078931Y-98265596D01*
X83075000Y-98302165D01*
X83075000Y-98350000D01*
X83090611Y-98365611D01*
X83104484Y-98369685D01*
X83136711Y-98399689D01*
X83212320Y-98500689D01*
X83236738Y-98566153D01*
X83221887Y-98634426D01*
X83212320Y-98649311D01*
X83136711Y-98750311D01*
X83088892Y-98786107D01*
X83075000Y-98800000D01*
X83075000Y-98847832D01*
X83078931Y-98884399D01*
X83078931Y-98910905D01*
X83074500Y-98952122D01*
X83074500Y-99175048D01*
X83054815Y-99242087D01*
X83002011Y-99287842D01*
X82982595Y-99294822D01*
X82905720Y-99315421D01*
X82905713Y-99315424D01*
X82844934Y-99350515D01*
X82842162Y-99352116D01*
X82832166Y-99357887D01*
X82770166Y-99374500D01*
X82627740Y-99374500D01*
X82586819Y-99385464D01*
X82586819Y-99385465D01*
X82560229Y-99392590D01*
X82475014Y-99415423D01*
X82475009Y-99415426D01*
X82338090Y-99494475D01*
X82338082Y-99494481D01*
X82226278Y-99606286D01*
X80544384Y-101288181D01*
X80483061Y-101321666D01*
X80456703Y-101324500D01*
X78564954Y-101324500D01*
X78497915Y-101304815D01*
X78452160Y-101252011D01*
X78442216Y-101182853D01*
X78471241Y-101119297D01*
X78477273Y-101112819D01*
X78482542Y-101107548D01*
X78482546Y-101107546D01*
X78568796Y-100992331D01*
X78619091Y-100857483D01*
X78625500Y-100797873D01*
X78625499Y-100252128D01*
X78625499Y-100252127D01*
X78625498Y-100252111D01*
X78621320Y-100213253D01*
X78621320Y-100186745D01*
X78625500Y-100147873D01*
X78625499Y-99602128D01*
X78625499Y-99602127D01*
X78625498Y-99602111D01*
X78621320Y-99563253D01*
X78621320Y-99536745D01*
X78625500Y-99497873D01*
X78625499Y-98952128D01*
X78625499Y-98952127D01*
X78625498Y-98952111D01*
X78621320Y-98913253D01*
X78621320Y-98886745D01*
X78625500Y-98847873D01*
X78625499Y-98302128D01*
X78625499Y-98302127D01*
X78625498Y-98302111D01*
X78621320Y-98263253D01*
X78621320Y-98236745D01*
X78625500Y-98197873D01*
X78625499Y-97652128D01*
X78625499Y-97652127D01*
X78625498Y-97652111D01*
X78621320Y-97613253D01*
X78621320Y-97586745D01*
X78625500Y-97547873D01*
X78625499Y-97002128D01*
X78625499Y-97002127D01*
X78625498Y-97002111D01*
X78621320Y-96963253D01*
X78621320Y-96936745D01*
X78625500Y-96897873D01*
X78625499Y-96352128D01*
X78621067Y-96310898D01*
X78621068Y-96284393D01*
X78624999Y-96247833D01*
X78625000Y-96247819D01*
X78625000Y-96200000D01*
X78609388Y-96184388D01*
X78595516Y-96180315D01*
X78563289Y-96150312D01*
X78537991Y-96116519D01*
X78487678Y-96049309D01*
X78463261Y-95983848D01*
X78478112Y-95915575D01*
X78487673Y-95900696D01*
X78558923Y-95805520D01*
X78563289Y-95799688D01*
X78611105Y-95763894D01*
X78625000Y-95750000D01*
X78625000Y-95702182D01*
X78624999Y-95702164D01*
X78621068Y-95665602D01*
X78621068Y-95639093D01*
X78625500Y-95597873D01*
X78625499Y-95413816D01*
X78645183Y-95346779D01*
X78697987Y-95301024D01*
X78767145Y-95291080D01*
X78830701Y-95320105D01*
G37*
%TD.AperFunction*%
%TA.AperFunction,Conductor*%
G36*
X89992539Y-84103785D02*
G01*
X90038294Y-84156589D01*
X90049500Y-84208100D01*
X90049500Y-85450001D01*
X90049501Y-85450018D01*
X90060000Y-85552796D01*
X90060001Y-85552799D01*
X90103713Y-85684710D01*
X90115186Y-85719334D01*
X90207096Y-85868345D01*
X90207289Y-85868657D01*
X90225951Y-85887319D01*
X90259436Y-85948642D01*
X90254452Y-86018334D01*
X90225951Y-86062681D01*
X90207289Y-86081342D01*
X90115187Y-86230663D01*
X90115187Y-86230664D01*
X90115186Y-86230666D01*
X90060001Y-86397203D01*
X90060001Y-86397204D01*
X90060000Y-86397204D01*
X90049500Y-86499983D01*
X90049500Y-87900001D01*
X90049501Y-87900018D01*
X90060000Y-88002796D01*
X90060001Y-88002799D01*
X90092211Y-88100000D01*
X90115186Y-88169334D01*
X90207288Y-88318656D01*
X90207289Y-88318657D01*
X90208344Y-88320367D01*
X90226784Y-88387760D01*
X90205861Y-88454423D01*
X90190487Y-88473144D01*
X90157289Y-88506342D01*
X90065187Y-88655663D01*
X90065185Y-88655668D01*
X90059143Y-88673903D01*
X90010001Y-88822203D01*
X90010001Y-88822204D01*
X90010000Y-88822204D01*
X89999500Y-88924983D01*
X89999500Y-89212402D01*
X89979815Y-89279441D01*
X89963181Y-89300083D01*
X89412180Y-89851084D01*
X89350857Y-89884569D01*
X89281165Y-89879585D01*
X89225232Y-89837713D01*
X89200815Y-89772249D01*
X89200499Y-89763403D01*
X89200499Y-88924998D01*
X89200498Y-88924981D01*
X89189999Y-88822203D01*
X89189998Y-88822200D01*
X89176551Y-88781621D01*
X89134814Y-88655666D01*
X89083228Y-88572032D01*
X89041386Y-88504194D01*
X89022946Y-88436802D01*
X89043869Y-88370139D01*
X89059245Y-88351416D01*
X89092314Y-88318347D01*
X89184356Y-88169124D01*
X89184358Y-88169119D01*
X89239505Y-88002697D01*
X89239506Y-88002690D01*
X89249999Y-87899986D01*
X89250000Y-87899973D01*
X89250000Y-87450000D01*
X86925001Y-87450000D01*
X86925001Y-87899986D01*
X86935494Y-88002697D01*
X86990641Y-88169119D01*
X86990643Y-88169124D01*
X87082684Y-88318345D01*
X87086039Y-88322588D01*
X87112178Y-88387384D01*
X87099136Y-88456026D01*
X87076454Y-88487176D01*
X87057292Y-88506337D01*
X86965187Y-88655663D01*
X86965185Y-88655668D01*
X86959143Y-88673903D01*
X86924704Y-88777834D01*
X86910001Y-88822204D01*
X86910000Y-88822205D01*
X86903268Y-88888103D01*
X86876871Y-88952795D01*
X86819690Y-88992946D01*
X86779910Y-88999500D01*
X85435570Y-88999500D01*
X85435554Y-88999499D01*
X85427958Y-88999499D01*
X85269843Y-88999499D01*
X85193479Y-89019961D01*
X85117114Y-89040423D01*
X85117109Y-89040426D01*
X84980190Y-89119475D01*
X84980182Y-89119481D01*
X82792781Y-91306882D01*
X82792780Y-91306884D01*
X82745866Y-91388142D01*
X82713723Y-91443815D01*
X82672799Y-91596543D01*
X82672799Y-91596545D01*
X82672799Y-91764646D01*
X82672800Y-91764659D01*
X82672800Y-96054057D01*
X82711906Y-96200000D01*
X82713723Y-96206783D01*
X82713726Y-96206790D01*
X82792775Y-96343709D01*
X82792781Y-96343717D01*
X82811883Y-96362819D01*
X82845368Y-96424142D01*
X82840384Y-96493834D01*
X82798512Y-96549767D01*
X82733048Y-96574184D01*
X82724202Y-96574500D01*
X82118219Y-96574500D01*
X82051180Y-96554815D01*
X82030538Y-96538181D01*
X79029540Y-93537182D01*
X78996055Y-93475859D01*
X79001039Y-93406167D01*
X79042911Y-93350234D01*
X79108375Y-93325817D01*
X79117221Y-93325501D01*
X79145254Y-93325501D01*
X79145257Y-93325501D01*
X79297985Y-93284577D01*
X79348104Y-93255639D01*
X79434916Y-93205520D01*
X79546720Y-93093716D01*
X79546720Y-93093714D01*
X79556928Y-93083507D01*
X79556930Y-93083504D01*
X80220735Y-92419698D01*
X80282056Y-92386215D01*
X80294511Y-92384163D01*
X80381455Y-92374368D01*
X80551722Y-92314789D01*
X80704462Y-92218816D01*
X80832016Y-92091262D01*
X80927989Y-91938522D01*
X80987568Y-91768255D01*
X80990468Y-91742516D01*
X81007765Y-91589003D01*
X81007765Y-91588996D01*
X80987569Y-91409750D01*
X80987568Y-91409745D01*
X80955407Y-91317834D01*
X80927989Y-91239478D01*
X80927988Y-91239477D01*
X80927987Y-91239473D01*
X80830519Y-91084355D01*
X80811518Y-91017119D01*
X80831885Y-90950284D01*
X80847826Y-90930707D01*
X86713323Y-85065211D01*
X86774642Y-85031729D01*
X86844334Y-85036713D01*
X86900267Y-85078585D01*
X86924684Y-85144049D01*
X86925000Y-85152895D01*
X86925000Y-85449970D01*
X86925001Y-85449987D01*
X86935494Y-85552697D01*
X86990641Y-85719119D01*
X86990643Y-85719124D01*
X87082684Y-85868345D01*
X87101658Y-85887319D01*
X87135143Y-85948642D01*
X87130159Y-86018334D01*
X87101658Y-86062681D01*
X87082684Y-86081654D01*
X86990643Y-86230875D01*
X86990641Y-86230880D01*
X86935494Y-86397302D01*
X86935493Y-86397309D01*
X86925000Y-86500013D01*
X86925000Y-86950000D01*
X87837500Y-86950000D01*
X87837500Y-85000000D01*
X88337500Y-85000000D01*
X88337500Y-86950000D01*
X89249999Y-86950000D01*
X89249999Y-86500028D01*
X89249998Y-86500013D01*
X89239505Y-86397302D01*
X89184358Y-86230880D01*
X89184356Y-86230875D01*
X89092315Y-86081654D01*
X89073342Y-86062681D01*
X89039857Y-86001358D01*
X89044841Y-85931666D01*
X89073342Y-85887319D01*
X89092315Y-85868345D01*
X89184356Y-85719124D01*
X89184358Y-85719119D01*
X89239505Y-85552697D01*
X89239506Y-85552690D01*
X89249999Y-85449986D01*
X89250000Y-85449973D01*
X89250000Y-85000000D01*
X88337500Y-85000000D01*
X87837500Y-85000000D01*
X87837500Y-84624000D01*
X87857185Y-84556961D01*
X87909989Y-84511206D01*
X87961500Y-84500000D01*
X89249999Y-84500000D01*
X89249999Y-84208100D01*
X89269684Y-84141061D01*
X89322488Y-84095306D01*
X89373999Y-84084100D01*
X89925500Y-84084100D01*
X89992539Y-84103785D01*
G37*
%TD.AperFunction*%
%TA.AperFunction,Conductor*%
G36*
X86568834Y-95363064D02*
G01*
X86624767Y-95404936D01*
X86649184Y-95470400D01*
X86649500Y-95479246D01*
X86649500Y-95958481D01*
X86629815Y-96025520D01*
X86613181Y-96046162D01*
X86121162Y-96538181D01*
X86059839Y-96571666D01*
X86033481Y-96574500D01*
X85949000Y-96574500D01*
X85881961Y-96554815D01*
X85836206Y-96502011D01*
X85825000Y-96450500D01*
X85825000Y-96352182D01*
X85824999Y-96352164D01*
X85821068Y-96315602D01*
X85821068Y-96289094D01*
X85825500Y-96247873D01*
X85825499Y-95991637D01*
X85845183Y-95924599D01*
X85887498Y-95884251D01*
X85940836Y-95853457D01*
X86023866Y-95805520D01*
X86135670Y-95693716D01*
X86135670Y-95693714D01*
X86145874Y-95683511D01*
X86145877Y-95683506D01*
X86437820Y-95391564D01*
X86499142Y-95358080D01*
X86568834Y-95363064D01*
G37*
%TD.AperFunction*%
%TA.AperFunction,Conductor*%
G36*
X86846950Y-90220185D02*
G01*
X86892705Y-90272989D01*
X86903269Y-90311898D01*
X86910001Y-90377797D01*
X86910001Y-90377799D01*
X86965185Y-90544331D01*
X86965186Y-90544334D01*
X87040352Y-90666199D01*
X87057289Y-90693657D01*
X87080949Y-90717317D01*
X87114434Y-90778640D01*
X87109450Y-90848332D01*
X87098807Y-90870095D01*
X87015185Y-91005667D01*
X86960001Y-91172203D01*
X86960000Y-91172204D01*
X86949500Y-91274984D01*
X86949500Y-92625015D01*
X86960000Y-92727795D01*
X86960001Y-92727796D01*
X87015186Y-92894335D01*
X87015187Y-92894337D01*
X87070732Y-92984388D01*
X87089173Y-93051780D01*
X87068251Y-93118444D01*
X87027196Y-93156871D01*
X87008423Y-93167710D01*
X87008421Y-93167711D01*
X86901437Y-93229477D01*
X86901432Y-93229481D01*
X86789628Y-93341286D01*
X85936105Y-94194807D01*
X85874782Y-94228292D01*
X85805090Y-94223308D01*
X85749159Y-94181437D01*
X85682546Y-94092454D01*
X85682545Y-94092453D01*
X85682544Y-94092452D01*
X85590124Y-94023266D01*
X85548253Y-93967332D01*
X85543269Y-93897641D01*
X85576755Y-93836318D01*
X85638078Y-93802834D01*
X85664435Y-93800000D01*
X85825000Y-93800000D01*
X85825000Y-93752179D01*
X85824999Y-93752168D01*
X85820815Y-93713258D01*
X85820815Y-93686742D01*
X85824999Y-93647831D01*
X85825000Y-93647821D01*
X85825000Y-93600000D01*
X85664435Y-93600000D01*
X85597396Y-93580315D01*
X85551641Y-93527511D01*
X85541697Y-93458353D01*
X85570722Y-93394797D01*
X85590124Y-93376734D01*
X85658561Y-93325501D01*
X85682546Y-93307546D01*
X85758923Y-93205520D01*
X85763289Y-93199688D01*
X85811105Y-93163894D01*
X85825000Y-93150000D01*
X85825000Y-93102182D01*
X85824999Y-93102164D01*
X85821068Y-93065602D01*
X85821068Y-93039094D01*
X85825500Y-92997873D01*
X85825499Y-92452128D01*
X85825499Y-92452127D01*
X85825498Y-92452111D01*
X85821320Y-92413253D01*
X85821320Y-92386745D01*
X85825500Y-92347873D01*
X85825499Y-91802128D01*
X85819091Y-91742517D01*
X85813548Y-91727656D01*
X85768797Y-91607671D01*
X85768793Y-91607664D01*
X85682547Y-91492455D01*
X85682544Y-91492452D01*
X85567335Y-91406206D01*
X85567328Y-91406202D01*
X85432482Y-91355908D01*
X85432483Y-91355908D01*
X85372883Y-91349501D01*
X85372881Y-91349500D01*
X85372873Y-91349500D01*
X85372865Y-91349500D01*
X84747996Y-91349500D01*
X84680957Y-91329815D01*
X84635202Y-91277011D01*
X84625258Y-91207853D01*
X84654283Y-91144297D01*
X84660315Y-91137819D01*
X84768078Y-91030057D01*
X85561317Y-90236819D01*
X85622640Y-90203334D01*
X85648998Y-90200500D01*
X86779911Y-90200500D01*
X86846950Y-90220185D01*
G37*
%TD.AperFunction*%
%TA.AperFunction,Conductor*%
G36*
X84618039Y-93470184D02*
G01*
X84663794Y-93522988D01*
X84675000Y-93574499D01*
X84675000Y-93825500D01*
X84655315Y-93892539D01*
X84602511Y-93938294D01*
X84551000Y-93949500D01*
X84349000Y-93949500D01*
X84281961Y-93929815D01*
X84236206Y-93877011D01*
X84225000Y-93825500D01*
X84225000Y-93574499D01*
X84244685Y-93507460D01*
X84297489Y-93461705D01*
X84349000Y-93450499D01*
X84551000Y-93450499D01*
X84618039Y-93470184D01*
G37*
%TD.AperFunction*%
%TA.AperFunction,Conductor*%
G36*
X63766231Y-91976685D02*
G01*
X63786873Y-91993319D01*
X64381372Y-92587819D01*
X64414857Y-92649142D01*
X64409873Y-92718834D01*
X64368001Y-92774767D01*
X64302537Y-92799184D01*
X64293691Y-92799500D01*
X63937309Y-92799500D01*
X63870270Y-92779815D01*
X63849628Y-92763181D01*
X63271025Y-92184578D01*
X63237540Y-92123255D01*
X63242524Y-92053563D01*
X63284396Y-91997630D01*
X63324650Y-91977665D01*
X63380307Y-91961768D01*
X63414363Y-91957000D01*
X63699192Y-91957000D01*
X63766231Y-91976685D01*
G37*
%TD.AperFunction*%
%TA.AperFunction,Conductor*%
G36*
X65370202Y-91003383D02*
G01*
X65376680Y-91009415D01*
X66304681Y-91937416D01*
X66338166Y-91998739D01*
X66341000Y-92025097D01*
X66341000Y-92422156D01*
X66321315Y-92489195D01*
X66268511Y-92534950D01*
X66199353Y-92544894D01*
X66145534Y-92521630D01*
X66145058Y-92522389D01*
X66140137Y-92519297D01*
X66139686Y-92519102D01*
X66139162Y-92518684D01*
X65986423Y-92422711D01*
X65816154Y-92363131D01*
X65816149Y-92363130D01*
X65636904Y-92342935D01*
X65636896Y-92342935D01*
X65457650Y-92363130D01*
X65457642Y-92363132D01*
X65381967Y-92389612D01*
X65312188Y-92393173D01*
X65251561Y-92358444D01*
X65234281Y-92335691D01*
X65182685Y-92248447D01*
X65182678Y-92248438D01*
X65123864Y-92189624D01*
X65090379Y-92128301D01*
X65095363Y-92058609D01*
X65099166Y-92049531D01*
X65099359Y-92049116D01*
X65154505Y-91882697D01*
X65154506Y-91882690D01*
X65164999Y-91779986D01*
X65164999Y-91097096D01*
X65184683Y-91030057D01*
X65237487Y-90984302D01*
X65306646Y-90974358D01*
X65370202Y-91003383D01*
G37*
%TD.AperFunction*%
%TA.AperFunction,Conductor*%
G36*
X67174075Y-87207007D02*
G01*
X67140000Y-87334174D01*
X67140000Y-87465826D01*
X67174075Y-87592993D01*
X67206988Y-87650000D01*
X65533012Y-87650000D01*
X65565925Y-87592993D01*
X65600000Y-87465826D01*
X65600000Y-87334174D01*
X65565925Y-87207007D01*
X65533012Y-87150000D01*
X67206988Y-87150000D01*
X67174075Y-87207007D01*
G37*
%TD.AperFunction*%
%TA.AperFunction,Conductor*%
G36*
X100523622Y-72811007D02*
G01*
X100554116Y-72833352D01*
X103248882Y-75528118D01*
X103282367Y-75589441D01*
X103280976Y-75647891D01*
X103263795Y-75712015D01*
X103263792Y-75712029D01*
X103244723Y-75929997D01*
X103244723Y-75930002D01*
X103263793Y-76147975D01*
X103263793Y-76147979D01*
X103320422Y-76359322D01*
X103320424Y-76359326D01*
X103320425Y-76359330D01*
X103366661Y-76458484D01*
X103412897Y-76557638D01*
X103421553Y-76570000D01*
X103538402Y-76736877D01*
X103693123Y-76891598D01*
X103872361Y-77017102D01*
X104070670Y-77109575D01*
X104070676Y-77109576D01*
X104070677Y-77109577D01*
X104101364Y-77117799D01*
X104282023Y-77166207D01*
X104464926Y-77182208D01*
X104499998Y-77185277D01*
X104500000Y-77185277D01*
X104500002Y-77185277D01*
X104528254Y-77182805D01*
X104717977Y-77166207D01*
X104929330Y-77109575D01*
X105127639Y-77017102D01*
X105306877Y-76891598D01*
X105379819Y-76818656D01*
X105441142Y-76785171D01*
X105510834Y-76790155D01*
X105566767Y-76832027D01*
X105591184Y-76897491D01*
X105591500Y-76906337D01*
X105591500Y-82225593D01*
X105591488Y-82308072D01*
X105591498Y-82308150D01*
X105611948Y-82384473D01*
X105611949Y-82384487D01*
X105611952Y-82384487D01*
X105611952Y-82384488D01*
X105632390Y-82460803D01*
X105632391Y-82460804D01*
X105632393Y-82460812D01*
X105632422Y-82460884D01*
X105673676Y-82532338D01*
X105673684Y-82532352D01*
X105711430Y-82597752D01*
X105711476Y-82597812D01*
X105769902Y-82656238D01*
X105769911Y-82656254D01*
X105769915Y-82656251D01*
X107140116Y-84026850D01*
X107173592Y-84088178D01*
X107168597Y-84157869D01*
X107126718Y-84213797D01*
X107061250Y-84238204D01*
X107020329Y-84234294D01*
X106985413Y-84224938D01*
X106985403Y-84224936D01*
X106750001Y-84204341D01*
X106749999Y-84204341D01*
X106514596Y-84224936D01*
X106514586Y-84224938D01*
X106286344Y-84286094D01*
X106286335Y-84286098D01*
X106072171Y-84385964D01*
X106072169Y-84385965D01*
X105878597Y-84521505D01*
X105711505Y-84688597D01*
X105581269Y-84874595D01*
X105526692Y-84918220D01*
X105457194Y-84925414D01*
X105394839Y-84893891D01*
X105378119Y-84874595D01*
X105324925Y-84798626D01*
X105324925Y-84798625D01*
X104692961Y-85430588D01*
X104675925Y-85367007D01*
X104610099Y-85252993D01*
X104517007Y-85159901D01*
X104402993Y-85094075D01*
X104339410Y-85077037D01*
X104971373Y-84445073D01*
X104971373Y-84445072D01*
X104887583Y-84386402D01*
X104887579Y-84386400D01*
X104673492Y-84286570D01*
X104673483Y-84286566D01*
X104445326Y-84225432D01*
X104445315Y-84225430D01*
X104210002Y-84204843D01*
X104209998Y-84204843D01*
X103974684Y-84225430D01*
X103974673Y-84225432D01*
X103746516Y-84286566D01*
X103746507Y-84286570D01*
X103532419Y-84386401D01*
X103448625Y-84445072D01*
X104080590Y-85077037D01*
X104017007Y-85094075D01*
X103902993Y-85159901D01*
X103809901Y-85252993D01*
X103744075Y-85367007D01*
X103727037Y-85430590D01*
X103095072Y-84798625D01*
X103036401Y-84882419D01*
X102936570Y-85096507D01*
X102936566Y-85096516D01*
X102875432Y-85324673D01*
X102875430Y-85324684D01*
X102854843Y-85559998D01*
X102854843Y-85560001D01*
X102875430Y-85795315D01*
X102875432Y-85795326D01*
X102936566Y-86023483D01*
X102936569Y-86023492D01*
X102950374Y-86053095D01*
X102960866Y-86122172D01*
X102932347Y-86185956D01*
X102873870Y-86224196D01*
X102837992Y-86229500D01*
X98589340Y-86229500D01*
X98584997Y-86230664D01*
X98584986Y-86230667D01*
X98558510Y-86237760D01*
X98488661Y-86236094D01*
X98430800Y-86196929D01*
X98420883Y-86183080D01*
X98386027Y-86126570D01*
X98342712Y-86056344D01*
X98342710Y-86056342D01*
X98342709Y-86056340D01*
X98339319Y-86052052D01*
X98313179Y-85987257D01*
X98326220Y-85918615D01*
X98348906Y-85887462D01*
X98367712Y-85868656D01*
X98459814Y-85719334D01*
X98514999Y-85552797D01*
X98525500Y-85450009D01*
X98525499Y-84049992D01*
X98514999Y-83947203D01*
X98459814Y-83780666D01*
X98367712Y-83631344D01*
X98299049Y-83562681D01*
X98265564Y-83501358D01*
X98270548Y-83431666D01*
X98299049Y-83387319D01*
X98336549Y-83349819D01*
X98392712Y-83293656D01*
X98484814Y-83144334D01*
X98539999Y-82977797D01*
X98550500Y-82875009D01*
X98550499Y-81950095D01*
X98570183Y-81883057D01*
X98586813Y-81862420D01*
X99980206Y-80469028D01*
X99980211Y-80469024D01*
X99990414Y-80458820D01*
X99990416Y-80458820D01*
X100102220Y-80347016D01*
X100105825Y-80340771D01*
X100169478Y-80230522D01*
X100169479Y-80230520D01*
X100174266Y-80222227D01*
X100181277Y-80210085D01*
X100222200Y-80057358D01*
X100222200Y-79899243D01*
X100222200Y-73118412D01*
X100241885Y-73051373D01*
X100249255Y-73041097D01*
X100251510Y-73038267D01*
X100251516Y-73038262D01*
X100347489Y-72885522D01*
X100349391Y-72880085D01*
X100390108Y-72823308D01*
X100455059Y-72797556D01*
X100523622Y-72811007D01*
G37*
%TD.AperFunction*%
%TA.AperFunction,Conductor*%
G36*
X106997703Y-76537614D02*
G01*
X107004169Y-76543634D01*
X107516160Y-77055550D01*
X107566041Y-77105424D01*
X107599530Y-77166745D01*
X107601724Y-77205711D01*
X107599501Y-77227474D01*
X107599500Y-77227497D01*
X107599500Y-78152501D01*
X107599501Y-78152519D01*
X107610000Y-78255296D01*
X107610001Y-78255299D01*
X107665185Y-78421831D01*
X107665187Y-78421836D01*
X107676506Y-78440187D01*
X107757288Y-78571156D01*
X107881344Y-78695212D01*
X108030666Y-78787314D01*
X108197203Y-78842499D01*
X108299991Y-78853000D01*
X109700008Y-78852999D01*
X109802797Y-78842499D01*
X109969334Y-78787314D01*
X110118656Y-78695212D01*
X110242712Y-78571156D01*
X110334814Y-78421834D01*
X110357795Y-78352481D01*
X110397566Y-78295038D01*
X110462082Y-78268215D01*
X110530858Y-78280530D01*
X110582058Y-78328073D01*
X110599500Y-78391487D01*
X110599500Y-83349903D01*
X110579815Y-83416942D01*
X110563181Y-83437584D01*
X108726181Y-85274584D01*
X108664858Y-85308069D01*
X108595166Y-85303085D01*
X108539233Y-85261213D01*
X108514816Y-85195749D01*
X108514500Y-85186903D01*
X108514500Y-83955124D01*
X108514504Y-83928740D01*
X108514512Y-83872630D01*
X108514508Y-83872617D01*
X108514500Y-83872550D01*
X108514500Y-83872543D01*
X108494286Y-83797106D01*
X108494286Y-83797105D01*
X108494282Y-83797089D01*
X108487475Y-83771672D01*
X108473610Y-83719896D01*
X108473607Y-83719892D01*
X108473607Y-83719889D01*
X108473578Y-83719818D01*
X108473577Y-83719816D01*
X108433176Y-83649840D01*
X108433172Y-83649824D01*
X108433169Y-83649826D01*
X108394573Y-83582952D01*
X108394521Y-83582885D01*
X108336071Y-83524435D01*
X106828806Y-82016731D01*
X106795330Y-81955403D01*
X106792500Y-81929063D01*
X106792500Y-76631327D01*
X106812185Y-76564288D01*
X106864989Y-76518533D01*
X106934147Y-76508589D01*
X106997703Y-76537614D01*
G37*
%TD.AperFunction*%
%TA.AperFunction,Conductor*%
G36*
X92294681Y-68885166D02*
G01*
X92350614Y-68927038D01*
X92371681Y-68971420D01*
X92397381Y-69074759D01*
X92398360Y-69078696D01*
X92482967Y-69249292D01*
X92482969Y-69249295D01*
X92602277Y-69397721D01*
X92602278Y-69397722D01*
X92671884Y-69453673D01*
X92711803Y-69511016D01*
X92714383Y-69580838D01*
X92678804Y-69640971D01*
X92671885Y-69646967D01*
X92602631Y-69702635D01*
X92483392Y-69850974D01*
X92483390Y-69850977D01*
X92398831Y-70021476D01*
X92352897Y-70206175D01*
X92350000Y-70248903D01*
X92350000Y-70450000D01*
X93976000Y-70450000D01*
X94043039Y-70469685D01*
X94088794Y-70522489D01*
X94100000Y-70574000D01*
X94100000Y-71950000D01*
X94551097Y-71950000D01*
X94593824Y-71947102D01*
X94778523Y-71901168D01*
X94949022Y-71816609D01*
X94949025Y-71816607D01*
X95097366Y-71697367D01*
X95097367Y-71697366D01*
X95216607Y-71549025D01*
X95216609Y-71549022D01*
X95237012Y-71507884D01*
X95284433Y-71456571D01*
X95352068Y-71439041D01*
X95418443Y-71460861D01*
X95462485Y-71515102D01*
X95472100Y-71562978D01*
X95472100Y-72423606D01*
X95472100Y-72561594D01*
X95472100Y-72561596D01*
X95472099Y-72561596D01*
X95499018Y-72696922D01*
X95499021Y-72696932D01*
X95551822Y-72824407D01*
X95619382Y-72925518D01*
X95640259Y-72992195D01*
X95635356Y-73029002D01*
X95602401Y-73142432D01*
X95599500Y-73179298D01*
X95599500Y-73264480D01*
X95579815Y-73331519D01*
X95563181Y-73352161D01*
X93774489Y-75140852D01*
X93713166Y-75174337D01*
X93643474Y-75169353D01*
X93587541Y-75127481D01*
X93563124Y-75062017D01*
X93567732Y-75018576D01*
X93597099Y-74917494D01*
X93597100Y-74917488D01*
X93597295Y-74915001D01*
X93597295Y-74915000D01*
X92375000Y-74915000D01*
X92375000Y-78005000D01*
X93015634Y-78005000D01*
X93015649Y-78004999D01*
X93052489Y-78002100D01*
X93052495Y-78002099D01*
X93210193Y-77956283D01*
X93210196Y-77956282D01*
X93351552Y-77872685D01*
X93351561Y-77872678D01*
X93387819Y-77836421D01*
X93449142Y-77802936D01*
X93518834Y-77807920D01*
X93574767Y-77849792D01*
X93599184Y-77915256D01*
X93599500Y-77924102D01*
X93599500Y-78359362D01*
X93579815Y-78426401D01*
X93540598Y-78464899D01*
X93478046Y-78503482D01*
X93431342Y-78532289D01*
X93307289Y-78656342D01*
X93215187Y-78805663D01*
X93215185Y-78805668D01*
X93202981Y-78842498D01*
X93162551Y-78964506D01*
X93122781Y-79021949D01*
X93058265Y-79048772D01*
X93044847Y-79049500D01*
X92505154Y-79049500D01*
X92438115Y-79029815D01*
X92392360Y-78977011D01*
X92387448Y-78964504D01*
X92350499Y-78853000D01*
X92334814Y-78805666D01*
X92242712Y-78656344D01*
X92118656Y-78532288D01*
X91969334Y-78440186D01*
X91802797Y-78385001D01*
X91802795Y-78385000D01*
X91700016Y-78374500D01*
X91700009Y-78374500D01*
X91388023Y-78374500D01*
X91320984Y-78354815D01*
X91275229Y-78302011D01*
X91265285Y-78232853D01*
X91270981Y-78209547D01*
X91278526Y-78187981D01*
X91290468Y-78153855D01*
X91294833Y-78115118D01*
X91321899Y-78050704D01*
X91379493Y-78011148D01*
X91418053Y-78005000D01*
X91875000Y-78005000D01*
X91875000Y-76185000D01*
X90652705Y-76185000D01*
X90652704Y-76185001D01*
X90652899Y-76187486D01*
X90698718Y-76345198D01*
X90782314Y-76486552D01*
X90787100Y-76492722D01*
X90784753Y-76494542D01*
X90811564Y-76543642D01*
X90806580Y-76613334D01*
X90785541Y-76646069D01*
X90787100Y-76647278D01*
X90782314Y-76653447D01*
X90698717Y-76794803D01*
X90698716Y-76794806D01*
X90652900Y-76952504D01*
X90652899Y-76952510D01*
X90650000Y-76989350D01*
X90650000Y-77046605D01*
X90630315Y-77113644D01*
X90577511Y-77159399D01*
X90512118Y-77169825D01*
X90505100Y-77169035D01*
X90505098Y-77169035D01*
X90505097Y-77169035D01*
X90505096Y-77169035D01*
X90325850Y-77189230D01*
X90325845Y-77189231D01*
X90155576Y-77248811D01*
X90002837Y-77344784D01*
X90000003Y-77347045D01*
X89997824Y-77347934D01*
X89996942Y-77348489D01*
X89996844Y-77348334D01*
X89935316Y-77373454D01*
X89922689Y-77374099D01*
X89846343Y-77374099D01*
X89769979Y-77394561D01*
X89693614Y-77415023D01*
X89693609Y-77415026D01*
X89556690Y-77494075D01*
X89556682Y-77494081D01*
X88710861Y-78339902D01*
X88649538Y-78373387D01*
X88610582Y-78375579D01*
X88600028Y-78374501D01*
X88600012Y-78374500D01*
X88600009Y-78374500D01*
X88600003Y-78374500D01*
X87699998Y-78374500D01*
X87699980Y-78374501D01*
X87597203Y-78385000D01*
X87597200Y-78385001D01*
X87430668Y-78440185D01*
X87430663Y-78440187D01*
X87281342Y-78532289D01*
X87157289Y-78656342D01*
X87065187Y-78805663D01*
X87065185Y-78805668D01*
X87052981Y-78842498D01*
X87010001Y-78972203D01*
X87010001Y-78972204D01*
X87010000Y-78972204D01*
X86999500Y-79074983D01*
X86999500Y-80425001D01*
X86999501Y-80425018D01*
X87010000Y-80527796D01*
X87010001Y-80527799D01*
X87065185Y-80694331D01*
X87065187Y-80694336D01*
X87157289Y-80843657D01*
X87200951Y-80887320D01*
X87234435Y-80948643D01*
X87229450Y-81018335D01*
X87200951Y-81062680D01*
X87157289Y-81106342D01*
X87065187Y-81255663D01*
X87065186Y-81255666D01*
X87010001Y-81422203D01*
X87010001Y-81422204D01*
X87010000Y-81422204D01*
X86999500Y-81524983D01*
X86999500Y-82449902D01*
X86979815Y-82516941D01*
X86963181Y-82537583D01*
X86712181Y-82788583D01*
X86650858Y-82822068D01*
X86581166Y-82817084D01*
X86525233Y-82775212D01*
X86500816Y-82709748D01*
X86500500Y-82700902D01*
X86500500Y-75684998D01*
X90652704Y-75684998D01*
X90652705Y-75685000D01*
X91875000Y-75685000D01*
X91875000Y-74915000D01*
X90652705Y-74915000D01*
X90652704Y-74915001D01*
X90652899Y-74917486D01*
X90698718Y-75075198D01*
X90782314Y-75216552D01*
X90787100Y-75222722D01*
X90784753Y-75224542D01*
X90811564Y-75273642D01*
X90806580Y-75343334D01*
X90785541Y-75376069D01*
X90787100Y-75377278D01*
X90782314Y-75383447D01*
X90698718Y-75524801D01*
X90652899Y-75682513D01*
X90652704Y-75684998D01*
X86500500Y-75684998D01*
X86500500Y-74414998D01*
X90652704Y-74414998D01*
X90652705Y-74415000D01*
X91875000Y-74415000D01*
X91875000Y-73645000D01*
X92375000Y-73645000D01*
X92375000Y-74415000D01*
X93597295Y-74415000D01*
X93597295Y-74414998D01*
X93597100Y-74412513D01*
X93551281Y-74254801D01*
X93467685Y-74113447D01*
X93462900Y-74107278D01*
X93465252Y-74105453D01*
X93438445Y-74056405D01*
X93443402Y-73986712D01*
X93464465Y-73953936D01*
X93462900Y-73952722D01*
X93467685Y-73946552D01*
X93551281Y-73805198D01*
X93597100Y-73647486D01*
X93597295Y-73645001D01*
X93597295Y-73645000D01*
X92375000Y-73645000D01*
X91875000Y-73645000D01*
X90652705Y-73645000D01*
X90652704Y-73645001D01*
X90652899Y-73647486D01*
X90698718Y-73805198D01*
X90782314Y-73946552D01*
X90787100Y-73952722D01*
X90784753Y-73954542D01*
X90811564Y-74003642D01*
X90806580Y-74073334D01*
X90785541Y-74106069D01*
X90787100Y-74107278D01*
X90782314Y-74113447D01*
X90698718Y-74254801D01*
X90652899Y-74412513D01*
X90652704Y-74414998D01*
X86500500Y-74414998D01*
X86500500Y-74000097D01*
X86520185Y-73933058D01*
X86536819Y-73912416D01*
X86662416Y-73786819D01*
X86723739Y-73753334D01*
X86750097Y-73750500D01*
X89232831Y-73750500D01*
X89232847Y-73750501D01*
X89240443Y-73750501D01*
X89398554Y-73750501D01*
X89398557Y-73750501D01*
X89551285Y-73709577D01*
X89642153Y-73657114D01*
X89688216Y-73630520D01*
X89800020Y-73518716D01*
X89800020Y-73518714D01*
X89810224Y-73508511D01*
X89810227Y-73508506D01*
X90532630Y-72786105D01*
X90593952Y-72752621D01*
X90663644Y-72757605D01*
X90719577Y-72799477D01*
X90743994Y-72864941D01*
X90729142Y-72933214D01*
X90727043Y-72936907D01*
X90698718Y-72984802D01*
X90652899Y-73142513D01*
X90652704Y-73144998D01*
X90652705Y-73145000D01*
X91875000Y-73145000D01*
X91875000Y-72595000D01*
X92375000Y-72595000D01*
X92375000Y-73145000D01*
X93597295Y-73145000D01*
X93597295Y-73144998D01*
X93597100Y-73142513D01*
X93551281Y-72984801D01*
X93467685Y-72843447D01*
X93467678Y-72843438D01*
X93351561Y-72727321D01*
X93351552Y-72727314D01*
X93210196Y-72643717D01*
X93210193Y-72643716D01*
X93052495Y-72597900D01*
X93052489Y-72597899D01*
X93015649Y-72595000D01*
X92375000Y-72595000D01*
X91875000Y-72595000D01*
X91234350Y-72595000D01*
X91197510Y-72597899D01*
X91197504Y-72597900D01*
X91039806Y-72643716D01*
X91039803Y-72643717D01*
X90922376Y-72713163D01*
X90854652Y-72730346D01*
X90788389Y-72708186D01*
X90744626Y-72653720D01*
X90737257Y-72584240D01*
X90751868Y-72544431D01*
X90800277Y-72460584D01*
X90841201Y-72307857D01*
X90841201Y-72149742D01*
X90841201Y-72142147D01*
X90841200Y-72142129D01*
X90841200Y-70950000D01*
X92350000Y-70950000D01*
X92350000Y-71151096D01*
X92352897Y-71193824D01*
X92398831Y-71378523D01*
X92483390Y-71549022D01*
X92483392Y-71549025D01*
X92602632Y-71697366D01*
X92602633Y-71697367D01*
X92750974Y-71816607D01*
X92750977Y-71816609D01*
X92921476Y-71901168D01*
X93106175Y-71947102D01*
X93148903Y-71950000D01*
X93600000Y-71950000D01*
X93600000Y-70950000D01*
X92350000Y-70950000D01*
X90841200Y-70950000D01*
X90841200Y-70287496D01*
X90860885Y-70220457D01*
X90877514Y-70199820D01*
X92163668Y-68913665D01*
X92224989Y-68880182D01*
X92294681Y-68885166D01*
G37*
%TD.AperFunction*%
%TA.AperFunction,Conductor*%
G36*
X110530858Y-70155530D02*
G01*
X110582058Y-70203073D01*
X110599500Y-70266487D01*
X110599500Y-71990099D01*
X110579815Y-72057138D01*
X110527011Y-72102893D01*
X110457853Y-72112837D01*
X110394297Y-72083812D01*
X110357794Y-72029104D01*
X110334357Y-71958378D01*
X110334356Y-71958375D01*
X110242315Y-71809154D01*
X110118345Y-71685184D01*
X109969124Y-71593143D01*
X109969119Y-71593141D01*
X109802697Y-71537994D01*
X109802690Y-71537993D01*
X109699986Y-71527500D01*
X109250000Y-71527500D01*
X109250000Y-75727499D01*
X109699972Y-75727499D01*
X109699986Y-75727498D01*
X109802697Y-75717005D01*
X109969119Y-75661858D01*
X109969124Y-75661856D01*
X110118345Y-75569815D01*
X110242315Y-75445845D01*
X110334356Y-75296624D01*
X110334358Y-75296619D01*
X110357794Y-75225895D01*
X110397566Y-75168450D01*
X110462082Y-75141627D01*
X110530858Y-75153942D01*
X110582058Y-75201485D01*
X110599500Y-75264899D01*
X110599500Y-76988511D01*
X110579815Y-77055550D01*
X110527011Y-77101305D01*
X110457853Y-77111249D01*
X110394297Y-77082224D01*
X110357794Y-77027516D01*
X110345147Y-76989350D01*
X110334814Y-76958166D01*
X110242712Y-76808844D01*
X110118656Y-76684788D01*
X109969334Y-76592686D01*
X109802797Y-76537501D01*
X109802795Y-76537500D01*
X109700016Y-76527000D01*
X109700009Y-76527000D01*
X108737485Y-76527000D01*
X108670446Y-76507315D01*
X108649810Y-76490688D01*
X108085344Y-75926304D01*
X108051855Y-75864983D01*
X108056834Y-75795291D01*
X108098701Y-75739354D01*
X108164164Y-75714933D01*
X108190522Y-75716775D01*
X108190569Y-75716318D01*
X108300019Y-75727499D01*
X108749999Y-75727499D01*
X108750000Y-75727498D01*
X108750000Y-72940000D01*
X107600001Y-72940000D01*
X107600001Y-73152486D01*
X107610494Y-73255197D01*
X107665641Y-73421619D01*
X107665643Y-73421624D01*
X107752477Y-73562403D01*
X107770917Y-73629796D01*
X107752476Y-73692597D01*
X107736492Y-73718511D01*
X107684544Y-73765236D01*
X107615582Y-73776457D01*
X107551500Y-73748614D01*
X107543273Y-73741095D01*
X107446262Y-73644084D01*
X107293523Y-73548111D01*
X107123254Y-73488531D01*
X107123249Y-73488530D01*
X106944004Y-73468335D01*
X106943998Y-73468335D01*
X106930378Y-73469869D01*
X106861557Y-73457811D01*
X106810179Y-73410460D01*
X106792500Y-73346648D01*
X106792500Y-72440000D01*
X107600000Y-72440000D01*
X108750000Y-72440000D01*
X108750000Y-71527500D01*
X108300028Y-71527500D01*
X108300012Y-71527501D01*
X108197302Y-71537994D01*
X108030880Y-71593141D01*
X108030875Y-71593143D01*
X107881654Y-71685184D01*
X107757684Y-71809154D01*
X107665643Y-71958375D01*
X107665641Y-71958380D01*
X107610494Y-72124802D01*
X107610493Y-72124809D01*
X107600000Y-72227513D01*
X107600000Y-72440000D01*
X106792500Y-72440000D01*
X106792500Y-71091747D01*
X106812185Y-71024708D01*
X106864989Y-70978953D01*
X106902617Y-70968527D01*
X106973250Y-70960569D01*
X106973253Y-70960568D01*
X106973255Y-70960568D01*
X107143522Y-70900989D01*
X107296262Y-70805016D01*
X107296267Y-70805010D01*
X107299097Y-70802755D01*
X107301275Y-70801865D01*
X107302158Y-70801311D01*
X107302255Y-70801465D01*
X107363783Y-70776345D01*
X107376412Y-70775700D01*
X108302898Y-70775700D01*
X108303112Y-70775713D01*
X108311036Y-70775711D01*
X108311041Y-70775713D01*
X108393250Y-70775700D01*
X108393262Y-70775700D01*
X108469060Y-70775700D01*
X108469144Y-70775688D01*
X108469156Y-70775688D01*
X108548724Y-70754353D01*
X108548744Y-70754353D01*
X108548743Y-70754348D01*
X108626729Y-70733452D01*
X108627022Y-70733374D01*
X108629704Y-70732662D01*
X108629805Y-70732628D01*
X108629963Y-70732586D01*
X108630461Y-70734462D01*
X108662841Y-70727999D01*
X109700002Y-70727999D01*
X109700008Y-70727999D01*
X109802797Y-70717499D01*
X109969334Y-70662314D01*
X110118656Y-70570212D01*
X110242712Y-70446156D01*
X110334814Y-70296834D01*
X110357795Y-70227481D01*
X110397566Y-70170038D01*
X110462082Y-70143215D01*
X110530858Y-70155530D01*
G37*
%TD.AperFunction*%
%TA.AperFunction,Conductor*%
G36*
X98205839Y-68370184D02*
G01*
X98251594Y-68422988D01*
X98262800Y-68474499D01*
X98262800Y-69026000D01*
X98243115Y-69093039D01*
X98190311Y-69138794D01*
X98138800Y-69150000D01*
X97750000Y-69150000D01*
X97750000Y-71518813D01*
X97730315Y-71585852D01*
X97701809Y-71614117D01*
X97703184Y-71615841D01*
X97697737Y-71620184D01*
X97570184Y-71747737D01*
X97474211Y-71900476D01*
X97414631Y-72070745D01*
X97414630Y-72070750D01*
X97394435Y-72249996D01*
X97394435Y-72250004D01*
X97414917Y-72431795D01*
X97402862Y-72500617D01*
X97355513Y-72551996D01*
X97287903Y-72569620D01*
X97221497Y-72547893D01*
X97204016Y-72533359D01*
X96909419Y-72238762D01*
X96875934Y-72177439D01*
X96873100Y-72151081D01*
X96873100Y-71598999D01*
X96892785Y-71531960D01*
X96945589Y-71486205D01*
X96997100Y-71474999D01*
X97250000Y-71474999D01*
X97250000Y-69150000D01*
X96997100Y-69150000D01*
X96930061Y-69130315D01*
X96884306Y-69077511D01*
X96873100Y-69026000D01*
X96873100Y-68856418D01*
X96892785Y-68789379D01*
X96909415Y-68768741D01*
X97291338Y-68386817D01*
X97352661Y-68353333D01*
X97379019Y-68350499D01*
X98138800Y-68350499D01*
X98205839Y-68370184D01*
G37*
%TD.AperFunction*%
%TA.AperFunction,Conductor*%
G36*
X93742539Y-64620185D02*
G01*
X93788294Y-64672989D01*
X93799500Y-64724500D01*
X93799500Y-64725500D01*
X93779815Y-64792539D01*
X93727011Y-64838294D01*
X93675500Y-64849500D01*
X93148877Y-64849500D01*
X93148874Y-64849501D01*
X93106113Y-64852399D01*
X93106112Y-64852399D01*
X92921303Y-64898360D01*
X92750707Y-64982967D01*
X92750704Y-64982969D01*
X92602278Y-65102277D01*
X92602277Y-65102278D01*
X92482969Y-65250704D01*
X92482967Y-65250707D01*
X92398360Y-65421302D01*
X92352400Y-65606107D01*
X92349500Y-65648879D01*
X92349500Y-66551122D01*
X92349501Y-66551125D01*
X92352399Y-66593886D01*
X92352399Y-66593887D01*
X92398360Y-66778697D01*
X92425691Y-66833806D01*
X92437842Y-66902611D01*
X92410864Y-66967063D01*
X92402283Y-66976580D01*
X91792727Y-67586136D01*
X91731404Y-67619621D01*
X91661712Y-67614637D01*
X91605779Y-67572765D01*
X91600052Y-67564427D01*
X91547065Y-67480099D01*
X91521516Y-67439438D01*
X91393962Y-67311884D01*
X91376569Y-67300955D01*
X91241223Y-67215911D01*
X91070954Y-67156331D01*
X91070949Y-67156330D01*
X90891704Y-67136135D01*
X90891696Y-67136135D01*
X90712450Y-67156330D01*
X90712445Y-67156331D01*
X90542176Y-67215911D01*
X90389437Y-67311884D01*
X90261884Y-67439437D01*
X90165910Y-67592178D01*
X90141542Y-67661820D01*
X90100820Y-67718597D01*
X90035867Y-67744344D01*
X89967306Y-67730888D01*
X89916903Y-67682501D01*
X89900500Y-67620866D01*
X89900500Y-64820945D01*
X89900500Y-64820943D01*
X89883257Y-64756591D01*
X89884920Y-64686744D01*
X89924082Y-64628881D01*
X89988311Y-64601377D01*
X90003032Y-64600500D01*
X93675500Y-64600500D01*
X93742539Y-64620185D01*
G37*
%TD.AperFunction*%
%TA.AperFunction,Conductor*%
G36*
X99534391Y-48284751D02*
G01*
X99534969Y-48282307D01*
X99542511Y-48284089D01*
X99542517Y-48284091D01*
X99602127Y-48290500D01*
X101897872Y-48290499D01*
X101941246Y-48285836D01*
X102010005Y-48298242D01*
X102061142Y-48345853D01*
X102078500Y-48409126D01*
X102078500Y-51770572D01*
X102078476Y-51851284D01*
X102078498Y-51851453D01*
X102098814Y-51927272D01*
X102098818Y-51927309D01*
X102098823Y-51927308D01*
X102119351Y-52004013D01*
X102119396Y-52004119D01*
X102119423Y-52004185D01*
X102159489Y-52073583D01*
X102159484Y-52073585D01*
X102159506Y-52073612D01*
X102198371Y-52140974D01*
X102198479Y-52141115D01*
X102256121Y-52198757D01*
X102256140Y-52198791D01*
X102256148Y-52198784D01*
X102733396Y-52676321D01*
X102766862Y-52737655D01*
X102761857Y-52807345D01*
X102733392Y-52851635D01*
X102276599Y-53308664D01*
X102276577Y-53308685D01*
X102222040Y-53363223D01*
X102160717Y-53396709D01*
X102091026Y-53391725D01*
X102040068Y-53356075D01*
X101938087Y-53236671D01*
X101885224Y-53174776D01*
X101758571Y-53066604D01*
X101693656Y-53011161D01*
X101693653Y-53011160D01*
X101478859Y-52879533D01*
X101246110Y-52783126D01*
X101001151Y-52724317D01*
X100750000Y-52704551D01*
X100498848Y-52724317D01*
X100253889Y-52783126D01*
X100021140Y-52879533D01*
X99806346Y-53011160D01*
X99806343Y-53011161D01*
X99614776Y-53174776D01*
X99451161Y-53366343D01*
X99451160Y-53366346D01*
X99319533Y-53581140D01*
X99223126Y-53813889D01*
X99164317Y-54058848D01*
X99144551Y-54310000D01*
X99164317Y-54561151D01*
X99223126Y-54806110D01*
X99319533Y-55038859D01*
X99451160Y-55253653D01*
X99451161Y-55253656D01*
X99451164Y-55253659D01*
X99614776Y-55445224D01*
X99735847Y-55548628D01*
X99806343Y-55608838D01*
X99806346Y-55608839D01*
X100021141Y-55740466D01*
X100021144Y-55740468D01*
X100236808Y-55829798D01*
X100291212Y-55873639D01*
X100313277Y-55939933D01*
X100295998Y-56007632D01*
X100277033Y-56032044D01*
X100186686Y-56122383D01*
X100186630Y-56122433D01*
X100112560Y-56196502D01*
X100112558Y-56196504D01*
X100069487Y-56239571D01*
X100027128Y-56312939D01*
X100027126Y-56312942D01*
X99990427Y-56376499D01*
X99981213Y-56410885D01*
X99974700Y-56435196D01*
X99974700Y-56435197D01*
X99949502Y-56529217D01*
X99949500Y-56529230D01*
X99949500Y-56529243D01*
X99949500Y-56596978D01*
X99949498Y-56654723D01*
X99949496Y-56695937D01*
X99949500Y-56695994D01*
X99949500Y-58110500D01*
X99929815Y-58177539D01*
X99877011Y-58223294D01*
X99825501Y-58234500D01*
X99702130Y-58234500D01*
X99702123Y-58234501D01*
X99642516Y-58240908D01*
X99507671Y-58291202D01*
X99507664Y-58291206D01*
X99392455Y-58377452D01*
X99392452Y-58377455D01*
X99306206Y-58492664D01*
X99306202Y-58492671D01*
X99255908Y-58627517D01*
X99249501Y-58687116D01*
X99249500Y-58687135D01*
X99249500Y-59159787D01*
X99229815Y-59226826D01*
X99187500Y-59267174D01*
X99079587Y-59329477D01*
X99079582Y-59329481D01*
X96823381Y-61585682D01*
X96823380Y-61585684D01*
X96792421Y-61639307D01*
X96744323Y-61722615D01*
X96703399Y-61875343D01*
X96703399Y-61875345D01*
X96703399Y-62043446D01*
X96703400Y-62043459D01*
X96703400Y-64328402D01*
X96683715Y-64395441D01*
X96667081Y-64416083D01*
X95528466Y-65554697D01*
X95467143Y-65588182D01*
X95397451Y-65583198D01*
X95341518Y-65541326D01*
X95320451Y-65496945D01*
X95301641Y-65421307D01*
X95217030Y-65250704D01*
X95217029Y-65250702D01*
X95214043Y-65244682D01*
X95216521Y-65243452D01*
X95200500Y-65188599D01*
X95200500Y-64241519D01*
X95220185Y-64174480D01*
X95236819Y-64153838D01*
X95944112Y-63446545D01*
X95944114Y-63446543D01*
X96020775Y-63331811D01*
X96073580Y-63204329D01*
X96087088Y-63136420D01*
X96100500Y-63068993D01*
X96100500Y-51680618D01*
X96120185Y-51613579D01*
X96136814Y-51592942D01*
X99415628Y-48314127D01*
X99476949Y-48280644D01*
X99534391Y-48284751D01*
G37*
%TD.AperFunction*%
%TA.AperFunction,Conductor*%
G36*
X111442539Y-30520185D02*
G01*
X111488294Y-30572989D01*
X111499500Y-30624500D01*
X111499500Y-64808903D01*
X111479815Y-64875942D01*
X111427011Y-64921697D01*
X111357853Y-64931641D01*
X111294297Y-64902616D01*
X111287819Y-64896584D01*
X110808656Y-64417421D01*
X110775171Y-64356098D01*
X110780155Y-64286406D01*
X110793236Y-64260848D01*
X110796111Y-64256544D01*
X110796114Y-64256542D01*
X110872775Y-64141811D01*
X110925580Y-64014328D01*
X110952500Y-63878993D01*
X110952500Y-57864308D01*
X110952510Y-57864085D01*
X110952509Y-57858091D01*
X110952510Y-57858087D01*
X110952500Y-57791784D01*
X110952500Y-57720207D01*
X110952500Y-57720206D01*
X110952490Y-57720109D01*
X110952489Y-57720103D01*
X110952489Y-57720100D01*
X110939166Y-57653176D01*
X110939163Y-57653158D01*
X110925569Y-57584818D01*
X110925567Y-57584813D01*
X110899120Y-57520994D01*
X110899120Y-57520993D01*
X110872775Y-57457389D01*
X110872771Y-57457384D01*
X110872770Y-57457380D01*
X110872727Y-57457298D01*
X110833433Y-57398510D01*
X110833422Y-57398494D01*
X110796114Y-57342658D01*
X110796113Y-57342657D01*
X110796111Y-57342654D01*
X110796051Y-57342582D01*
X110796046Y-57342574D01*
X110743430Y-57289974D01*
X110743429Y-57289973D01*
X110743430Y-57289971D01*
X110743415Y-57289959D01*
X110694313Y-57240856D01*
X110694140Y-57240699D01*
X108444787Y-54992030D01*
X108444788Y-54992028D01*
X108444773Y-54992016D01*
X108161818Y-54709061D01*
X108128333Y-54647738D01*
X108125499Y-54621380D01*
X108125499Y-54119700D01*
X108145184Y-54052661D01*
X108197988Y-54006906D01*
X108249499Y-53995700D01*
X109736715Y-53995700D01*
X109736755Y-53995700D01*
X109816750Y-53995741D01*
X109816755Y-53995739D01*
X109817047Y-53995702D01*
X109817054Y-53995700D01*
X109817057Y-53995700D01*
X109893025Y-53975344D01*
X109893027Y-53975355D01*
X109893082Y-53975328D01*
X109969498Y-53954895D01*
X109969501Y-53954893D01*
X109969775Y-53954779D01*
X109969784Y-53954777D01*
X110038773Y-53914945D01*
X110038835Y-53914930D01*
X110038827Y-53914915D01*
X110055738Y-53905162D01*
X110106470Y-53875908D01*
X110106473Y-53875905D01*
X110106710Y-53875723D01*
X110106716Y-53875720D01*
X110163102Y-53819333D01*
X110491682Y-53491089D01*
X110492196Y-53490640D01*
X110497716Y-53485120D01*
X110553628Y-53429206D01*
X110553686Y-53429174D01*
X110553674Y-53429162D01*
X110591149Y-53391725D01*
X110609331Y-53373562D01*
X110609334Y-53373555D01*
X110609514Y-53373323D01*
X110609516Y-53373319D01*
X110609520Y-53373316D01*
X110649010Y-53304915D01*
X110688458Y-53236671D01*
X110688461Y-53236659D01*
X110688572Y-53236391D01*
X110688577Y-53236384D01*
X110708919Y-53160463D01*
X110729460Y-53083964D01*
X110729460Y-53083950D01*
X110729498Y-53083663D01*
X110729500Y-53083657D01*
X110729500Y-53005883D01*
X110729541Y-52925850D01*
X110729540Y-52925846D01*
X110729544Y-52918164D01*
X110729500Y-52917475D01*
X110729500Y-39702918D01*
X110729501Y-39675499D01*
X110729504Y-39612567D01*
X110729501Y-39612557D01*
X110729500Y-39612545D01*
X110729500Y-39612543D01*
X110711273Y-39544517D01*
X110688586Y-39459838D01*
X110688584Y-39459836D01*
X110688582Y-39459825D01*
X110675084Y-39436446D01*
X110632909Y-39363395D01*
X110609534Y-39322904D01*
X110609532Y-39322902D01*
X110609524Y-39322891D01*
X110609520Y-39322884D01*
X110530973Y-39244337D01*
X110530970Y-39244333D01*
X110530970Y-39244334D01*
X110311815Y-39025161D01*
X110278333Y-38963836D01*
X110275500Y-38937483D01*
X110275500Y-37949997D01*
X110275499Y-37949984D01*
X110272253Y-37918215D01*
X110264999Y-37847203D01*
X110209814Y-37680666D01*
X110202914Y-37669480D01*
X110117713Y-37531348D01*
X110117710Y-37531344D01*
X109993655Y-37407289D01*
X109993651Y-37407286D01*
X109844337Y-37315187D01*
X109844335Y-37315186D01*
X109761065Y-37287593D01*
X109677797Y-37260001D01*
X109677795Y-37260000D01*
X109677794Y-37260000D01*
X109611897Y-37253268D01*
X109547205Y-37226871D01*
X109507054Y-37169690D01*
X109500500Y-37129910D01*
X109500500Y-36920945D01*
X109500500Y-36920943D01*
X109459577Y-36768216D01*
X109441320Y-36736594D01*
X109380524Y-36631290D01*
X109380518Y-36631282D01*
X109268717Y-36519481D01*
X109268709Y-36519475D01*
X109131790Y-36440426D01*
X109131786Y-36440424D01*
X109131784Y-36440423D01*
X108979057Y-36399500D01*
X108979056Y-36399500D01*
X105450098Y-36399500D01*
X105383059Y-36379815D01*
X105362417Y-36363181D01*
X104486819Y-35487583D01*
X104453334Y-35426260D01*
X104450500Y-35399902D01*
X104450500Y-33500001D01*
X106494390Y-33500001D01*
X106514804Y-33785433D01*
X106575628Y-34065037D01*
X106575630Y-34065043D01*
X106575631Y-34065046D01*
X106674847Y-34331054D01*
X106675635Y-34333166D01*
X106812770Y-34584309D01*
X106812775Y-34584317D01*
X106984254Y-34813387D01*
X106984270Y-34813405D01*
X107186594Y-35015729D01*
X107186612Y-35015745D01*
X107415682Y-35187224D01*
X107415690Y-35187229D01*
X107666833Y-35324364D01*
X107666832Y-35324364D01*
X107666836Y-35324365D01*
X107666839Y-35324367D01*
X107934954Y-35424369D01*
X107934960Y-35424370D01*
X107934962Y-35424371D01*
X108214566Y-35485195D01*
X108214568Y-35485195D01*
X108214572Y-35485196D01*
X108468220Y-35503337D01*
X108499999Y-35505610D01*
X108500000Y-35505610D01*
X108500001Y-35505610D01*
X108528595Y-35503564D01*
X108785428Y-35485196D01*
X108941412Y-35451264D01*
X109065037Y-35424371D01*
X109065037Y-35424370D01*
X109065046Y-35424369D01*
X109333161Y-35324367D01*
X109584315Y-35187226D01*
X109813395Y-35015739D01*
X110015739Y-34813395D01*
X110187226Y-34584315D01*
X110324367Y-34333161D01*
X110424369Y-34065046D01*
X110466821Y-33869895D01*
X110485195Y-33785433D01*
X110485195Y-33785432D01*
X110485196Y-33785428D01*
X110505610Y-33500000D01*
X110485196Y-33214572D01*
X110476589Y-33175008D01*
X110424371Y-32934962D01*
X110424370Y-32934960D01*
X110424369Y-32934954D01*
X110324367Y-32666839D01*
X110297372Y-32617402D01*
X110187229Y-32415690D01*
X110187224Y-32415682D01*
X110015745Y-32186612D01*
X110015729Y-32186594D01*
X109813405Y-31984270D01*
X109813387Y-31984254D01*
X109584317Y-31812775D01*
X109584309Y-31812770D01*
X109333166Y-31675635D01*
X109333167Y-31675635D01*
X109225915Y-31635632D01*
X109065046Y-31575631D01*
X109065043Y-31575630D01*
X109065037Y-31575628D01*
X108785433Y-31514804D01*
X108500001Y-31494390D01*
X108499999Y-31494390D01*
X108214566Y-31514804D01*
X107934962Y-31575628D01*
X107666833Y-31675635D01*
X107415690Y-31812770D01*
X107415682Y-31812775D01*
X107186612Y-31984254D01*
X107186594Y-31984270D01*
X106984270Y-32186594D01*
X106984254Y-32186612D01*
X106812775Y-32415682D01*
X106812770Y-32415690D01*
X106675635Y-32666833D01*
X106575628Y-32934962D01*
X106514804Y-33214566D01*
X106494390Y-33499998D01*
X106494390Y-33500001D01*
X104450500Y-33500001D01*
X104450500Y-31739059D01*
X104450501Y-31739046D01*
X104450501Y-31570945D01*
X104450501Y-31570943D01*
X104409577Y-31418215D01*
X104380639Y-31368095D01*
X104330520Y-31281284D01*
X104218716Y-31169480D01*
X104218715Y-31169479D01*
X104214385Y-31165149D01*
X104214374Y-31165139D01*
X103761416Y-30712181D01*
X103727931Y-30650858D01*
X103732915Y-30581166D01*
X103774787Y-30525233D01*
X103840251Y-30500816D01*
X103849097Y-30500500D01*
X111375500Y-30500500D01*
X111442539Y-30520185D01*
G37*
%TD.AperFunction*%
%TA.AperFunction,Conductor*%
G36*
X99168834Y-61041214D02*
G01*
X99224767Y-61083086D01*
X99249184Y-61148550D01*
X99249500Y-61157396D01*
X99249500Y-61732870D01*
X99249501Y-61732876D01*
X99256619Y-61799092D01*
X99256619Y-61825599D01*
X99250000Y-61887169D01*
X99250000Y-61960000D01*
X99268591Y-61960000D01*
X99335630Y-61979685D01*
X99367855Y-62009686D01*
X99392454Y-62042546D01*
X99450813Y-62086234D01*
X99492684Y-62142167D01*
X99497668Y-62211859D01*
X99464183Y-62273182D01*
X99402859Y-62306666D01*
X99376502Y-62309500D01*
X99224804Y-62309500D01*
X99089477Y-62336418D01*
X99089467Y-62336421D01*
X98961992Y-62389222D01*
X98847254Y-62465887D01*
X98847253Y-62465888D01*
X98116081Y-63197061D01*
X98054758Y-63230546D01*
X97985066Y-63225562D01*
X97929133Y-63183690D01*
X97904716Y-63118226D01*
X97904400Y-63109380D01*
X97904400Y-62254497D01*
X97924085Y-62187458D01*
X97940719Y-62166816D01*
X98468229Y-61639306D01*
X99037821Y-61069713D01*
X99099142Y-61036230D01*
X99168834Y-61041214D01*
G37*
%TD.AperFunction*%
%TA.AperFunction,Conductor*%
G36*
X91438042Y-30520185D02*
G01*
X91483797Y-30572989D01*
X91493741Y-30642147D01*
X91464716Y-30705703D01*
X91458684Y-30712181D01*
X91434270Y-30736594D01*
X91434254Y-30736612D01*
X91262775Y-30965682D01*
X91262770Y-30965690D01*
X91125635Y-31216833D01*
X91025628Y-31484962D01*
X90964804Y-31764566D01*
X90944390Y-32049998D01*
X90944390Y-32050001D01*
X90964804Y-32335433D01*
X91025628Y-32615037D01*
X91025630Y-32615043D01*
X91025631Y-32615046D01*
X91071876Y-32739032D01*
X91125635Y-32883166D01*
X91262770Y-33134309D01*
X91262775Y-33134317D01*
X91434254Y-33363387D01*
X91434270Y-33363405D01*
X91636594Y-33565729D01*
X91636612Y-33565745D01*
X91865682Y-33737224D01*
X91865690Y-33737229D01*
X92116833Y-33874364D01*
X92116832Y-33874364D01*
X92116836Y-33874365D01*
X92116839Y-33874367D01*
X92384954Y-33974369D01*
X92384960Y-33974370D01*
X92384962Y-33974371D01*
X92664566Y-34035195D01*
X92664568Y-34035195D01*
X92664572Y-34035196D01*
X92918220Y-34053337D01*
X92949999Y-34055610D01*
X92950000Y-34055610D01*
X92950001Y-34055610D01*
X92978595Y-34053564D01*
X93235428Y-34035196D01*
X93370165Y-34005886D01*
X93515037Y-33974371D01*
X93515037Y-33974370D01*
X93515046Y-33974369D01*
X93783161Y-33874367D01*
X94034315Y-33737226D01*
X94263395Y-33565739D01*
X94465739Y-33363395D01*
X94637226Y-33134315D01*
X94774367Y-32883161D01*
X94874369Y-32615046D01*
X94935196Y-32335428D01*
X94955610Y-32050000D01*
X94955070Y-32042455D01*
X94948902Y-31956204D01*
X94935196Y-31764572D01*
X94927470Y-31729057D01*
X94874371Y-31484962D01*
X94874370Y-31484960D01*
X94874369Y-31484954D01*
X94774367Y-31216839D01*
X94759813Y-31190186D01*
X94637229Y-30965690D01*
X94637224Y-30965682D01*
X94465745Y-30736612D01*
X94465729Y-30736594D01*
X94441316Y-30712181D01*
X94407831Y-30650858D01*
X94412815Y-30581166D01*
X94454687Y-30525233D01*
X94520151Y-30500816D01*
X94528997Y-30500500D01*
X99800902Y-30500500D01*
X99867941Y-30520185D01*
X99913696Y-30572989D01*
X99923640Y-30642147D01*
X99894615Y-30705703D01*
X99888583Y-30712181D01*
X99512582Y-31088181D01*
X99451259Y-31121666D01*
X99424901Y-31124500D01*
X98749998Y-31124500D01*
X98749980Y-31124501D01*
X98647203Y-31135000D01*
X98647200Y-31135001D01*
X98480668Y-31190185D01*
X98480663Y-31190187D01*
X98331342Y-31282289D01*
X98207289Y-31406342D01*
X98115187Y-31555663D01*
X98115185Y-31555668D01*
X98087349Y-31639670D01*
X98060001Y-31722203D01*
X98060001Y-31722204D01*
X98060000Y-31722204D01*
X98049500Y-31824983D01*
X98049500Y-33175001D01*
X98049501Y-33175018D01*
X98060000Y-33277796D01*
X98060001Y-33277799D01*
X98115185Y-33444331D01*
X98115186Y-33444334D01*
X98207288Y-33593656D01*
X98331344Y-33717712D01*
X98480666Y-33809814D01*
X98647203Y-33864999D01*
X98749991Y-33875500D01*
X99650008Y-33875499D01*
X99650016Y-33875498D01*
X99650019Y-33875498D01*
X99706302Y-33869748D01*
X99752797Y-33864999D01*
X99919334Y-33809814D01*
X100068656Y-33717712D01*
X100192712Y-33593656D01*
X100284814Y-33444334D01*
X100339999Y-33277797D01*
X100350500Y-33175009D01*
X100350499Y-32000096D01*
X100370184Y-31933058D01*
X100386818Y-31912416D01*
X100662416Y-31636819D01*
X100723739Y-31603334D01*
X100750097Y-31600500D01*
X101035121Y-31600500D01*
X101102160Y-31620185D01*
X101147915Y-31672989D01*
X101158479Y-31737103D01*
X101149500Y-31824983D01*
X101149500Y-33175001D01*
X101149501Y-33175018D01*
X101160000Y-33277796D01*
X101160001Y-33277799D01*
X101215185Y-33444331D01*
X101215186Y-33444334D01*
X101307288Y-33593656D01*
X101431344Y-33717712D01*
X101580666Y-33809814D01*
X101641954Y-33830122D01*
X101699398Y-33869895D01*
X101722723Y-33915733D01*
X101742526Y-33989635D01*
X101740189Y-33990260D01*
X101746340Y-34047533D01*
X101715057Y-34110008D01*
X101654963Y-34145652D01*
X101624313Y-34149500D01*
X99602129Y-34149500D01*
X99602123Y-34149501D01*
X99542516Y-34155908D01*
X99407671Y-34206202D01*
X99407664Y-34206206D01*
X99292455Y-34292452D01*
X99292452Y-34292455D01*
X99206206Y-34407664D01*
X99206202Y-34407671D01*
X99155908Y-34542517D01*
X99149501Y-34602116D01*
X99149500Y-34602135D01*
X99149500Y-36897870D01*
X99149501Y-36897876D01*
X99155908Y-36957483D01*
X99206202Y-37092328D01*
X99206206Y-37092335D01*
X99292452Y-37207544D01*
X99292455Y-37207547D01*
X99407664Y-37293793D01*
X99407671Y-37293797D01*
X99439188Y-37305552D01*
X99542517Y-37344091D01*
X99602127Y-37350500D01*
X100085187Y-37350499D01*
X100152226Y-37370183D01*
X100188289Y-37405608D01*
X100205885Y-37431942D01*
X100205888Y-37431946D01*
X101763181Y-38989238D01*
X101796666Y-39050561D01*
X101799500Y-39076919D01*
X101799500Y-41914605D01*
X101779815Y-41981644D01*
X101727011Y-42027399D01*
X101657853Y-42037343D01*
X101610710Y-42020332D01*
X101478859Y-41939533D01*
X101246110Y-41843126D01*
X101001151Y-41784317D01*
X100750000Y-41764551D01*
X100498848Y-41784317D01*
X100253889Y-41843126D01*
X100021140Y-41939533D01*
X99806346Y-42071160D01*
X99806343Y-42071161D01*
X99614776Y-42234776D01*
X99451161Y-42426343D01*
X99451160Y-42426346D01*
X99319533Y-42641140D01*
X99223126Y-42873889D01*
X99164317Y-43118848D01*
X99144551Y-43370000D01*
X99164317Y-43621151D01*
X99223126Y-43866110D01*
X99319533Y-44098859D01*
X99451160Y-44313653D01*
X99451161Y-44313656D01*
X99492131Y-44361625D01*
X99614776Y-44505224D01*
X99745247Y-44616657D01*
X99806343Y-44668838D01*
X99806346Y-44668839D01*
X100021141Y-44800466D01*
X100021144Y-44800468D01*
X100142993Y-44850939D01*
X100197397Y-44894780D01*
X100219462Y-44961074D01*
X100202183Y-45028773D01*
X100151046Y-45076384D01*
X100095541Y-45089500D01*
X99602129Y-45089500D01*
X99602123Y-45089501D01*
X99542516Y-45095908D01*
X99407671Y-45146202D01*
X99407664Y-45146206D01*
X99292455Y-45232452D01*
X99292452Y-45232455D01*
X99206206Y-45347664D01*
X99206202Y-45347671D01*
X99155908Y-45482517D01*
X99149501Y-45542116D01*
X99149500Y-45542135D01*
X99149500Y-46547580D01*
X99129815Y-46614619D01*
X99113181Y-46635261D01*
X94855888Y-50892553D01*
X94855887Y-50892554D01*
X94779222Y-51007292D01*
X94726421Y-51134767D01*
X94726418Y-51134779D01*
X94707023Y-51232287D01*
X94707023Y-51232290D01*
X94699500Y-51270106D01*
X94699500Y-59193105D01*
X94679815Y-59260144D01*
X94627011Y-59305899D01*
X94557853Y-59315843D01*
X94494297Y-59286818D01*
X94476233Y-59267415D01*
X94415745Y-59186612D01*
X94415729Y-59186594D01*
X94213405Y-58984270D01*
X94213387Y-58984254D01*
X93984317Y-58812775D01*
X93984309Y-58812770D01*
X93733166Y-58675635D01*
X93733167Y-58675635D01*
X93604157Y-58627517D01*
X93465046Y-58575631D01*
X93465043Y-58575630D01*
X93465037Y-58575628D01*
X93185433Y-58514804D01*
X92900001Y-58494390D01*
X92899999Y-58494390D01*
X92614566Y-58514804D01*
X92334962Y-58575628D01*
X92066833Y-58675635D01*
X91815690Y-58812770D01*
X91815682Y-58812775D01*
X91586612Y-58984254D01*
X91586594Y-58984270D01*
X91384270Y-59186594D01*
X91384254Y-59186612D01*
X91212775Y-59415682D01*
X91212770Y-59415690D01*
X91075635Y-59666833D01*
X90975628Y-59934962D01*
X90914804Y-60214566D01*
X90894390Y-60499998D01*
X90894390Y-60500001D01*
X90914804Y-60785433D01*
X90975628Y-61065037D01*
X90975630Y-61065043D01*
X90975631Y-61065046D01*
X91028080Y-61205667D01*
X91075635Y-61333166D01*
X91212770Y-61584309D01*
X91212775Y-61584317D01*
X91384254Y-61813387D01*
X91384270Y-61813405D01*
X91586594Y-62015729D01*
X91586612Y-62015745D01*
X91815682Y-62187224D01*
X91815690Y-62187229D01*
X92066833Y-62324364D01*
X92066832Y-62324364D01*
X92066836Y-62324365D01*
X92066839Y-62324367D01*
X92334954Y-62424369D01*
X92334960Y-62424370D01*
X92334962Y-62424371D01*
X92614566Y-62485195D01*
X92614568Y-62485195D01*
X92614572Y-62485196D01*
X92868220Y-62503337D01*
X92899999Y-62505610D01*
X92900000Y-62505610D01*
X92900001Y-62505610D01*
X92928595Y-62503564D01*
X93185428Y-62485196D01*
X93274191Y-62465887D01*
X93465037Y-62424371D01*
X93465037Y-62424370D01*
X93465046Y-62424369D01*
X93733161Y-62324367D01*
X93984315Y-62187226D01*
X94213395Y-62015739D01*
X94415739Y-61813395D01*
X94476234Y-61732581D01*
X94532166Y-61690713D01*
X94601857Y-61685728D01*
X94663181Y-61719212D01*
X94696666Y-61780535D01*
X94699500Y-61806894D01*
X94699500Y-62658481D01*
X94679815Y-62725520D01*
X94663181Y-62746162D01*
X94246162Y-63163181D01*
X94184839Y-63196666D01*
X94158481Y-63199500D01*
X73440520Y-63199500D01*
X73373481Y-63179815D01*
X73327726Y-63127011D01*
X73317782Y-63057853D01*
X73346807Y-62994297D01*
X73352839Y-62987819D01*
X73444111Y-62896546D01*
X73444112Y-62896545D01*
X73444114Y-62896543D01*
X73520775Y-62781811D01*
X73528559Y-62763020D01*
X73550585Y-62709843D01*
X73573580Y-62654328D01*
X73597738Y-62532879D01*
X73600500Y-62518996D01*
X73600500Y-60500004D01*
X78944592Y-60500004D01*
X78964196Y-60761620D01*
X78964197Y-60761625D01*
X79022576Y-61017402D01*
X79022578Y-61017411D01*
X79022580Y-61017416D01*
X79118432Y-61261643D01*
X79249614Y-61488857D01*
X79369593Y-61639306D01*
X79413198Y-61693985D01*
X79549991Y-61820909D01*
X79605521Y-61872433D01*
X79822296Y-62020228D01*
X79822301Y-62020230D01*
X79822302Y-62020231D01*
X79822303Y-62020232D01*
X79946142Y-62079869D01*
X80058673Y-62134061D01*
X80058674Y-62134061D01*
X80058677Y-62134063D01*
X80309385Y-62211396D01*
X80568818Y-62250500D01*
X80831182Y-62250500D01*
X81090615Y-62211396D01*
X81341323Y-62134063D01*
X81541188Y-62037813D01*
X81577696Y-62020232D01*
X81577696Y-62020231D01*
X81577704Y-62020228D01*
X81794479Y-61872433D01*
X81986805Y-61693981D01*
X82150386Y-61488857D01*
X82281568Y-61261643D01*
X82377420Y-61017416D01*
X82435802Y-60761630D01*
X82451764Y-60548631D01*
X82455408Y-60500004D01*
X82455408Y-60499995D01*
X82435803Y-60238379D01*
X82435802Y-60238374D01*
X82435802Y-60238370D01*
X82377420Y-59982584D01*
X82281568Y-59738357D01*
X82150386Y-59511143D01*
X81986805Y-59306019D01*
X81986804Y-59306018D01*
X81986801Y-59306014D01*
X81794479Y-59127567D01*
X81577704Y-58979772D01*
X81577700Y-58979770D01*
X81577697Y-58979768D01*
X81577696Y-58979767D01*
X81341325Y-58865938D01*
X81341327Y-58865938D01*
X81090623Y-58788606D01*
X81090619Y-58788605D01*
X81090615Y-58788604D01*
X80965823Y-58769794D01*
X80831187Y-58749500D01*
X80831182Y-58749500D01*
X80568818Y-58749500D01*
X80568812Y-58749500D01*
X80407247Y-58773853D01*
X80309385Y-58788604D01*
X80309382Y-58788605D01*
X80309376Y-58788606D01*
X80058673Y-58865938D01*
X79822303Y-58979767D01*
X79822302Y-58979768D01*
X79605520Y-59127567D01*
X79413198Y-59306014D01*
X79249614Y-59511143D01*
X79118432Y-59738356D01*
X79022582Y-59982578D01*
X79022576Y-59982597D01*
X78964197Y-60238374D01*
X78964196Y-60238379D01*
X78944592Y-60499995D01*
X78944592Y-60500004D01*
X73600500Y-60500004D01*
X73600500Y-56641518D01*
X73620185Y-56574479D01*
X73636814Y-56553842D01*
X76738978Y-53451678D01*
X76800298Y-53418195D01*
X76869990Y-53423179D01*
X76925923Y-53465051D01*
X76950340Y-53530515D01*
X76935490Y-53598784D01*
X76925637Y-53616828D01*
X76925635Y-53616832D01*
X76825628Y-53884962D01*
X76764804Y-54164566D01*
X76744390Y-54449998D01*
X76744390Y-54450001D01*
X76764804Y-54735433D01*
X76825628Y-55015037D01*
X76925635Y-55283166D01*
X77062770Y-55534309D01*
X77062775Y-55534317D01*
X77234254Y-55763387D01*
X77234270Y-55763405D01*
X77436594Y-55965729D01*
X77436612Y-55965745D01*
X77665682Y-56137224D01*
X77665690Y-56137229D01*
X77916833Y-56274364D01*
X77916832Y-56274364D01*
X77916836Y-56274365D01*
X77916839Y-56274367D01*
X78184954Y-56374369D01*
X78184960Y-56374370D01*
X78184962Y-56374371D01*
X78464566Y-56435195D01*
X78464568Y-56435195D01*
X78464572Y-56435196D01*
X78718220Y-56453337D01*
X78749999Y-56455610D01*
X78750000Y-56455610D01*
X78750001Y-56455610D01*
X78778595Y-56453564D01*
X79035428Y-56435196D01*
X79305177Y-56376516D01*
X79315037Y-56374371D01*
X79315037Y-56374370D01*
X79315046Y-56374369D01*
X79583161Y-56274367D01*
X79834315Y-56137226D01*
X80063395Y-55965739D01*
X80265739Y-55763395D01*
X80437226Y-55534315D01*
X80574367Y-55283161D01*
X80674369Y-55015046D01*
X80707324Y-54863553D01*
X80735195Y-54735433D01*
X80735195Y-54735432D01*
X80735196Y-54735428D01*
X80755610Y-54450000D01*
X80735196Y-54164572D01*
X80717554Y-54083474D01*
X80674371Y-53884962D01*
X80674370Y-53884960D01*
X80674369Y-53884954D01*
X80574367Y-53616839D01*
X80554874Y-53581141D01*
X80437229Y-53365690D01*
X80437224Y-53365682D01*
X80265745Y-53136612D01*
X80265729Y-53136594D01*
X80063405Y-52934270D01*
X80063387Y-52934254D01*
X79834317Y-52762775D01*
X79834309Y-52762770D01*
X79583166Y-52625635D01*
X79583167Y-52625635D01*
X79433963Y-52569985D01*
X79315046Y-52525631D01*
X79315043Y-52525630D01*
X79315037Y-52525628D01*
X79035433Y-52464804D01*
X78750001Y-52444390D01*
X78749999Y-52444390D01*
X78464566Y-52464804D01*
X78184962Y-52525628D01*
X77916832Y-52625635D01*
X77916828Y-52625637D01*
X77898784Y-52635490D01*
X77830510Y-52650340D01*
X77765047Y-52625920D01*
X77723178Y-52569985D01*
X77718196Y-52500293D01*
X77751678Y-52438977D01*
X80004252Y-50186403D01*
X80065573Y-50152920D01*
X80128481Y-50155595D01*
X80228366Y-50186405D01*
X80309385Y-50211396D01*
X80568818Y-50250500D01*
X80831182Y-50250500D01*
X81090615Y-50211396D01*
X81341323Y-50134063D01*
X81577704Y-50020228D01*
X81794479Y-49872433D01*
X81986805Y-49693981D01*
X82150386Y-49488857D01*
X82281568Y-49261643D01*
X82377420Y-49017416D01*
X82435802Y-48761630D01*
X82437766Y-48735428D01*
X82455408Y-48500004D01*
X82455408Y-48499995D01*
X82451662Y-48450001D01*
X90944390Y-48450001D01*
X90964804Y-48735433D01*
X91025628Y-49015037D01*
X91025630Y-49015043D01*
X91025631Y-49015046D01*
X91093288Y-49196440D01*
X91125635Y-49283166D01*
X91262770Y-49534309D01*
X91262775Y-49534317D01*
X91434254Y-49763387D01*
X91434270Y-49763405D01*
X91636594Y-49965729D01*
X91636612Y-49965745D01*
X91865682Y-50137224D01*
X91865690Y-50137229D01*
X92116833Y-50274364D01*
X92116832Y-50274364D01*
X92116836Y-50274365D01*
X92116839Y-50274367D01*
X92384954Y-50374369D01*
X92384960Y-50374370D01*
X92384962Y-50374371D01*
X92664566Y-50435195D01*
X92664568Y-50435195D01*
X92664572Y-50435196D01*
X92918220Y-50453337D01*
X92949999Y-50455610D01*
X92950000Y-50455610D01*
X92950001Y-50455610D01*
X92978595Y-50453564D01*
X93235428Y-50435196D01*
X93235447Y-50435192D01*
X93515037Y-50374371D01*
X93515037Y-50374370D01*
X93515046Y-50374369D01*
X93783161Y-50274367D01*
X94034315Y-50137226D01*
X94263395Y-49965739D01*
X94465739Y-49763395D01*
X94637226Y-49534315D01*
X94774367Y-49283161D01*
X94874369Y-49015046D01*
X94929498Y-48761620D01*
X94935195Y-48735433D01*
X94935195Y-48735432D01*
X94935196Y-48735428D01*
X94955610Y-48450000D01*
X94935196Y-48164572D01*
X94921040Y-48099500D01*
X94874371Y-47884962D01*
X94874370Y-47884960D01*
X94874369Y-47884954D01*
X94774367Y-47616839D01*
X94773362Y-47614999D01*
X94637229Y-47365690D01*
X94637224Y-47365682D01*
X94465745Y-47136612D01*
X94465729Y-47136594D01*
X94263405Y-46934270D01*
X94263387Y-46934254D01*
X94034317Y-46762775D01*
X94034309Y-46762770D01*
X93783166Y-46625635D01*
X93783167Y-46625635D01*
X93573893Y-46547580D01*
X93515046Y-46525631D01*
X93515043Y-46525630D01*
X93515037Y-46525628D01*
X93235433Y-46464804D01*
X92950001Y-46444390D01*
X92949999Y-46444390D01*
X92664566Y-46464804D01*
X92384962Y-46525628D01*
X92116833Y-46625635D01*
X91865690Y-46762770D01*
X91865682Y-46762775D01*
X91636612Y-46934254D01*
X91636594Y-46934270D01*
X91434270Y-47136594D01*
X91434254Y-47136612D01*
X91262775Y-47365682D01*
X91262770Y-47365690D01*
X91125635Y-47616833D01*
X91025628Y-47884962D01*
X90964804Y-48164566D01*
X90944390Y-48449998D01*
X90944390Y-48450001D01*
X82451662Y-48450001D01*
X82435803Y-48238379D01*
X82435802Y-48238374D01*
X82435802Y-48238370D01*
X82377420Y-47982584D01*
X82359348Y-47936538D01*
X82353180Y-47866947D01*
X82385617Y-47805063D01*
X82387034Y-47803621D01*
X83694114Y-46496543D01*
X83770775Y-46381811D01*
X83823580Y-46254329D01*
X83847950Y-46131811D01*
X83848884Y-46127116D01*
X83850500Y-46118997D01*
X83850500Y-44100001D01*
X90894390Y-44100001D01*
X90914804Y-44385433D01*
X90975628Y-44665037D01*
X90975630Y-44665043D01*
X90975631Y-44665046D01*
X91061151Y-44894334D01*
X91075635Y-44933166D01*
X91212770Y-45184309D01*
X91212775Y-45184317D01*
X91384254Y-45413387D01*
X91384270Y-45413405D01*
X91586594Y-45615729D01*
X91586612Y-45615745D01*
X91815682Y-45787224D01*
X91815690Y-45787229D01*
X92066833Y-45924364D01*
X92066832Y-45924364D01*
X92066836Y-45924365D01*
X92066839Y-45924367D01*
X92334954Y-46024369D01*
X92334960Y-46024370D01*
X92334962Y-46024371D01*
X92614566Y-46085195D01*
X92614568Y-46085195D01*
X92614572Y-46085196D01*
X92868220Y-46103337D01*
X92899999Y-46105610D01*
X92900000Y-46105610D01*
X92900001Y-46105610D01*
X92928595Y-46103564D01*
X93185428Y-46085196D01*
X93196250Y-46082842D01*
X93465037Y-46024371D01*
X93465037Y-46024370D01*
X93465046Y-46024369D01*
X93733161Y-45924367D01*
X93984315Y-45787226D01*
X94213395Y-45615739D01*
X94415739Y-45413395D01*
X94587226Y-45184315D01*
X94724367Y-44933161D01*
X94824369Y-44665046D01*
X94824371Y-44665037D01*
X94885195Y-44385433D01*
X94885195Y-44385432D01*
X94885196Y-44385428D01*
X94905610Y-44100000D01*
X94905528Y-44098859D01*
X94888882Y-43866110D01*
X94885196Y-43814572D01*
X94865493Y-43724000D01*
X94824371Y-43534962D01*
X94824370Y-43534960D01*
X94824369Y-43534954D01*
X94724367Y-43266839D01*
X94703404Y-43228449D01*
X94587229Y-43015690D01*
X94587224Y-43015682D01*
X94415745Y-42786612D01*
X94415729Y-42786594D01*
X94213405Y-42584270D01*
X94213387Y-42584254D01*
X93984317Y-42412775D01*
X93984309Y-42412770D01*
X93733166Y-42275635D01*
X93733167Y-42275635D01*
X93580778Y-42218797D01*
X93465046Y-42175631D01*
X93465043Y-42175630D01*
X93465037Y-42175628D01*
X93185433Y-42114804D01*
X92900001Y-42094390D01*
X92899999Y-42094390D01*
X92614566Y-42114804D01*
X92334962Y-42175628D01*
X92066833Y-42275635D01*
X91815690Y-42412770D01*
X91815682Y-42412775D01*
X91586612Y-42584254D01*
X91586594Y-42584270D01*
X91384270Y-42786594D01*
X91384254Y-42786612D01*
X91212775Y-43015682D01*
X91212770Y-43015690D01*
X91075635Y-43266833D01*
X90975628Y-43534962D01*
X90914804Y-43814566D01*
X90894390Y-44099998D01*
X90894390Y-44100001D01*
X83850500Y-44100001D01*
X83850500Y-34481006D01*
X83850499Y-34481003D01*
X83843907Y-34447864D01*
X83834288Y-34399501D01*
X83828607Y-34370941D01*
X83828606Y-34370940D01*
X83823580Y-34345671D01*
X83770775Y-34218189D01*
X83694114Y-34103457D01*
X83694112Y-34103454D01*
X83694111Y-34103453D01*
X82387097Y-32796440D01*
X82353612Y-32735117D01*
X82358596Y-32665425D01*
X82359328Y-32663512D01*
X82377420Y-32617416D01*
X82435802Y-32361630D01*
X82436514Y-32352127D01*
X82455408Y-32100004D01*
X82455408Y-32099995D01*
X82435803Y-31838379D01*
X82435802Y-31838374D01*
X82435802Y-31838370D01*
X82377420Y-31582584D01*
X82281568Y-31338357D01*
X82150386Y-31111143D01*
X81986805Y-30906019D01*
X81986804Y-30906018D01*
X81986801Y-30906014D01*
X81871228Y-30798779D01*
X81794479Y-30727567D01*
X81793577Y-30726952D01*
X81793330Y-30726650D01*
X81790849Y-30724672D01*
X81791272Y-30724141D01*
X81749277Y-30672923D01*
X81741219Y-30603520D01*
X81771962Y-30540777D01*
X81831747Y-30504616D01*
X81863431Y-30500500D01*
X91371003Y-30500500D01*
X91438042Y-30520185D01*
G37*
%TD.AperFunction*%
%TA.AperFunction,Conductor*%
G36*
X107217514Y-58854089D02*
G01*
X107217517Y-58854091D01*
X107277127Y-58860500D01*
X107625500Y-58860499D01*
X107692539Y-58880183D01*
X107738294Y-58932987D01*
X107749500Y-58984499D01*
X107749500Y-59332869D01*
X107749501Y-59332879D01*
X107756367Y-59396751D01*
X107756367Y-59423257D01*
X107755909Y-59427516D01*
X107755909Y-59427517D01*
X107749500Y-59487127D01*
X107749500Y-59487132D01*
X107749500Y-59487133D01*
X107749500Y-60132870D01*
X107749501Y-60132879D01*
X107756367Y-60196751D01*
X107756367Y-60223257D01*
X107755909Y-60227516D01*
X107755909Y-60227517D01*
X107749500Y-60287127D01*
X107749500Y-60287132D01*
X107749500Y-60287133D01*
X107749500Y-60932870D01*
X107749501Y-60932876D01*
X107756619Y-60999092D01*
X107756619Y-61025599D01*
X107750000Y-61087169D01*
X107750000Y-61160000D01*
X107768591Y-61160000D01*
X107835630Y-61179685D01*
X107867855Y-61209686D01*
X107892454Y-61242546D01*
X107892455Y-61242546D01*
X107892456Y-61242548D01*
X107983540Y-61310734D01*
X108025411Y-61366668D01*
X108030395Y-61436359D01*
X107996909Y-61497682D01*
X107983540Y-61509266D01*
X107892456Y-61577451D01*
X107892454Y-61577454D01*
X107867856Y-61610312D01*
X107811924Y-61652182D01*
X107768591Y-61660000D01*
X107750000Y-61660000D01*
X107750000Y-61732844D01*
X107756619Y-61794398D01*
X107756620Y-61820909D01*
X107755909Y-61827514D01*
X107755909Y-61827517D01*
X107749500Y-61887127D01*
X107749500Y-61887134D01*
X107749500Y-61887135D01*
X107749500Y-62532870D01*
X107749501Y-62532879D01*
X107756367Y-62596751D01*
X107756367Y-62623257D01*
X107755909Y-62627516D01*
X107755909Y-62627517D01*
X107749500Y-62687127D01*
X107749500Y-62896546D01*
X107749501Y-62985500D01*
X107729817Y-63052539D01*
X107677013Y-63098294D01*
X107625501Y-63109500D01*
X106662372Y-63109500D01*
X106595333Y-63089815D01*
X106549578Y-63037011D01*
X106539634Y-62967853D01*
X106555011Y-62923454D01*
X106559476Y-62915729D01*
X106559476Y-62915726D01*
X106559478Y-62915724D01*
X106559577Y-62915485D01*
X106579636Y-62840619D01*
X106579651Y-62840562D01*
X106600466Y-62763020D01*
X106600466Y-62763005D01*
X106600500Y-62762755D01*
X106600500Y-62685107D01*
X106600527Y-62623257D01*
X106600535Y-62604905D01*
X106600534Y-62604903D01*
X106600538Y-62597139D01*
X106600500Y-62596543D01*
X106600500Y-58984499D01*
X106620185Y-58917460D01*
X106672989Y-58871705D01*
X106724500Y-58860499D01*
X107122871Y-58860499D01*
X107122872Y-58860499D01*
X107182483Y-58854091D01*
X107182486Y-58854089D01*
X107186744Y-58853632D01*
X107213254Y-58853632D01*
X107217514Y-58854089D01*
G37*
%TD.AperFunction*%
%TA.AperFunction,Conductor*%
G36*
X102683677Y-55426525D02*
G01*
X102739608Y-55468399D01*
X102745877Y-55477608D01*
X102832684Y-55618345D01*
X102860458Y-55646119D01*
X102893943Y-55707442D01*
X102888959Y-55777134D01*
X102847087Y-55833067D01*
X102781623Y-55857484D01*
X102772777Y-55857800D01*
X102449226Y-55857800D01*
X102382187Y-55838115D01*
X102336432Y-55785311D01*
X102326488Y-55716153D01*
X102355513Y-55652597D01*
X102361540Y-55646123D01*
X102552663Y-55455018D01*
X102613985Y-55421538D01*
X102683677Y-55426525D01*
G37*
%TD.AperFunction*%
%TA.AperFunction,Conductor*%
G36*
X104854952Y-47269374D02*
G01*
X104893809Y-47327442D01*
X104899499Y-47364575D01*
X104899499Y-47379054D01*
X104899498Y-47379054D01*
X104940423Y-47531785D01*
X104969358Y-47581900D01*
X104969359Y-47581904D01*
X104969360Y-47581904D01*
X104994240Y-47624999D01*
X105019479Y-47668714D01*
X105019481Y-47668717D01*
X105138349Y-47787585D01*
X105138355Y-47787590D01*
X105404223Y-48053458D01*
X105437708Y-48114781D01*
X105432724Y-48184473D01*
X105390852Y-48240406D01*
X105328696Y-48264542D01*
X105324041Y-48265000D01*
X105126025Y-48304387D01*
X105126016Y-48304390D01*
X104939486Y-48381652D01*
X104939473Y-48381659D01*
X104771600Y-48493829D01*
X104771596Y-48493832D01*
X104628832Y-48636596D01*
X104628829Y-48636600D01*
X104516659Y-48804473D01*
X104516652Y-48804486D01*
X104439390Y-48991016D01*
X104439387Y-48991025D01*
X104429647Y-49040000D01*
X105369670Y-49040000D01*
X105349925Y-49059745D01*
X105300556Y-49145255D01*
X105275000Y-49240630D01*
X105275000Y-49339370D01*
X105300556Y-49434745D01*
X105349925Y-49520255D01*
X105364170Y-49534500D01*
X105323996Y-49534500D01*
X105308326Y-49537617D01*
X105284134Y-49540000D01*
X104429647Y-49540000D01*
X104439387Y-49588974D01*
X104439390Y-49588983D01*
X104516652Y-49775513D01*
X104516659Y-49775526D01*
X104570203Y-49855659D01*
X104591081Y-49922336D01*
X104572597Y-49989716D01*
X104570204Y-49993439D01*
X104516214Y-50074243D01*
X104438909Y-50260872D01*
X104438907Y-50260880D01*
X104399500Y-50458992D01*
X104399500Y-50661007D01*
X104438907Y-50859119D01*
X104438909Y-50859127D01*
X104472325Y-50939800D01*
X104479794Y-51009270D01*
X104460038Y-51054660D01*
X104460454Y-51054887D01*
X104457919Y-51059528D01*
X104457037Y-51061556D01*
X104456206Y-51062665D01*
X104456202Y-51062672D01*
X104405908Y-51197517D01*
X104402170Y-51232289D01*
X104399500Y-51257127D01*
X104399500Y-51686433D01*
X104399501Y-52039500D01*
X104379817Y-52106539D01*
X104327013Y-52152294D01*
X104275501Y-52163500D01*
X103970226Y-52163500D01*
X103903187Y-52143815D01*
X103882518Y-52127155D01*
X103829007Y-52073612D01*
X103315792Y-51560085D01*
X103282326Y-51498751D01*
X103279500Y-51472430D01*
X103279500Y-47749499D01*
X103299185Y-47682460D01*
X103351989Y-47636705D01*
X103403500Y-47625499D01*
X104100002Y-47625499D01*
X104100008Y-47625499D01*
X104202797Y-47614999D01*
X104369334Y-47559814D01*
X104518656Y-47467712D01*
X104642712Y-47343656D01*
X104669960Y-47299478D01*
X104721907Y-47252754D01*
X104790870Y-47241531D01*
X104854952Y-47269374D01*
G37*
%TD.AperFunction*%
%TA.AperFunction,Conductor*%
G36*
X107602588Y-47591494D02*
G01*
X107629426Y-47636865D01*
X107640186Y-47669334D01*
X107713126Y-47787590D01*
X107732289Y-47818657D01*
X107856344Y-47942712D01*
X107915243Y-47979041D01*
X107961968Y-48030989D01*
X107973191Y-48099951D01*
X107945347Y-48164034D01*
X107915244Y-48190118D01*
X107806348Y-48257286D01*
X107806344Y-48257289D01*
X107682286Y-48381347D01*
X107668590Y-48403553D01*
X107616642Y-48450276D01*
X107547679Y-48461497D01*
X107483597Y-48433653D01*
X107475372Y-48426135D01*
X106885916Y-47836680D01*
X106852431Y-47775357D01*
X106857415Y-47705666D01*
X106899286Y-47649732D01*
X106964751Y-47625315D01*
X106973597Y-47624999D01*
X107199972Y-47624999D01*
X107199986Y-47624998D01*
X107302695Y-47614506D01*
X107472717Y-47558165D01*
X107542546Y-47555763D01*
X107602588Y-47591494D01*
G37*
%TD.AperFunction*%
%TA.AperFunction,Conductor*%
G36*
X109143039Y-43619685D02*
G01*
X109188794Y-43672489D01*
X109200000Y-43724000D01*
X109200000Y-44999999D01*
X109404500Y-44999999D01*
X109471539Y-45019684D01*
X109517294Y-45072488D01*
X109528500Y-45123999D01*
X109528500Y-45675500D01*
X109508815Y-45742539D01*
X109456011Y-45788294D01*
X109404500Y-45799500D01*
X108274998Y-45799500D01*
X108274981Y-45799501D01*
X108172203Y-45810000D01*
X108172200Y-45810001D01*
X108063003Y-45846186D01*
X107993175Y-45848588D01*
X107933133Y-45812856D01*
X107901940Y-45750336D01*
X107899999Y-45728480D01*
X107899999Y-45575028D01*
X107899998Y-45575013D01*
X107889505Y-45472302D01*
X107834358Y-45305880D01*
X107834353Y-45305869D01*
X107747817Y-45165573D01*
X107729376Y-45098181D01*
X107747815Y-45035382D01*
X107798980Y-44952429D01*
X107850925Y-44905707D01*
X107919888Y-44894484D01*
X107969615Y-44911990D01*
X108005873Y-44934355D01*
X108005880Y-44934358D01*
X108172302Y-44989505D01*
X108172309Y-44989506D01*
X108275019Y-44999999D01*
X108699999Y-44999999D01*
X108700000Y-44999998D01*
X108700000Y-43724000D01*
X108719685Y-43656961D01*
X108772489Y-43611206D01*
X108824000Y-43600000D01*
X109076000Y-43600000D01*
X109143039Y-43619685D01*
G37*
%TD.AperFunction*%
%TA.AperFunction,Conductor*%
G36*
X107512070Y-37620185D02*
G01*
X107557825Y-37672989D01*
X107567769Y-37742147D01*
X107562739Y-37763492D01*
X107550093Y-37801659D01*
X107535000Y-37847206D01*
X107524500Y-37949984D01*
X107524500Y-38975015D01*
X107535000Y-39077795D01*
X107535001Y-39077797D01*
X107574009Y-39195515D01*
X107590186Y-39244334D01*
X107682286Y-39393651D01*
X107682289Y-39393655D01*
X107806344Y-39517710D01*
X107806348Y-39517713D01*
X107955662Y-39609812D01*
X107955664Y-39609813D01*
X107955666Y-39609814D01*
X108122203Y-39664999D01*
X108224992Y-39675500D01*
X109212335Y-39675500D01*
X109279374Y-39695185D01*
X109300020Y-39711822D01*
X109492185Y-39904002D01*
X109525667Y-39965327D01*
X109528500Y-39991680D01*
X109528500Y-40100500D01*
X109508815Y-40167539D01*
X109456011Y-40213294D01*
X109404500Y-40224500D01*
X108224984Y-40224500D01*
X108122204Y-40235000D01*
X108122203Y-40235001D01*
X107955664Y-40290186D01*
X107955662Y-40290187D01*
X107806348Y-40382286D01*
X107806344Y-40382289D01*
X107682289Y-40506344D01*
X107682286Y-40506348D01*
X107590187Y-40655662D01*
X107590186Y-40655664D01*
X107558263Y-40752004D01*
X107518491Y-40809449D01*
X107453975Y-40836272D01*
X107440557Y-40837000D01*
X107313942Y-40837000D01*
X107161215Y-40877923D01*
X107161214Y-40877923D01*
X107161212Y-40877924D01*
X107161209Y-40877925D01*
X107111096Y-40906859D01*
X107111093Y-40906861D01*
X107086497Y-40921061D01*
X107018597Y-40937532D01*
X106952570Y-40914679D01*
X106909381Y-40859757D01*
X106900499Y-40813673D01*
X106900499Y-40677129D01*
X106900498Y-40677123D01*
X106898191Y-40655664D01*
X106894091Y-40617517D01*
X106868398Y-40548631D01*
X106843797Y-40482671D01*
X106843796Y-40482670D01*
X106843796Y-40482669D01*
X106842967Y-40481562D01*
X106842485Y-40480268D01*
X106839546Y-40474886D01*
X106840319Y-40474463D01*
X106818551Y-40416099D01*
X106827675Y-40359798D01*
X106861089Y-40279132D01*
X106861089Y-40279131D01*
X106861091Y-40279127D01*
X106900500Y-40081003D01*
X106900500Y-39878997D01*
X106861091Y-39680873D01*
X106783786Y-39494244D01*
X106729794Y-39413439D01*
X106708917Y-39346764D01*
X106727401Y-39279384D01*
X106729796Y-39275658D01*
X106783344Y-39195518D01*
X106783346Y-39195515D01*
X106860609Y-39008983D01*
X106860612Y-39008974D01*
X106870353Y-38960000D01*
X106015866Y-38960000D01*
X105991674Y-38957617D01*
X105976004Y-38954500D01*
X105976003Y-38954500D01*
X105935830Y-38954500D01*
X105950075Y-38940255D01*
X105999444Y-38854745D01*
X106025000Y-38759370D01*
X106025000Y-38660630D01*
X105999444Y-38565255D01*
X105950075Y-38479745D01*
X105930330Y-38460000D01*
X106870353Y-38460000D01*
X106860612Y-38411025D01*
X106860609Y-38411016D01*
X106783347Y-38224486D01*
X106783340Y-38224473D01*
X106671170Y-38056600D01*
X106671167Y-38056596D01*
X106528403Y-37913832D01*
X106528399Y-37913829D01*
X106399352Y-37827602D01*
X106354547Y-37773990D01*
X106345840Y-37704665D01*
X106375995Y-37641637D01*
X106435438Y-37604918D01*
X106468243Y-37600500D01*
X107445031Y-37600500D01*
X107512070Y-37620185D01*
G37*
%TD.AperFunction*%
%TA.AperFunction,Conductor*%
G36*
X103805703Y-36505384D02*
G01*
X103812178Y-36511413D01*
X104781284Y-37480520D01*
X104781286Y-37480521D01*
X104781290Y-37480524D01*
X104869316Y-37531345D01*
X104918216Y-37559577D01*
X104933150Y-37563578D01*
X104992810Y-37599941D01*
X105023341Y-37662788D01*
X105015047Y-37732163D01*
X104970563Y-37786042D01*
X104948518Y-37797911D01*
X104939487Y-37801652D01*
X104939473Y-37801659D01*
X104771600Y-37913829D01*
X104771596Y-37913832D01*
X104628832Y-38056596D01*
X104628829Y-38056600D01*
X104516659Y-38224473D01*
X104516652Y-38224486D01*
X104439390Y-38411016D01*
X104439387Y-38411025D01*
X104429647Y-38460000D01*
X105369670Y-38460000D01*
X105349925Y-38479745D01*
X105300556Y-38565255D01*
X105275000Y-38660630D01*
X105275000Y-38759370D01*
X105300556Y-38854745D01*
X105349925Y-38940255D01*
X105364170Y-38954500D01*
X105323997Y-38954500D01*
X105323996Y-38954500D01*
X105308326Y-38957617D01*
X105284134Y-38960000D01*
X104429647Y-38960000D01*
X104439387Y-39008974D01*
X104439390Y-39008983D01*
X104516656Y-39195521D01*
X104517475Y-39197054D01*
X104517661Y-39197947D01*
X104518987Y-39201149D01*
X104518379Y-39201400D01*
X104531713Y-39265458D01*
X104506708Y-39330700D01*
X104450400Y-39372067D01*
X104408113Y-39379500D01*
X104380098Y-39379500D01*
X104313059Y-39359815D01*
X104292417Y-39343181D01*
X103936819Y-38987583D01*
X103903334Y-38926260D01*
X103900500Y-38899902D01*
X103900500Y-38070945D01*
X103900500Y-38070943D01*
X103870627Y-37959454D01*
X103859577Y-37918215D01*
X103857046Y-37913832D01*
X103848081Y-37898304D01*
X103805186Y-37824008D01*
X103792279Y-37801652D01*
X103780522Y-37781287D01*
X103780521Y-37781286D01*
X103780520Y-37781284D01*
X103668716Y-37669480D01*
X103668715Y-37669479D01*
X103664385Y-37665149D01*
X103664374Y-37665139D01*
X103636819Y-37637584D01*
X103603334Y-37576261D01*
X103600500Y-37549903D01*
X103600500Y-36599097D01*
X103620185Y-36532058D01*
X103672989Y-36486303D01*
X103742147Y-36476359D01*
X103805703Y-36505384D01*
G37*
%TD.AperFunction*%
%TD*%
M02*
