%TF.GenerationSoftware,KiCad,Pcbnew,8.0.1*%
%TF.CreationDate,2024-07-07T22:58:04+02:00*%
%TF.ProjectId,kicad8_atmega328_relay_module,6b696361-6438-45f6-9174-6d6567613332,rev?*%
%TF.SameCoordinates,Original*%
%TF.FileFunction,Copper,L2,Bot*%
%TF.FilePolarity,Positive*%
%FSLAX46Y46*%
G04 Gerber Fmt 4.6, Leading zero omitted, Abs format (unit mm)*
G04 Created by KiCad (PCBNEW 8.0.1) date 2024-07-07 22:58:04*
%MOMM*%
%LPD*%
G01*
G04 APERTURE LIST*
G04 Aperture macros list*
%AMRoundRect*
0 Rectangle with rounded corners*
0 $1 Rounding radius*
0 $2 $3 $4 $5 $6 $7 $8 $9 X,Y pos of 4 corners*
0 Add a 4 corners polygon primitive as box body*
4,1,4,$2,$3,$4,$5,$6,$7,$8,$9,$2,$3,0*
0 Add four circle primitives for the rounded corners*
1,1,$1+$1,$2,$3*
1,1,$1+$1,$4,$5*
1,1,$1+$1,$6,$7*
1,1,$1+$1,$8,$9*
0 Add four rect primitives between the rounded corners*
20,1,$1+$1,$2,$3,$4,$5,0*
20,1,$1+$1,$4,$5,$6,$7,0*
20,1,$1+$1,$6,$7,$8,$9,0*
20,1,$1+$1,$8,$9,$2,$3,0*%
G04 Aperture macros list end*
%TA.AperFunction,ComponentPad*%
%ADD10C,1.500000*%
%TD*%
%TA.AperFunction,ComponentPad*%
%ADD11C,3.000000*%
%TD*%
%TA.AperFunction,ComponentPad*%
%ADD12C,2.500000*%
%TD*%
%TA.AperFunction,ComponentPad*%
%ADD13RoundRect,0.250000X0.600000X0.600000X-0.600000X0.600000X-0.600000X-0.600000X0.600000X-0.600000X0*%
%TD*%
%TA.AperFunction,ComponentPad*%
%ADD14C,1.700000*%
%TD*%
%TA.AperFunction,ComponentPad*%
%ADD15R,2.200000X2.200000*%
%TD*%
%TA.AperFunction,ComponentPad*%
%ADD16O,2.200000X2.200000*%
%TD*%
%TA.AperFunction,ComponentPad*%
%ADD17R,1.500000X1.050000*%
%TD*%
%TA.AperFunction,ComponentPad*%
%ADD18O,1.500000X1.050000*%
%TD*%
%TA.AperFunction,ComponentPad*%
%ADD19O,1.700000X1.700000*%
%TD*%
%TA.AperFunction,ComponentPad*%
%ADD20R,3.000000X2.000000*%
%TD*%
%TA.AperFunction,ComponentPad*%
%ADD21O,3.000000X2.000000*%
%TD*%
%TA.AperFunction,ViaPad*%
%ADD22C,0.600000*%
%TD*%
%TA.AperFunction,Conductor*%
%ADD23C,0.400000*%
%TD*%
%TA.AperFunction,Conductor*%
%ADD24C,0.200000*%
%TD*%
%TA.AperFunction,Conductor*%
%ADD25C,0.600000*%
%TD*%
G04 APERTURE END LIST*
D10*
%TO.P,Y1,1,1*%
%TO.N,Net-(U1-XTAL2{slash}PB7)*%
X104500000Y-71050000D03*
%TO.P,Y1,2,2*%
%TO.N,Net-(U1-XTAL1{slash}PB6)*%
X104500000Y-75930000D03*
%TD*%
D11*
%TO.P,K1,1*%
%TO.N,RELAY_1_COM*%
X78750000Y-38050000D03*
D12*
%TO.P,K1,2*%
%TO.N,Net-(D3-A)*%
X80700000Y-44100000D03*
D11*
%TO.P,K1,3*%
%TO.N,RELAY_1_NO*%
X92900000Y-44100000D03*
%TO.P,K1,4*%
%TO.N,RELAY_1_NC*%
X92950000Y-32050000D03*
D12*
%TO.P,K1,5*%
%TO.N,VBUS*%
X80700000Y-32100000D03*
%TD*%
D13*
%TO.P,J1,1,MISO*%
%TO.N,MCU_MISO*%
X106750000Y-90640000D03*
D14*
%TO.P,J1,2,VCC*%
%TO.N,VCC*%
X104210000Y-90640000D03*
%TO.P,J1,3,SCK*%
%TO.N,MCU_SCK*%
X106750000Y-88100000D03*
%TO.P,J1,4,MOSI*%
%TO.N,MCU_MOSI*%
X104210000Y-88100000D03*
%TO.P,J1,5,~{RST}*%
%TO.N,MCU_RESET*%
X106750000Y-85560000D03*
%TO.P,J1,6,GND*%
%TO.N,GND*%
X104210000Y-85560000D03*
%TD*%
D15*
%TO.P,D3,1,K*%
%TO.N,VBUS*%
X100750000Y-35750000D03*
D16*
%TO.P,D3,2,A*%
%TO.N,Net-(D3-A)*%
X100750000Y-43370000D03*
%TD*%
D17*
%TO.P,Q2,1,C*%
%TO.N,Net-(D4-A)*%
X105650000Y-51830000D03*
D18*
%TO.P,Q2,2,B*%
%TO.N,Net-(Q2-B)*%
X105650000Y-50560000D03*
%TO.P,Q2,3,E*%
%TO.N,GND*%
X105650000Y-49290000D03*
%TD*%
D15*
%TO.P,D4,1,K*%
%TO.N,VBUS*%
X100750000Y-46690000D03*
D16*
%TO.P,D4,2,A*%
%TO.N,Net-(D4-A)*%
X100750000Y-54310000D03*
%TD*%
D11*
%TO.P,K2,1*%
%TO.N,RELAY_2_COM*%
X78750000Y-54450000D03*
D12*
%TO.P,K2,2*%
%TO.N,Net-(D4-A)*%
X80700000Y-60500000D03*
D11*
%TO.P,K2,3*%
%TO.N,RELAY_2_NO*%
X92900000Y-60500000D03*
%TO.P,K2,4*%
%TO.N,RELAY_2_NC*%
X92950000Y-48450000D03*
D12*
%TO.P,K2,5*%
%TO.N,VBUS*%
X80700000Y-48500000D03*
%TD*%
D19*
%TO.P,U4,1,GND*%
%TO.N,GND*%
X65100000Y-87400000D03*
%TO.P,U4,2,GND*%
X67640000Y-87400000D03*
%TO.P,U4,3,MOSI*%
%TO.N,MCU_MOSI*%
X70180000Y-87400000D03*
%TO.P,U4,4,SCLK*%
%TO.N,MCU_SCK*%
X72720000Y-87400000D03*
%TO.P,U4,5,~{CS}*%
%TO.N,W5500_CS*%
X75260000Y-87400000D03*
%TO.P,U4,6,~{INT}*%
%TO.N,W5500_INT*%
X77800000Y-87400000D03*
%TO.P,U4,7,GND*%
%TO.N,GND*%
X65100000Y-67080000D03*
%TO.P,U4,8,VDD*%
%TO.N,VCC*%
X67640000Y-67080000D03*
%TO.P,U4,9,VDD*%
X70180000Y-67080000D03*
%TO.P,U4,10,NC*%
%TO.N,unconnected-(U4-NC-Pad10)*%
X72720000Y-67080000D03*
%TO.P,U4,11,~{RST}*%
%TO.N,W5500_RST*%
X75260000Y-67080000D03*
%TO.P,U4,12,MISO*%
%TO.N,MCU_MISO*%
X77800000Y-67080000D03*
%TD*%
D17*
%TO.P,Q1,1,C*%
%TO.N,Net-(D3-A)*%
X105650000Y-41250000D03*
D18*
%TO.P,Q1,2,B*%
%TO.N,Net-(Q1-B)*%
X105650000Y-39980000D03*
%TO.P,Q1,3,E*%
%TO.N,GND*%
X105650000Y-38710000D03*
%TD*%
D20*
%TO.P,J4,1,Pin_1*%
%TO.N,RELAY_1_NO*%
X65400000Y-33400000D03*
X70400000Y-35900000D03*
D21*
%TO.P,J4,2,Pin_2*%
%TO.N,RELAY_1_COM*%
X65400000Y-38400000D03*
X70400000Y-40900000D03*
%TO.P,J4,3,Pin_3*%
%TO.N,RELAY_1_NC*%
X65400000Y-43400000D03*
X70400000Y-45900000D03*
%TO.P,J4,4,Pin_4*%
%TO.N,RELAY_2_NO*%
X65400000Y-48400000D03*
X70400000Y-50900000D03*
%TO.P,J4,5,Pin_5*%
%TO.N,RELAY_2_COM*%
X65400000Y-53400000D03*
X70400000Y-55900000D03*
%TO.P,J4,6,Pin_6*%
%TO.N,RELAY_2_NC*%
X65400000Y-58400000D03*
X70400000Y-60900000D03*
%TD*%
D22*
%TO.N,GND*%
X86450000Y-93350000D03*
X105100000Y-35800000D03*
X86500000Y-95400000D03*
X98700000Y-61550000D03*
X80650000Y-98100000D03*
X87450000Y-97800000D03*
X96600000Y-57350000D03*
X107200000Y-47750000D03*
X97100000Y-44350000D03*
X107250000Y-81400000D03*
X86250000Y-90350000D03*
X97000000Y-71600000D03*
X104250000Y-37350000D03*
X95500000Y-38100000D03*
X104150000Y-49300000D03*
X89950000Y-52150000D03*
X89900000Y-66900000D03*
X102650000Y-55850000D03*
X65500000Y-91400000D03*
X86250000Y-88500000D03*
X100200000Y-88300000D03*
X97650000Y-51800000D03*
X87950000Y-74950000D03*
X88150000Y-43950000D03*
X96250000Y-64450000D03*
X91050000Y-64900000D03*
X109000000Y-81400000D03*
X88750000Y-58800000D03*
X62300000Y-86050000D03*
X94850000Y-73500000D03*
X105850000Y-83900000D03*
X91550000Y-70712500D03*
X107150000Y-61400000D03*
%TO.N,VCC*%
X89939400Y-82037600D03*
X84400000Y-81700000D03*
X92821200Y-89393400D03*
%TO.N,Net-(U2-DTR)*%
X80202200Y-91589000D03*
X95865700Y-91589000D03*
%TO.N,MCU_RESET*%
X104384000Y-62027200D03*
%TO.N,Net-(U1-XTAL1{slash}PB6)*%
X106944000Y-74273900D03*
%TO.N,Net-(U1-XTAL2{slash}PB7)*%
X106794000Y-70175200D03*
%TO.N,MCU_MISO*%
X107246000Y-69158500D03*
%TO.N,RELAY_1_NO*%
X76442600Y-46004000D03*
%TO.N,MCU_TX*%
X98785300Y-64510700D03*
X102447000Y-60195000D03*
%TO.N,MCU_RX*%
X103027000Y-62838300D03*
X99621700Y-72536000D03*
%TO.N,VBUS*%
X70652400Y-68866800D03*
X65636900Y-93148500D03*
X65636700Y-97517700D03*
%TO.N,W5500_RST*%
X102925000Y-67412000D03*
%TO.N,W5500_INT*%
X90891700Y-67941700D03*
X85200000Y-83350000D03*
X101769000Y-67372000D03*
%TO.N,I2C_SDA*%
X105428000Y-63255200D03*
X97293400Y-78189800D03*
X90505100Y-77974600D03*
%TO.N,EEPROM_WP*%
X102873000Y-68277600D03*
X95583000Y-75426300D03*
%TO.N,I2C_SCL*%
X98200000Y-72250000D03*
X104161000Y-63059000D03*
%TD*%
D23*
%TO.N,GND*%
X91500000Y-64450000D02*
X91050000Y-64900000D01*
X95100000Y-73500000D02*
X94850000Y-73500000D01*
X96600000Y-57350000D02*
X97050000Y-57350000D01*
X104150000Y-49300000D02*
X104150000Y-48450000D01*
X105650000Y-49290000D02*
X107200000Y-47750000D01*
X86950000Y-95850000D02*
X86950000Y-97300000D01*
X102650000Y-55850000D02*
X106050000Y-55850000D01*
X96250000Y-64450000D02*
X91500000Y-64450000D01*
X98200000Y-61050000D02*
X98700000Y-61550000D01*
X104850000Y-47750000D02*
X107200000Y-47750000D01*
X105850000Y-82800000D02*
X105850000Y-83900000D01*
X106500000Y-37350000D02*
X107300000Y-38150000D01*
X86450000Y-93350000D02*
X86450000Y-95350000D01*
X86250000Y-90350000D02*
X86250000Y-88500000D01*
X107150000Y-56950000D02*
X107150000Y-61400000D01*
X89900000Y-66900000D02*
X89900000Y-69062500D01*
X107250000Y-81400000D02*
X105850000Y-82800000D01*
X107300000Y-38150000D02*
X107300000Y-47650000D01*
X89900000Y-69062500D02*
X91550000Y-70712500D01*
X65500000Y-87800000D02*
X65100000Y-87400000D01*
X98200000Y-58500000D02*
X98200000Y-61050000D01*
X104250000Y-37350000D02*
X106500000Y-37350000D01*
X97050000Y-57350000D02*
X98200000Y-58500000D01*
X86500000Y-95400000D02*
X86950000Y-95850000D01*
X86950000Y-97300000D02*
X87450000Y-97800000D01*
X107300000Y-47650000D02*
X107200000Y-47750000D01*
X106050000Y-55850000D02*
X107150000Y-56950000D01*
X86450000Y-95350000D02*
X86500000Y-95400000D01*
X65500000Y-91400000D02*
X65500000Y-87800000D01*
X97000000Y-71600000D02*
X95100000Y-73500000D01*
X104150000Y-48450000D02*
X104850000Y-47750000D01*
%TO.N,VCC*%
X84400000Y-81700000D02*
X84800000Y-82100000D01*
X89939400Y-82037600D02*
X89939400Y-86511600D01*
X89939400Y-86511600D02*
X92821200Y-89393400D01*
X89877000Y-82100000D02*
X89939400Y-82037600D01*
X84800000Y-82100000D02*
X89877000Y-82100000D01*
X104210000Y-90640000D02*
X102963000Y-89393400D01*
X67640000Y-67080000D02*
X70180000Y-67080000D01*
X102963000Y-89393400D02*
X92821200Y-89393400D01*
D24*
%TO.N,Net-(U2-DTR)*%
X80202200Y-91589000D02*
X95865700Y-91589000D01*
%TO.N,MCU_RESET*%
X106750000Y-85560000D02*
X108017000Y-84293300D01*
X105123000Y-62027200D02*
X104384000Y-62027200D01*
X108017000Y-84293300D02*
X108017000Y-64920800D01*
X108017000Y-64920800D02*
X105123000Y-62027200D01*
%TO.N,Net-(U1-XTAL1{slash}PB6)*%
X105288000Y-75930000D02*
X106944000Y-74273900D01*
X104500000Y-75930000D02*
X105288000Y-75930000D01*
%TO.N,Net-(U1-XTAL2{slash}PB7)*%
X106794000Y-70175200D02*
X105375000Y-70175200D01*
X105375000Y-70175200D02*
X104500000Y-71050000D01*
%TO.N,Net-(D3-A)*%
X99348300Y-43370000D02*
X98158600Y-42180300D01*
X102152000Y-43370000D02*
X100750000Y-43370000D01*
X105650000Y-42076700D02*
X103445000Y-42076700D01*
X103445000Y-42076700D02*
X102152000Y-43370000D01*
X105650000Y-41250000D02*
X105650000Y-42076700D01*
X100750000Y-43370000D02*
X99348300Y-43370000D01*
X82619700Y-42180300D02*
X80700000Y-44100000D01*
X98158600Y-42180300D02*
X82619700Y-42180300D01*
%TO.N,Net-(D4-A)*%
X105650000Y-52656700D02*
X105650000Y-51830000D01*
X102152000Y-54310000D02*
X103805000Y-52656700D01*
X103805000Y-52656700D02*
X105650000Y-52656700D01*
X100750000Y-54310000D02*
X86890000Y-54310000D01*
X100750000Y-54310000D02*
X102152000Y-54310000D01*
X86890000Y-54310000D02*
X80700000Y-60500000D01*
%TO.N,MCU_MISO*%
X107395000Y-70424400D02*
X107395000Y-69926000D01*
X98230200Y-83841900D02*
X107244000Y-74827800D01*
X86150000Y-81050000D02*
X90400000Y-81050000D01*
X107244000Y-70575300D02*
X107395000Y-70424400D01*
X107244000Y-73723000D02*
X107244000Y-70575300D01*
X107244000Y-69160100D02*
X107246000Y-69158500D01*
X93192000Y-83842000D02*
X98230100Y-83842000D01*
X107244000Y-74827800D02*
X107244000Y-74824800D01*
X77800000Y-67080000D02*
X77800000Y-72700000D01*
X107244000Y-69775100D02*
X107244000Y-69160100D01*
X107546000Y-74024700D02*
X107244000Y-73723000D01*
X90400000Y-81050000D02*
X93192000Y-83842000D01*
X107546000Y-74523100D02*
X107546000Y-74024700D01*
X103757000Y-89368500D02*
X98230200Y-83841900D01*
X107395000Y-69926000D02*
X107244000Y-69775100D01*
X98230100Y-83842000D02*
X98230200Y-83841900D01*
X107244000Y-74824800D02*
X107546000Y-74523100D01*
X77800000Y-72700000D02*
X86150000Y-81050000D01*
X106750000Y-90640000D02*
X105478000Y-89368500D01*
X105478000Y-89368500D02*
X103757000Y-89368500D01*
%TO.N,MCU_SCK*%
X107904000Y-91499300D02*
X107566000Y-91838200D01*
X106750000Y-88100000D02*
X107904000Y-89254400D01*
X94353700Y-91088100D02*
X80552200Y-91088100D01*
X80552200Y-91088100D02*
X80451400Y-90987300D01*
X95899300Y-90771700D02*
X94670100Y-90771700D01*
X94670100Y-90771700D02*
X94353700Y-91088100D01*
X107566000Y-91838200D02*
X96965800Y-91838200D01*
X72720000Y-88070000D02*
X72720000Y-87400000D01*
X96965800Y-91838200D02*
X95899300Y-90771700D01*
X80451400Y-90987300D02*
X75637300Y-90987300D01*
X107904000Y-89254400D02*
X107904000Y-91499300D01*
X75637300Y-90987300D02*
X72720000Y-88070000D01*
%TO.N,MCU_MOSI*%
X108318000Y-91710400D02*
X108318000Y-88013100D01*
X107209000Y-86903900D02*
X105406000Y-86903900D01*
X107722000Y-92307100D02*
X108318000Y-91710400D01*
X71331700Y-87400000D02*
X71331700Y-87687900D01*
X108318000Y-88013100D02*
X107209000Y-86903900D01*
X75950900Y-92307100D02*
X107722000Y-92307100D01*
X105406000Y-86903900D02*
X104210000Y-88100000D01*
X70180000Y-87400000D02*
X71331700Y-87400000D01*
X71331700Y-87687900D02*
X75950900Y-92307100D01*
D25*
%TO.N,RELAY_2_NC*%
X69150000Y-60900000D02*
X68298300Y-60048300D01*
X89517000Y-48450000D02*
X92950000Y-48450000D01*
X76706800Y-61260200D02*
X89517000Y-48450000D01*
X69150000Y-60900000D02*
X69510200Y-61260200D01*
X70400000Y-60900000D02*
X69150000Y-60900000D01*
X69510200Y-61260200D02*
X76706800Y-61260200D01*
X68298300Y-59196600D02*
X67501700Y-58400000D01*
X68298300Y-60048300D02*
X68298300Y-59196600D01*
X67501700Y-58400000D02*
X65400000Y-58400000D01*
%TO.N,RELAY_2_NO*%
X67501700Y-48400000D02*
X66450900Y-48400000D01*
X65400000Y-48400000D02*
X66450900Y-48400000D01*
X66762000Y-62533200D02*
X90866800Y-62533200D01*
X68298300Y-50900000D02*
X68298300Y-49196600D01*
X66450900Y-48400000D02*
X63294700Y-51556200D01*
X90866800Y-62533200D02*
X92900000Y-60500000D01*
X63294700Y-59065900D02*
X66762000Y-62533200D01*
X70400000Y-50900000D02*
X68298300Y-50900000D01*
X68298300Y-49196600D02*
X67501700Y-48400000D01*
X63294700Y-51556200D02*
X63294700Y-59065900D01*
%TO.N,RELAY_1_NC*%
X68298300Y-45900000D02*
X68298300Y-44196600D01*
X89121300Y-32050000D02*
X76974700Y-44196600D01*
X70400000Y-45900000D02*
X68298300Y-45900000D01*
X67501700Y-43400000D02*
X68298300Y-44196600D01*
X65400000Y-43400000D02*
X67501700Y-43400000D01*
X76974700Y-44196600D02*
X68298300Y-44196600D01*
X92950000Y-32050000D02*
X89121300Y-32050000D01*
%TO.N,RELAY_1_COM*%
X72199200Y-38050000D02*
X78750000Y-38050000D01*
X67501700Y-38400000D02*
X68298300Y-39196600D01*
X68298300Y-39196600D02*
X68298300Y-40900000D01*
X70400000Y-40900000D02*
X69349200Y-40900000D01*
X65400000Y-38400000D02*
X67501700Y-38400000D01*
X69349200Y-40900000D02*
X72199200Y-38050000D01*
X68298300Y-40900000D02*
X69349200Y-40900000D01*
%TO.N,RELAY_1_NO*%
X68298300Y-35900000D02*
X68298300Y-34196600D01*
X67501700Y-33400000D02*
X65400000Y-33400000D01*
X76442600Y-46004000D02*
X90196000Y-46004000D01*
X70400000Y-35900000D02*
X68298300Y-35900000D01*
X90196000Y-46004000D02*
X92100000Y-44100000D01*
X92100000Y-44100000D02*
X92900000Y-44100000D01*
X68298300Y-34196600D02*
X67501700Y-33400000D01*
%TO.N,RELAY_2_COM*%
X68298300Y-55900000D02*
X68298300Y-54196600D01*
X70400000Y-55900000D02*
X77300000Y-55900000D01*
X70400000Y-55900000D02*
X68298300Y-55900000D01*
X68298300Y-54196600D02*
X67501700Y-53400000D01*
X67501700Y-53400000D02*
X65400000Y-53400000D01*
X77300000Y-55900000D02*
X78750000Y-54450000D01*
D24*
%TO.N,MCU_TX*%
X98785300Y-63856300D02*
X98785300Y-64510700D01*
X102447000Y-60195000D02*
X98785300Y-63856300D01*
%TO.N,MCU_RX*%
X103027000Y-62838300D02*
X103552000Y-63364000D01*
X103552000Y-68605200D02*
X99621700Y-72536000D01*
X103552000Y-63364000D02*
X103552000Y-68605200D01*
D23*
%TO.N,VBUS*%
X82150000Y-47050000D02*
X80700000Y-48500000D01*
X65636900Y-97517500D02*
X65636900Y-93148500D01*
X90800000Y-47050000D02*
X82150000Y-47050000D01*
X66370000Y-73149200D02*
X70652400Y-68866800D01*
X91650000Y-46200000D02*
X90800000Y-47050000D01*
X66370000Y-92415400D02*
X66370000Y-73149200D01*
X100750000Y-46690000D02*
X99348300Y-46690000D01*
X99348300Y-46690000D02*
X98858300Y-46200000D01*
X98858300Y-46200000D02*
X91650000Y-46200000D01*
D24*
X65636700Y-97517700D02*
X65636900Y-97517500D01*
D23*
X65636900Y-93148500D02*
X66370000Y-92415400D01*
D24*
%TO.N,W5500_RST*%
X76411700Y-66792100D02*
X77296200Y-65907600D01*
X75260000Y-67080000D02*
X76411700Y-67080000D01*
X76411700Y-67080000D02*
X76411700Y-66792100D01*
X77296200Y-65907600D02*
X101421000Y-65907600D01*
X101421000Y-65907600D02*
X102925000Y-67412000D01*
%TO.N,W5500_INT*%
X91461500Y-67372000D02*
X101769000Y-67372000D01*
X90891700Y-67941700D02*
X91461500Y-67372000D01*
X78951700Y-87400000D02*
X77800000Y-87400000D01*
X83001700Y-83350000D02*
X78951700Y-87400000D01*
X85200000Y-83350000D02*
X83001700Y-83350000D01*
%TO.N,I2C_SDA*%
X97293400Y-76357700D02*
X97293400Y-78189800D01*
X97293400Y-78189800D02*
X90720300Y-78189800D01*
X105428000Y-68222600D02*
X97293400Y-76357700D01*
X105428000Y-63255200D02*
X105428000Y-68222600D01*
X90720300Y-78189800D02*
X90505100Y-77974600D01*
%TO.N,EEPROM_WP*%
X95583000Y-74017000D02*
X101322400Y-68277600D01*
X95583000Y-75426300D02*
X95583000Y-74017000D01*
X101322400Y-68277600D02*
X102873000Y-68277600D01*
%TO.N,I2C_SCL*%
X99934100Y-73137800D02*
X104161000Y-68910800D01*
X98432400Y-72250000D02*
X99320200Y-73137800D01*
X104161000Y-68910800D02*
X104161000Y-63059000D01*
X99320200Y-73137800D02*
X99934100Y-73137800D01*
X98200000Y-72250000D02*
X98432400Y-72250000D01*
%TD*%
%TA.AperFunction,Conductor*%
%TO.N,GND*%
G36*
X89181939Y-82820185D02*
G01*
X89227694Y-82872989D01*
X89238900Y-82924500D01*
X89238900Y-86442606D01*
X89238900Y-86580594D01*
X89238900Y-86580596D01*
X89238899Y-86580596D01*
X89265818Y-86715922D01*
X89265821Y-86715932D01*
X89318622Y-86843407D01*
X89395287Y-86958145D01*
X89395288Y-86958146D01*
X92029830Y-89592687D01*
X92059190Y-89639413D01*
X92095409Y-89742919D01*
X92095411Y-89742922D01*
X92191384Y-89895662D01*
X92318938Y-90023216D01*
X92409280Y-90079982D01*
X92471674Y-90119187D01*
X92471678Y-90119189D01*
X92606568Y-90166389D01*
X92641945Y-90178768D01*
X92641950Y-90178769D01*
X92821196Y-90198965D01*
X92821200Y-90198965D01*
X92821204Y-90198965D01*
X93000449Y-90178769D01*
X93000452Y-90178768D01*
X93000455Y-90178768D01*
X93170722Y-90119189D01*
X93171688Y-90118581D01*
X93180723Y-90112906D01*
X93246694Y-90093900D01*
X94199302Y-90093900D01*
X94266341Y-90113585D01*
X94312096Y-90166389D01*
X94322040Y-90235547D01*
X94293015Y-90299103D01*
X94286983Y-90305581D01*
X94141283Y-90451281D01*
X94079960Y-90484766D01*
X94053602Y-90487600D01*
X80820120Y-90487600D01*
X80758120Y-90470987D01*
X80733303Y-90456659D01*
X80733303Y-90456658D01*
X80733301Y-90456658D01*
X80683185Y-90427723D01*
X80530457Y-90386799D01*
X80372343Y-90386799D01*
X80364747Y-90386799D01*
X80364731Y-90386800D01*
X75937397Y-90386800D01*
X75870358Y-90367115D01*
X75849716Y-90350481D01*
X73837068Y-88337833D01*
X73803583Y-88276510D01*
X73808567Y-88206818D01*
X73823175Y-88179028D01*
X73888426Y-88085841D01*
X73943003Y-88042216D01*
X74012501Y-88035024D01*
X74074856Y-88066546D01*
X74091575Y-88085842D01*
X74221500Y-88271395D01*
X74221505Y-88271401D01*
X74388599Y-88438495D01*
X74485384Y-88506265D01*
X74582165Y-88574032D01*
X74582167Y-88574033D01*
X74582170Y-88574035D01*
X74796337Y-88673903D01*
X75024592Y-88735063D01*
X75212918Y-88751539D01*
X75259999Y-88755659D01*
X75260000Y-88755659D01*
X75260001Y-88755659D01*
X75299234Y-88752226D01*
X75495408Y-88735063D01*
X75723663Y-88673903D01*
X75937830Y-88574035D01*
X76131401Y-88438495D01*
X76298495Y-88271401D01*
X76428426Y-88085841D01*
X76483002Y-88042217D01*
X76552500Y-88035023D01*
X76614855Y-88066546D01*
X76631575Y-88085842D01*
X76761500Y-88271395D01*
X76761505Y-88271401D01*
X76928599Y-88438495D01*
X77025384Y-88506265D01*
X77122165Y-88574032D01*
X77122167Y-88574033D01*
X77122170Y-88574035D01*
X77336337Y-88673903D01*
X77564592Y-88735063D01*
X77752918Y-88751539D01*
X77799999Y-88755659D01*
X77800000Y-88755659D01*
X77800001Y-88755659D01*
X77839234Y-88752226D01*
X78035408Y-88735063D01*
X78263663Y-88673903D01*
X78477830Y-88574035D01*
X78671401Y-88438495D01*
X78838495Y-88271401D01*
X78974035Y-88077830D01*
X78982707Y-88059233D01*
X79028879Y-88006793D01*
X79062990Y-87991863D01*
X79183485Y-87959577D01*
X79233604Y-87930639D01*
X79320416Y-87880520D01*
X79432220Y-87768716D01*
X79432220Y-87768714D01*
X79442428Y-87758507D01*
X79442429Y-87758504D01*
X83214116Y-83986819D01*
X83275439Y-83953334D01*
X83301797Y-83950500D01*
X84617588Y-83950500D01*
X84684627Y-83970185D01*
X84694903Y-83977555D01*
X84697736Y-83979814D01*
X84697738Y-83979816D01*
X84850478Y-84075789D01*
X84864922Y-84080843D01*
X85020745Y-84135368D01*
X85020750Y-84135369D01*
X85199996Y-84155565D01*
X85200000Y-84155565D01*
X85200004Y-84155565D01*
X85379249Y-84135369D01*
X85379252Y-84135368D01*
X85379255Y-84135368D01*
X85549522Y-84075789D01*
X85702262Y-83979816D01*
X85829816Y-83852262D01*
X85925789Y-83699522D01*
X85985368Y-83529255D01*
X86005565Y-83350000D01*
X85993340Y-83241500D01*
X85985369Y-83170750D01*
X85985368Y-83170745D01*
X85925788Y-83000475D01*
X85919503Y-82990473D01*
X85900502Y-82923236D01*
X85920869Y-82856401D01*
X85974137Y-82811186D01*
X86024496Y-82800500D01*
X89114900Y-82800500D01*
X89181939Y-82820185D01*
G37*
%TD.AperFunction*%
%TA.AperFunction,Conductor*%
G36*
X90853633Y-82353451D02*
G01*
X90861072Y-82360307D01*
X92707139Y-84206374D01*
X92707149Y-84206385D01*
X92711479Y-84210715D01*
X92711480Y-84210716D01*
X92823284Y-84322520D01*
X92909605Y-84372357D01*
X92909606Y-84372358D01*
X92960209Y-84401574D01*
X92960210Y-84401574D01*
X92960215Y-84401577D01*
X93112942Y-84442500D01*
X93112943Y-84442500D01*
X97930208Y-84442500D01*
X97997247Y-84462185D01*
X98017888Y-84478817D01*
X102020434Y-88481217D01*
X102053920Y-88542540D01*
X102048937Y-88612231D01*
X102007066Y-88668166D01*
X101941602Y-88692584D01*
X101932754Y-88692900D01*
X93246694Y-88692900D01*
X93180723Y-88673894D01*
X93170721Y-88667609D01*
X93067213Y-88631390D01*
X93020487Y-88602030D01*
X90676219Y-86257762D01*
X90642734Y-86196439D01*
X90639900Y-86170081D01*
X90639900Y-82463093D01*
X90658906Y-82397122D01*
X90668397Y-82382017D01*
X90720731Y-82335725D01*
X90789785Y-82325076D01*
X90853633Y-82353451D01*
G37*
%TD.AperFunction*%
%TA.AperFunction,Conductor*%
G36*
X65612539Y-87169685D02*
G01*
X65658294Y-87222489D01*
X65669500Y-87274000D01*
X65669500Y-87526000D01*
X65649815Y-87593039D01*
X65597011Y-87638794D01*
X65545500Y-87650000D01*
X65533012Y-87650000D01*
X65565925Y-87592993D01*
X65600000Y-87465826D01*
X65600000Y-87334174D01*
X65565925Y-87207007D01*
X65533012Y-87150000D01*
X65545500Y-87150000D01*
X65612539Y-87169685D01*
G37*
%TD.AperFunction*%
%TA.AperFunction,Conductor*%
G36*
X67174075Y-87207007D02*
G01*
X67140000Y-87334174D01*
X67140000Y-87465826D01*
X67174075Y-87592993D01*
X67206988Y-87650000D01*
X67194500Y-87650000D01*
X67127461Y-87630315D01*
X67081706Y-87577511D01*
X67070500Y-87526000D01*
X67070500Y-87274000D01*
X67090185Y-87206961D01*
X67142989Y-87161206D01*
X67194500Y-87150000D01*
X67206988Y-87150000D01*
X67174075Y-87207007D01*
G37*
%TD.AperFunction*%
%TA.AperFunction,Conductor*%
G36*
X107335832Y-75687731D02*
G01*
X107391766Y-75729601D01*
X107416184Y-75795065D01*
X107416500Y-75803913D01*
X107416500Y-83993151D01*
X107396815Y-84060190D01*
X107380170Y-84080843D01*
X107233688Y-84227289D01*
X107172361Y-84260766D01*
X107113925Y-84259372D01*
X106985413Y-84224938D01*
X106985403Y-84224936D01*
X106750001Y-84204341D01*
X106749999Y-84204341D01*
X106514596Y-84224936D01*
X106514586Y-84224938D01*
X106286344Y-84286094D01*
X106286335Y-84286098D01*
X106072171Y-84385964D01*
X106072169Y-84385965D01*
X105878597Y-84521505D01*
X105711505Y-84688597D01*
X105581269Y-84874595D01*
X105526692Y-84918220D01*
X105457194Y-84925414D01*
X105394839Y-84893891D01*
X105378119Y-84874595D01*
X105324925Y-84798626D01*
X105324925Y-84798625D01*
X104692962Y-85430589D01*
X104675925Y-85367007D01*
X104610099Y-85252993D01*
X104517007Y-85159901D01*
X104402993Y-85094075D01*
X104339410Y-85077037D01*
X104971373Y-84445073D01*
X104971373Y-84445072D01*
X104887583Y-84386402D01*
X104887579Y-84386400D01*
X104673492Y-84286570D01*
X104673483Y-84286566D01*
X104445326Y-84225432D01*
X104445315Y-84225430D01*
X104210002Y-84204843D01*
X104209998Y-84204843D01*
X103974684Y-84225430D01*
X103974673Y-84225432D01*
X103746516Y-84286566D01*
X103746507Y-84286570D01*
X103532419Y-84386401D01*
X103448625Y-84445072D01*
X104080590Y-85077037D01*
X104017007Y-85094075D01*
X103902993Y-85159901D01*
X103809901Y-85252993D01*
X103744075Y-85367007D01*
X103727037Y-85430590D01*
X103095072Y-84798625D01*
X103036401Y-84882419D01*
X102936570Y-85096507D01*
X102936566Y-85096516D01*
X102875432Y-85324673D01*
X102875430Y-85324684D01*
X102854843Y-85559998D01*
X102854843Y-85560001D01*
X102875430Y-85795315D01*
X102875432Y-85795326D01*
X102936566Y-86023483D01*
X102936570Y-86023492D01*
X103036400Y-86237579D01*
X103036402Y-86237583D01*
X103095072Y-86321373D01*
X103095073Y-86321373D01*
X103727037Y-85689409D01*
X103744075Y-85752993D01*
X103809901Y-85867007D01*
X103902993Y-85960099D01*
X104017007Y-86025925D01*
X104080590Y-86042962D01*
X103448625Y-86674925D01*
X103524594Y-86728119D01*
X103568219Y-86782696D01*
X103575413Y-86852194D01*
X103543890Y-86914549D01*
X103524595Y-86931269D01*
X103338594Y-87061508D01*
X103171505Y-87228597D01*
X103035965Y-87422169D01*
X103035964Y-87422171D01*
X102991198Y-87518172D01*
X102945025Y-87570611D01*
X102877831Y-87589763D01*
X102810950Y-87569547D01*
X102791136Y-87553450D01*
X99167118Y-83929564D01*
X99133632Y-83868241D01*
X99138615Y-83798550D01*
X99167113Y-83754204D01*
X107204817Y-75716232D01*
X107266140Y-75682747D01*
X107335832Y-75687731D01*
G37*
%TD.AperFunction*%
%TA.AperFunction,Conductor*%
G36*
X76614855Y-67746546D02*
G01*
X76631575Y-67765842D01*
X76761500Y-67951395D01*
X76761505Y-67951401D01*
X76928599Y-68118495D01*
X76968947Y-68146747D01*
X77122165Y-68254032D01*
X77122167Y-68254033D01*
X77122170Y-68254035D01*
X77127898Y-68256706D01*
X77180339Y-68302872D01*
X77199500Y-68369090D01*
X77199500Y-72613330D01*
X77199499Y-72613348D01*
X77199499Y-72779054D01*
X77199498Y-72779054D01*
X77199499Y-72779057D01*
X77240423Y-72931785D01*
X77247977Y-72944869D01*
X77247978Y-72944872D01*
X77247979Y-72944872D01*
X77319477Y-73068712D01*
X77319481Y-73068717D01*
X77438349Y-73187585D01*
X77438355Y-73187590D01*
X85438584Y-81187819D01*
X85472069Y-81249142D01*
X85467085Y-81318834D01*
X85425213Y-81374767D01*
X85359749Y-81399184D01*
X85350903Y-81399500D01*
X85225124Y-81399500D01*
X85158085Y-81379815D01*
X85120130Y-81341472D01*
X85029815Y-81197737D01*
X84902262Y-81070184D01*
X84749523Y-80974211D01*
X84579254Y-80914631D01*
X84579249Y-80914630D01*
X84400004Y-80894435D01*
X84399996Y-80894435D01*
X84220750Y-80914630D01*
X84220745Y-80914631D01*
X84050476Y-80974211D01*
X83897737Y-81070184D01*
X83770184Y-81197737D01*
X83674211Y-81350476D01*
X83614631Y-81520745D01*
X83614630Y-81520750D01*
X83594435Y-81699996D01*
X83594435Y-81700003D01*
X83614630Y-81879249D01*
X83614631Y-81879254D01*
X83674211Y-82049523D01*
X83770184Y-82202262D01*
X83897738Y-82329816D01*
X83988940Y-82387122D01*
X84050478Y-82425789D01*
X84153983Y-82462007D01*
X84200709Y-82491367D01*
X84247161Y-82537818D01*
X84280647Y-82599141D01*
X84275663Y-82668832D01*
X84233792Y-82724766D01*
X84168328Y-82749184D01*
X84159481Y-82749500D01*
X83088369Y-82749500D01*
X83088353Y-82749499D01*
X83080757Y-82749499D01*
X82922643Y-82749499D01*
X82815287Y-82778265D01*
X82769910Y-82790424D01*
X82769909Y-82790425D01*
X82734766Y-82810716D01*
X82734764Y-82810717D01*
X82632990Y-82869475D01*
X82632982Y-82869481D01*
X82521178Y-82981286D01*
X78993861Y-86508602D01*
X78932538Y-86542087D01*
X78862846Y-86537103D01*
X78818499Y-86508603D01*
X78752502Y-86442606D01*
X78671401Y-86361505D01*
X78671397Y-86361502D01*
X78671396Y-86361501D01*
X78477834Y-86225967D01*
X78477830Y-86225965D01*
X78414511Y-86196439D01*
X78263663Y-86126097D01*
X78263659Y-86126096D01*
X78263655Y-86126094D01*
X78035413Y-86064938D01*
X78035403Y-86064936D01*
X77800001Y-86044341D01*
X77799999Y-86044341D01*
X77564596Y-86064936D01*
X77564586Y-86064938D01*
X77336344Y-86126094D01*
X77336335Y-86126098D01*
X77122171Y-86225964D01*
X77122169Y-86225965D01*
X76928597Y-86361505D01*
X76761505Y-86528597D01*
X76631575Y-86714158D01*
X76576998Y-86757783D01*
X76507500Y-86764977D01*
X76445145Y-86733454D01*
X76428425Y-86714158D01*
X76298494Y-86528597D01*
X76131402Y-86361506D01*
X76131395Y-86361501D01*
X76106862Y-86344323D01*
X76048423Y-86303403D01*
X75937834Y-86225967D01*
X75937830Y-86225965D01*
X75874511Y-86196439D01*
X75723663Y-86126097D01*
X75723659Y-86126096D01*
X75723655Y-86126094D01*
X75495413Y-86064938D01*
X75495403Y-86064936D01*
X75260001Y-86044341D01*
X75259999Y-86044341D01*
X75024596Y-86064936D01*
X75024586Y-86064938D01*
X74796344Y-86126094D01*
X74796335Y-86126098D01*
X74582171Y-86225964D01*
X74582169Y-86225965D01*
X74388597Y-86361505D01*
X74221505Y-86528597D01*
X74091575Y-86714158D01*
X74036998Y-86757783D01*
X73967500Y-86764977D01*
X73905145Y-86733454D01*
X73888425Y-86714158D01*
X73758494Y-86528597D01*
X73591402Y-86361506D01*
X73591395Y-86361501D01*
X73566862Y-86344323D01*
X73508423Y-86303403D01*
X73397834Y-86225967D01*
X73397830Y-86225965D01*
X73334511Y-86196439D01*
X73183663Y-86126097D01*
X73183659Y-86126096D01*
X73183655Y-86126094D01*
X72955413Y-86064938D01*
X72955403Y-86064936D01*
X72720001Y-86044341D01*
X72719999Y-86044341D01*
X72484596Y-86064936D01*
X72484586Y-86064938D01*
X72256344Y-86126094D01*
X72256335Y-86126098D01*
X72042171Y-86225964D01*
X72042169Y-86225965D01*
X71848597Y-86361505D01*
X71681508Y-86528594D01*
X71551574Y-86714160D01*
X71496997Y-86757784D01*
X71427498Y-86764977D01*
X71365144Y-86733455D01*
X71348429Y-86714164D01*
X71218495Y-86528599D01*
X71218493Y-86528596D01*
X71051402Y-86361506D01*
X71051395Y-86361501D01*
X71026862Y-86344323D01*
X70968423Y-86303403D01*
X70857834Y-86225967D01*
X70857830Y-86225965D01*
X70794511Y-86196439D01*
X70643663Y-86126097D01*
X70643659Y-86126096D01*
X70643655Y-86126094D01*
X70415413Y-86064938D01*
X70415403Y-86064936D01*
X70180001Y-86044341D01*
X70179999Y-86044341D01*
X69944596Y-86064936D01*
X69944586Y-86064938D01*
X69716344Y-86126094D01*
X69716335Y-86126098D01*
X69502171Y-86225964D01*
X69502169Y-86225965D01*
X69308597Y-86361505D01*
X69141508Y-86528594D01*
X69011269Y-86714595D01*
X68956692Y-86758219D01*
X68887193Y-86765412D01*
X68824839Y-86733890D01*
X68808119Y-86714594D01*
X68678113Y-86528926D01*
X68678108Y-86528920D01*
X68511082Y-86361894D01*
X68317578Y-86226399D01*
X68103492Y-86126570D01*
X68103486Y-86126567D01*
X67890000Y-86069364D01*
X67890000Y-86966988D01*
X67832993Y-86934075D01*
X67705826Y-86900000D01*
X67574174Y-86900000D01*
X67447007Y-86934075D01*
X67390000Y-86966988D01*
X67390000Y-86069364D01*
X67389999Y-86069363D01*
X67226593Y-86113148D01*
X67156743Y-86111485D01*
X67098881Y-86072322D01*
X67071377Y-86008094D01*
X67070500Y-85993373D01*
X67070500Y-73490718D01*
X67090185Y-73423679D01*
X67106814Y-73403042D01*
X70851690Y-69658165D01*
X70898413Y-69628807D01*
X71001922Y-69592589D01*
X71154662Y-69496616D01*
X71282216Y-69369062D01*
X71378189Y-69216322D01*
X71437768Y-69046055D01*
X71445296Y-68979245D01*
X71457965Y-68866803D01*
X71457965Y-68866796D01*
X71437769Y-68687550D01*
X71437768Y-68687545D01*
X71423755Y-68647497D01*
X71378189Y-68517278D01*
X71372369Y-68508016D01*
X71287615Y-68373131D01*
X71282216Y-68364538D01*
X71154662Y-68236984D01*
X71154661Y-68236983D01*
X71150133Y-68234138D01*
X71103844Y-68181801D01*
X71093199Y-68112747D01*
X71121577Y-68048900D01*
X71128405Y-68041490D01*
X71218495Y-67951401D01*
X71348425Y-67765842D01*
X71403002Y-67722217D01*
X71472500Y-67715023D01*
X71534855Y-67746546D01*
X71551575Y-67765842D01*
X71681500Y-67951395D01*
X71681505Y-67951401D01*
X71848599Y-68118495D01*
X71888947Y-68146747D01*
X72042165Y-68254032D01*
X72042167Y-68254033D01*
X72042170Y-68254035D01*
X72256337Y-68353903D01*
X72256343Y-68353904D01*
X72256344Y-68353905D01*
X72290351Y-68363017D01*
X72484592Y-68415063D01*
X72672918Y-68431539D01*
X72719999Y-68435659D01*
X72720000Y-68435659D01*
X72720001Y-68435659D01*
X72759234Y-68432226D01*
X72955408Y-68415063D01*
X73183663Y-68353903D01*
X73397830Y-68254035D01*
X73591401Y-68118495D01*
X73758495Y-67951401D01*
X73888425Y-67765842D01*
X73943002Y-67722217D01*
X74012500Y-67715023D01*
X74074855Y-67746546D01*
X74091575Y-67765842D01*
X74221500Y-67951395D01*
X74221505Y-67951401D01*
X74388599Y-68118495D01*
X74428947Y-68146747D01*
X74582165Y-68254032D01*
X74582167Y-68254033D01*
X74582170Y-68254035D01*
X74796337Y-68353903D01*
X74796343Y-68353904D01*
X74796344Y-68353905D01*
X74830351Y-68363017D01*
X75024592Y-68415063D01*
X75212918Y-68431539D01*
X75259999Y-68435659D01*
X75260000Y-68435659D01*
X75260001Y-68435659D01*
X75299234Y-68432226D01*
X75495408Y-68415063D01*
X75723663Y-68353903D01*
X75937830Y-68254035D01*
X76131401Y-68118495D01*
X76298495Y-67951401D01*
X76428425Y-67765842D01*
X76483002Y-67722217D01*
X76552500Y-67715023D01*
X76614855Y-67746546D01*
G37*
%TD.AperFunction*%
%TA.AperFunction,Conductor*%
G36*
X101187884Y-66527785D02*
G01*
X101208538Y-66544430D01*
X101223934Y-66559830D01*
X101257411Y-66621158D01*
X101252417Y-66690849D01*
X101210539Y-66746777D01*
X101145071Y-66771185D01*
X101136241Y-66771500D01*
X91461552Y-66771500D01*
X91382489Y-66771492D01*
X91382447Y-66771498D01*
X91317317Y-66788949D01*
X91307242Y-66791649D01*
X91229737Y-66812410D01*
X91161473Y-66851821D01*
X91161467Y-66851825D01*
X91092804Y-66891460D01*
X91035553Y-66948710D01*
X91035546Y-66948716D01*
X90873235Y-67110997D01*
X90811909Y-67144477D01*
X90799446Y-67146528D01*
X90712450Y-67156330D01*
X90542178Y-67215910D01*
X90389437Y-67311884D01*
X90261884Y-67439437D01*
X90165911Y-67592176D01*
X90106331Y-67762445D01*
X90106330Y-67762450D01*
X90086135Y-67941696D01*
X90086135Y-67941703D01*
X90106330Y-68120949D01*
X90106331Y-68120954D01*
X90165911Y-68291223D01*
X90256667Y-68435659D01*
X90261884Y-68443962D01*
X90389438Y-68571516D01*
X90467844Y-68620782D01*
X90524270Y-68656237D01*
X90542178Y-68667489D01*
X90712445Y-68727068D01*
X90712450Y-68727069D01*
X90891696Y-68747265D01*
X90891700Y-68747265D01*
X90891704Y-68747265D01*
X91070949Y-68727069D01*
X91070952Y-68727068D01*
X91070955Y-68727068D01*
X91241222Y-68667489D01*
X91393962Y-68571516D01*
X91521516Y-68443962D01*
X91617489Y-68291222D01*
X91677068Y-68120955D01*
X91677345Y-68118498D01*
X91681388Y-68082617D01*
X91708454Y-68018203D01*
X91766048Y-67978648D01*
X91804608Y-67972500D01*
X100478903Y-67972500D01*
X100545942Y-67992185D01*
X100591697Y-68044989D01*
X100601641Y-68114147D01*
X100572616Y-68177703D01*
X100566584Y-68184180D01*
X97849775Y-70900989D01*
X95214286Y-73536478D01*
X95102481Y-73648282D01*
X95102479Y-73648285D01*
X95083418Y-73681300D01*
X95064356Y-73714317D01*
X95023423Y-73785215D01*
X94982499Y-73937943D01*
X94982499Y-73937945D01*
X94982499Y-74106046D01*
X94982500Y-74106059D01*
X94982500Y-74843887D01*
X94962815Y-74910926D01*
X94955450Y-74921196D01*
X94953186Y-74924034D01*
X94857211Y-75076776D01*
X94797631Y-75247045D01*
X94797630Y-75247050D01*
X94777435Y-75426296D01*
X94777435Y-75426303D01*
X94797630Y-75605549D01*
X94797631Y-75605554D01*
X94857211Y-75775823D01*
X94950275Y-75923932D01*
X94953184Y-75928562D01*
X95080738Y-76056116D01*
X95171080Y-76112882D01*
X95226933Y-76147977D01*
X95233478Y-76152089D01*
X95403745Y-76211668D01*
X95403750Y-76211669D01*
X95582996Y-76231865D01*
X95583000Y-76231865D01*
X95583004Y-76231865D01*
X95762249Y-76211669D01*
X95762252Y-76211668D01*
X95762255Y-76211668D01*
X95932522Y-76152089D01*
X96085262Y-76056116D01*
X96212816Y-75928562D01*
X96308789Y-75775822D01*
X96368368Y-75605555D01*
X96368369Y-75605549D01*
X96388565Y-75426303D01*
X96388565Y-75426296D01*
X96368369Y-75247050D01*
X96368368Y-75247045D01*
X96308788Y-75076776D01*
X96240692Y-74968402D01*
X96212816Y-74924038D01*
X96212814Y-74924036D01*
X96212813Y-74924034D01*
X96210550Y-74921196D01*
X96209659Y-74919015D01*
X96209111Y-74918142D01*
X96209264Y-74918045D01*
X96184144Y-74856509D01*
X96183500Y-74843887D01*
X96183500Y-74317096D01*
X96203185Y-74250057D01*
X96219814Y-74229420D01*
X97549012Y-72900221D01*
X97610333Y-72866738D01*
X97680025Y-72871722D01*
X97702663Y-72882911D01*
X97850473Y-72975787D01*
X97850477Y-72975788D01*
X97850478Y-72975789D01*
X98020745Y-73035368D01*
X98020750Y-73035369D01*
X98199997Y-73055565D01*
X98200000Y-73055565D01*
X98200001Y-73055565D01*
X98226898Y-73052534D01*
X98310278Y-73043139D01*
X98379099Y-73055193D01*
X98411842Y-73078677D01*
X98951484Y-73618320D01*
X98958572Y-73622412D01*
X99006786Y-73672977D01*
X99020010Y-73741584D01*
X98994042Y-73806449D01*
X98984255Y-73817477D01*
X96877931Y-75923932D01*
X96877930Y-75923933D01*
X96812873Y-75988991D01*
X96776985Y-76051155D01*
X96776985Y-76051156D01*
X96733818Y-76125923D01*
X96715938Y-76192663D01*
X96715937Y-76192666D01*
X96692897Y-76278654D01*
X96692900Y-76359331D01*
X96692900Y-77465300D01*
X96673215Y-77532339D01*
X96620411Y-77578094D01*
X96568900Y-77589300D01*
X91276940Y-77589300D01*
X91209901Y-77569615D01*
X91171947Y-77531273D01*
X91134916Y-77472338D01*
X91007362Y-77344784D01*
X90854623Y-77248811D01*
X90684354Y-77189231D01*
X90684349Y-77189230D01*
X90505104Y-77169035D01*
X90505096Y-77169035D01*
X90325850Y-77189230D01*
X90325845Y-77189231D01*
X90155576Y-77248811D01*
X90002837Y-77344784D01*
X89875284Y-77472337D01*
X89779311Y-77625076D01*
X89719731Y-77795345D01*
X89719730Y-77795350D01*
X89699535Y-77974596D01*
X89699535Y-77974603D01*
X89719730Y-78153849D01*
X89719731Y-78153854D01*
X89779311Y-78324123D01*
X89807544Y-78369055D01*
X89875284Y-78476862D01*
X90002838Y-78604416D01*
X90093180Y-78661182D01*
X90142325Y-78692062D01*
X90155578Y-78700389D01*
X90325845Y-78759968D01*
X90325850Y-78759969D01*
X90505097Y-78780165D01*
X90505100Y-78780165D01*
X90550997Y-78774993D01*
X90596975Y-78778438D01*
X90641243Y-78790301D01*
X90641244Y-78790301D01*
X90806954Y-78790301D01*
X90806970Y-78790300D01*
X96710988Y-78790300D01*
X96778027Y-78809985D01*
X96788303Y-78817355D01*
X96791136Y-78819614D01*
X96791138Y-78819616D01*
X96943878Y-78915589D01*
X97114145Y-78975168D01*
X97114150Y-78975169D01*
X97293396Y-78995365D01*
X97293400Y-78995365D01*
X97293404Y-78995365D01*
X97472649Y-78975169D01*
X97472652Y-78975168D01*
X97472655Y-78975168D01*
X97642922Y-78915589D01*
X97795662Y-78819616D01*
X97923216Y-78692062D01*
X98019189Y-78539322D01*
X98078768Y-78369055D01*
X98098965Y-78189800D01*
X98094914Y-78153849D01*
X98078769Y-78010550D01*
X98078768Y-78010545D01*
X98019188Y-77840276D01*
X97923213Y-77687534D01*
X97920950Y-77684696D01*
X97920059Y-77682515D01*
X97919511Y-77681642D01*
X97919664Y-77681545D01*
X97894544Y-77620009D01*
X97893900Y-77607387D01*
X97893900Y-76657784D01*
X97913585Y-76590745D01*
X97930212Y-76570108D01*
X103105211Y-71394792D01*
X103166530Y-71361308D01*
X103236222Y-71366290D01*
X103292157Y-71408160D01*
X103312666Y-71450378D01*
X103320420Y-71479316D01*
X103320423Y-71479325D01*
X103320425Y-71479330D01*
X103366661Y-71578484D01*
X103412897Y-71677638D01*
X103432266Y-71705300D01*
X103538402Y-71856877D01*
X103693123Y-72011598D01*
X103872361Y-72137102D01*
X104070670Y-72229575D01*
X104282023Y-72286207D01*
X104464926Y-72302208D01*
X104499998Y-72305277D01*
X104500000Y-72305277D01*
X104500002Y-72305277D01*
X104528254Y-72302805D01*
X104717977Y-72286207D01*
X104929330Y-72229575D01*
X105127639Y-72137102D01*
X105306877Y-72011598D01*
X105461598Y-71856877D01*
X105587102Y-71677639D01*
X105679575Y-71479330D01*
X105736207Y-71267977D01*
X105755277Y-71050000D01*
X105743073Y-70910506D01*
X105756840Y-70842007D01*
X105805455Y-70791824D01*
X105866601Y-70775700D01*
X106211588Y-70775700D01*
X106278627Y-70795385D01*
X106288903Y-70802755D01*
X106291736Y-70805014D01*
X106291738Y-70805016D01*
X106444478Y-70900989D01*
X106560456Y-70941571D01*
X106617230Y-70982291D01*
X106642978Y-71047244D01*
X106643500Y-71058612D01*
X106643500Y-73448775D01*
X106623815Y-73515814D01*
X106585473Y-73553768D01*
X106441739Y-73644082D01*
X106314184Y-73771637D01*
X106218210Y-73924378D01*
X106158630Y-74094650D01*
X106148834Y-74181595D01*
X106121767Y-74246009D01*
X106113298Y-74255390D01*
X105435416Y-74933313D01*
X105374094Y-74966799D01*
X105304402Y-74961817D01*
X105276611Y-74947209D01*
X105164329Y-74868588D01*
X105127645Y-74842902D01*
X105127639Y-74842898D01*
X104929330Y-74750425D01*
X104929326Y-74750424D01*
X104929322Y-74750422D01*
X104717977Y-74693793D01*
X104500002Y-74674723D01*
X104499998Y-74674723D01*
X104354682Y-74687436D01*
X104282023Y-74693793D01*
X104282020Y-74693793D01*
X104070677Y-74750422D01*
X104070668Y-74750426D01*
X103872361Y-74842898D01*
X103872357Y-74842900D01*
X103693121Y-74968402D01*
X103538402Y-75123121D01*
X103412900Y-75302357D01*
X103412898Y-75302361D01*
X103320426Y-75500668D01*
X103320422Y-75500677D01*
X103263793Y-75712020D01*
X103263793Y-75712024D01*
X103245254Y-75923934D01*
X103244723Y-75930000D01*
X103261864Y-76125933D01*
X103263793Y-76147975D01*
X103263793Y-76147979D01*
X103320422Y-76359322D01*
X103320424Y-76359326D01*
X103320425Y-76359330D01*
X103366661Y-76458484D01*
X103412897Y-76557638D01*
X103412898Y-76557639D01*
X103538402Y-76736877D01*
X103693123Y-76891598D01*
X103872361Y-77017102D01*
X103939096Y-77048221D01*
X103991536Y-77094393D01*
X104010688Y-77161586D01*
X103990472Y-77228468D01*
X103974375Y-77248283D01*
X100328345Y-80894435D01*
X98298349Y-82924500D01*
X98017678Y-83205180D01*
X97956355Y-83238666D01*
X97929995Y-83241500D01*
X93492097Y-83241500D01*
X93425058Y-83221815D01*
X93404416Y-83205181D01*
X90887590Y-80688355D01*
X90887588Y-80688352D01*
X90768717Y-80569481D01*
X90768716Y-80569480D01*
X90681904Y-80519360D01*
X90681904Y-80519359D01*
X90681900Y-80519358D01*
X90631785Y-80490423D01*
X90479057Y-80449499D01*
X90320943Y-80449499D01*
X90313347Y-80449499D01*
X90313331Y-80449500D01*
X86450097Y-80449500D01*
X86383058Y-80429815D01*
X86362416Y-80413181D01*
X78436819Y-72487584D01*
X78403334Y-72426261D01*
X78400500Y-72399903D01*
X78400500Y-68369090D01*
X78420185Y-68302051D01*
X78472101Y-68256706D01*
X78477830Y-68254035D01*
X78671401Y-68118495D01*
X78838495Y-67951401D01*
X78974035Y-67757830D01*
X79073903Y-67543663D01*
X79135063Y-67315408D01*
X79155659Y-67080000D01*
X79135063Y-66844592D01*
X79086726Y-66664193D01*
X79088389Y-66594343D01*
X79127552Y-66536481D01*
X79191780Y-66508977D01*
X79206501Y-66508100D01*
X101120845Y-66508100D01*
X101187884Y-66527785D01*
G37*
%TD.AperFunction*%
%TA.AperFunction,Conductor*%
G36*
X79603608Y-30520185D02*
G01*
X79649363Y-30572989D01*
X79659307Y-30642147D01*
X79630282Y-30705703D01*
X79609081Y-30724584D01*
X79609151Y-30724672D01*
X79607545Y-30725952D01*
X79606422Y-30726953D01*
X79605522Y-30727566D01*
X79413198Y-30906014D01*
X79249614Y-31111143D01*
X79118432Y-31338356D01*
X79022582Y-31582578D01*
X79022576Y-31582597D01*
X78964197Y-31838374D01*
X78964196Y-31838379D01*
X78944592Y-32099995D01*
X78944592Y-32100004D01*
X78964196Y-32361620D01*
X78964197Y-32361625D01*
X79022576Y-32617402D01*
X79022578Y-32617411D01*
X79022580Y-32617416D01*
X79118432Y-32861643D01*
X79249614Y-33088857D01*
X79381736Y-33254533D01*
X79413198Y-33293985D01*
X79488016Y-33363405D01*
X79605521Y-33472433D01*
X79822296Y-33620228D01*
X79822301Y-33620230D01*
X79822302Y-33620231D01*
X79822303Y-33620232D01*
X79947843Y-33680688D01*
X80058673Y-33734061D01*
X80058674Y-33734061D01*
X80058677Y-33734063D01*
X80309385Y-33811396D01*
X80568818Y-33850500D01*
X80831182Y-33850500D01*
X81090615Y-33811396D01*
X81341323Y-33734063D01*
X81577704Y-33620228D01*
X81794479Y-33472433D01*
X81986805Y-33293981D01*
X82150386Y-33088857D01*
X82281568Y-32861643D01*
X82377420Y-32617416D01*
X82435802Y-32361630D01*
X82436514Y-32352127D01*
X82455408Y-32100004D01*
X82455408Y-32099995D01*
X82435803Y-31838379D01*
X82435802Y-31838374D01*
X82435802Y-31838370D01*
X82377420Y-31582584D01*
X82281568Y-31338357D01*
X82150386Y-31111143D01*
X81986805Y-30906019D01*
X81986804Y-30906018D01*
X81986801Y-30906014D01*
X81871228Y-30798779D01*
X81794479Y-30727567D01*
X81793577Y-30726952D01*
X81793330Y-30726650D01*
X81790849Y-30724672D01*
X81791272Y-30724141D01*
X81749277Y-30672923D01*
X81741219Y-30603520D01*
X81771962Y-30540777D01*
X81831747Y-30504616D01*
X81863431Y-30500500D01*
X91371003Y-30500500D01*
X91438042Y-30520185D01*
X91483797Y-30572989D01*
X91493741Y-30642147D01*
X91464716Y-30705703D01*
X91458684Y-30712181D01*
X91434270Y-30736594D01*
X91434254Y-30736612D01*
X91262775Y-30965682D01*
X91262770Y-30965690D01*
X91143058Y-31184927D01*
X91093653Y-31234332D01*
X91034226Y-31249500D01*
X89042454Y-31249500D01*
X88887809Y-31280261D01*
X88887797Y-31280264D01*
X88845132Y-31297936D01*
X88845133Y-31297937D01*
X88742123Y-31340604D01*
X88742114Y-31340609D01*
X88611012Y-31428209D01*
X88611010Y-31428212D01*
X76679441Y-43359781D01*
X76618118Y-43393266D01*
X76591760Y-43396100D01*
X68681240Y-43396100D01*
X68614201Y-43376415D01*
X68593559Y-43359781D01*
X68011992Y-42778213D01*
X68011988Y-42778210D01*
X67880885Y-42690609D01*
X67880872Y-42690602D01*
X67735201Y-42630264D01*
X67735189Y-42630261D01*
X67580545Y-42599500D01*
X67580542Y-42599500D01*
X67236304Y-42599500D01*
X67169265Y-42579815D01*
X67135986Y-42548386D01*
X67109972Y-42512581D01*
X67044517Y-42422490D01*
X66877510Y-42255483D01*
X66686433Y-42116657D01*
X66475996Y-42009433D01*
X66251368Y-41936446D01*
X66018097Y-41899500D01*
X66018092Y-41899500D01*
X64781908Y-41899500D01*
X64781903Y-41899500D01*
X64548631Y-41936446D01*
X64324003Y-42009433D01*
X64113566Y-42116657D01*
X64091696Y-42132547D01*
X63922490Y-42255483D01*
X63922488Y-42255485D01*
X63922487Y-42255485D01*
X63755485Y-42422487D01*
X63755485Y-42422488D01*
X63755483Y-42422490D01*
X63717762Y-42474408D01*
X63616657Y-42613566D01*
X63509433Y-42824003D01*
X63436446Y-43048631D01*
X63399500Y-43281902D01*
X63399500Y-43518097D01*
X63436446Y-43751368D01*
X63509433Y-43975996D01*
X63607582Y-44168623D01*
X63616657Y-44186433D01*
X63755483Y-44377510D01*
X63922490Y-44544517D01*
X64113567Y-44683343D01*
X64212991Y-44734002D01*
X64324003Y-44790566D01*
X64324005Y-44790566D01*
X64324008Y-44790568D01*
X64409623Y-44818386D01*
X64548631Y-44863553D01*
X64781903Y-44900500D01*
X64781908Y-44900500D01*
X66018097Y-44900500D01*
X66251368Y-44863553D01*
X66257246Y-44861643D01*
X66475992Y-44790568D01*
X66686433Y-44683343D01*
X66877510Y-44544517D01*
X67044517Y-44377510D01*
X67086521Y-44319696D01*
X67141851Y-44277029D01*
X67211464Y-44271049D01*
X67273259Y-44303655D01*
X67274521Y-44304899D01*
X67461481Y-44491859D01*
X67494966Y-44553182D01*
X67497800Y-44579540D01*
X67497800Y-45978846D01*
X67528561Y-46133489D01*
X67528564Y-46133501D01*
X67588902Y-46279172D01*
X67588909Y-46279185D01*
X67676510Y-46410288D01*
X67676513Y-46410292D01*
X67788007Y-46521786D01*
X67788011Y-46521789D01*
X67919114Y-46609390D01*
X67919127Y-46609397D01*
X67978081Y-46633816D01*
X68064803Y-46669737D01*
X68219453Y-46700499D01*
X68219456Y-46700500D01*
X68219458Y-46700500D01*
X68563696Y-46700500D01*
X68630735Y-46720185D01*
X68664013Y-46751613D01*
X68755483Y-46877510D01*
X68922490Y-47044517D01*
X69113567Y-47183343D01*
X69212991Y-47234002D01*
X69324003Y-47290566D01*
X69324005Y-47290566D01*
X69324008Y-47290568D01*
X69386199Y-47310775D01*
X69548631Y-47363553D01*
X69781903Y-47400500D01*
X69781908Y-47400500D01*
X71018097Y-47400500D01*
X71251368Y-47363553D01*
X71475992Y-47290568D01*
X71686433Y-47183343D01*
X71877510Y-47044517D01*
X72044517Y-46877510D01*
X72183343Y-46686433D01*
X72290568Y-46475992D01*
X72363553Y-46251368D01*
X72374341Y-46183255D01*
X72400500Y-46018097D01*
X72400500Y-45781902D01*
X72363553Y-45548631D01*
X72301565Y-45357853D01*
X72290568Y-45324008D01*
X72290566Y-45324005D01*
X72290566Y-45324003D01*
X72215865Y-45177395D01*
X72202969Y-45108726D01*
X72229245Y-45043985D01*
X72286352Y-45003728D01*
X72326350Y-44997100D01*
X76158275Y-44997100D01*
X76225314Y-45016785D01*
X76271069Y-45069589D01*
X76281013Y-45138747D01*
X76251988Y-45202303D01*
X76205725Y-45235661D01*
X76171168Y-45249975D01*
X76160231Y-45254505D01*
X76153740Y-45256982D01*
X76093077Y-45278210D01*
X76093074Y-45278212D01*
X76082727Y-45284713D01*
X76064239Y-45294266D01*
X76063432Y-45294600D01*
X76063424Y-45294604D01*
X76008647Y-45331204D01*
X76005732Y-45333092D01*
X75940342Y-45374180D01*
X75940335Y-45374186D01*
X75812786Y-45501735D01*
X75812780Y-45501742D01*
X75771692Y-45567132D01*
X75769804Y-45570047D01*
X75733204Y-45624824D01*
X75733200Y-45624832D01*
X75732866Y-45625639D01*
X75723313Y-45644127D01*
X75716812Y-45654474D01*
X75716810Y-45654477D01*
X75695582Y-45715140D01*
X75693104Y-45721631D01*
X75672864Y-45770496D01*
X75672863Y-45770502D01*
X75670150Y-45784140D01*
X75665575Y-45800898D01*
X75657234Y-45824735D01*
X75657232Y-45824742D01*
X75651490Y-45875696D01*
X75649888Y-45885994D01*
X75642100Y-45925152D01*
X75642100Y-45952085D01*
X75641320Y-45965969D01*
X75637035Y-46003998D01*
X75637035Y-46004001D01*
X75641320Y-46042029D01*
X75642100Y-46055914D01*
X75642100Y-46082844D01*
X75649888Y-46122003D01*
X75651490Y-46132303D01*
X75657232Y-46183252D01*
X75657233Y-46183260D01*
X75665576Y-46207104D01*
X75670150Y-46223860D01*
X75672862Y-46237496D01*
X75678608Y-46251368D01*
X75690127Y-46279179D01*
X75693109Y-46286377D01*
X75695588Y-46292872D01*
X75716812Y-46353524D01*
X75723309Y-46363865D01*
X75732868Y-46382365D01*
X75733203Y-46383173D01*
X75733205Y-46383179D01*
X75769823Y-46437982D01*
X75771714Y-46440900D01*
X75812780Y-46506257D01*
X75812782Y-46506260D01*
X75812784Y-46506262D01*
X75940338Y-46633816D01*
X76005731Y-46674905D01*
X76008640Y-46676790D01*
X76063421Y-46713394D01*
X76064206Y-46713719D01*
X76082734Y-46723289D01*
X76093078Y-46729789D01*
X76153775Y-46751028D01*
X76160207Y-46753484D01*
X76188621Y-46765253D01*
X76209097Y-46773735D01*
X76209098Y-46773735D01*
X76209103Y-46773737D01*
X76222739Y-46776449D01*
X76239498Y-46781023D01*
X76263345Y-46789368D01*
X76314314Y-46795110D01*
X76324592Y-46796709D01*
X76351740Y-46802109D01*
X76363757Y-46804500D01*
X76363758Y-46804500D01*
X76390685Y-46804500D01*
X76404569Y-46805280D01*
X76442598Y-46809565D01*
X76442600Y-46809565D01*
X76442602Y-46809565D01*
X76480631Y-46805280D01*
X76494515Y-46804500D01*
X79677375Y-46804500D01*
X79744414Y-46824185D01*
X79790169Y-46876989D01*
X79800113Y-46946147D01*
X79771088Y-47009703D01*
X79747230Y-47030950D01*
X79674643Y-47080440D01*
X79605520Y-47127567D01*
X79413198Y-47306014D01*
X79249614Y-47511143D01*
X79118432Y-47738356D01*
X79022582Y-47982578D01*
X79022576Y-47982597D01*
X78964197Y-48238374D01*
X78964196Y-48238379D01*
X78944592Y-48499995D01*
X78944592Y-48500004D01*
X78964196Y-48761620D01*
X78964197Y-48761625D01*
X79022576Y-49017402D01*
X79022578Y-49017411D01*
X79022580Y-49017416D01*
X79118432Y-49261643D01*
X79249614Y-49488857D01*
X79369703Y-49639444D01*
X79413198Y-49693985D01*
X79517289Y-49790566D01*
X79605521Y-49872433D01*
X79822296Y-50020228D01*
X79822301Y-50020230D01*
X79822302Y-50020231D01*
X79822303Y-50020232D01*
X79934449Y-50074238D01*
X80058673Y-50134061D01*
X80058674Y-50134061D01*
X80058677Y-50134063D01*
X80309385Y-50211396D01*
X80568818Y-50250500D01*
X80831182Y-50250500D01*
X81090615Y-50211396D01*
X81341323Y-50134063D01*
X81577704Y-50020228D01*
X81794479Y-49872433D01*
X81986805Y-49693981D01*
X82150386Y-49488857D01*
X82281568Y-49261643D01*
X82377420Y-49017416D01*
X82435802Y-48761630D01*
X82437766Y-48735428D01*
X82455408Y-48500004D01*
X82455408Y-48499995D01*
X82435803Y-48238379D01*
X82435802Y-48238374D01*
X82435802Y-48238370D01*
X82377420Y-47982584D01*
X82359349Y-47936541D01*
X82353181Y-47866947D01*
X82385619Y-47805063D01*
X82387069Y-47803587D01*
X82403841Y-47786816D01*
X82465166Y-47753333D01*
X82491520Y-47750500D01*
X88785059Y-47750500D01*
X88852098Y-47770185D01*
X88897853Y-47822989D01*
X88907797Y-47892147D01*
X88878772Y-47955703D01*
X88872740Y-47962181D01*
X76411541Y-60423381D01*
X76350218Y-60456866D01*
X76323860Y-60459700D01*
X72424748Y-60459700D01*
X72357709Y-60440015D01*
X72311954Y-60387211D01*
X72306817Y-60374018D01*
X72303173Y-60362803D01*
X72290568Y-60324008D01*
X72183343Y-60113567D01*
X72044517Y-59922490D01*
X71877510Y-59755483D01*
X71686433Y-59616657D01*
X71613587Y-59579540D01*
X71475996Y-59509433D01*
X71251368Y-59436446D01*
X71018097Y-59399500D01*
X71018092Y-59399500D01*
X69781908Y-59399500D01*
X69781903Y-59399500D01*
X69548631Y-59436446D01*
X69378092Y-59491859D01*
X69324008Y-59509432D01*
X69324005Y-59509433D01*
X69324003Y-59509434D01*
X69279095Y-59532316D01*
X69210425Y-59545212D01*
X69145685Y-59518935D01*
X69105428Y-59461829D01*
X69098800Y-59421831D01*
X69098800Y-59117760D01*
X69097135Y-59109389D01*
X69097135Y-59109388D01*
X69087526Y-59061084D01*
X69068038Y-58963103D01*
X69007694Y-58817421D01*
X69007692Y-58817418D01*
X69007690Y-58817414D01*
X68920089Y-58686311D01*
X68920086Y-58686307D01*
X68011992Y-57778213D01*
X68011988Y-57778210D01*
X67880885Y-57690609D01*
X67880872Y-57690602D01*
X67735201Y-57630264D01*
X67735189Y-57630261D01*
X67580545Y-57599500D01*
X67580542Y-57599500D01*
X67236304Y-57599500D01*
X67169265Y-57579815D01*
X67135986Y-57548386D01*
X67044517Y-57422490D01*
X66877510Y-57255483D01*
X66686433Y-57116657D01*
X66475996Y-57009433D01*
X66251368Y-56936446D01*
X66018097Y-56899500D01*
X66018092Y-56899500D01*
X64781908Y-56899500D01*
X64781903Y-56899500D01*
X64548631Y-56936446D01*
X64324000Y-57009434D01*
X64275494Y-57034150D01*
X64206825Y-57047046D01*
X64142085Y-57020769D01*
X64101828Y-56963662D01*
X64095200Y-56923665D01*
X64095200Y-54876334D01*
X64114885Y-54809295D01*
X64167689Y-54763540D01*
X64236847Y-54753596D01*
X64275496Y-54765850D01*
X64324001Y-54790565D01*
X64324004Y-54790565D01*
X64324008Y-54790568D01*
X64450445Y-54831650D01*
X64548631Y-54863553D01*
X64781903Y-54900500D01*
X64781908Y-54900500D01*
X66018097Y-54900500D01*
X66251368Y-54863553D01*
X66475992Y-54790568D01*
X66686433Y-54683343D01*
X66877510Y-54544517D01*
X67044517Y-54377510D01*
X67086521Y-54319696D01*
X67141851Y-54277029D01*
X67211464Y-54271049D01*
X67273259Y-54303655D01*
X67274521Y-54304899D01*
X67461481Y-54491859D01*
X67494966Y-54553182D01*
X67497800Y-54579540D01*
X67497800Y-55978846D01*
X67528561Y-56133489D01*
X67528564Y-56133501D01*
X67588902Y-56279172D01*
X67588909Y-56279185D01*
X67676510Y-56410288D01*
X67676513Y-56410292D01*
X67788007Y-56521786D01*
X67788011Y-56521789D01*
X67919114Y-56609390D01*
X67919127Y-56609397D01*
X68064798Y-56669735D01*
X68064803Y-56669737D01*
X68219453Y-56700499D01*
X68219456Y-56700500D01*
X68219458Y-56700500D01*
X68563696Y-56700500D01*
X68630735Y-56720185D01*
X68664013Y-56751613D01*
X68755483Y-56877510D01*
X68922490Y-57044517D01*
X69113567Y-57183343D01*
X69212991Y-57234002D01*
X69324003Y-57290566D01*
X69324005Y-57290566D01*
X69324008Y-57290568D01*
X69444412Y-57329689D01*
X69548631Y-57363553D01*
X69781903Y-57400500D01*
X69781908Y-57400500D01*
X71018097Y-57400500D01*
X71251368Y-57363553D01*
X71475992Y-57290568D01*
X71686433Y-57183343D01*
X71877510Y-57044517D01*
X72044517Y-56877510D01*
X72135986Y-56751613D01*
X72191316Y-56708949D01*
X72236304Y-56700500D01*
X77378844Y-56700500D01*
X77378845Y-56700499D01*
X77533497Y-56669737D01*
X77679179Y-56609394D01*
X77810289Y-56521789D01*
X77963093Y-56368983D01*
X78024414Y-56335500D01*
X78094104Y-56340483D01*
X78184954Y-56374369D01*
X78350076Y-56410289D01*
X78464566Y-56435195D01*
X78464568Y-56435195D01*
X78464572Y-56435196D01*
X78718220Y-56453337D01*
X78749999Y-56455610D01*
X78750000Y-56455610D01*
X78750001Y-56455610D01*
X78778595Y-56453564D01*
X79035428Y-56435196D01*
X79315046Y-56374369D01*
X79583161Y-56274367D01*
X79834315Y-56137226D01*
X80063395Y-55965739D01*
X80265739Y-55763395D01*
X80437226Y-55534315D01*
X80574367Y-55283161D01*
X80674369Y-55015046D01*
X80684990Y-54966222D01*
X80735195Y-54735433D01*
X80735195Y-54735432D01*
X80735196Y-54735428D01*
X80755610Y-54450000D01*
X80735196Y-54164572D01*
X80725012Y-54117758D01*
X80674371Y-53884962D01*
X80674370Y-53884960D01*
X80674369Y-53884954D01*
X80574367Y-53616839D01*
X80554875Y-53581143D01*
X80437229Y-53365690D01*
X80437224Y-53365682D01*
X80265745Y-53136612D01*
X80265729Y-53136594D01*
X80063405Y-52934270D01*
X80063387Y-52934254D01*
X79834317Y-52762775D01*
X79834309Y-52762770D01*
X79583166Y-52625635D01*
X79583167Y-52625635D01*
X79475915Y-52585632D01*
X79315046Y-52525631D01*
X79315043Y-52525630D01*
X79315037Y-52525628D01*
X79035433Y-52464804D01*
X78750001Y-52444390D01*
X78749999Y-52444390D01*
X78464566Y-52464804D01*
X78184962Y-52525628D01*
X77916833Y-52625635D01*
X77665690Y-52762770D01*
X77665682Y-52762775D01*
X77436612Y-52934254D01*
X77436594Y-52934270D01*
X77234270Y-53136594D01*
X77234254Y-53136612D01*
X77062775Y-53365682D01*
X77062770Y-53365690D01*
X76925635Y-53616833D01*
X76825628Y-53884962D01*
X76764804Y-54164566D01*
X76744390Y-54449998D01*
X76744390Y-54450001D01*
X76764804Y-54735433D01*
X76811294Y-54949142D01*
X76806310Y-55018834D01*
X76764438Y-55074767D01*
X76698974Y-55099184D01*
X76690128Y-55099500D01*
X72236304Y-55099500D01*
X72169265Y-55079815D01*
X72135986Y-55048386D01*
X72129064Y-55038859D01*
X72044517Y-54922490D01*
X71877510Y-54755483D01*
X71686433Y-54616657D01*
X71613587Y-54579540D01*
X71475996Y-54509433D01*
X71251368Y-54436446D01*
X71018097Y-54399500D01*
X71018092Y-54399500D01*
X69781908Y-54399500D01*
X69781903Y-54399500D01*
X69548631Y-54436446D01*
X69378092Y-54491859D01*
X69324008Y-54509432D01*
X69324005Y-54509433D01*
X69324003Y-54509434D01*
X69279095Y-54532316D01*
X69210425Y-54545212D01*
X69145685Y-54518935D01*
X69105428Y-54461829D01*
X69098800Y-54421831D01*
X69098800Y-54117760D01*
X69097135Y-54109389D01*
X69097135Y-54109388D01*
X69068039Y-53963110D01*
X69068038Y-53963103D01*
X69007694Y-53817421D01*
X69007692Y-53817418D01*
X69007690Y-53817414D01*
X68920089Y-53686311D01*
X68920086Y-53686307D01*
X68011992Y-52778213D01*
X68011988Y-52778210D01*
X67880885Y-52690609D01*
X67880872Y-52690602D01*
X67735201Y-52630264D01*
X67735189Y-52630261D01*
X67580545Y-52599500D01*
X67580542Y-52599500D01*
X67236304Y-52599500D01*
X67169265Y-52579815D01*
X67135986Y-52548386D01*
X67044517Y-52422490D01*
X66877510Y-52255483D01*
X66686433Y-52116657D01*
X66648117Y-52097134D01*
X66475996Y-52009433D01*
X66251368Y-51936446D01*
X66018097Y-51899500D01*
X66018092Y-51899500D01*
X64781908Y-51899500D01*
X64781903Y-51899500D01*
X64548631Y-51936446D01*
X64373596Y-51993319D01*
X64324008Y-52009432D01*
X64324005Y-52009433D01*
X64324003Y-52009434D01*
X64307042Y-52018076D01*
X64238373Y-52030971D01*
X64173633Y-52004693D01*
X64133377Y-51947586D01*
X64130385Y-51877781D01*
X64163066Y-51819911D01*
X66066106Y-49916870D01*
X66127427Y-49883387D01*
X66134340Y-49882087D01*
X66251368Y-49863553D01*
X66475992Y-49790568D01*
X66686433Y-49683343D01*
X66877510Y-49544517D01*
X67044517Y-49377510D01*
X67086521Y-49319696D01*
X67141851Y-49277029D01*
X67211464Y-49271049D01*
X67273259Y-49303655D01*
X67274521Y-49304899D01*
X67461481Y-49491859D01*
X67494966Y-49553182D01*
X67497800Y-49579540D01*
X67497800Y-50978846D01*
X67528561Y-51133489D01*
X67528564Y-51133501D01*
X67588902Y-51279172D01*
X67588909Y-51279185D01*
X67676510Y-51410288D01*
X67676513Y-51410292D01*
X67788007Y-51521786D01*
X67788011Y-51521789D01*
X67919114Y-51609390D01*
X67919127Y-51609397D01*
X68064798Y-51669735D01*
X68064803Y-51669737D01*
X68219453Y-51700499D01*
X68219456Y-51700500D01*
X68219458Y-51700500D01*
X68563696Y-51700500D01*
X68630735Y-51720185D01*
X68664013Y-51751613D01*
X68755483Y-51877510D01*
X68922490Y-52044517D01*
X69113567Y-52183343D01*
X69207482Y-52231195D01*
X69324003Y-52290566D01*
X69324005Y-52290566D01*
X69324008Y-52290568D01*
X69444412Y-52329689D01*
X69548631Y-52363553D01*
X69781903Y-52400500D01*
X69781908Y-52400500D01*
X71018097Y-52400500D01*
X71251368Y-52363553D01*
X71475992Y-52290568D01*
X71686433Y-52183343D01*
X71877510Y-52044517D01*
X72044517Y-51877510D01*
X72183343Y-51686433D01*
X72290568Y-51475992D01*
X72363553Y-51251368D01*
X72372082Y-51197516D01*
X72400500Y-51018097D01*
X72400500Y-50781902D01*
X72363553Y-50548631D01*
X72290566Y-50324003D01*
X72195399Y-50137229D01*
X72183343Y-50113567D01*
X72044517Y-49922490D01*
X71877510Y-49755483D01*
X71686433Y-49616657D01*
X71632120Y-49588983D01*
X71475996Y-49509433D01*
X71251368Y-49436446D01*
X71018097Y-49399500D01*
X71018092Y-49399500D01*
X69781908Y-49399500D01*
X69781903Y-49399500D01*
X69548631Y-49436446D01*
X69387334Y-49488856D01*
X69324008Y-49509432D01*
X69324005Y-49509433D01*
X69324003Y-49509434D01*
X69279095Y-49532316D01*
X69210425Y-49545212D01*
X69145685Y-49518935D01*
X69105428Y-49461829D01*
X69098800Y-49421831D01*
X69098800Y-49117757D01*
X69098799Y-49117754D01*
X69085918Y-49052994D01*
X69068038Y-48963103D01*
X69007694Y-48817421D01*
X69007692Y-48817418D01*
X69007690Y-48817414D01*
X68920089Y-48686311D01*
X68920086Y-48686307D01*
X68011992Y-47778213D01*
X68011988Y-47778210D01*
X67880885Y-47690609D01*
X67880872Y-47690602D01*
X67735201Y-47630264D01*
X67735189Y-47630261D01*
X67580545Y-47599500D01*
X67580542Y-47599500D01*
X67236304Y-47599500D01*
X67169265Y-47579815D01*
X67135986Y-47548386D01*
X67044517Y-47422490D01*
X66877510Y-47255483D01*
X66686433Y-47116657D01*
X66677648Y-47112181D01*
X66475996Y-47009433D01*
X66251368Y-46936446D01*
X66018097Y-46899500D01*
X66018092Y-46899500D01*
X64781908Y-46899500D01*
X64781903Y-46899500D01*
X64548631Y-46936446D01*
X64324003Y-47009433D01*
X64113566Y-47116657D01*
X64086101Y-47136612D01*
X63922490Y-47255483D01*
X63922488Y-47255485D01*
X63922487Y-47255485D01*
X63755485Y-47422487D01*
X63755485Y-47422488D01*
X63755483Y-47422490D01*
X63739639Y-47444298D01*
X63616657Y-47613566D01*
X63509433Y-47824003D01*
X63436446Y-48048631D01*
X63399500Y-48281902D01*
X63399500Y-48518097D01*
X63436446Y-48751368D01*
X63509433Y-48975996D01*
X63548666Y-49052994D01*
X63616657Y-49186433D01*
X63755483Y-49377510D01*
X63922490Y-49544517D01*
X63950881Y-49565144D01*
X63993547Y-49620474D01*
X63999526Y-49690087D01*
X63966921Y-49751883D01*
X63965677Y-49753144D01*
X63344453Y-50374369D01*
X62784411Y-50934411D01*
X62739980Y-50978842D01*
X62672909Y-51045912D01*
X62585309Y-51177014D01*
X62585302Y-51177027D01*
X62524964Y-51322698D01*
X62524961Y-51322710D01*
X62494200Y-51477353D01*
X62494200Y-59144746D01*
X62524961Y-59299389D01*
X62524964Y-59299401D01*
X62585302Y-59445072D01*
X62585309Y-59445085D01*
X62672910Y-59576188D01*
X62672913Y-59576192D01*
X66251707Y-63154986D01*
X66251711Y-63154989D01*
X66382814Y-63242590D01*
X66382818Y-63242592D01*
X66382821Y-63242594D01*
X66528503Y-63302938D01*
X66683153Y-63333699D01*
X66683157Y-63333700D01*
X66683158Y-63333700D01*
X90945644Y-63333700D01*
X90945645Y-63333699D01*
X91100297Y-63302937D01*
X91245979Y-63242594D01*
X91377089Y-63154989D01*
X92113093Y-62418983D01*
X92174414Y-62385500D01*
X92244104Y-62390483D01*
X92334954Y-62424369D01*
X92334957Y-62424369D01*
X92334958Y-62424370D01*
X92614566Y-62485195D01*
X92614568Y-62485195D01*
X92614572Y-62485196D01*
X92868220Y-62503337D01*
X92899999Y-62505610D01*
X92900000Y-62505610D01*
X92900001Y-62505610D01*
X92928595Y-62503564D01*
X93185428Y-62485196D01*
X93465046Y-62424369D01*
X93733161Y-62324367D01*
X93984315Y-62187226D01*
X94213395Y-62015739D01*
X94415739Y-61813395D01*
X94587226Y-61584315D01*
X94724367Y-61333161D01*
X94824369Y-61065046D01*
X94839601Y-60995025D01*
X94885195Y-60785433D01*
X94885195Y-60785432D01*
X94885196Y-60785428D01*
X94905610Y-60500000D01*
X94905609Y-60499992D01*
X94896754Y-60376173D01*
X94885196Y-60214572D01*
X94880938Y-60195000D01*
X94824371Y-59934962D01*
X94824370Y-59934960D01*
X94824369Y-59934954D01*
X94724367Y-59666839D01*
X94702823Y-59627385D01*
X94587229Y-59415690D01*
X94587224Y-59415682D01*
X94415745Y-59186612D01*
X94415729Y-59186594D01*
X94213405Y-58984270D01*
X94213387Y-58984254D01*
X93984317Y-58812775D01*
X93984309Y-58812770D01*
X93733166Y-58675635D01*
X93733167Y-58675635D01*
X93551436Y-58607853D01*
X93465046Y-58575631D01*
X93465043Y-58575630D01*
X93465037Y-58575628D01*
X93185433Y-58514804D01*
X92900001Y-58494390D01*
X92899999Y-58494390D01*
X92614566Y-58514804D01*
X92334962Y-58575628D01*
X92066833Y-58675635D01*
X91815690Y-58812770D01*
X91815682Y-58812775D01*
X91586612Y-58984254D01*
X91586594Y-58984270D01*
X91384270Y-59186594D01*
X91384254Y-59186612D01*
X91212775Y-59415682D01*
X91212770Y-59415690D01*
X91075635Y-59666833D01*
X90975628Y-59934962D01*
X90914804Y-60214566D01*
X90894390Y-60499998D01*
X90894390Y-60500001D01*
X90914804Y-60785433D01*
X90975631Y-61065047D01*
X91009514Y-61155893D01*
X91014498Y-61225585D01*
X90981013Y-61286907D01*
X90571541Y-61696381D01*
X90510218Y-61729866D01*
X90483860Y-61732700D01*
X82213416Y-61732700D01*
X82146377Y-61713015D01*
X82100622Y-61660211D01*
X82090678Y-61591053D01*
X82116469Y-61531387D01*
X82150386Y-61488857D01*
X82281568Y-61261643D01*
X82377420Y-61017416D01*
X82435802Y-60761630D01*
X82440626Y-60697262D01*
X82455408Y-60500004D01*
X82455408Y-60499995D01*
X82435803Y-60238379D01*
X82435802Y-60238374D01*
X82435802Y-60238370D01*
X82377420Y-59982584D01*
X82319488Y-59834976D01*
X82313320Y-59765384D01*
X82345758Y-59703500D01*
X82347176Y-59702057D01*
X87102416Y-54946819D01*
X87163739Y-54913334D01*
X87190097Y-54910500D01*
X99183512Y-54910500D01*
X99250551Y-54930185D01*
X99296306Y-54982989D01*
X99298073Y-54987048D01*
X99319532Y-55038856D01*
X99319533Y-55038858D01*
X99451160Y-55253653D01*
X99451161Y-55253656D01*
X99451164Y-55253659D01*
X99614776Y-55445224D01*
X99763066Y-55571875D01*
X99806343Y-55608838D01*
X99806346Y-55608839D01*
X100021140Y-55740466D01*
X100215949Y-55821158D01*
X100253889Y-55836873D01*
X100498852Y-55895683D01*
X100750000Y-55915449D01*
X101001148Y-55895683D01*
X101246111Y-55836873D01*
X101478859Y-55740466D01*
X101693659Y-55608836D01*
X101885224Y-55445224D01*
X102048836Y-55253659D01*
X102180466Y-55038859D01*
X102210553Y-54966219D01*
X102254392Y-54911817D01*
X102293013Y-54893899D01*
X102297975Y-54892569D01*
X102309519Y-54889476D01*
X102309522Y-54889474D01*
X102383243Y-54869722D01*
X102383833Y-54869568D01*
X102383841Y-54869565D01*
X102384690Y-54869061D01*
X102449462Y-54831658D01*
X102519755Y-54791074D01*
X102520742Y-54790520D01*
X102521515Y-54789729D01*
X102570385Y-54740849D01*
X102570395Y-54740844D01*
X102570393Y-54740842D01*
X102575807Y-54735428D01*
X102632520Y-54678716D01*
X102632521Y-54678713D01*
X102638577Y-54672658D01*
X102638658Y-54672563D01*
X103932930Y-53378059D01*
X104017447Y-53293527D01*
X104078767Y-53260036D01*
X104105136Y-53257200D01*
X105729055Y-53257200D01*
X105729057Y-53257200D01*
X105881784Y-53216277D01*
X106018716Y-53137220D01*
X106130520Y-53025416D01*
X106192825Y-52917498D01*
X106243391Y-52869284D01*
X106300212Y-52855499D01*
X106447871Y-52855499D01*
X106447872Y-52855499D01*
X106507483Y-52849091D01*
X106642331Y-52798796D01*
X106757546Y-52712546D01*
X106843796Y-52597331D01*
X106894091Y-52462483D01*
X106900500Y-52402873D01*
X106900499Y-51257128D01*
X106894091Y-51197517D01*
X106886446Y-51177021D01*
X106843797Y-51062671D01*
X106843796Y-51062670D01*
X106843796Y-51062669D01*
X106842967Y-51061562D01*
X106842485Y-51060268D01*
X106839546Y-51054886D01*
X106840319Y-51054463D01*
X106818551Y-50996099D01*
X106827675Y-50939798D01*
X106829907Y-50934411D01*
X106861091Y-50859127D01*
X106900500Y-50661003D01*
X106900500Y-50458997D01*
X106861091Y-50260873D01*
X106783786Y-50074244D01*
X106729794Y-49993439D01*
X106708917Y-49926764D01*
X106727401Y-49859384D01*
X106729796Y-49855658D01*
X106783344Y-49775518D01*
X106783346Y-49775515D01*
X106860609Y-49588983D01*
X106860612Y-49588974D01*
X106870353Y-49540000D01*
X106015866Y-49540000D01*
X105991674Y-49537617D01*
X105976004Y-49534500D01*
X105976003Y-49534500D01*
X105935830Y-49534500D01*
X105950075Y-49520255D01*
X105999444Y-49434745D01*
X106025000Y-49339370D01*
X106025000Y-49240630D01*
X105999444Y-49145255D01*
X105950075Y-49059745D01*
X105930330Y-49040000D01*
X106870353Y-49040000D01*
X106860612Y-48991025D01*
X106860609Y-48991016D01*
X106783347Y-48804486D01*
X106783340Y-48804473D01*
X106671170Y-48636600D01*
X106671167Y-48636596D01*
X106528403Y-48493832D01*
X106528399Y-48493829D01*
X106360526Y-48381659D01*
X106360513Y-48381652D01*
X106173983Y-48304390D01*
X106173974Y-48304387D01*
X105975958Y-48265000D01*
X105900000Y-48265000D01*
X105900000Y-49009670D01*
X105880255Y-48989925D01*
X105794745Y-48940556D01*
X105699370Y-48915000D01*
X105600630Y-48915000D01*
X105505255Y-48940556D01*
X105419745Y-48989925D01*
X105400000Y-49009670D01*
X105400000Y-48265000D01*
X105324041Y-48265000D01*
X105126025Y-48304387D01*
X105126016Y-48304390D01*
X104939486Y-48381652D01*
X104939473Y-48381659D01*
X104771600Y-48493829D01*
X104771596Y-48493832D01*
X104628832Y-48636596D01*
X104628829Y-48636600D01*
X104516659Y-48804473D01*
X104516652Y-48804486D01*
X104439390Y-48991016D01*
X104439387Y-48991025D01*
X104429647Y-49040000D01*
X105369670Y-49040000D01*
X105349925Y-49059745D01*
X105300556Y-49145255D01*
X105275000Y-49240630D01*
X105275000Y-49339370D01*
X105300556Y-49434745D01*
X105349925Y-49520255D01*
X105364170Y-49534500D01*
X105323997Y-49534500D01*
X105323996Y-49534500D01*
X105308326Y-49537617D01*
X105284134Y-49540000D01*
X104429647Y-49540000D01*
X104439387Y-49588974D01*
X104439390Y-49588983D01*
X104516652Y-49775513D01*
X104516659Y-49775526D01*
X104570203Y-49855659D01*
X104591081Y-49922336D01*
X104572597Y-49989716D01*
X104570204Y-49993439D01*
X104516214Y-50074243D01*
X104438909Y-50260872D01*
X104438907Y-50260880D01*
X104399500Y-50458992D01*
X104399500Y-50661007D01*
X104438907Y-50859119D01*
X104438909Y-50859127D01*
X104472325Y-50939800D01*
X104479794Y-51009270D01*
X104460038Y-51054660D01*
X104460454Y-51054887D01*
X104457919Y-51059528D01*
X104457037Y-51061556D01*
X104456206Y-51062665D01*
X104456202Y-51062672D01*
X104405908Y-51197517D01*
X104400119Y-51251368D01*
X104399500Y-51257127D01*
X104399500Y-51609397D01*
X104399501Y-51932200D01*
X104379817Y-51999239D01*
X104327013Y-52044994D01*
X104275501Y-52056200D01*
X103892153Y-52056200D01*
X103892014Y-52056191D01*
X103799675Y-52056200D01*
X103725913Y-52056200D01*
X103646074Y-52077599D01*
X103646067Y-52077601D01*
X103573195Y-52097127D01*
X103573179Y-52097134D01*
X103503057Y-52137627D01*
X103503050Y-52137632D01*
X103436262Y-52176192D01*
X103436240Y-52176213D01*
X103436240Y-52176214D01*
X103381261Y-52231201D01*
X103381261Y-52231202D01*
X103319558Y-52292904D01*
X103319467Y-52293006D01*
X102234612Y-53378059D01*
X102173292Y-53411550D01*
X102103600Y-53406572D01*
X102053307Y-53368929D01*
X102052000Y-53370046D01*
X102048280Y-53365690D01*
X101885224Y-53174776D01*
X101710344Y-53025414D01*
X101693656Y-53011161D01*
X101693653Y-53011160D01*
X101478859Y-52879533D01*
X101246110Y-52783126D01*
X101001151Y-52724317D01*
X100750000Y-52704551D01*
X100498848Y-52724317D01*
X100253889Y-52783126D01*
X100021140Y-52879533D01*
X99806346Y-53011160D01*
X99806343Y-53011161D01*
X99614776Y-53174776D01*
X99451161Y-53366343D01*
X99451160Y-53366346D01*
X99319533Y-53581141D01*
X99319532Y-53581143D01*
X99298073Y-53632952D01*
X99254233Y-53687356D01*
X99187939Y-53709421D01*
X99183512Y-53709500D01*
X86976669Y-53709500D01*
X86976653Y-53709499D01*
X86969057Y-53709499D01*
X86810943Y-53709499D01*
X86731010Y-53730917D01*
X86658216Y-53750422D01*
X86608407Y-53779180D01*
X86608406Y-53779179D01*
X86521287Y-53829477D01*
X86521282Y-53829481D01*
X86409478Y-53941286D01*
X81500395Y-58850368D01*
X81439072Y-58883853D01*
X81369380Y-58878869D01*
X81358916Y-58874409D01*
X81341324Y-58865937D01*
X81090623Y-58788606D01*
X81090619Y-58788605D01*
X81090615Y-58788604D01*
X80965823Y-58769794D01*
X80831187Y-58749500D01*
X80831182Y-58749500D01*
X80648939Y-58749500D01*
X80581900Y-58729815D01*
X80536145Y-58677011D01*
X80526201Y-58607853D01*
X80555226Y-58544297D01*
X80561258Y-58537819D01*
X85135968Y-53963110D01*
X89812259Y-49286819D01*
X89873582Y-49253334D01*
X89899940Y-49250500D01*
X91034226Y-49250500D01*
X91101265Y-49270185D01*
X91143058Y-49315073D01*
X91262770Y-49534309D01*
X91262775Y-49534317D01*
X91434254Y-49763387D01*
X91434270Y-49763405D01*
X91636594Y-49965729D01*
X91636612Y-49965745D01*
X91865682Y-50137224D01*
X91865690Y-50137229D01*
X92116833Y-50274364D01*
X92116832Y-50274364D01*
X92116836Y-50274365D01*
X92116839Y-50274367D01*
X92384954Y-50374369D01*
X92384960Y-50374370D01*
X92384962Y-50374371D01*
X92664566Y-50435195D01*
X92664568Y-50435195D01*
X92664572Y-50435196D01*
X92918220Y-50453337D01*
X92949999Y-50455610D01*
X92950000Y-50455610D01*
X92950001Y-50455610D01*
X92978595Y-50453564D01*
X93235428Y-50435196D01*
X93515046Y-50374369D01*
X93783161Y-50274367D01*
X94034315Y-50137226D01*
X94263395Y-49965739D01*
X94465739Y-49763395D01*
X94637226Y-49534315D01*
X94774367Y-49283161D01*
X94874369Y-49015046D01*
X94882865Y-48975992D01*
X94935195Y-48735433D01*
X94935195Y-48735432D01*
X94935196Y-48735428D01*
X94955610Y-48450000D01*
X94935196Y-48164572D01*
X94931492Y-48147547D01*
X94874371Y-47884962D01*
X94874370Y-47884960D01*
X94874369Y-47884954D01*
X94774367Y-47616839D01*
X94772580Y-47613567D01*
X94637229Y-47365690D01*
X94637224Y-47365682D01*
X94465745Y-47136612D01*
X94465729Y-47136594D01*
X94441316Y-47112181D01*
X94407831Y-47050858D01*
X94412815Y-46981166D01*
X94454687Y-46925233D01*
X94520151Y-46900816D01*
X94528997Y-46900500D01*
X98516781Y-46900500D01*
X98583820Y-46920185D01*
X98604462Y-46936819D01*
X98901753Y-47234111D01*
X98901754Y-47234112D01*
X98901757Y-47234114D01*
X99016489Y-47310775D01*
X99039895Y-47320470D01*
X99072952Y-47334163D01*
X99127356Y-47378004D01*
X99149421Y-47444298D01*
X99149500Y-47448724D01*
X99149500Y-47837870D01*
X99149501Y-47837876D01*
X99155908Y-47897483D01*
X99206202Y-48032328D01*
X99206206Y-48032335D01*
X99292452Y-48147544D01*
X99292455Y-48147547D01*
X99407664Y-48233793D01*
X99407671Y-48233797D01*
X99542517Y-48284091D01*
X99542516Y-48284091D01*
X99549444Y-48284835D01*
X99602127Y-48290500D01*
X101897872Y-48290499D01*
X101957483Y-48284091D01*
X102092331Y-48233796D01*
X102207546Y-48147546D01*
X102293796Y-48032331D01*
X102344091Y-47897483D01*
X102350500Y-47837873D01*
X102350499Y-45542128D01*
X102344091Y-45482517D01*
X102343083Y-45479815D01*
X102293797Y-45347671D01*
X102293793Y-45347664D01*
X102207547Y-45232455D01*
X102207544Y-45232452D01*
X102092335Y-45146206D01*
X102092328Y-45146202D01*
X101957482Y-45095908D01*
X101957483Y-45095908D01*
X101897883Y-45089501D01*
X101897881Y-45089500D01*
X101897873Y-45089500D01*
X101897865Y-45089500D01*
X101404459Y-45089500D01*
X101337420Y-45069815D01*
X101291665Y-45017011D01*
X101281721Y-44947853D01*
X101310746Y-44884297D01*
X101357007Y-44850939D01*
X101478855Y-44800468D01*
X101478856Y-44800467D01*
X101478859Y-44800466D01*
X101693659Y-44668836D01*
X101885224Y-44505224D01*
X102048836Y-44313659D01*
X102180466Y-44098859D01*
X102210554Y-44026217D01*
X102254392Y-43971817D01*
X102293000Y-43953904D01*
X102309247Y-43949549D01*
X102309253Y-43949549D01*
X102309253Y-43949547D01*
X102309254Y-43949547D01*
X102383475Y-43929659D01*
X102383816Y-43929571D01*
X102383823Y-43929568D01*
X102384116Y-43929396D01*
X102453682Y-43889221D01*
X102519971Y-43850949D01*
X102520737Y-43850518D01*
X102520738Y-43850518D01*
X102521123Y-43850124D01*
X102576619Y-43794616D01*
X102632520Y-43738716D01*
X102632521Y-43738713D01*
X102638689Y-43732546D01*
X102638786Y-43732434D01*
X103657455Y-42713528D01*
X103718774Y-42680037D01*
X103745146Y-42677200D01*
X105729055Y-42677200D01*
X105729057Y-42677200D01*
X105881784Y-42636277D01*
X106018716Y-42557220D01*
X106130520Y-42445416D01*
X106192825Y-42337498D01*
X106243391Y-42289284D01*
X106300212Y-42275499D01*
X106447871Y-42275499D01*
X106447872Y-42275499D01*
X106507483Y-42269091D01*
X106642331Y-42218796D01*
X106757546Y-42132546D01*
X106843796Y-42017331D01*
X106894091Y-41882483D01*
X106900500Y-41822873D01*
X106900499Y-40677128D01*
X106894091Y-40617517D01*
X106868398Y-40548631D01*
X106843797Y-40482671D01*
X106843796Y-40482670D01*
X106843796Y-40482669D01*
X106842967Y-40481562D01*
X106842485Y-40480268D01*
X106839546Y-40474886D01*
X106840319Y-40474463D01*
X106818551Y-40416099D01*
X106827675Y-40359798D01*
X106861089Y-40279132D01*
X106861089Y-40279131D01*
X106861091Y-40279127D01*
X106900500Y-40081003D01*
X106900500Y-39878997D01*
X106861091Y-39680873D01*
X106783786Y-39494244D01*
X106729794Y-39413439D01*
X106708917Y-39346764D01*
X106727401Y-39279384D01*
X106729796Y-39275658D01*
X106783344Y-39195518D01*
X106783346Y-39195515D01*
X106860609Y-39008983D01*
X106860612Y-39008974D01*
X106870353Y-38960000D01*
X106015866Y-38960000D01*
X105991674Y-38957617D01*
X105976004Y-38954500D01*
X105976003Y-38954500D01*
X105935830Y-38954500D01*
X105950075Y-38940255D01*
X105999444Y-38854745D01*
X106025000Y-38759370D01*
X106025000Y-38660630D01*
X105999444Y-38565255D01*
X105950075Y-38479745D01*
X105930330Y-38460000D01*
X106870353Y-38460000D01*
X106860612Y-38411025D01*
X106860609Y-38411016D01*
X106783347Y-38224486D01*
X106783340Y-38224473D01*
X106671170Y-38056600D01*
X106671167Y-38056596D01*
X106528403Y-37913832D01*
X106528399Y-37913829D01*
X106360526Y-37801659D01*
X106360513Y-37801652D01*
X106173983Y-37724390D01*
X106173974Y-37724387D01*
X105975958Y-37685000D01*
X105900000Y-37685000D01*
X105900000Y-38429670D01*
X105880255Y-38409925D01*
X105794745Y-38360556D01*
X105699370Y-38335000D01*
X105600630Y-38335000D01*
X105505255Y-38360556D01*
X105419745Y-38409925D01*
X105400000Y-38429670D01*
X105400000Y-37685000D01*
X105324041Y-37685000D01*
X105126025Y-37724387D01*
X105126016Y-37724390D01*
X104939486Y-37801652D01*
X104939473Y-37801659D01*
X104771600Y-37913829D01*
X104771596Y-37913832D01*
X104628832Y-38056596D01*
X104628829Y-38056600D01*
X104516659Y-38224473D01*
X104516652Y-38224486D01*
X104439390Y-38411016D01*
X104439387Y-38411025D01*
X104429647Y-38460000D01*
X105369670Y-38460000D01*
X105349925Y-38479745D01*
X105300556Y-38565255D01*
X105275000Y-38660630D01*
X105275000Y-38759370D01*
X105300556Y-38854745D01*
X105349925Y-38940255D01*
X105364170Y-38954500D01*
X105323997Y-38954500D01*
X105323996Y-38954500D01*
X105308326Y-38957617D01*
X105284134Y-38960000D01*
X104429647Y-38960000D01*
X104439387Y-39008974D01*
X104439390Y-39008983D01*
X104516652Y-39195513D01*
X104516659Y-39195526D01*
X104570203Y-39275659D01*
X104591081Y-39342336D01*
X104572597Y-39409716D01*
X104570204Y-39413439D01*
X104516214Y-39494243D01*
X104438909Y-39680872D01*
X104438907Y-39680880D01*
X104399500Y-39878992D01*
X104399500Y-40081007D01*
X104438907Y-40279119D01*
X104438909Y-40279127D01*
X104472325Y-40359800D01*
X104479794Y-40429270D01*
X104460038Y-40474660D01*
X104460454Y-40474887D01*
X104457919Y-40479528D01*
X104457037Y-40481556D01*
X104456206Y-40482665D01*
X104456202Y-40482672D01*
X104405908Y-40617517D01*
X104399501Y-40677116D01*
X104399500Y-40677127D01*
X104399500Y-41018097D01*
X104399501Y-41352200D01*
X104379817Y-41419239D01*
X104327013Y-41464994D01*
X104275501Y-41476200D01*
X103532255Y-41476200D01*
X103532088Y-41476189D01*
X103440770Y-41476200D01*
X103365906Y-41476200D01*
X103333440Y-41484902D01*
X103287745Y-41497152D01*
X103224690Y-41514048D01*
X103213178Y-41517133D01*
X103146394Y-41555701D01*
X103146384Y-41555706D01*
X103076259Y-41596193D01*
X103024525Y-41647938D01*
X102959565Y-41712898D01*
X102959456Y-41713020D01*
X102234603Y-42438042D01*
X102173284Y-42471534D01*
X102103592Y-42466558D01*
X102053310Y-42428926D01*
X102052000Y-42430046D01*
X102041877Y-42418193D01*
X101885224Y-42234776D01*
X101758571Y-42126604D01*
X101693656Y-42071161D01*
X101693653Y-42071160D01*
X101478859Y-41939533D01*
X101246110Y-41843126D01*
X101001151Y-41784317D01*
X100750000Y-41764551D01*
X100498848Y-41784317D01*
X100253889Y-41843126D01*
X100021140Y-41939533D01*
X99806346Y-42071160D01*
X99806343Y-42071161D01*
X99674997Y-42183342D01*
X99614776Y-42234776D01*
X99458935Y-42417243D01*
X99448000Y-42430046D01*
X99446369Y-42428653D01*
X99398087Y-42465842D01*
X99328470Y-42471783D01*
X99266693Y-42439142D01*
X99265482Y-42437947D01*
X98646190Y-41818655D01*
X98646188Y-41818652D01*
X98527317Y-41699781D01*
X98527316Y-41699780D01*
X98440504Y-41649660D01*
X98440504Y-41649659D01*
X98440500Y-41649658D01*
X98390385Y-41620723D01*
X98237657Y-41579799D01*
X98079543Y-41579799D01*
X98071947Y-41579799D01*
X98071931Y-41579800D01*
X82706370Y-41579800D01*
X82706354Y-41579799D01*
X82698758Y-41579799D01*
X82540643Y-41579799D01*
X82464279Y-41600261D01*
X82387914Y-41620723D01*
X82387909Y-41620726D01*
X82250990Y-41699775D01*
X82250982Y-41699781D01*
X81500395Y-42450367D01*
X81439072Y-42483852D01*
X81369380Y-42478868D01*
X81358916Y-42474408D01*
X81341324Y-42465937D01*
X81090623Y-42388606D01*
X81090619Y-42388605D01*
X81090615Y-42388604D01*
X80965823Y-42369794D01*
X80831187Y-42349500D01*
X80831182Y-42349500D01*
X80568818Y-42349500D01*
X80568812Y-42349500D01*
X80407247Y-42373853D01*
X80309385Y-42388604D01*
X80309382Y-42388605D01*
X80309372Y-42388607D01*
X80216537Y-42417243D01*
X80146674Y-42418193D01*
X80087388Y-42381221D01*
X80057501Y-42318066D01*
X80066504Y-42248779D01*
X80092307Y-42211071D01*
X85405508Y-36897870D01*
X99149500Y-36897870D01*
X99149501Y-36897876D01*
X99155908Y-36957483D01*
X99206202Y-37092328D01*
X99206206Y-37092335D01*
X99292452Y-37207544D01*
X99292455Y-37207547D01*
X99407664Y-37293793D01*
X99407671Y-37293797D01*
X99542517Y-37344091D01*
X99542516Y-37344091D01*
X99549444Y-37344835D01*
X99602127Y-37350500D01*
X101897872Y-37350499D01*
X101957483Y-37344091D01*
X102092331Y-37293796D01*
X102207546Y-37207546D01*
X102293796Y-37092331D01*
X102344091Y-36957483D01*
X102350500Y-36897873D01*
X102350499Y-34602128D01*
X102344091Y-34542517D01*
X102331024Y-34507483D01*
X102293797Y-34407671D01*
X102293793Y-34407664D01*
X102207547Y-34292455D01*
X102207544Y-34292452D01*
X102092335Y-34206206D01*
X102092328Y-34206202D01*
X101957482Y-34155908D01*
X101957483Y-34155908D01*
X101897883Y-34149501D01*
X101897881Y-34149500D01*
X101897873Y-34149500D01*
X101897864Y-34149500D01*
X99602129Y-34149500D01*
X99602123Y-34149501D01*
X99542516Y-34155908D01*
X99407671Y-34206202D01*
X99407664Y-34206206D01*
X99292455Y-34292452D01*
X99292452Y-34292455D01*
X99206206Y-34407664D01*
X99206202Y-34407671D01*
X99155908Y-34542517D01*
X99149501Y-34602116D01*
X99149501Y-34602123D01*
X99149500Y-34602135D01*
X99149500Y-36897870D01*
X85405508Y-36897870D01*
X89416559Y-32886819D01*
X89477882Y-32853334D01*
X89504240Y-32850500D01*
X91034226Y-32850500D01*
X91101265Y-32870185D01*
X91143058Y-32915073D01*
X91262770Y-33134309D01*
X91262775Y-33134317D01*
X91434254Y-33363387D01*
X91434270Y-33363405D01*
X91636594Y-33565729D01*
X91636612Y-33565745D01*
X91865682Y-33737224D01*
X91865690Y-33737229D01*
X92116833Y-33874364D01*
X92116832Y-33874364D01*
X92116836Y-33874365D01*
X92116839Y-33874367D01*
X92384954Y-33974369D01*
X92384960Y-33974370D01*
X92384962Y-33974371D01*
X92664566Y-34035195D01*
X92664568Y-34035195D01*
X92664572Y-34035196D01*
X92918220Y-34053337D01*
X92949999Y-34055610D01*
X92950000Y-34055610D01*
X92950001Y-34055610D01*
X92978595Y-34053564D01*
X93235428Y-34035196D01*
X93515046Y-33974369D01*
X93783161Y-33874367D01*
X94034315Y-33737226D01*
X94263395Y-33565739D01*
X94329133Y-33500001D01*
X106494390Y-33500001D01*
X106514804Y-33785433D01*
X106575628Y-34065037D01*
X106575630Y-34065043D01*
X106575631Y-34065046D01*
X106673339Y-34327011D01*
X106675635Y-34333166D01*
X106812770Y-34584309D01*
X106812775Y-34584317D01*
X106984254Y-34813387D01*
X106984270Y-34813405D01*
X107186594Y-35015729D01*
X107186612Y-35015745D01*
X107415682Y-35187224D01*
X107415690Y-35187229D01*
X107666833Y-35324364D01*
X107666832Y-35324364D01*
X107666836Y-35324365D01*
X107666839Y-35324367D01*
X107934954Y-35424369D01*
X107934960Y-35424370D01*
X107934962Y-35424371D01*
X108214566Y-35485195D01*
X108214568Y-35485195D01*
X108214572Y-35485196D01*
X108468220Y-35503337D01*
X108499999Y-35505610D01*
X108500000Y-35505610D01*
X108500001Y-35505610D01*
X108528595Y-35503564D01*
X108785428Y-35485196D01*
X109065046Y-35424369D01*
X109333161Y-35324367D01*
X109584315Y-35187226D01*
X109813395Y-35015739D01*
X110015739Y-34813395D01*
X110187226Y-34584315D01*
X110324367Y-34333161D01*
X110424369Y-34065046D01*
X110465849Y-33874364D01*
X110485195Y-33785433D01*
X110485195Y-33785432D01*
X110485196Y-33785428D01*
X110505610Y-33500000D01*
X110485196Y-33214572D01*
X110467737Y-33134315D01*
X110424371Y-32934962D01*
X110424370Y-32934960D01*
X110424369Y-32934954D01*
X110324367Y-32666839D01*
X110304395Y-32630264D01*
X110187229Y-32415690D01*
X110187224Y-32415682D01*
X110015745Y-32186612D01*
X110015729Y-32186594D01*
X109813405Y-31984270D01*
X109813387Y-31984254D01*
X109584317Y-31812775D01*
X109584309Y-31812770D01*
X109333166Y-31675635D01*
X109333167Y-31675635D01*
X109225915Y-31635632D01*
X109065046Y-31575631D01*
X109065043Y-31575630D01*
X109065037Y-31575628D01*
X108785433Y-31514804D01*
X108500001Y-31494390D01*
X108499999Y-31494390D01*
X108214566Y-31514804D01*
X107934962Y-31575628D01*
X107666833Y-31675635D01*
X107415690Y-31812770D01*
X107415682Y-31812775D01*
X107186612Y-31984254D01*
X107186594Y-31984270D01*
X106984270Y-32186594D01*
X106984254Y-32186612D01*
X106812775Y-32415682D01*
X106812770Y-32415690D01*
X106675635Y-32666833D01*
X106575628Y-32934962D01*
X106514804Y-33214566D01*
X106494390Y-33499998D01*
X106494390Y-33500001D01*
X94329133Y-33500001D01*
X94465739Y-33363395D01*
X94637226Y-33134315D01*
X94774367Y-32883161D01*
X94874369Y-32615046D01*
X94935196Y-32335428D01*
X94955610Y-32050000D01*
X94955070Y-32042455D01*
X94948902Y-31956204D01*
X94935196Y-31764572D01*
X94880862Y-31514804D01*
X94874371Y-31484962D01*
X94874370Y-31484960D01*
X94874369Y-31484954D01*
X94774367Y-31216839D01*
X94716652Y-31111143D01*
X94637229Y-30965690D01*
X94637224Y-30965682D01*
X94465745Y-30736612D01*
X94465729Y-30736594D01*
X94441316Y-30712181D01*
X94407831Y-30650858D01*
X94412815Y-30581166D01*
X94454687Y-30525233D01*
X94520151Y-30500816D01*
X94528997Y-30500500D01*
X111375500Y-30500500D01*
X111442539Y-30520185D01*
X111488294Y-30572989D01*
X111499500Y-30624500D01*
X111499500Y-102375500D01*
X111479815Y-102442539D01*
X111427011Y-102488294D01*
X111375500Y-102499500D01*
X58624500Y-102499500D01*
X58557461Y-102479815D01*
X58511706Y-102427011D01*
X58500500Y-102375500D01*
X58500500Y-99500001D01*
X106494390Y-99500001D01*
X106514804Y-99785433D01*
X106575628Y-100065037D01*
X106675635Y-100333166D01*
X106812770Y-100584309D01*
X106812775Y-100584317D01*
X106984254Y-100813387D01*
X106984270Y-100813405D01*
X107186594Y-101015729D01*
X107186612Y-101015745D01*
X107415682Y-101187224D01*
X107415690Y-101187229D01*
X107666833Y-101324364D01*
X107666832Y-101324364D01*
X107666836Y-101324365D01*
X107666839Y-101324367D01*
X107934954Y-101424369D01*
X107934960Y-101424370D01*
X107934962Y-101424371D01*
X108214566Y-101485195D01*
X108214568Y-101485195D01*
X108214572Y-101485196D01*
X108468220Y-101503337D01*
X108499999Y-101505610D01*
X108500000Y-101505610D01*
X108500001Y-101505610D01*
X108528595Y-101503564D01*
X108785428Y-101485196D01*
X109065046Y-101424369D01*
X109333161Y-101324367D01*
X109584315Y-101187226D01*
X109813395Y-101015739D01*
X110015739Y-100813395D01*
X110187226Y-100584315D01*
X110324367Y-100333161D01*
X110424369Y-100065046D01*
X110485196Y-99785428D01*
X110505610Y-99500000D01*
X110503142Y-99465499D01*
X110494919Y-99350515D01*
X110485196Y-99214572D01*
X110462912Y-99112136D01*
X110424371Y-98934962D01*
X110424370Y-98934960D01*
X110424369Y-98934954D01*
X110324367Y-98666839D01*
X110253268Y-98536632D01*
X110187229Y-98415690D01*
X110187224Y-98415682D01*
X110015745Y-98186612D01*
X110015729Y-98186594D01*
X109813405Y-97984270D01*
X109813387Y-97984254D01*
X109584317Y-97812775D01*
X109584309Y-97812770D01*
X109333166Y-97675635D01*
X109333167Y-97675635D01*
X109225915Y-97635632D01*
X109065046Y-97575631D01*
X109065043Y-97575630D01*
X109065037Y-97575628D01*
X108785433Y-97514804D01*
X108500001Y-97494390D01*
X108499999Y-97494390D01*
X108214566Y-97514804D01*
X107934962Y-97575628D01*
X107666833Y-97675635D01*
X107415690Y-97812770D01*
X107415682Y-97812775D01*
X107186612Y-97984254D01*
X107186594Y-97984270D01*
X106984270Y-98186594D01*
X106984254Y-98186612D01*
X106812775Y-98415682D01*
X106812770Y-98415690D01*
X106675635Y-98666833D01*
X106575628Y-98934962D01*
X106514804Y-99214566D01*
X106494390Y-99499998D01*
X106494390Y-99500001D01*
X58500500Y-99500001D01*
X58500500Y-98965765D01*
X62589500Y-98965765D01*
X62628719Y-99112136D01*
X62631821Y-99117508D01*
X62704485Y-99243365D01*
X62811635Y-99350515D01*
X62942865Y-99426281D01*
X63089234Y-99465500D01*
X63089236Y-99465500D01*
X63240764Y-99465500D01*
X63240766Y-99465500D01*
X63387135Y-99426281D01*
X63518365Y-99350515D01*
X63625515Y-99243365D01*
X63701281Y-99112135D01*
X63740500Y-98965766D01*
X63740500Y-98814234D01*
X63701281Y-98667865D01*
X63625515Y-98536635D01*
X63518365Y-98429485D01*
X63452750Y-98391602D01*
X63387136Y-98353719D01*
X63313950Y-98334109D01*
X63240766Y-98314500D01*
X63089234Y-98314500D01*
X62942863Y-98353719D01*
X62811635Y-98429485D01*
X62811632Y-98429487D01*
X62704487Y-98536632D01*
X62704485Y-98536635D01*
X62628719Y-98667863D01*
X62589500Y-98814234D01*
X62589500Y-98965765D01*
X58500500Y-98965765D01*
X58500500Y-93185765D01*
X62589500Y-93185765D01*
X62628719Y-93332136D01*
X62649311Y-93367802D01*
X62704485Y-93463365D01*
X62811635Y-93570515D01*
X62942865Y-93646281D01*
X63089234Y-93685500D01*
X63089236Y-93685500D01*
X63240764Y-93685500D01*
X63240766Y-93685500D01*
X63387135Y-93646281D01*
X63518365Y-93570515D01*
X63625515Y-93463365D01*
X63701281Y-93332135D01*
X63740500Y-93185766D01*
X63740500Y-93034234D01*
X63701281Y-92887865D01*
X63700724Y-92886901D01*
X63688996Y-92866587D01*
X63625515Y-92756635D01*
X63518365Y-92649485D01*
X63452750Y-92611602D01*
X63387136Y-92573719D01*
X63313950Y-92554109D01*
X63240766Y-92534500D01*
X63089234Y-92534500D01*
X62942863Y-92573719D01*
X62811635Y-92649485D01*
X62811632Y-92649487D01*
X62704487Y-92756632D01*
X62704485Y-92756635D01*
X62628719Y-92887863D01*
X62589500Y-93034234D01*
X62589500Y-93185765D01*
X58500500Y-93185765D01*
X58500500Y-87650000D01*
X63769364Y-87650000D01*
X63826567Y-87863486D01*
X63826570Y-87863492D01*
X63926399Y-88077578D01*
X64061894Y-88271082D01*
X64228917Y-88438105D01*
X64422421Y-88573600D01*
X64636507Y-88673429D01*
X64636516Y-88673433D01*
X64850000Y-88730634D01*
X64850000Y-87833012D01*
X64907007Y-87865925D01*
X65034174Y-87900000D01*
X65165826Y-87900000D01*
X65292993Y-87865925D01*
X65350000Y-87833012D01*
X65350000Y-88730633D01*
X65513407Y-88686850D01*
X65583257Y-88688513D01*
X65641119Y-88727676D01*
X65668623Y-88791904D01*
X65669500Y-88806625D01*
X65669500Y-92073880D01*
X65649815Y-92140919D01*
X65633181Y-92161561D01*
X65437609Y-92357132D01*
X65390884Y-92386492D01*
X65287376Y-92422711D01*
X65287375Y-92422712D01*
X65134637Y-92518684D01*
X65007084Y-92646237D01*
X64911111Y-92798976D01*
X64851531Y-92969245D01*
X64851530Y-92969250D01*
X64831335Y-93148496D01*
X64831335Y-93148503D01*
X64851530Y-93327749D01*
X64851531Y-93327754D01*
X64911112Y-93498025D01*
X64917392Y-93508019D01*
X64936400Y-93573993D01*
X64936400Y-97091888D01*
X64917395Y-97157857D01*
X64910911Y-97168176D01*
X64910910Y-97168178D01*
X64851333Y-97338437D01*
X64851330Y-97338450D01*
X64831135Y-97517696D01*
X64831135Y-97517703D01*
X64851330Y-97696949D01*
X64851331Y-97696954D01*
X64910911Y-97867223D01*
X64984457Y-97984270D01*
X65006884Y-98019962D01*
X65134438Y-98147516D01*
X65287178Y-98243489D01*
X65457445Y-98303068D01*
X65457450Y-98303069D01*
X65636696Y-98323265D01*
X65636700Y-98323265D01*
X65636704Y-98323265D01*
X65815949Y-98303069D01*
X65815952Y-98303068D01*
X65815955Y-98303068D01*
X65986222Y-98243489D01*
X66138962Y-98147516D01*
X66266516Y-98019962D01*
X66362489Y-97867222D01*
X66422068Y-97696955D01*
X66424470Y-97675635D01*
X66442265Y-97517703D01*
X66442265Y-97517696D01*
X66422069Y-97338450D01*
X66422066Y-97338437D01*
X66362490Y-97168181D01*
X66362487Y-97168174D01*
X66356405Y-97158494D01*
X66337400Y-97092524D01*
X66337400Y-93573993D01*
X66356408Y-93508019D01*
X66362687Y-93498026D01*
X66362689Y-93498021D01*
X66374815Y-93463367D01*
X66398907Y-93394513D01*
X66428263Y-93347792D01*
X66914114Y-92861943D01*
X66990775Y-92747211D01*
X66997053Y-92732056D01*
X67032599Y-92646238D01*
X67043580Y-92619728D01*
X67070500Y-92484394D01*
X67070500Y-92346406D01*
X67070500Y-88806625D01*
X67090185Y-88739586D01*
X67142989Y-88693831D01*
X67212147Y-88683887D01*
X67226593Y-88686850D01*
X67390000Y-88730634D01*
X67390000Y-87833012D01*
X67447007Y-87865925D01*
X67574174Y-87900000D01*
X67705826Y-87900000D01*
X67832993Y-87865925D01*
X67890000Y-87833012D01*
X67890000Y-88730633D01*
X68103483Y-88673433D01*
X68103492Y-88673429D01*
X68317578Y-88573600D01*
X68511082Y-88438105D01*
X68678105Y-88271082D01*
X68808119Y-88085405D01*
X68862696Y-88041781D01*
X68932195Y-88034588D01*
X68994549Y-88066110D01*
X69011269Y-88085405D01*
X69141505Y-88271401D01*
X69308599Y-88438495D01*
X69405384Y-88506265D01*
X69502165Y-88574032D01*
X69502167Y-88574033D01*
X69502170Y-88574035D01*
X69716337Y-88673903D01*
X69944592Y-88735063D01*
X70132918Y-88751539D01*
X70179999Y-88755659D01*
X70180000Y-88755659D01*
X70180001Y-88755659D01*
X70219234Y-88752226D01*
X70415408Y-88735063D01*
X70643663Y-88673903D01*
X70857830Y-88574035D01*
X71051401Y-88438495D01*
X71054546Y-88435349D01*
X71115863Y-88401863D01*
X71185555Y-88406842D01*
X71229911Y-88435346D01*
X75466039Y-92671474D01*
X75466049Y-92671485D01*
X75470379Y-92675815D01*
X75470380Y-92675816D01*
X75582184Y-92787620D01*
X75650498Y-92827060D01*
X75668995Y-92837739D01*
X75668997Y-92837741D01*
X75719113Y-92866676D01*
X75719115Y-92866677D01*
X75871842Y-92907600D01*
X75871843Y-92907600D01*
X107634851Y-92907600D01*
X107635644Y-92907651D01*
X107643293Y-92907646D01*
X107643295Y-92907647D01*
X107723203Y-92907600D01*
X107801057Y-92907600D01*
X107801063Y-92907600D01*
X107801408Y-92907554D01*
X107801410Y-92907554D01*
X107878348Y-92886889D01*
X107878351Y-92886901D01*
X107878413Y-92886871D01*
X107953784Y-92866677D01*
X107953788Y-92866674D01*
X107954106Y-92866542D01*
X107954113Y-92866541D01*
X108022337Y-92827097D01*
X108022412Y-92827079D01*
X108022402Y-92827060D01*
X108090716Y-92787620D01*
X108090720Y-92787615D01*
X108090729Y-92787609D01*
X108090991Y-92787406D01*
X108090998Y-92787403D01*
X108146289Y-92732046D01*
X108146299Y-92732056D01*
X108146338Y-92731996D01*
X108202520Y-92675816D01*
X108202522Y-92675811D01*
X108208008Y-92670326D01*
X108208511Y-92669750D01*
X108741741Y-92135894D01*
X108741752Y-92135905D01*
X108741792Y-92135842D01*
X108798520Y-92079116D01*
X108798523Y-92079109D01*
X108798729Y-92078839D01*
X108798735Y-92078834D01*
X108837415Y-92011746D01*
X108837419Y-92011748D01*
X108837443Y-92011695D01*
X108877577Y-91942184D01*
X108877577Y-91942181D01*
X108877579Y-91942179D01*
X108877710Y-91941861D01*
X108877710Y-91941858D01*
X108877712Y-91941856D01*
X108898066Y-91865713D01*
X108898104Y-91865652D01*
X108898085Y-91865647D01*
X108901208Y-91853987D01*
X108918500Y-91789457D01*
X108918500Y-91789451D01*
X108918502Y-91789444D01*
X108918547Y-91789108D01*
X108918500Y-91708657D01*
X108918500Y-88013154D01*
X108918507Y-87934100D01*
X108918500Y-87934044D01*
X108917588Y-87930642D01*
X108907646Y-87893535D01*
X108896792Y-87853027D01*
X108896789Y-87853017D01*
X108877750Y-87781938D01*
X108877599Y-87781357D01*
X108877599Y-87781356D01*
X108877577Y-87781319D01*
X108877577Y-87781316D01*
X108831371Y-87701284D01*
X108798552Y-87644427D01*
X108798548Y-87644420D01*
X108798519Y-87644383D01*
X108737504Y-87583368D01*
X108361165Y-87206961D01*
X107774774Y-86620464D01*
X107741295Y-86559140D01*
X107746286Y-86489449D01*
X107774781Y-86445114D01*
X107788495Y-86431401D01*
X107924035Y-86237830D01*
X108023903Y-86023663D01*
X108085063Y-85795408D01*
X108105659Y-85560000D01*
X108085063Y-85324592D01*
X108050717Y-85196410D01*
X108052380Y-85126563D01*
X108082821Y-85076628D01*
X108277075Y-84882419D01*
X108379335Y-84780182D01*
X108379456Y-84780079D01*
X108385713Y-84773821D01*
X108385716Y-84773820D01*
X108446721Y-84712814D01*
X108446722Y-84712815D01*
X108446726Y-84712808D01*
X108497206Y-84662341D01*
X108497511Y-84662042D01*
X108497797Y-84661535D01*
X108539458Y-84589375D01*
X108576549Y-84525151D01*
X108576549Y-84525148D01*
X108576561Y-84525129D01*
X108576567Y-84525114D01*
X108576573Y-84525090D01*
X108576577Y-84525084D01*
X108596769Y-84449724D01*
X108596773Y-84449711D01*
X108602692Y-84427629D01*
X108617491Y-84372429D01*
X108617491Y-84372424D01*
X108617500Y-84372356D01*
X108617500Y-84297532D01*
X108617504Y-84260766D01*
X108617510Y-84214314D01*
X108617509Y-84214310D01*
X108617510Y-84206423D01*
X108617500Y-84206251D01*
X108617500Y-65008128D01*
X108617506Y-65008023D01*
X108617505Y-64999817D01*
X108617506Y-64999816D01*
X108617500Y-64913571D01*
X108617500Y-64841743D01*
X108617500Y-64841739D01*
X108617495Y-64841705D01*
X108617495Y-64841701D01*
X108595807Y-64760785D01*
X108576950Y-64690409D01*
X108576594Y-64689002D01*
X108576593Y-64689000D01*
X108575924Y-64687874D01*
X108538293Y-64622706D01*
X108538289Y-64622698D01*
X108497553Y-64552141D01*
X108497520Y-64552083D01*
X108497499Y-64552056D01*
X108446793Y-64501357D01*
X108385716Y-64440280D01*
X108385715Y-64440279D01*
X108380377Y-64434941D01*
X108380301Y-64434874D01*
X108078890Y-64133505D01*
X105549626Y-61604590D01*
X105491716Y-61546680D01*
X105491715Y-61546679D01*
X105491711Y-61546675D01*
X105491689Y-61546658D01*
X105454061Y-61524937D01*
X105423169Y-61507104D01*
X105423165Y-61507100D01*
X105423165Y-61507102D01*
X105354784Y-61467623D01*
X105354782Y-61467622D01*
X105354766Y-61467613D01*
X105354748Y-61467608D01*
X105354746Y-61467607D01*
X105272505Y-61445576D01*
X105272499Y-61445573D01*
X105272499Y-61445575D01*
X105202057Y-61426700D01*
X105202056Y-61426700D01*
X105202049Y-61426698D01*
X105202016Y-61426693D01*
X105115771Y-61426700D01*
X104966412Y-61426700D01*
X104899373Y-61407015D01*
X104889097Y-61399645D01*
X104886263Y-61397385D01*
X104886262Y-61397384D01*
X104829496Y-61361715D01*
X104733523Y-61301411D01*
X104563254Y-61241831D01*
X104563249Y-61241830D01*
X104384004Y-61221635D01*
X104383996Y-61221635D01*
X104204750Y-61241830D01*
X104204745Y-61241831D01*
X104034476Y-61301411D01*
X103881737Y-61397384D01*
X103754184Y-61524937D01*
X103658211Y-61677676D01*
X103598631Y-61847945D01*
X103598630Y-61847949D01*
X103578203Y-62029248D01*
X103551136Y-62093662D01*
X103493541Y-62133217D01*
X103423704Y-62135354D01*
X103389011Y-62120358D01*
X103376523Y-62112511D01*
X103206254Y-62052931D01*
X103206249Y-62052930D01*
X103027004Y-62032735D01*
X103026996Y-62032735D01*
X102847750Y-62052930D01*
X102847745Y-62052931D01*
X102677476Y-62112511D01*
X102524737Y-62208484D01*
X102397184Y-62336037D01*
X102301211Y-62488776D01*
X102241631Y-62659045D01*
X102241630Y-62659050D01*
X102221435Y-62838296D01*
X102221435Y-62838303D01*
X102241630Y-63017549D01*
X102241631Y-63017554D01*
X102301211Y-63187823D01*
X102373543Y-63302938D01*
X102397184Y-63340562D01*
X102524738Y-63468116D01*
X102615080Y-63524882D01*
X102675566Y-63562888D01*
X102677478Y-63564089D01*
X102847745Y-63623668D01*
X102854532Y-63625217D01*
X102853846Y-63628222D01*
X102905649Y-63649897D01*
X102945293Y-63707431D01*
X102951500Y-63746171D01*
X102951500Y-66289739D01*
X102931815Y-66356778D01*
X102879011Y-66402533D01*
X102809853Y-66412477D01*
X102746297Y-66383452D01*
X102739807Y-66377409D01*
X101907469Y-65544851D01*
X101907349Y-65544713D01*
X101842398Y-65479762D01*
X101842390Y-65479747D01*
X101842387Y-65479751D01*
X101789780Y-65427130D01*
X101789779Y-65427129D01*
X101789772Y-65427122D01*
X101789719Y-65427082D01*
X101719296Y-65386423D01*
X101719282Y-65386415D01*
X101652849Y-65348048D01*
X101652795Y-65348026D01*
X101578316Y-65328069D01*
X101578301Y-65328065D01*
X101500137Y-65307110D01*
X101500136Y-65307109D01*
X101500099Y-65307100D01*
X101500057Y-65307100D01*
X101424844Y-65307100D01*
X101342022Y-65307089D01*
X101342021Y-65307089D01*
X101333988Y-65307088D01*
X101333806Y-65307100D01*
X99420340Y-65307100D01*
X99353301Y-65287415D01*
X99307546Y-65234611D01*
X99297602Y-65165453D01*
X99326627Y-65101897D01*
X99332659Y-65095419D01*
X99415116Y-65012962D01*
X99511089Y-64860222D01*
X99570668Y-64689955D01*
X99570774Y-64689016D01*
X99590865Y-64510703D01*
X99590865Y-64510696D01*
X99570669Y-64331450D01*
X99570668Y-64331445D01*
X99511089Y-64161178D01*
X99493701Y-64133505D01*
X99474701Y-64066269D01*
X99495068Y-63999433D01*
X99511011Y-63979855D01*
X102465489Y-61025700D01*
X102526813Y-60992219D01*
X102539256Y-60990170D01*
X102626255Y-60980368D01*
X102796522Y-60920789D01*
X102949262Y-60824816D01*
X103076816Y-60697262D01*
X103172789Y-60544522D01*
X103232368Y-60374255D01*
X103232395Y-60374018D01*
X103252565Y-60195003D01*
X103252565Y-60194996D01*
X103232369Y-60015750D01*
X103232368Y-60015745D01*
X103200696Y-59925233D01*
X103172789Y-59845478D01*
X103166193Y-59834981D01*
X103133582Y-59783080D01*
X103076816Y-59692738D01*
X102949262Y-59565184D01*
X102896953Y-59532316D01*
X102796523Y-59469211D01*
X102626254Y-59409631D01*
X102626249Y-59409630D01*
X102447004Y-59389435D01*
X102446996Y-59389435D01*
X102267750Y-59409630D01*
X102267745Y-59409631D01*
X102097476Y-59469211D01*
X101944737Y-59565184D01*
X101817184Y-59692737D01*
X101721210Y-59845478D01*
X101661630Y-60015750D01*
X101651843Y-60102617D01*
X101624776Y-60167031D01*
X101616299Y-60176419D01*
X98421592Y-63370777D01*
X98421534Y-63370829D01*
X98350704Y-63441659D01*
X98304785Y-63487573D01*
X98261304Y-63562884D01*
X98261302Y-63562888D01*
X98225728Y-63624497D01*
X98205591Y-63699650D01*
X98205589Y-63699657D01*
X98184800Y-63777223D01*
X98184800Y-63844280D01*
X98184795Y-63928300D01*
X98165106Y-63995339D01*
X98157746Y-64005601D01*
X98155486Y-64008435D01*
X98059511Y-64161176D01*
X97999931Y-64331445D01*
X97999930Y-64331450D01*
X97979735Y-64510696D01*
X97979735Y-64510703D01*
X97999930Y-64689949D01*
X97999931Y-64689954D01*
X98059511Y-64860223D01*
X98155484Y-65012962D01*
X98237941Y-65095419D01*
X98271426Y-65156742D01*
X98266442Y-65226434D01*
X98224570Y-65282367D01*
X98159106Y-65306784D01*
X98150260Y-65307100D01*
X77382869Y-65307100D01*
X77382853Y-65307099D01*
X77375257Y-65307099D01*
X77217143Y-65307099D01*
X77109787Y-65335865D01*
X77064410Y-65348024D01*
X77064409Y-65348025D01*
X77014296Y-65376959D01*
X77014295Y-65376960D01*
X76970889Y-65402020D01*
X76927485Y-65427079D01*
X76927482Y-65427081D01*
X76309911Y-66044653D01*
X76248588Y-66078138D01*
X76178896Y-66073154D01*
X76134549Y-66044653D01*
X76131402Y-66041506D01*
X76131395Y-66041501D01*
X75937834Y-65905967D01*
X75937830Y-65905965D01*
X75937828Y-65905964D01*
X75723663Y-65806097D01*
X75723659Y-65806096D01*
X75723655Y-65806094D01*
X75495413Y-65744938D01*
X75495403Y-65744936D01*
X75260001Y-65724341D01*
X75259999Y-65724341D01*
X75024596Y-65744936D01*
X75024586Y-65744938D01*
X74796344Y-65806094D01*
X74796335Y-65806098D01*
X74582171Y-65905964D01*
X74582169Y-65905965D01*
X74388597Y-66041505D01*
X74221505Y-66208597D01*
X74091575Y-66394158D01*
X74036998Y-66437783D01*
X73967500Y-66444977D01*
X73905145Y-66413454D01*
X73888425Y-66394158D01*
X73758494Y-66208597D01*
X73591402Y-66041506D01*
X73591395Y-66041501D01*
X73397834Y-65905967D01*
X73397830Y-65905965D01*
X73397828Y-65905964D01*
X73183663Y-65806097D01*
X73183659Y-65806096D01*
X73183655Y-65806094D01*
X72955413Y-65744938D01*
X72955403Y-65744936D01*
X72720001Y-65724341D01*
X72719999Y-65724341D01*
X72484596Y-65744936D01*
X72484586Y-65744938D01*
X72256344Y-65806094D01*
X72256335Y-65806098D01*
X72042171Y-65905964D01*
X72042169Y-65905965D01*
X71848597Y-66041505D01*
X71681505Y-66208597D01*
X71551575Y-66394158D01*
X71496998Y-66437783D01*
X71427500Y-66444977D01*
X71365145Y-66413454D01*
X71348425Y-66394158D01*
X71218494Y-66208597D01*
X71051402Y-66041506D01*
X71051395Y-66041501D01*
X70857834Y-65905967D01*
X70857830Y-65905965D01*
X70857828Y-65905964D01*
X70643663Y-65806097D01*
X70643659Y-65806096D01*
X70643655Y-65806094D01*
X70415413Y-65744938D01*
X70415403Y-65744936D01*
X70180001Y-65724341D01*
X70179999Y-65724341D01*
X69944596Y-65744936D01*
X69944586Y-65744938D01*
X69716344Y-65806094D01*
X69716335Y-65806098D01*
X69502171Y-65905964D01*
X69502169Y-65905965D01*
X69308597Y-66041505D01*
X69141506Y-66208596D01*
X69058864Y-66326623D01*
X69004287Y-66370248D01*
X68957289Y-66379500D01*
X68862711Y-66379500D01*
X68795672Y-66359815D01*
X68761136Y-66326623D01*
X68678494Y-66208597D01*
X68511402Y-66041506D01*
X68511395Y-66041501D01*
X68317834Y-65905967D01*
X68317830Y-65905965D01*
X68317828Y-65905964D01*
X68103663Y-65806097D01*
X68103659Y-65806096D01*
X68103655Y-65806094D01*
X67875413Y-65744938D01*
X67875403Y-65744936D01*
X67640001Y-65724341D01*
X67639999Y-65724341D01*
X67404596Y-65744936D01*
X67404586Y-65744938D01*
X67176344Y-65806094D01*
X67176335Y-65806098D01*
X66962171Y-65905964D01*
X66962169Y-65905965D01*
X66768597Y-66041505D01*
X66601508Y-66208594D01*
X66471269Y-66394595D01*
X66416692Y-66438219D01*
X66347193Y-66445412D01*
X66284839Y-66413890D01*
X66268119Y-66394594D01*
X66138113Y-66208926D01*
X66138108Y-66208920D01*
X65971082Y-66041894D01*
X65777578Y-65906399D01*
X65563492Y-65806570D01*
X65563486Y-65806567D01*
X65350000Y-65749364D01*
X65350000Y-66646988D01*
X65292993Y-66614075D01*
X65165826Y-66580000D01*
X65034174Y-66580000D01*
X64907007Y-66614075D01*
X64850000Y-66646988D01*
X64850000Y-65749364D01*
X64849999Y-65749364D01*
X64636513Y-65806567D01*
X64636507Y-65806570D01*
X64422422Y-65906399D01*
X64422420Y-65906400D01*
X64228926Y-66041886D01*
X64228920Y-66041891D01*
X64061891Y-66208920D01*
X64061886Y-66208926D01*
X63926400Y-66402420D01*
X63926399Y-66402422D01*
X63826570Y-66616507D01*
X63826567Y-66616513D01*
X63769364Y-66829999D01*
X63769364Y-66830000D01*
X64666988Y-66830000D01*
X64634075Y-66887007D01*
X64600000Y-67014174D01*
X64600000Y-67145826D01*
X64634075Y-67272993D01*
X64666988Y-67330000D01*
X63769364Y-67330000D01*
X63826567Y-67543486D01*
X63826570Y-67543492D01*
X63926399Y-67757578D01*
X64061894Y-67951082D01*
X64228917Y-68118105D01*
X64422421Y-68253600D01*
X64636507Y-68353429D01*
X64636516Y-68353433D01*
X64850000Y-68410634D01*
X64850000Y-67513012D01*
X64907007Y-67545925D01*
X65034174Y-67580000D01*
X65165826Y-67580000D01*
X65292993Y-67545925D01*
X65350000Y-67513012D01*
X65350000Y-68410633D01*
X65563483Y-68353433D01*
X65563492Y-68353429D01*
X65777578Y-68253600D01*
X65971082Y-68118105D01*
X66138105Y-67951082D01*
X66268119Y-67765405D01*
X66322696Y-67721781D01*
X66392195Y-67714588D01*
X66454549Y-67746110D01*
X66471269Y-67765405D01*
X66601505Y-67951401D01*
X66768599Y-68118495D01*
X66808947Y-68146747D01*
X66962165Y-68254032D01*
X66962167Y-68254033D01*
X66962170Y-68254035D01*
X67176337Y-68353903D01*
X67176343Y-68353904D01*
X67176344Y-68353905D01*
X67210351Y-68363017D01*
X67404592Y-68415063D01*
X67592918Y-68431539D01*
X67639999Y-68435659D01*
X67640000Y-68435659D01*
X67640001Y-68435659D01*
X67679234Y-68432226D01*
X67875408Y-68415063D01*
X68103663Y-68353903D01*
X68317830Y-68254035D01*
X68511401Y-68118495D01*
X68678495Y-67951401D01*
X68761136Y-67833376D01*
X68815713Y-67789752D01*
X68862711Y-67780500D01*
X68957289Y-67780500D01*
X69024328Y-67800185D01*
X69058864Y-67833377D01*
X69141505Y-67951402D01*
X69229983Y-68039879D01*
X69308599Y-68118495D01*
X69348947Y-68146747D01*
X69502165Y-68254032D01*
X69502167Y-68254033D01*
X69502170Y-68254035D01*
X69716337Y-68353903D01*
X69716342Y-68353904D01*
X69716346Y-68353906D01*
X69788101Y-68373132D01*
X69831764Y-68384831D01*
X69891425Y-68421195D01*
X69921955Y-68484042D01*
X69916714Y-68545560D01*
X69890393Y-68620782D01*
X69861032Y-68667509D01*
X65825887Y-72702654D01*
X65749222Y-72817392D01*
X65696421Y-72944867D01*
X65696420Y-72944872D01*
X65674402Y-73055563D01*
X65674402Y-73055567D01*
X65669500Y-73080207D01*
X65669500Y-85993373D01*
X65649815Y-86060412D01*
X65597011Y-86106167D01*
X65527853Y-86116111D01*
X65513407Y-86113148D01*
X65350000Y-86069363D01*
X65350000Y-86966988D01*
X65292993Y-86934075D01*
X65165826Y-86900000D01*
X65034174Y-86900000D01*
X64907007Y-86934075D01*
X64850000Y-86966988D01*
X64850000Y-86069364D01*
X64849999Y-86069364D01*
X64636513Y-86126567D01*
X64636507Y-86126570D01*
X64422422Y-86226399D01*
X64422420Y-86226400D01*
X64228926Y-86361886D01*
X64228920Y-86361891D01*
X64061891Y-86528920D01*
X64061886Y-86528926D01*
X63926400Y-86722420D01*
X63926399Y-86722422D01*
X63826570Y-86936507D01*
X63826567Y-86936513D01*
X63769364Y-87149999D01*
X63769364Y-87150000D01*
X64666988Y-87150000D01*
X64634075Y-87207007D01*
X64600000Y-87334174D01*
X64600000Y-87465826D01*
X64634075Y-87592993D01*
X64666988Y-87650000D01*
X63769364Y-87650000D01*
X58500500Y-87650000D01*
X58500500Y-38518097D01*
X63399500Y-38518097D01*
X63436446Y-38751368D01*
X63509433Y-38975996D01*
X63615133Y-39183442D01*
X63616657Y-39186433D01*
X63755483Y-39377510D01*
X63922490Y-39544517D01*
X64113567Y-39683343D01*
X64212991Y-39734002D01*
X64324003Y-39790566D01*
X64324005Y-39790566D01*
X64324008Y-39790568D01*
X64444412Y-39829689D01*
X64548631Y-39863553D01*
X64781903Y-39900500D01*
X64781908Y-39900500D01*
X66018097Y-39900500D01*
X66251368Y-39863553D01*
X66475992Y-39790568D01*
X66686433Y-39683343D01*
X66877510Y-39544517D01*
X67044517Y-39377510D01*
X67086521Y-39319696D01*
X67141851Y-39277029D01*
X67211464Y-39271049D01*
X67273259Y-39303655D01*
X67274521Y-39304899D01*
X67461481Y-39491859D01*
X67494966Y-39553182D01*
X67497800Y-39579540D01*
X67497800Y-40978846D01*
X67528561Y-41133489D01*
X67528564Y-41133501D01*
X67588902Y-41279172D01*
X67588909Y-41279185D01*
X67676510Y-41410288D01*
X67676513Y-41410292D01*
X67788007Y-41521786D01*
X67788011Y-41521789D01*
X67919114Y-41609390D01*
X67919127Y-41609397D01*
X68016330Y-41649659D01*
X68064803Y-41669737D01*
X68215813Y-41699775D01*
X68219453Y-41700499D01*
X68219456Y-41700500D01*
X68219458Y-41700500D01*
X68563696Y-41700500D01*
X68630735Y-41720185D01*
X68664013Y-41751613D01*
X68755483Y-41877510D01*
X68922490Y-42044517D01*
X69113567Y-42183343D01*
X69212991Y-42234002D01*
X69324003Y-42290566D01*
X69324005Y-42290566D01*
X69324008Y-42290568D01*
X69379148Y-42308484D01*
X69548631Y-42363553D01*
X69781903Y-42400500D01*
X69781908Y-42400500D01*
X71018097Y-42400500D01*
X71251368Y-42363553D01*
X71475992Y-42290568D01*
X71686433Y-42183343D01*
X71877510Y-42044517D01*
X72044517Y-41877510D01*
X72183343Y-41686433D01*
X72290568Y-41475992D01*
X72363553Y-41251368D01*
X72400500Y-41018097D01*
X72400500Y-40781902D01*
X72363553Y-40548631D01*
X72320490Y-40416099D01*
X72290568Y-40324008D01*
X72290566Y-40324005D01*
X72290566Y-40324003D01*
X72183342Y-40113566D01*
X72044517Y-39922490D01*
X71877510Y-39755483D01*
X71849173Y-39734895D01*
X71806509Y-39679565D01*
X71800530Y-39609952D01*
X71833136Y-39548157D01*
X71834296Y-39546980D01*
X72494459Y-38886819D01*
X72555782Y-38853334D01*
X72582140Y-38850500D01*
X76834226Y-38850500D01*
X76901265Y-38870185D01*
X76943058Y-38915073D01*
X77062770Y-39134309D01*
X77062775Y-39134317D01*
X77234254Y-39363387D01*
X77234270Y-39363405D01*
X77436594Y-39565729D01*
X77436612Y-39565745D01*
X77665682Y-39737224D01*
X77665690Y-39737229D01*
X77916833Y-39874364D01*
X77916832Y-39874364D01*
X77916836Y-39874365D01*
X77916839Y-39874367D01*
X78184954Y-39974369D01*
X78184960Y-39974370D01*
X78184962Y-39974371D01*
X78464566Y-40035195D01*
X78464568Y-40035195D01*
X78464572Y-40035196D01*
X78718220Y-40053337D01*
X78749999Y-40055610D01*
X78750000Y-40055610D01*
X78750001Y-40055610D01*
X78778595Y-40053564D01*
X79035428Y-40035196D01*
X79315046Y-39974369D01*
X79583161Y-39874367D01*
X79834315Y-39737226D01*
X80063395Y-39565739D01*
X80265739Y-39363395D01*
X80437226Y-39134315D01*
X80574367Y-38883161D01*
X80674369Y-38615046D01*
X80735196Y-38335428D01*
X80755610Y-38050000D01*
X80735196Y-37764572D01*
X80726454Y-37724387D01*
X80674371Y-37484962D01*
X80674370Y-37484960D01*
X80674369Y-37484954D01*
X80574367Y-37216839D01*
X80533682Y-37142331D01*
X80437229Y-36965690D01*
X80437224Y-36965682D01*
X80265745Y-36736612D01*
X80265729Y-36736594D01*
X80063405Y-36534270D01*
X80063387Y-36534254D01*
X79834317Y-36362775D01*
X79834309Y-36362770D01*
X79583166Y-36225635D01*
X79583167Y-36225635D01*
X79475915Y-36185632D01*
X79315046Y-36125631D01*
X79315043Y-36125630D01*
X79315037Y-36125628D01*
X79035433Y-36064804D01*
X78750001Y-36044390D01*
X78749999Y-36044390D01*
X78464566Y-36064804D01*
X78184962Y-36125628D01*
X77916833Y-36225635D01*
X77665690Y-36362770D01*
X77665682Y-36362775D01*
X77436612Y-36534254D01*
X77436594Y-36534270D01*
X77234270Y-36736594D01*
X77234254Y-36736612D01*
X77062775Y-36965682D01*
X77062770Y-36965690D01*
X76943058Y-37184927D01*
X76893653Y-37234332D01*
X76834226Y-37249500D01*
X72482418Y-37249500D01*
X72415379Y-37229815D01*
X72369624Y-37177011D01*
X72359680Y-37107853D01*
X72366236Y-37082167D01*
X72378701Y-37048743D01*
X72394091Y-37007483D01*
X72400500Y-36947873D01*
X72400499Y-34852128D01*
X72394091Y-34792517D01*
X72343796Y-34657669D01*
X72343795Y-34657668D01*
X72343793Y-34657664D01*
X72257547Y-34542455D01*
X72257544Y-34542452D01*
X72142335Y-34456206D01*
X72142328Y-34456202D01*
X72007482Y-34405908D01*
X72007483Y-34405908D01*
X71947883Y-34399501D01*
X71947881Y-34399500D01*
X71947873Y-34399500D01*
X71947865Y-34399500D01*
X69222800Y-34399500D01*
X69155761Y-34379815D01*
X69110006Y-34327011D01*
X69098800Y-34275500D01*
X69098800Y-34117757D01*
X69098799Y-34117756D01*
X69086375Y-34055292D01*
X69086375Y-34055288D01*
X69068039Y-33963110D01*
X69068038Y-33963103D01*
X69007694Y-33817421D01*
X69007692Y-33817418D01*
X69007690Y-33817414D01*
X68920089Y-33686311D01*
X68920086Y-33686307D01*
X68011992Y-32778213D01*
X68011988Y-32778210D01*
X67880885Y-32690609D01*
X67880872Y-32690602D01*
X67735201Y-32630264D01*
X67735189Y-32630261D01*
X67580545Y-32599500D01*
X67580542Y-32599500D01*
X67524499Y-32599500D01*
X67457460Y-32579815D01*
X67411705Y-32527011D01*
X67400499Y-32475500D01*
X67400499Y-32352129D01*
X67400498Y-32352123D01*
X67400497Y-32352116D01*
X67394091Y-32292517D01*
X67354588Y-32186605D01*
X67343797Y-32157671D01*
X67343793Y-32157664D01*
X67257547Y-32042455D01*
X67257544Y-32042452D01*
X67142335Y-31956206D01*
X67142328Y-31956202D01*
X67007482Y-31905908D01*
X67007483Y-31905908D01*
X66947883Y-31899501D01*
X66947881Y-31899500D01*
X66947873Y-31899500D01*
X66947864Y-31899500D01*
X63852129Y-31899500D01*
X63852123Y-31899501D01*
X63792516Y-31905908D01*
X63657671Y-31956202D01*
X63657664Y-31956206D01*
X63542455Y-32042452D01*
X63542452Y-32042455D01*
X63456206Y-32157664D01*
X63456202Y-32157671D01*
X63405908Y-32292517D01*
X63399501Y-32352116D01*
X63399501Y-32352123D01*
X63399500Y-32352135D01*
X63399500Y-34447870D01*
X63399501Y-34447876D01*
X63405908Y-34507483D01*
X63456202Y-34642328D01*
X63456206Y-34642335D01*
X63542452Y-34757544D01*
X63542455Y-34757547D01*
X63657664Y-34843793D01*
X63657671Y-34843797D01*
X63792517Y-34894091D01*
X63792516Y-34894091D01*
X63799444Y-34894835D01*
X63852127Y-34900500D01*
X66947872Y-34900499D01*
X67007483Y-34894091D01*
X67142331Y-34843796D01*
X67257546Y-34757546D01*
X67274533Y-34734853D01*
X67330466Y-34692982D01*
X67400158Y-34687998D01*
X67461481Y-34721483D01*
X67494966Y-34782806D01*
X67497800Y-34809164D01*
X67497800Y-35978846D01*
X67528561Y-36133489D01*
X67528564Y-36133501D01*
X67588902Y-36279172D01*
X67588909Y-36279185D01*
X67676510Y-36410288D01*
X67676513Y-36410292D01*
X67788007Y-36521786D01*
X67788011Y-36521789D01*
X67919114Y-36609390D01*
X67919127Y-36609397D01*
X68064798Y-36669735D01*
X68064803Y-36669737D01*
X68219453Y-36700499D01*
X68219456Y-36700500D01*
X68219458Y-36700500D01*
X68275501Y-36700500D01*
X68342540Y-36720185D01*
X68388295Y-36772989D01*
X68399501Y-36824500D01*
X68399501Y-36947876D01*
X68405908Y-37007483D01*
X68456202Y-37142328D01*
X68456206Y-37142335D01*
X68542452Y-37257544D01*
X68542455Y-37257547D01*
X68657664Y-37343793D01*
X68657671Y-37343797D01*
X68792517Y-37394091D01*
X68792516Y-37394091D01*
X68799444Y-37394835D01*
X68852127Y-37400500D01*
X71417259Y-37400499D01*
X71484298Y-37420184D01*
X71530053Y-37472987D01*
X71539997Y-37542146D01*
X71510972Y-37605702D01*
X71504940Y-37612180D01*
X69734013Y-39383107D01*
X69672690Y-39416592D01*
X69665731Y-39417899D01*
X69548634Y-39436446D01*
X69324005Y-39509433D01*
X69279095Y-39532316D01*
X69210425Y-39545212D01*
X69145685Y-39518935D01*
X69105428Y-39461829D01*
X69098800Y-39421831D01*
X69098800Y-39117757D01*
X69098799Y-39117756D01*
X69082139Y-39033996D01*
X69082139Y-39033993D01*
X69070602Y-38975996D01*
X69068038Y-38963103D01*
X69007694Y-38817421D01*
X69007692Y-38817418D01*
X69007690Y-38817414D01*
X68920089Y-38686311D01*
X68920086Y-38686307D01*
X68011992Y-37778213D01*
X68011988Y-37778210D01*
X67880885Y-37690609D01*
X67880872Y-37690602D01*
X67735201Y-37630264D01*
X67735189Y-37630261D01*
X67580545Y-37599500D01*
X67580542Y-37599500D01*
X67236304Y-37599500D01*
X67169265Y-37579815D01*
X67135986Y-37548386D01*
X67044517Y-37422490D01*
X66877510Y-37255483D01*
X66686433Y-37116657D01*
X66669154Y-37107853D01*
X66475996Y-37009433D01*
X66251368Y-36936446D01*
X66018097Y-36899500D01*
X66018092Y-36899500D01*
X64781908Y-36899500D01*
X64781903Y-36899500D01*
X64548631Y-36936446D01*
X64324003Y-37009433D01*
X64113566Y-37116657D01*
X64078224Y-37142335D01*
X63922490Y-37255483D01*
X63922488Y-37255485D01*
X63922487Y-37255485D01*
X63755485Y-37422487D01*
X63755485Y-37422488D01*
X63755483Y-37422490D01*
X63718795Y-37472987D01*
X63616657Y-37613566D01*
X63509433Y-37824003D01*
X63436446Y-38048631D01*
X63399500Y-38281902D01*
X63399500Y-38518097D01*
X58500500Y-38518097D01*
X58500500Y-30624500D01*
X58520185Y-30557461D01*
X58572989Y-30511706D01*
X58624500Y-30500500D01*
X79536569Y-30500500D01*
X79603608Y-30520185D01*
G37*
%TD.AperFunction*%
%TA.AperFunction,Conductor*%
G36*
X97925542Y-42800485D02*
G01*
X97946184Y-42817119D01*
X98863439Y-43734374D01*
X98863449Y-43734385D01*
X98867779Y-43738715D01*
X98867780Y-43738716D01*
X98979584Y-43850520D01*
X99046601Y-43889211D01*
X99066395Y-43900639D01*
X99066397Y-43900641D01*
X99104451Y-43922611D01*
X99116515Y-43929577D01*
X99206942Y-43953807D01*
X99266600Y-43990171D01*
X99289407Y-44026128D01*
X99319533Y-44098859D01*
X99451160Y-44313653D01*
X99451161Y-44313656D01*
X99505698Y-44377510D01*
X99614776Y-44505224D01*
X99670928Y-44553182D01*
X99806343Y-44668838D01*
X99806346Y-44668839D01*
X100021141Y-44800466D01*
X100021143Y-44800467D01*
X100142994Y-44850939D01*
X100197398Y-44894779D01*
X100219463Y-44961073D01*
X100202184Y-45028773D01*
X100151047Y-45076384D01*
X100095542Y-45089500D01*
X99602129Y-45089500D01*
X99602123Y-45089501D01*
X99542516Y-45095908D01*
X99407671Y-45146202D01*
X99407664Y-45146206D01*
X99292455Y-45232452D01*
X99292452Y-45232455D01*
X99206206Y-45347664D01*
X99206202Y-45347671D01*
X99171099Y-45441789D01*
X99129228Y-45497723D01*
X99063763Y-45522140D01*
X99030726Y-45520073D01*
X98927298Y-45499500D01*
X98927294Y-45499500D01*
X98927293Y-45499500D01*
X94599002Y-45499500D01*
X94531963Y-45479815D01*
X94486208Y-45427011D01*
X94476264Y-45357853D01*
X94499735Y-45301190D01*
X94553138Y-45229851D01*
X94587226Y-45184315D01*
X94724367Y-44933161D01*
X94824369Y-44665046D01*
X94842970Y-44579540D01*
X94885195Y-44385433D01*
X94885195Y-44385432D01*
X94885196Y-44385428D01*
X94905610Y-44100000D01*
X94905528Y-44098859D01*
X94895154Y-43953806D01*
X94885196Y-43814572D01*
X94880857Y-43794627D01*
X94824371Y-43534962D01*
X94824370Y-43534960D01*
X94824369Y-43534954D01*
X94724367Y-43266839D01*
X94605216Y-43048632D01*
X94587229Y-43015690D01*
X94587228Y-43015688D01*
X94587226Y-43015685D01*
X94559845Y-42979109D01*
X94535430Y-42913645D01*
X94550282Y-42845372D01*
X94599688Y-42795967D01*
X94659114Y-42780800D01*
X97858503Y-42780800D01*
X97925542Y-42800485D01*
G37*
%TD.AperFunction*%
%TA.AperFunction,Conductor*%
G36*
X91207925Y-42800485D02*
G01*
X91253680Y-42853289D01*
X91263624Y-42922447D01*
X91240154Y-42979110D01*
X91212770Y-43015690D01*
X91075635Y-43266833D01*
X90975628Y-43534962D01*
X90914804Y-43814566D01*
X90894390Y-44099998D01*
X90894390Y-44100001D01*
X90895258Y-44112138D01*
X90880406Y-44180411D01*
X90859255Y-44208665D01*
X89900741Y-45167181D01*
X89839418Y-45200666D01*
X89813060Y-45203500D01*
X82298971Y-45203500D01*
X82231932Y-45183815D01*
X82186177Y-45131011D01*
X82176233Y-45061853D01*
X82191584Y-45017500D01*
X82227274Y-44955683D01*
X82281568Y-44861643D01*
X82377420Y-44617416D01*
X82435802Y-44361630D01*
X82435803Y-44361620D01*
X82455408Y-44100004D01*
X82455408Y-44099995D01*
X82435803Y-43838379D01*
X82435802Y-43838374D01*
X82435802Y-43838370D01*
X82377420Y-43582584D01*
X82319489Y-43434980D01*
X82313321Y-43365384D01*
X82345759Y-43303501D01*
X82347237Y-43301998D01*
X82832117Y-42817119D01*
X82893440Y-42783634D01*
X82919798Y-42780800D01*
X91140886Y-42780800D01*
X91207925Y-42800485D01*
G37*
%TD.AperFunction*%
%TD*%
M02*
