M48
; DRILL file {KiCad 8.0.1} date 2024-07-07T22:58:04+0200
; FORMAT={-:-/ absolute / inch / decimal}
; #@! TF.CreationDate,2024-07-07T22:58:04+02:00
; #@! TF.GenerationSoftware,Kicad,Pcbnew,8.0.1
; #@! TF.FileFunction,Plated,1,2,PTH
FMAT,2
INCH
; #@! TA.AperFunction,Plated,PTH,ViaDrill
T1C0.0118
; #@! TA.AperFunction,Plated,PTH,ComponentDrill
T2C0.0295
; #@! TA.AperFunction,Plated,PTH,ComponentDrill
T3C0.0315
; #@! TA.AperFunction,Plated,PTH,ComponentDrill
T4C0.0394
; #@! TA.AperFunction,Plated,PTH,ComponentDrill
T5C0.0433
; #@! TA.AperFunction,Plated,PTH,ComponentDrill
T6C0.0472
; #@! TA.AperFunction,Plated,PTH,ComponentDrill
T7C0.0512
%
G90
G05
T1
X2.4528Y-3.3878
X2.5787Y-3.5984
X2.5841Y-3.8393
X2.5841Y-3.6673
X2.7816Y-2.7113
X3.0096Y-1.8112
X3.1576Y-3.6059
X3.1752Y-3.8622
X3.3228Y-3.2165
X3.3543Y-3.2815
X3.3957Y-3.4843
X3.3957Y-3.5571
X3.4035Y-3.6752
X3.4055Y-3.7559
X3.4429Y-3.8504
X3.4626Y-2.9508
X3.4705Y-1.7303
X3.4941Y-2.315
X3.5394Y-2.6339
X3.5409Y-3.2298
X3.5413Y-2.0531
X3.5632Y-3.0699
X3.5784Y-2.6749
X3.5846Y-2.5551
X3.6043Y-2.784
X3.6544Y-3.5194
X3.7343Y-2.8937
X3.7598Y-1.5
X3.7631Y-2.9695
X3.7742Y-3.6059
X3.7894Y-2.5374
X3.8031Y-2.2579
X3.8189Y-2.8189
X3.8228Y-1.7461
X3.8304Y-3.0783
X3.8445Y-2.0394
X3.8661Y-2.8445
X3.8858Y-2.4232
X3.8892Y-2.5398
X3.9221Y-2.8557
X3.9449Y-3.4764
X4.0067Y-2.6524
X4.0333Y-2.3699
X4.0413Y-2.1988
X4.0501Y-2.6881
X4.0522Y-2.654
X4.0562Y-2.4739
X4.1004Y-1.9409
X4.1008Y-2.4826
X4.1043Y-1.4705
X4.1096Y-2.442
X4.1378Y-1.4094
X4.1507Y-2.4904
X4.1673Y-3.3031
X4.2045Y-2.7628
X4.2104Y-2.9242
X4.2185Y-2.4173
X4.2205Y-1.8799
X4.2223Y-2.7228
X4.2224Y-3.2047
X4.2913Y-3.2047
T2
X4.1594Y-1.524
X4.1594Y-1.574
X4.1594Y-1.624
X4.1594Y-1.9406
X4.1594Y-1.9906
X4.1594Y-2.0406
T3
X4.1142Y-2.7972
X4.1142Y-2.9894
T4
X2.563Y-2.6409
X2.563Y-3.4409
X2.663Y-2.6409
X2.663Y-3.4409
X2.763Y-2.6409
X2.763Y-3.4409
X2.863Y-2.6409
X2.863Y-3.4409
X2.963Y-2.6409
X2.963Y-3.4409
X3.063Y-2.6409
X3.063Y-3.4409
X3.1772Y-1.2638
X3.1772Y-1.7362
X3.1772Y-1.9094
X3.1772Y-2.3819
X4.1028Y-3.3685
X4.1028Y-3.4685
X4.1028Y-3.5685
X4.2028Y-3.3685
X4.2028Y-3.4685
X4.2028Y-3.5685
T5
X3.9665Y-1.4075
X3.9665Y-1.7075
X3.9665Y-1.8382
X3.9665Y-2.1382
T6
X2.5748Y-1.315
X2.5748Y-1.5118
X2.5748Y-1.7087
X2.5748Y-1.9055
X2.5748Y-2.1024
X2.5748Y-2.2992
X2.7717Y-1.4134
X2.7717Y-1.6102
X2.7717Y-1.8071
X2.7717Y-2.0039
X2.7717Y-2.2008
X2.7717Y-2.3976
T7
X3.1004Y-1.498
X3.1004Y-2.1437
X3.6575Y-1.7362
X3.6575Y-2.3819
X3.6594Y-1.2618
X3.6594Y-1.9075
M30
